M48
; DRILL file {KiCad (6.0.4)} date Sat Jun 11 13:57:28 2022
; FORMAT={-:-/ absolute / metric / decimal}
; #@! TF.CreationDate,2022-06-11T13:57:28+01:00
; #@! TF.GenerationSoftware,Kicad,Pcbnew,(6.0.4)
; #@! TF.FileFunction,Plated,1,4,PTH
FMAT,2
METRIC
; #@! TA.AperFunction,Plated,PTH,ViaDrill
T1C0.200
; #@! TA.AperFunction,Plated,PTH,ComponentDrill
T2C1.600
%
G90
G05
T1
X70.755Y-105.7
X76.4Y-120.425
X78.175Y-118.15
X78.4Y-109.875
X82.625Y-112.05
X82.7Y-113.0
X85.0Y-121.7
X85.975Y-118.45
X86.0Y-120.4
X86.175Y-112.975
X86.3Y-107.95
X86.45Y-116.1
X87.225Y-116.85
X87.675Y-113.875
X87.675Y-114.575
X87.75Y-115.225
X87.85Y-112.775
X88.075Y-118.15
X88.075Y-118.15
X88.501Y-110.475
X88.65Y-122.0
X88.7Y-116.425
X89.05Y-118.275
X89.2Y-118.95
X89.2Y-118.95
X89.45Y-109.25
X89.468Y-108.473
X90.675Y-104.625
X90.775Y-111.999
X91.9Y-119.625
X92.0Y-118.25
X92.175Y-112.025
X92.622Y-112.623
X92.65Y-116.75
X93.229Y-114.061
X93.25Y-110.7
X93.473Y-109.273
X93.475Y-116.35
X93.85Y-112.624
X93.875Y-108.025
X96.075Y-111.05
X96.225Y-112.149
X96.417Y-109.342
X97.0Y-109.175
X98.923Y-110.077
X99.15Y-119.75
X101.325Y-108.1
X101.65Y-110.85
X103.15Y-123.35
T2
X100.287Y-114.1
X138.287Y-114.1
T0
M30
