%TF.GenerationSoftware,KiCad,Pcbnew,(6.0.4)*%
%TF.CreationDate,2023-01-03T21:15:19+00:00*%
%TF.ProjectId,soil-moisture-sensor,736f696c-2d6d-46f6-9973-747572652d73,%%version%%*%
%TF.SameCoordinates,Original*%
%TF.FileFunction,Copper,L2,Inr*%
%TF.FilePolarity,Positive*%
%FSLAX46Y46*%
G04 Gerber Fmt 4.6, Leading zero omitted, Abs format (unit mm)*
G04 Created by KiCad (PCBNEW (6.0.4)) date 2023-01-03 21:15:19*
%MOMM*%
%LPD*%
G01*
G04 APERTURE LIST*
%TA.AperFunction,ComponentPad*%
%ADD10R,1.700000X1.700000*%
%TD*%
%TA.AperFunction,ComponentPad*%
%ADD11O,1.700000X1.700000*%
%TD*%
%TA.AperFunction,ComponentPad*%
%ADD12C,3.500000*%
%TD*%
%TA.AperFunction,ViaPad*%
%ADD13C,0.400000*%
%TD*%
%TA.AperFunction,Conductor*%
%ADD14C,0.150000*%
%TD*%
G04 APERTURE END LIST*
D10*
X115160000Y-105300000D03*
D11*
X117700000Y-105300000D03*
X120240000Y-105300000D03*
X122780000Y-105300000D03*
D12*
X138287500Y-114100000D03*
X100287500Y-114100000D03*
D13*
X93600000Y-118900000D03*
X87698672Y-114399501D03*
X81500000Y-110837000D03*
X87700000Y-113800000D03*
X82300000Y-111200000D03*
X84800000Y-122100000D03*
X103500000Y-122200000D03*
X96050000Y-116800000D03*
X81900000Y-124700000D03*
X106650000Y-107850000D03*
X92900000Y-104200000D03*
X89400000Y-122450000D03*
X85400000Y-122900000D03*
X89100000Y-120300000D03*
X74725000Y-111925000D03*
X97350000Y-109175000D03*
X85975000Y-118450000D03*
X95300000Y-119450000D03*
X89750500Y-117800000D03*
X91055027Y-118951373D03*
X86000000Y-112600000D03*
X103150000Y-123350000D03*
X89150000Y-121050000D03*
X85250000Y-107250000D03*
X68700000Y-120900000D03*
X78400000Y-109875000D03*
X99150000Y-119750000D03*
X89468437Y-108473450D03*
X93850000Y-112624000D03*
X96075000Y-111050000D03*
X96225000Y-112149500D03*
X87850000Y-112775000D03*
X87750000Y-115225000D03*
X88727713Y-118729724D03*
X92025382Y-118324500D03*
X92622224Y-112623216D03*
X93473301Y-109273301D03*
X89450000Y-109250000D03*
X92175000Y-112025000D03*
X93250000Y-110699500D03*
X90775000Y-111999500D03*
X90675000Y-104625000D03*
X88725500Y-116750000D03*
X93475000Y-116350000D03*
X101325000Y-108100000D03*
X76400000Y-120425000D03*
X88500989Y-110475000D03*
X98922691Y-110077309D03*
X96416953Y-109341953D03*
X78175000Y-118150000D03*
X88024980Y-116370667D03*
X93228604Y-114060935D03*
D14*
X86000000Y-112600000D02*
X86050000Y-112550000D01*
%TA.AperFunction,Conductor*%
G36*
X140942121Y-103220502D02*
G01*
X140988614Y-103274158D01*
X141000000Y-103326500D01*
X141000000Y-125073500D01*
X140979998Y-125141621D01*
X140926342Y-125188114D01*
X140874000Y-125199500D01*
X81126000Y-125199500D01*
X81057879Y-125179498D01*
X81011386Y-125125842D01*
X81000000Y-125073500D01*
X81000000Y-123350000D01*
X102594750Y-123350000D01*
X102613670Y-123493709D01*
X102669139Y-123627625D01*
X102757379Y-123742621D01*
X102872375Y-123830861D01*
X103006291Y-123886330D01*
X103150000Y-123905250D01*
X103293709Y-123886330D01*
X103427625Y-123830861D01*
X103542621Y-123742621D01*
X103630861Y-123627625D01*
X103686330Y-123493709D01*
X103705250Y-123350000D01*
X103686330Y-123206291D01*
X103630861Y-123072375D01*
X103542621Y-122957379D01*
X103537866Y-122953731D01*
X103504343Y-122892339D01*
X103509408Y-122821524D01*
X103551955Y-122764688D01*
X103611018Y-122740634D01*
X103616211Y-122739950D01*
X103643709Y-122736330D01*
X103777625Y-122680861D01*
X103892621Y-122592621D01*
X103980861Y-122477625D01*
X104036330Y-122343709D01*
X104055250Y-122200000D01*
X104036330Y-122056291D01*
X103980861Y-121922375D01*
X103892621Y-121807379D01*
X103777625Y-121719139D01*
X103643709Y-121663670D01*
X103500000Y-121644750D01*
X103356291Y-121663670D01*
X103222375Y-121719139D01*
X103107379Y-121807379D01*
X103019139Y-121922375D01*
X102963670Y-122056291D01*
X102944750Y-122200000D01*
X102963670Y-122343709D01*
X103019139Y-122477625D01*
X103107379Y-122592621D01*
X103112134Y-122596269D01*
X103145657Y-122657661D01*
X103140592Y-122728476D01*
X103098045Y-122785312D01*
X103038982Y-122809366D01*
X103033789Y-122810050D01*
X103006291Y-122813670D01*
X102872375Y-122869139D01*
X102757379Y-122957379D01*
X102669139Y-123072375D01*
X102613670Y-123206291D01*
X102594750Y-123350000D01*
X81000000Y-123350000D01*
X81000000Y-122100000D01*
X84244750Y-122100000D01*
X84263670Y-122243709D01*
X84319139Y-122377625D01*
X84407379Y-122492621D01*
X84522375Y-122580861D01*
X84656291Y-122636330D01*
X84800000Y-122655250D01*
X84943709Y-122636330D01*
X85077625Y-122580861D01*
X85192621Y-122492621D01*
X85280861Y-122377625D01*
X85336330Y-122243709D01*
X85355250Y-122100000D01*
X85336330Y-121956291D01*
X85280861Y-121822375D01*
X85192621Y-121707379D01*
X85077625Y-121619139D01*
X84943709Y-121563670D01*
X84800000Y-121544750D01*
X84656291Y-121563670D01*
X84522375Y-121619139D01*
X84407379Y-121707379D01*
X84319139Y-121822375D01*
X84263670Y-121956291D01*
X84244750Y-122100000D01*
X81000000Y-122100000D01*
X81000000Y-121050000D01*
X88594750Y-121050000D01*
X88613670Y-121193709D01*
X88669139Y-121327625D01*
X88757379Y-121442621D01*
X88872375Y-121530861D01*
X89006291Y-121586330D01*
X89150000Y-121605250D01*
X89293709Y-121586330D01*
X89427625Y-121530861D01*
X89542621Y-121442621D01*
X89630861Y-121327625D01*
X89686330Y-121193709D01*
X89705250Y-121050000D01*
X89686330Y-120906291D01*
X89630861Y-120772375D01*
X89542621Y-120657379D01*
X89427625Y-120569139D01*
X89293709Y-120513670D01*
X89150000Y-120494750D01*
X89006291Y-120513670D01*
X88872375Y-120569139D01*
X88757379Y-120657379D01*
X88669139Y-120772375D01*
X88613670Y-120906291D01*
X88594750Y-121050000D01*
X81000000Y-121050000D01*
X81000000Y-119750000D01*
X98594750Y-119750000D01*
X98613670Y-119893709D01*
X98669139Y-120027625D01*
X98757379Y-120142621D01*
X98872375Y-120230861D01*
X99006291Y-120286330D01*
X99150000Y-120305250D01*
X99293709Y-120286330D01*
X99427625Y-120230861D01*
X99542621Y-120142621D01*
X99630861Y-120027625D01*
X99686330Y-119893709D01*
X99705250Y-119750000D01*
X99686330Y-119606291D01*
X99630861Y-119472375D01*
X99542621Y-119357379D01*
X99427625Y-119269139D01*
X99293709Y-119213670D01*
X99150000Y-119194750D01*
X99006291Y-119213670D01*
X98872375Y-119269139D01*
X98757379Y-119357379D01*
X98669139Y-119472375D01*
X98613670Y-119606291D01*
X98594750Y-119750000D01*
X81000000Y-119750000D01*
X81000000Y-118729724D01*
X88172463Y-118729724D01*
X88191383Y-118873433D01*
X88246852Y-119007349D01*
X88335092Y-119122345D01*
X88450088Y-119210585D01*
X88584004Y-119266054D01*
X88727713Y-119284974D01*
X88871422Y-119266054D01*
X89005338Y-119210585D01*
X89120334Y-119122345D01*
X89208574Y-119007349D01*
X89253039Y-118900000D01*
X93044750Y-118900000D01*
X93063670Y-119043709D01*
X93119139Y-119177625D01*
X93207379Y-119292621D01*
X93322375Y-119380861D01*
X93456291Y-119436330D01*
X93600000Y-119455250D01*
X93743709Y-119436330D01*
X93877625Y-119380861D01*
X93992621Y-119292621D01*
X94080861Y-119177625D01*
X94136330Y-119043709D01*
X94155250Y-118900000D01*
X94136330Y-118756291D01*
X94080861Y-118622375D01*
X93992621Y-118507379D01*
X93877625Y-118419139D01*
X93743709Y-118363670D01*
X93600000Y-118344750D01*
X93456291Y-118363670D01*
X93322375Y-118419139D01*
X93207379Y-118507379D01*
X93119139Y-118622375D01*
X93063670Y-118756291D01*
X93044750Y-118900000D01*
X89253039Y-118900000D01*
X89264043Y-118873433D01*
X89282963Y-118729724D01*
X89264043Y-118586015D01*
X89208574Y-118452099D01*
X89120334Y-118337103D01*
X89103910Y-118324500D01*
X91470132Y-118324500D01*
X91489052Y-118468209D01*
X91544521Y-118602125D01*
X91632761Y-118717121D01*
X91747757Y-118805361D01*
X91881673Y-118860830D01*
X92025382Y-118879750D01*
X92169091Y-118860830D01*
X92303007Y-118805361D01*
X92418003Y-118717121D01*
X92506243Y-118602125D01*
X92561712Y-118468209D01*
X92580632Y-118324500D01*
X92561712Y-118180791D01*
X92506243Y-118046875D01*
X92418003Y-117931879D01*
X92303007Y-117843639D01*
X92169091Y-117788170D01*
X92025382Y-117769250D01*
X91881673Y-117788170D01*
X91747757Y-117843639D01*
X91632761Y-117931879D01*
X91544521Y-118046875D01*
X91489052Y-118180791D01*
X91470132Y-118324500D01*
X89103910Y-118324500D01*
X89005338Y-118248863D01*
X88871422Y-118193394D01*
X88727713Y-118174474D01*
X88584004Y-118193394D01*
X88450088Y-118248863D01*
X88335092Y-118337103D01*
X88246852Y-118452099D01*
X88191383Y-118586015D01*
X88172463Y-118729724D01*
X81000000Y-118729724D01*
X81000000Y-114399501D01*
X87143422Y-114399501D01*
X87162342Y-114543210D01*
X87217811Y-114677126D01*
X87222838Y-114683677D01*
X87222839Y-114683679D01*
X87288303Y-114768992D01*
X87313904Y-114835212D01*
X87299640Y-114904761D01*
X87288309Y-114922393D01*
X87269139Y-114947375D01*
X87213670Y-115081291D01*
X87194750Y-115225000D01*
X87213670Y-115368709D01*
X87269139Y-115502625D01*
X87357379Y-115617621D01*
X87472375Y-115705861D01*
X87546252Y-115736461D01*
X87605013Y-115760801D01*
X87660294Y-115805349D01*
X87682715Y-115872712D01*
X87665157Y-115941504D01*
X87643483Y-115965912D01*
X87644750Y-115967179D01*
X87638909Y-115973020D01*
X87632359Y-115978046D01*
X87544119Y-116093042D01*
X87488650Y-116226958D01*
X87469730Y-116370667D01*
X87488650Y-116514376D01*
X87544119Y-116648292D01*
X87632359Y-116763288D01*
X87747355Y-116851528D01*
X87881271Y-116906997D01*
X88024980Y-116925917D01*
X88033168Y-116924839D01*
X88033169Y-116924839D01*
X88097474Y-116916373D01*
X88167622Y-116927312D01*
X88220721Y-116974440D01*
X88230327Y-116993072D01*
X88244639Y-117027625D01*
X88332879Y-117142621D01*
X88447875Y-117230861D01*
X88581791Y-117286330D01*
X88725500Y-117305250D01*
X88869209Y-117286330D01*
X89003125Y-117230861D01*
X89118121Y-117142621D01*
X89206361Y-117027625D01*
X89261830Y-116893709D01*
X89280750Y-116750000D01*
X89261830Y-116606291D01*
X89206361Y-116472375D01*
X89118121Y-116357379D01*
X89108505Y-116350000D01*
X92919750Y-116350000D01*
X92938670Y-116493709D01*
X92994139Y-116627625D01*
X93082379Y-116742621D01*
X93197375Y-116830861D01*
X93331291Y-116886330D01*
X93475000Y-116905250D01*
X93618709Y-116886330D01*
X93752625Y-116830861D01*
X93867621Y-116742621D01*
X93955861Y-116627625D01*
X94011330Y-116493709D01*
X94030250Y-116350000D01*
X94011330Y-116206291D01*
X93955861Y-116072375D01*
X93867621Y-115957379D01*
X93752625Y-115869139D01*
X93618709Y-115813670D01*
X93475000Y-115794750D01*
X93331291Y-115813670D01*
X93197375Y-115869139D01*
X93082379Y-115957379D01*
X92994139Y-116072375D01*
X92938670Y-116206291D01*
X92919750Y-116350000D01*
X89108505Y-116350000D01*
X89003125Y-116269139D01*
X88869209Y-116213670D01*
X88725500Y-116194750D01*
X88717312Y-116195828D01*
X88717311Y-116195828D01*
X88653006Y-116204294D01*
X88582858Y-116193355D01*
X88529759Y-116146227D01*
X88520151Y-116127591D01*
X88505841Y-116093042D01*
X88491676Y-116074581D01*
X88422627Y-115984596D01*
X88417601Y-115978046D01*
X88302605Y-115889806D01*
X88218804Y-115855095D01*
X88169967Y-115834866D01*
X88114686Y-115790318D01*
X88092265Y-115722955D01*
X88109823Y-115654163D01*
X88131497Y-115629755D01*
X88130230Y-115628488D01*
X88136071Y-115622647D01*
X88142621Y-115617621D01*
X88230861Y-115502625D01*
X88286330Y-115368709D01*
X88305250Y-115225000D01*
X88286330Y-115081291D01*
X88230861Y-114947375D01*
X88160369Y-114855508D01*
X88134768Y-114789289D01*
X88149032Y-114719740D01*
X88160363Y-114702108D01*
X88179533Y-114677126D01*
X88235002Y-114543210D01*
X88253922Y-114399501D01*
X88235002Y-114255792D01*
X88210424Y-114196455D01*
X88191005Y-114149571D01*
X88183416Y-114078982D01*
X88188715Y-114060935D01*
X92673354Y-114060935D01*
X92692274Y-114204644D01*
X92747743Y-114338560D01*
X92835983Y-114453556D01*
X92950979Y-114541796D01*
X93084895Y-114597265D01*
X93228604Y-114616185D01*
X93372313Y-114597265D01*
X93506229Y-114541796D01*
X93621225Y-114453556D01*
X93709465Y-114338560D01*
X93764934Y-114204644D01*
X93781613Y-114077953D01*
X98182207Y-114077953D01*
X98198694Y-114363878D01*
X98199519Y-114368083D01*
X98199520Y-114368091D01*
X98231353Y-114530342D01*
X98253832Y-114644920D01*
X98255219Y-114648970D01*
X98255220Y-114648975D01*
X98345213Y-114911822D01*
X98346602Y-114915878D01*
X98475287Y-115171740D01*
X98477713Y-115175269D01*
X98477716Y-115175275D01*
X98605032Y-115360520D01*
X98637506Y-115407770D01*
X98640393Y-115410943D01*
X98640394Y-115410944D01*
X98716875Y-115494996D01*
X98830256Y-115619600D01*
X99049972Y-115803311D01*
X99292588Y-115955503D01*
X99296490Y-115957265D01*
X99296494Y-115957267D01*
X99549702Y-116071595D01*
X99549706Y-116071597D01*
X99553614Y-116073361D01*
X99597933Y-116086489D01*
X99824106Y-116153485D01*
X99824111Y-116153486D01*
X99828219Y-116154703D01*
X99832453Y-116155351D01*
X99832458Y-116155352D01*
X100071447Y-116191922D01*
X100111324Y-116198024D01*
X100257089Y-116200314D01*
X100393398Y-116202456D01*
X100393404Y-116202456D01*
X100397689Y-116202523D01*
X100401941Y-116202008D01*
X100401949Y-116202008D01*
X100621721Y-116175411D01*
X100682014Y-116168115D01*
X100686162Y-116167027D01*
X100686166Y-116167026D01*
X100954888Y-116096528D01*
X100959039Y-116095439D01*
X100963000Y-116093799D01*
X100963004Y-116093797D01*
X101105870Y-116034620D01*
X101223638Y-115985839D01*
X101236975Y-115978046D01*
X101423831Y-115868856D01*
X136884101Y-115868856D01*
X136890559Y-115878216D01*
X136906861Y-115892512D01*
X136913401Y-115897530D01*
X137152644Y-116057387D01*
X137159781Y-116061508D01*
X137417849Y-116188772D01*
X137425453Y-116191922D01*
X137697920Y-116284412D01*
X137705883Y-116286546D01*
X137988100Y-116342683D01*
X137996251Y-116343756D01*
X138283381Y-116362575D01*
X138291619Y-116362575D01*
X138578749Y-116343756D01*
X138586900Y-116342683D01*
X138869117Y-116286546D01*
X138877080Y-116284412D01*
X139149547Y-116191922D01*
X139157151Y-116188772D01*
X139415219Y-116061508D01*
X139422356Y-116057387D01*
X139661599Y-115897530D01*
X139668139Y-115892512D01*
X139682574Y-115879853D01*
X139690972Y-115866614D01*
X139685138Y-115856849D01*
X138300310Y-114472020D01*
X138286369Y-114464408D01*
X138284534Y-114464539D01*
X138277920Y-114468790D01*
X136891616Y-115855095D01*
X136884101Y-115868856D01*
X101423831Y-115868856D01*
X101467217Y-115843503D01*
X101467218Y-115843503D01*
X101470915Y-115841342D01*
X101548829Y-115780250D01*
X101692921Y-115667267D01*
X101696293Y-115664623D01*
X101706430Y-115654163D01*
X101874586Y-115480639D01*
X101895602Y-115458952D01*
X101898135Y-115455504D01*
X101898139Y-115455499D01*
X102062617Y-115231589D01*
X102065155Y-115228134D01*
X102093855Y-115175275D01*
X102199763Y-114980217D01*
X102199764Y-114980215D01*
X102201813Y-114976441D01*
X102303048Y-114708530D01*
X102339164Y-114550841D01*
X102366030Y-114433538D01*
X102366031Y-114433533D01*
X102366987Y-114429358D01*
X102392446Y-114144092D01*
X102392865Y-114104119D01*
X136024925Y-114104119D01*
X136043744Y-114391249D01*
X136044817Y-114399400D01*
X136100954Y-114681617D01*
X136103088Y-114689580D01*
X136195578Y-114962047D01*
X136198728Y-114969651D01*
X136325992Y-115227718D01*
X136330113Y-115234855D01*
X136489970Y-115474099D01*
X136494988Y-115480639D01*
X136507647Y-115495074D01*
X136520886Y-115503472D01*
X136530651Y-115497638D01*
X137915480Y-114112810D01*
X137921857Y-114101131D01*
X138651908Y-114101131D01*
X138652039Y-114102966D01*
X138656290Y-114109580D01*
X140042595Y-115495884D01*
X140056356Y-115503399D01*
X140065716Y-115496941D01*
X140080012Y-115480639D01*
X140085030Y-115474099D01*
X140244887Y-115234855D01*
X140249008Y-115227718D01*
X140376272Y-114969651D01*
X140379422Y-114962047D01*
X140471912Y-114689580D01*
X140474046Y-114681617D01*
X140530183Y-114399400D01*
X140531256Y-114391249D01*
X140550075Y-114104119D01*
X140550075Y-114095881D01*
X140531256Y-113808751D01*
X140530183Y-113800600D01*
X140474046Y-113518383D01*
X140471912Y-113510420D01*
X140379422Y-113237953D01*
X140376272Y-113230349D01*
X140249008Y-112972282D01*
X140244887Y-112965145D01*
X140085030Y-112725901D01*
X140080012Y-112719361D01*
X140067353Y-112704926D01*
X140054114Y-112696528D01*
X140044349Y-112702362D01*
X138659520Y-114087190D01*
X138651908Y-114101131D01*
X137921857Y-114101131D01*
X137923092Y-114098869D01*
X137922961Y-114097034D01*
X137918710Y-114090420D01*
X136532405Y-112704116D01*
X136518644Y-112696601D01*
X136509284Y-112703059D01*
X136494988Y-112719361D01*
X136489970Y-112725901D01*
X136330113Y-112965145D01*
X136325992Y-112972282D01*
X136198728Y-113230349D01*
X136195578Y-113237953D01*
X136103088Y-113510420D01*
X136100954Y-113518383D01*
X136044817Y-113800600D01*
X136043744Y-113808751D01*
X136024925Y-114095881D01*
X136024925Y-114104119D01*
X102392865Y-114104119D01*
X102392908Y-114100000D01*
X102389687Y-114052747D01*
X102373720Y-113818540D01*
X102373719Y-113818534D01*
X102373428Y-113814263D01*
X102315350Y-113533814D01*
X102219748Y-113263842D01*
X102088391Y-113009342D01*
X102085928Y-113005837D01*
X101926173Y-112778529D01*
X101926168Y-112778523D01*
X101923709Y-112775024D01*
X101797754Y-112639480D01*
X101731672Y-112568367D01*
X101731669Y-112568364D01*
X101728751Y-112565224D01*
X101725435Y-112562510D01*
X101725432Y-112562507D01*
X101568034Y-112433678D01*
X101507123Y-112383823D01*
X101424817Y-112333386D01*
X136884028Y-112333386D01*
X136889862Y-112343151D01*
X138274690Y-113727980D01*
X138288631Y-113735592D01*
X138290466Y-113735461D01*
X138297080Y-113731210D01*
X139683384Y-112344905D01*
X139690899Y-112331144D01*
X139684441Y-112321784D01*
X139668139Y-112307488D01*
X139661599Y-112302470D01*
X139422356Y-112142613D01*
X139415219Y-112138492D01*
X139157151Y-112011228D01*
X139149547Y-112008078D01*
X138877080Y-111915588D01*
X138869117Y-111913454D01*
X138586900Y-111857317D01*
X138578749Y-111856244D01*
X138291619Y-111837425D01*
X138283381Y-111837425D01*
X137996251Y-111856244D01*
X137988100Y-111857317D01*
X137705883Y-111913454D01*
X137697920Y-111915588D01*
X137425453Y-112008078D01*
X137417849Y-112011228D01*
X137159782Y-112138492D01*
X137152645Y-112142613D01*
X136913401Y-112302470D01*
X136906861Y-112307488D01*
X136892426Y-112320147D01*
X136884028Y-112333386D01*
X101424817Y-112333386D01*
X101268495Y-112237592D01*
X101266589Y-112236424D01*
X101266588Y-112236424D01*
X101262927Y-112234180D01*
X101258991Y-112232452D01*
X101004610Y-112120786D01*
X101004606Y-112120785D01*
X101000682Y-112119062D01*
X100725239Y-112040600D01*
X100496727Y-112008078D01*
X100445948Y-112000851D01*
X100445946Y-112000851D01*
X100441696Y-112000246D01*
X100289833Y-111999451D01*
X100159586Y-111998769D01*
X100159580Y-111998769D01*
X100155300Y-111998747D01*
X100151056Y-111999306D01*
X100151052Y-111999306D01*
X100039592Y-112013980D01*
X99871351Y-112036129D01*
X99867211Y-112037262D01*
X99867209Y-112037262D01*
X99850709Y-112041776D01*
X99595102Y-112111702D01*
X99591154Y-112113386D01*
X99335617Y-112222382D01*
X99335613Y-112222384D01*
X99331665Y-112224068D01*
X99085915Y-112371146D01*
X99082564Y-112373830D01*
X99082562Y-112373832D01*
X98992173Y-112446247D01*
X98862400Y-112550215D01*
X98665255Y-112757962D01*
X98498129Y-112990543D01*
X98364114Y-113243653D01*
X98265690Y-113512610D01*
X98204678Y-113792436D01*
X98182207Y-114077953D01*
X93781613Y-114077953D01*
X93783854Y-114060935D01*
X93764934Y-113917226D01*
X93709465Y-113783310D01*
X93621225Y-113668314D01*
X93506229Y-113580074D01*
X93372313Y-113524605D01*
X93228604Y-113505685D01*
X93084895Y-113524605D01*
X92950979Y-113580074D01*
X92835983Y-113668314D01*
X92747743Y-113783310D01*
X92692274Y-113917226D01*
X92673354Y-114060935D01*
X88188715Y-114060935D01*
X88191005Y-114053137D01*
X88233168Y-113951343D01*
X88236330Y-113943709D01*
X88255250Y-113800000D01*
X88236330Y-113656291D01*
X88180861Y-113522375D01*
X88109119Y-113428879D01*
X88083519Y-113362659D01*
X88097784Y-113293111D01*
X88132378Y-113252214D01*
X88236071Y-113172647D01*
X88242621Y-113167621D01*
X88330861Y-113052625D01*
X88386330Y-112918709D01*
X88405250Y-112775000D01*
X88386330Y-112631291D01*
X88330861Y-112497375D01*
X88242621Y-112382379D01*
X88127625Y-112294139D01*
X87993709Y-112238670D01*
X87850000Y-112219750D01*
X87706291Y-112238670D01*
X87572375Y-112294139D01*
X87457379Y-112382379D01*
X87369139Y-112497375D01*
X87313670Y-112631291D01*
X87294750Y-112775000D01*
X87313670Y-112918709D01*
X87369139Y-113052625D01*
X87440881Y-113146120D01*
X87466481Y-113212341D01*
X87452216Y-113281889D01*
X87417622Y-113322786D01*
X87307379Y-113407379D01*
X87219139Y-113522375D01*
X87163670Y-113656291D01*
X87144750Y-113800000D01*
X87163670Y-113943709D01*
X87166832Y-113951343D01*
X87207667Y-114049930D01*
X87215256Y-114120519D01*
X87207667Y-114146364D01*
X87180367Y-114212275D01*
X87162342Y-114255792D01*
X87143422Y-114399501D01*
X81000000Y-114399501D01*
X81000000Y-111999500D01*
X90219750Y-111999500D01*
X90238670Y-112143209D01*
X90294139Y-112277125D01*
X90382379Y-112392121D01*
X90497375Y-112480361D01*
X90631291Y-112535830D01*
X90775000Y-112554750D01*
X90918709Y-112535830D01*
X91052625Y-112480361D01*
X91167621Y-112392121D01*
X91255861Y-112277125D01*
X91311330Y-112143209D01*
X91326893Y-112025000D01*
X91619750Y-112025000D01*
X91638670Y-112168709D01*
X91694139Y-112302625D01*
X91782379Y-112417621D01*
X91897375Y-112505861D01*
X91962096Y-112532669D01*
X91993206Y-112545555D01*
X92048487Y-112590103D01*
X92069910Y-112645517D01*
X92085894Y-112766925D01*
X92141363Y-112900841D01*
X92229603Y-113015837D01*
X92344599Y-113104077D01*
X92478515Y-113159546D01*
X92622224Y-113178466D01*
X92765933Y-113159546D01*
X92899849Y-113104077D01*
X93014845Y-113015837D01*
X93103085Y-112900841D01*
X93113192Y-112876439D01*
X93119541Y-112861113D01*
X93164090Y-112805832D01*
X93231453Y-112783411D01*
X93300244Y-112800969D01*
X93348623Y-112852932D01*
X93352359Y-112861113D01*
X93369139Y-112901625D01*
X93457379Y-113016621D01*
X93572375Y-113104861D01*
X93706291Y-113160330D01*
X93850000Y-113179250D01*
X93993709Y-113160330D01*
X94127625Y-113104861D01*
X94242621Y-113016621D01*
X94330861Y-112901625D01*
X94386330Y-112767709D01*
X94405250Y-112624000D01*
X94386330Y-112480291D01*
X94330861Y-112346375D01*
X94242621Y-112231379D01*
X94127625Y-112143139D01*
X93993709Y-112087670D01*
X93850000Y-112068750D01*
X93706291Y-112087670D01*
X93572375Y-112143139D01*
X93457379Y-112231379D01*
X93369139Y-112346375D01*
X93365979Y-112354005D01*
X93352683Y-112386103D01*
X93308134Y-112441384D01*
X93240771Y-112463805D01*
X93171980Y-112446247D01*
X93123601Y-112394284D01*
X93119865Y-112386102D01*
X93106246Y-112353223D01*
X93103085Y-112345591D01*
X93014845Y-112230595D01*
X92899849Y-112142355D01*
X92804018Y-112102661D01*
X92748737Y-112058113D01*
X92727314Y-112002699D01*
X92712408Y-111889480D01*
X92711330Y-111881291D01*
X92655861Y-111747375D01*
X92567621Y-111632379D01*
X92452625Y-111544139D01*
X92318709Y-111488670D01*
X92175000Y-111469750D01*
X92031291Y-111488670D01*
X91897375Y-111544139D01*
X91782379Y-111632379D01*
X91694139Y-111747375D01*
X91638670Y-111881291D01*
X91619750Y-112025000D01*
X91326893Y-112025000D01*
X91330250Y-111999500D01*
X91311330Y-111855791D01*
X91255861Y-111721875D01*
X91167621Y-111606879D01*
X91052625Y-111518639D01*
X90918709Y-111463170D01*
X90775000Y-111444250D01*
X90631291Y-111463170D01*
X90497375Y-111518639D01*
X90382379Y-111606879D01*
X90294139Y-111721875D01*
X90238670Y-111855791D01*
X90219750Y-111999500D01*
X81000000Y-111999500D01*
X81000000Y-111402729D01*
X81020002Y-111334608D01*
X81073658Y-111288115D01*
X81143932Y-111278011D01*
X81202702Y-111302765D01*
X81222375Y-111317861D01*
X81356291Y-111373330D01*
X81500000Y-111392250D01*
X81508188Y-111391172D01*
X81635525Y-111374408D01*
X81635529Y-111374407D01*
X81643709Y-111373330D01*
X81651336Y-111370171D01*
X81655578Y-111369034D01*
X81726554Y-111370723D01*
X81785350Y-111410516D01*
X81804599Y-111442522D01*
X81819139Y-111477625D01*
X81907379Y-111592621D01*
X82022375Y-111680861D01*
X82156291Y-111736330D01*
X82300000Y-111755250D01*
X82443709Y-111736330D01*
X82577625Y-111680861D01*
X82692621Y-111592621D01*
X82780861Y-111477625D01*
X82836330Y-111343709D01*
X82855250Y-111200000D01*
X82836330Y-111056291D01*
X82780861Y-110922375D01*
X82692621Y-110807379D01*
X82577625Y-110719139D01*
X82443709Y-110663670D01*
X82300000Y-110644750D01*
X82291812Y-110645828D01*
X82164475Y-110662592D01*
X82164471Y-110662593D01*
X82156291Y-110663670D01*
X82148664Y-110666829D01*
X82144422Y-110667966D01*
X82073446Y-110666277D01*
X82014650Y-110626484D01*
X81995401Y-110594478D01*
X81984021Y-110567005D01*
X81980861Y-110559375D01*
X81916117Y-110475000D01*
X87945739Y-110475000D01*
X87964659Y-110618709D01*
X88020128Y-110752625D01*
X88108368Y-110867621D01*
X88223364Y-110955861D01*
X88357280Y-111011330D01*
X88500989Y-111030250D01*
X88644698Y-111011330D01*
X88778614Y-110955861D01*
X88893610Y-110867621D01*
X88981850Y-110752625D01*
X89003855Y-110699500D01*
X92694750Y-110699500D01*
X92713670Y-110843209D01*
X92769139Y-110977125D01*
X92857379Y-111092121D01*
X92972375Y-111180361D01*
X93106291Y-111235830D01*
X93250000Y-111254750D01*
X93393709Y-111235830D01*
X93527625Y-111180361D01*
X93642621Y-111092121D01*
X93674942Y-111050000D01*
X95519750Y-111050000D01*
X95538670Y-111193709D01*
X95594139Y-111327625D01*
X95682379Y-111442621D01*
X95797375Y-111530861D01*
X95809770Y-111535995D01*
X95865052Y-111580541D01*
X95887475Y-111647904D01*
X95869919Y-111716696D01*
X95844309Y-111745551D01*
X95844770Y-111746012D01*
X95838929Y-111751853D01*
X95832379Y-111756879D01*
X95744139Y-111871875D01*
X95688670Y-112005791D01*
X95669750Y-112149500D01*
X95688670Y-112293209D01*
X95744139Y-112427125D01*
X95832379Y-112542121D01*
X95947375Y-112630361D01*
X96081291Y-112685830D01*
X96225000Y-112704750D01*
X96368709Y-112685830D01*
X96502625Y-112630361D01*
X96617621Y-112542121D01*
X96705861Y-112427125D01*
X96761330Y-112293209D01*
X96780250Y-112149500D01*
X96761330Y-112005791D01*
X96705861Y-111871875D01*
X96617621Y-111756879D01*
X96502625Y-111668639D01*
X96490230Y-111663505D01*
X96434948Y-111618959D01*
X96412525Y-111551596D01*
X96430081Y-111482804D01*
X96455691Y-111453949D01*
X96455230Y-111453488D01*
X96461071Y-111447647D01*
X96467621Y-111442621D01*
X96555861Y-111327625D01*
X96611330Y-111193709D01*
X96630250Y-111050000D01*
X96611330Y-110906291D01*
X96555861Y-110772375D01*
X96467621Y-110657379D01*
X96352625Y-110569139D01*
X96218709Y-110513670D01*
X96075000Y-110494750D01*
X95931291Y-110513670D01*
X95797375Y-110569139D01*
X95682379Y-110657379D01*
X95594139Y-110772375D01*
X95538670Y-110906291D01*
X95519750Y-111050000D01*
X93674942Y-111050000D01*
X93730861Y-110977125D01*
X93786330Y-110843209D01*
X93805250Y-110699500D01*
X93786330Y-110555791D01*
X93730861Y-110421875D01*
X93642621Y-110306879D01*
X93527625Y-110218639D01*
X93393709Y-110163170D01*
X93250000Y-110144250D01*
X93106291Y-110163170D01*
X92972375Y-110218639D01*
X92857379Y-110306879D01*
X92769139Y-110421875D01*
X92713670Y-110555791D01*
X92694750Y-110699500D01*
X89003855Y-110699500D01*
X89037319Y-110618709D01*
X89056239Y-110475000D01*
X89037319Y-110331291D01*
X88981850Y-110197375D01*
X88893610Y-110082379D01*
X88887003Y-110077309D01*
X98367441Y-110077309D01*
X98386361Y-110221018D01*
X98441830Y-110354934D01*
X98530070Y-110469930D01*
X98645066Y-110558170D01*
X98778982Y-110613639D01*
X98922691Y-110632559D01*
X99066400Y-110613639D01*
X99200316Y-110558170D01*
X99315312Y-110469930D01*
X99403552Y-110354934D01*
X99459021Y-110221018D01*
X99477941Y-110077309D01*
X99459021Y-109933600D01*
X99403552Y-109799684D01*
X99315312Y-109684688D01*
X99200316Y-109596448D01*
X99066400Y-109540979D01*
X98922691Y-109522059D01*
X98778982Y-109540979D01*
X98645066Y-109596448D01*
X98530070Y-109684688D01*
X98441830Y-109799684D01*
X98386361Y-109933600D01*
X98367441Y-110077309D01*
X88887003Y-110077309D01*
X88778614Y-109994139D01*
X88644698Y-109938670D01*
X88500989Y-109919750D01*
X88357280Y-109938670D01*
X88223364Y-109994139D01*
X88108368Y-110082379D01*
X88020128Y-110197375D01*
X87964659Y-110331291D01*
X87945739Y-110475000D01*
X81916117Y-110475000D01*
X81892621Y-110444379D01*
X81777625Y-110356139D01*
X81643709Y-110300670D01*
X81500000Y-110281750D01*
X81356291Y-110300670D01*
X81222375Y-110356139D01*
X81202702Y-110371235D01*
X81136483Y-110396834D01*
X81066935Y-110382569D01*
X81016139Y-110332968D01*
X81000000Y-110271271D01*
X81000000Y-109250000D01*
X88894750Y-109250000D01*
X88913670Y-109393709D01*
X88969139Y-109527625D01*
X89057379Y-109642621D01*
X89172375Y-109730861D01*
X89306291Y-109786330D01*
X89450000Y-109805250D01*
X89593709Y-109786330D01*
X89727625Y-109730861D01*
X89842621Y-109642621D01*
X89930861Y-109527625D01*
X89986330Y-109393709D01*
X90002182Y-109273301D01*
X92918051Y-109273301D01*
X92936971Y-109417010D01*
X92992440Y-109550926D01*
X93080680Y-109665922D01*
X93195676Y-109754162D01*
X93329592Y-109809631D01*
X93473301Y-109828551D01*
X93617010Y-109809631D01*
X93750926Y-109754162D01*
X93865922Y-109665922D01*
X93954162Y-109550926D01*
X94009631Y-109417010D01*
X94019513Y-109341953D01*
X95861703Y-109341953D01*
X95880623Y-109485662D01*
X95936092Y-109619578D01*
X96024332Y-109734574D01*
X96139328Y-109822814D01*
X96273244Y-109878283D01*
X96416953Y-109897203D01*
X96560662Y-109878283D01*
X96694578Y-109822814D01*
X96809574Y-109734574D01*
X96897814Y-109619578D01*
X96953283Y-109485662D01*
X96972203Y-109341953D01*
X96953283Y-109198244D01*
X96897814Y-109064328D01*
X96809574Y-108949332D01*
X96694578Y-108861092D01*
X96560662Y-108805623D01*
X96416953Y-108786703D01*
X96273244Y-108805623D01*
X96139328Y-108861092D01*
X96024332Y-108949332D01*
X95936092Y-109064328D01*
X95880623Y-109198244D01*
X95861703Y-109341953D01*
X94019513Y-109341953D01*
X94028551Y-109273301D01*
X94009631Y-109129592D01*
X93954162Y-108995676D01*
X93865922Y-108880680D01*
X93750926Y-108792440D01*
X93617010Y-108736971D01*
X93473301Y-108718051D01*
X93329592Y-108736971D01*
X93195676Y-108792440D01*
X93080680Y-108880680D01*
X92992440Y-108995676D01*
X92936971Y-109129592D01*
X92918051Y-109273301D01*
X90002182Y-109273301D01*
X90005250Y-109250000D01*
X89986330Y-109106291D01*
X89930861Y-108972375D01*
X89925836Y-108965826D01*
X89925834Y-108965823D01*
X89914032Y-108950443D01*
X89888431Y-108884222D01*
X89902695Y-108814674D01*
X89914027Y-108797041D01*
X89949298Y-108751075D01*
X90004767Y-108617159D01*
X90023687Y-108473450D01*
X90004767Y-108329741D01*
X89949298Y-108195825D01*
X89875769Y-108100000D01*
X100769750Y-108100000D01*
X100788670Y-108243709D01*
X100844139Y-108377625D01*
X100932379Y-108492621D01*
X101047375Y-108580861D01*
X101181291Y-108636330D01*
X101325000Y-108655250D01*
X101468709Y-108636330D01*
X101602625Y-108580861D01*
X101717621Y-108492621D01*
X101805861Y-108377625D01*
X101861330Y-108243709D01*
X101880250Y-108100000D01*
X101861330Y-107956291D01*
X101805861Y-107822375D01*
X101717621Y-107707379D01*
X101602625Y-107619139D01*
X101468709Y-107563670D01*
X101325000Y-107544750D01*
X101181291Y-107563670D01*
X101047375Y-107619139D01*
X100932379Y-107707379D01*
X100844139Y-107822375D01*
X100788670Y-107956291D01*
X100769750Y-108100000D01*
X89875769Y-108100000D01*
X89861058Y-108080829D01*
X89746062Y-107992589D01*
X89612146Y-107937120D01*
X89468437Y-107918200D01*
X89324728Y-107937120D01*
X89190812Y-107992589D01*
X89075816Y-108080829D01*
X88987576Y-108195825D01*
X88932107Y-108329741D01*
X88913187Y-108473450D01*
X88932107Y-108617159D01*
X88987576Y-108751075D01*
X88992601Y-108757624D01*
X88992603Y-108757627D01*
X89004405Y-108773007D01*
X89030006Y-108839228D01*
X89015742Y-108908776D01*
X89004410Y-108926409D01*
X88969139Y-108972375D01*
X88913670Y-109106291D01*
X88894750Y-109250000D01*
X81000000Y-109250000D01*
X81000000Y-107250000D01*
X84694750Y-107250000D01*
X84713670Y-107393709D01*
X84769139Y-107527625D01*
X84857379Y-107642621D01*
X84972375Y-107730861D01*
X85106291Y-107786330D01*
X85250000Y-107805250D01*
X85393709Y-107786330D01*
X85527625Y-107730861D01*
X85642621Y-107642621D01*
X85730861Y-107527625D01*
X85786330Y-107393709D01*
X85805250Y-107250000D01*
X85786330Y-107106291D01*
X85730861Y-106972375D01*
X85642621Y-106857379D01*
X85527625Y-106769139D01*
X85393709Y-106713670D01*
X85250000Y-106694750D01*
X85106291Y-106713670D01*
X84972375Y-106769139D01*
X84857379Y-106857379D01*
X84769139Y-106972375D01*
X84713670Y-107106291D01*
X84694750Y-107250000D01*
X81000000Y-107250000D01*
X81000000Y-106183218D01*
X113959500Y-106183218D01*
X113960170Y-106187768D01*
X113960170Y-106187771D01*
X113968216Y-106242426D01*
X113969642Y-106252112D01*
X114021068Y-106356855D01*
X114103650Y-106439293D01*
X114113006Y-106443866D01*
X114113007Y-106443867D01*
X114145460Y-106459730D01*
X114208482Y-106490536D01*
X114232597Y-106494054D01*
X114272256Y-106499840D01*
X114272260Y-106499840D01*
X114276782Y-106500500D01*
X116043218Y-106500500D01*
X116047768Y-106499830D01*
X116047771Y-106499830D01*
X116102426Y-106491784D01*
X116102427Y-106491784D01*
X116112112Y-106490358D01*
X116206804Y-106443867D01*
X116207507Y-106443522D01*
X116207509Y-106443521D01*
X116216855Y-106438932D01*
X116299293Y-106356350D01*
X116305432Y-106343792D01*
X116329965Y-106293602D01*
X116350536Y-106251518D01*
X116360500Y-106183218D01*
X116360500Y-105836362D01*
X116380502Y-105768241D01*
X116434158Y-105721748D01*
X116504432Y-105711644D01*
X116569012Y-105741138D01*
X116600926Y-105783611D01*
X116604046Y-105790379D01*
X116655883Y-105902821D01*
X116783222Y-106083002D01*
X116941264Y-106236961D01*
X116946060Y-106240166D01*
X116946063Y-106240168D01*
X117030261Y-106296427D01*
X117124717Y-106359540D01*
X117130020Y-106361818D01*
X117130023Y-106361820D01*
X117293221Y-106431935D01*
X117327436Y-106446635D01*
X117407088Y-106464658D01*
X117536995Y-106494054D01*
X117537001Y-106494055D01*
X117542632Y-106495329D01*
X117548403Y-106495556D01*
X117548405Y-106495556D01*
X117616211Y-106498220D01*
X117763098Y-106503991D01*
X117885524Y-106486240D01*
X117975738Y-106473160D01*
X117975743Y-106473159D01*
X117981452Y-106472331D01*
X117986916Y-106470476D01*
X117986921Y-106470475D01*
X118184907Y-106403268D01*
X118184912Y-106403266D01*
X118190379Y-106401410D01*
X118203761Y-106393916D01*
X118286630Y-106347507D01*
X118382884Y-106293602D01*
X118402987Y-106276883D01*
X118548086Y-106156204D01*
X118552518Y-106152518D01*
X118693602Y-105982884D01*
X118801410Y-105790379D01*
X118803266Y-105784912D01*
X118803268Y-105784907D01*
X118850264Y-105646460D01*
X118891101Y-105588383D01*
X118956854Y-105561605D01*
X119026646Y-105574626D01*
X119078319Y-105623313D01*
X119091700Y-105655946D01*
X119102089Y-105696855D01*
X119102091Y-105696860D01*
X119103511Y-105702452D01*
X119105928Y-105707694D01*
X119105928Y-105707695D01*
X119144046Y-105790379D01*
X119195883Y-105902821D01*
X119323222Y-106083002D01*
X119481264Y-106236961D01*
X119486060Y-106240166D01*
X119486063Y-106240168D01*
X119570261Y-106296427D01*
X119664717Y-106359540D01*
X119670020Y-106361818D01*
X119670023Y-106361820D01*
X119833221Y-106431935D01*
X119867436Y-106446635D01*
X119947088Y-106464658D01*
X120076995Y-106494054D01*
X120077001Y-106494055D01*
X120082632Y-106495329D01*
X120088403Y-106495556D01*
X120088405Y-106495556D01*
X120156211Y-106498220D01*
X120303098Y-106503991D01*
X120425524Y-106486240D01*
X120515738Y-106473160D01*
X120515743Y-106473159D01*
X120521452Y-106472331D01*
X120526916Y-106470476D01*
X120526921Y-106470475D01*
X120724907Y-106403268D01*
X120724912Y-106403266D01*
X120730379Y-106401410D01*
X120743761Y-106393916D01*
X120826630Y-106347507D01*
X120922884Y-106293602D01*
X120942987Y-106276883D01*
X121088086Y-106156204D01*
X121092518Y-106152518D01*
X121233602Y-105982884D01*
X121313020Y-105841073D01*
X121363754Y-105791414D01*
X121433286Y-105777066D01*
X121499537Y-105802588D01*
X121539695Y-105855238D01*
X121561770Y-105909603D01*
X121566413Y-105918794D01*
X121677694Y-106100388D01*
X121683777Y-106108699D01*
X121823213Y-106269667D01*
X121830580Y-106276883D01*
X121994434Y-106412916D01*
X122002881Y-106418831D01*
X122186756Y-106526279D01*
X122196042Y-106530729D01*
X122395001Y-106606703D01*
X122404899Y-106609579D01*
X122508250Y-106630606D01*
X122522299Y-106629410D01*
X122526000Y-106619065D01*
X122526000Y-106618517D01*
X123034000Y-106618517D01*
X123038064Y-106632359D01*
X123051478Y-106634393D01*
X123058184Y-106633534D01*
X123068262Y-106631392D01*
X123272255Y-106570191D01*
X123281842Y-106566433D01*
X123473095Y-106472739D01*
X123481945Y-106467464D01*
X123655328Y-106343792D01*
X123663200Y-106337139D01*
X123814052Y-106186812D01*
X123820730Y-106178965D01*
X123945003Y-106006020D01*
X123950313Y-105997183D01*
X123977539Y-105942095D01*
X136432528Y-105942095D01*
X136458034Y-106209431D01*
X136459119Y-106213865D01*
X136459120Y-106213871D01*
X136505465Y-106403268D01*
X136521864Y-106470285D01*
X136622682Y-106719192D01*
X136758375Y-106950938D01*
X136761228Y-106954505D01*
X136872725Y-107093925D01*
X136926101Y-107160669D01*
X137122346Y-107343991D01*
X137182210Y-107385520D01*
X137339246Y-107494461D01*
X137339251Y-107494464D01*
X137342999Y-107497064D01*
X137347084Y-107499096D01*
X137347087Y-107499098D01*
X137438852Y-107544750D01*
X137583438Y-107616680D01*
X137587772Y-107618101D01*
X137587775Y-107618102D01*
X137834293Y-107698915D01*
X137834298Y-107698916D01*
X137838626Y-107700335D01*
X137843117Y-107701115D01*
X137843118Y-107701115D01*
X138099436Y-107745620D01*
X138099444Y-107745621D01*
X138103217Y-107746276D01*
X138107054Y-107746467D01*
X138186496Y-107750422D01*
X138186504Y-107750422D01*
X138188067Y-107750500D01*
X138355723Y-107750500D01*
X138357991Y-107750335D01*
X138358003Y-107750335D01*
X138488323Y-107740879D01*
X138555346Y-107736016D01*
X138559801Y-107735032D01*
X138559804Y-107735032D01*
X138813120Y-107679105D01*
X138813124Y-107679104D01*
X138817580Y-107678120D01*
X138979748Y-107616680D01*
X139064441Y-107584593D01*
X139064444Y-107584592D01*
X139068711Y-107582975D01*
X139303476Y-107452574D01*
X139445754Y-107343991D01*
X139513333Y-107292417D01*
X139513337Y-107292413D01*
X139516958Y-107289650D01*
X139704685Y-107097614D01*
X139862725Y-106880491D01*
X139947588Y-106719192D01*
X139985640Y-106646868D01*
X139985643Y-106646862D01*
X139987765Y-106642828D01*
X139991804Y-106631392D01*
X140075665Y-106393916D01*
X140075665Y-106393915D01*
X140077188Y-106389603D01*
X140104287Y-106252112D01*
X140128239Y-106130594D01*
X140128240Y-106130588D01*
X140129120Y-106126122D01*
X140129347Y-106121566D01*
X140142245Y-105862474D01*
X140142245Y-105862468D01*
X140142472Y-105857905D01*
X140116966Y-105590569D01*
X140114736Y-105581452D01*
X140054221Y-105334149D01*
X140053136Y-105329715D01*
X139985370Y-105162408D01*
X139954031Y-105085037D01*
X139954031Y-105085036D01*
X139952318Y-105080808D01*
X139816625Y-104849062D01*
X139705711Y-104710371D01*
X139651751Y-104642897D01*
X139651750Y-104642895D01*
X139648899Y-104639331D01*
X139452654Y-104456009D01*
X139310761Y-104357574D01*
X139235754Y-104305539D01*
X139235749Y-104305536D01*
X139232001Y-104302936D01*
X139227916Y-104300904D01*
X139227913Y-104300902D01*
X139044801Y-104209806D01*
X138991562Y-104183320D01*
X138987228Y-104181899D01*
X138987225Y-104181898D01*
X138740707Y-104101085D01*
X138740702Y-104101084D01*
X138736374Y-104099665D01*
X138727211Y-104098074D01*
X138475564Y-104054380D01*
X138475556Y-104054379D01*
X138471783Y-104053724D01*
X138463122Y-104053293D01*
X138388504Y-104049578D01*
X138388496Y-104049578D01*
X138386933Y-104049500D01*
X138219277Y-104049500D01*
X138217009Y-104049665D01*
X138216997Y-104049665D01*
X138086677Y-104059121D01*
X138019654Y-104063984D01*
X138015199Y-104064968D01*
X138015196Y-104064968D01*
X137761880Y-104120895D01*
X137761876Y-104120896D01*
X137757420Y-104121880D01*
X137635517Y-104168065D01*
X137510559Y-104215407D01*
X137510556Y-104215408D01*
X137506289Y-104217025D01*
X137396685Y-104277905D01*
X137284143Y-104340417D01*
X137271524Y-104347426D01*
X137219634Y-104387027D01*
X137061667Y-104507583D01*
X137061663Y-104507587D01*
X137058042Y-104510350D01*
X136870315Y-104702386D01*
X136867630Y-104706075D01*
X136719795Y-104909178D01*
X136712275Y-104919509D01*
X136710151Y-104923547D01*
X136589360Y-105153132D01*
X136589357Y-105153138D01*
X136587235Y-105157172D01*
X136585715Y-105161477D01*
X136585713Y-105161481D01*
X136526304Y-105329715D01*
X136497812Y-105410397D01*
X136472722Y-105537694D01*
X136465443Y-105574626D01*
X136445880Y-105673878D01*
X136445653Y-105678431D01*
X136445653Y-105678434D01*
X136436492Y-105862474D01*
X136432528Y-105942095D01*
X123977539Y-105942095D01*
X124044670Y-105806267D01*
X124048469Y-105796672D01*
X124110377Y-105592910D01*
X124112555Y-105582837D01*
X124113986Y-105571962D01*
X124111775Y-105557778D01*
X124098617Y-105554000D01*
X123052115Y-105554000D01*
X123036876Y-105558475D01*
X123035671Y-105559865D01*
X123034000Y-105567548D01*
X123034000Y-106618517D01*
X122526000Y-106618517D01*
X122526000Y-105027885D01*
X123034000Y-105027885D01*
X123038475Y-105043124D01*
X123039865Y-105044329D01*
X123047548Y-105046000D01*
X124098344Y-105046000D01*
X124111875Y-105042027D01*
X124113180Y-105032947D01*
X124071214Y-104865875D01*
X124067894Y-104856124D01*
X123982972Y-104660814D01*
X123978105Y-104651739D01*
X123862426Y-104472926D01*
X123856136Y-104464757D01*
X123712806Y-104307240D01*
X123705273Y-104300215D01*
X123538139Y-104168222D01*
X123529552Y-104162517D01*
X123343117Y-104059599D01*
X123333705Y-104055369D01*
X123132959Y-103984280D01*
X123122988Y-103981646D01*
X123051837Y-103968972D01*
X123038540Y-103970432D01*
X123034000Y-103984989D01*
X123034000Y-105027885D01*
X122526000Y-105027885D01*
X122526000Y-103983102D01*
X122522082Y-103969758D01*
X122507806Y-103967771D01*
X122469324Y-103973660D01*
X122459288Y-103976051D01*
X122256868Y-104042212D01*
X122247359Y-104046209D01*
X122058463Y-104144542D01*
X122049738Y-104150036D01*
X121879433Y-104277905D01*
X121871726Y-104284748D01*
X121724590Y-104438717D01*
X121718104Y-104446727D01*
X121598098Y-104622649D01*
X121593000Y-104631623D01*
X121537066Y-104752122D01*
X121490242Y-104805489D01*
X121421998Y-104825070D01*
X121354003Y-104804646D01*
X121309773Y-104754801D01*
X121270535Y-104675234D01*
X121270535Y-104675233D01*
X121270532Y-104675229D01*
X121267980Y-104670053D01*
X121240452Y-104633188D01*
X121139420Y-104497891D01*
X121139420Y-104497890D01*
X121135967Y-104493267D01*
X121038586Y-104403249D01*
X120978189Y-104347418D01*
X120978186Y-104347416D01*
X120973949Y-104343499D01*
X120787350Y-104225764D01*
X120582421Y-104144006D01*
X120576761Y-104142880D01*
X120576757Y-104142879D01*
X120371691Y-104102089D01*
X120371688Y-104102089D01*
X120366024Y-104100962D01*
X120360249Y-104100886D01*
X120360245Y-104100886D01*
X120249504Y-104099437D01*
X120145406Y-104098074D01*
X120139709Y-104099053D01*
X120139708Y-104099053D01*
X119933654Y-104134459D01*
X119933653Y-104134459D01*
X119927957Y-104135438D01*
X119720957Y-104211804D01*
X119715996Y-104214756D01*
X119715995Y-104214756D01*
X119598350Y-104284748D01*
X119531341Y-104324614D01*
X119365457Y-104470090D01*
X119228863Y-104643360D01*
X119126131Y-104838620D01*
X119099761Y-104923547D01*
X119090432Y-104953591D01*
X119051129Y-105012716D01*
X118986100Y-105041207D01*
X118915990Y-105030017D01*
X118863060Y-104982700D01*
X118848830Y-104950428D01*
X118827134Y-104873500D01*
X118825565Y-104867936D01*
X118727980Y-104670053D01*
X118700452Y-104633188D01*
X118599420Y-104497891D01*
X118599420Y-104497890D01*
X118595967Y-104493267D01*
X118498586Y-104403249D01*
X118438189Y-104347418D01*
X118438186Y-104347416D01*
X118433949Y-104343499D01*
X118247350Y-104225764D01*
X118042421Y-104144006D01*
X118036761Y-104142880D01*
X118036757Y-104142879D01*
X117831691Y-104102089D01*
X117831688Y-104102089D01*
X117826024Y-104100962D01*
X117820249Y-104100886D01*
X117820245Y-104100886D01*
X117709504Y-104099437D01*
X117605406Y-104098074D01*
X117599709Y-104099053D01*
X117599708Y-104099053D01*
X117393654Y-104134459D01*
X117393653Y-104134459D01*
X117387957Y-104135438D01*
X117180957Y-104211804D01*
X117175996Y-104214756D01*
X117175995Y-104214756D01*
X117058350Y-104284748D01*
X116991341Y-104324614D01*
X116825457Y-104470090D01*
X116688863Y-104643360D01*
X116604750Y-104803231D01*
X116598008Y-104816046D01*
X116548589Y-104867018D01*
X116479456Y-104883181D01*
X116412560Y-104859402D01*
X116369140Y-104803231D01*
X116360500Y-104757378D01*
X116360500Y-104416782D01*
X116351871Y-104358162D01*
X116351784Y-104357574D01*
X116351784Y-104357573D01*
X116350358Y-104347888D01*
X116298932Y-104243145D01*
X116241040Y-104185354D01*
X116223721Y-104168065D01*
X116223720Y-104168065D01*
X116216350Y-104160707D01*
X116194520Y-104150036D01*
X116162652Y-104134459D01*
X116111518Y-104109464D01*
X116081027Y-104105016D01*
X116047744Y-104100160D01*
X116047740Y-104100160D01*
X116043218Y-104099500D01*
X114276782Y-104099500D01*
X114272232Y-104100170D01*
X114272229Y-104100170D01*
X114217574Y-104108216D01*
X114217573Y-104108216D01*
X114207888Y-104109642D01*
X114157992Y-104134140D01*
X114112493Y-104156478D01*
X114112491Y-104156479D01*
X114103145Y-104161068D01*
X114095787Y-104168438D01*
X114095788Y-104168438D01*
X114036976Y-104227353D01*
X114020707Y-104243650D01*
X113969464Y-104348482D01*
X113959500Y-104416782D01*
X113959500Y-106183218D01*
X81000000Y-106183218D01*
X81000000Y-104625000D01*
X90119750Y-104625000D01*
X90138670Y-104768709D01*
X90194139Y-104902625D01*
X90282379Y-105017621D01*
X90397375Y-105105861D01*
X90531291Y-105161330D01*
X90675000Y-105180250D01*
X90818709Y-105161330D01*
X90952625Y-105105861D01*
X91067621Y-105017621D01*
X91155861Y-104902625D01*
X91211330Y-104768709D01*
X91230250Y-104625000D01*
X91211330Y-104481291D01*
X91155861Y-104347375D01*
X91067621Y-104232379D01*
X90952625Y-104144139D01*
X90818709Y-104088670D01*
X90675000Y-104069750D01*
X90531291Y-104088670D01*
X90397375Y-104144139D01*
X90282379Y-104232379D01*
X90194139Y-104347375D01*
X90138670Y-104481291D01*
X90119750Y-104625000D01*
X81000000Y-104625000D01*
X81000000Y-103326500D01*
X81020002Y-103258379D01*
X81073658Y-103211886D01*
X81126000Y-103200500D01*
X140874002Y-103200500D01*
X140942121Y-103220502D01*
G37*
%TD.AperFunction*%
M02*
