%TF.GenerationSoftware,KiCad,Pcbnew,(6.0.4)*%
%TF.CreationDate,2023-01-03T21:15:19+00:00*%
%TF.ProjectId,soil-moisture-sensor,736f696c-2d6d-46f6-9973-747572652d73,%%version%%*%
%TF.SameCoordinates,Original*%
%TF.FileFunction,Copper,L1,Top*%
%TF.FilePolarity,Positive*%
%FSLAX46Y46*%
G04 Gerber Fmt 4.6, Leading zero omitted, Abs format (unit mm)*
G04 Created by KiCad (PCBNEW (6.0.4)) date 2023-01-03 21:15:19*
%MOMM*%
%LPD*%
G01*
G04 APERTURE LIST*
G04 Aperture macros list*
%AMRoundRect*
0 Rectangle with rounded corners*
0 $1 Rounding radius*
0 $2 $3 $4 $5 $6 $7 $8 $9 X,Y pos of 4 corners*
0 Add a 4 corners polygon primitive as box body*
4,1,4,$2,$3,$4,$5,$6,$7,$8,$9,$2,$3,0*
0 Add four circle primitives for the rounded corners*
1,1,$1+$1,$2,$3*
1,1,$1+$1,$4,$5*
1,1,$1+$1,$6,$7*
1,1,$1+$1,$8,$9*
0 Add four rect primitives between the rounded corners*
20,1,$1+$1,$2,$3,$4,$5,0*
20,1,$1+$1,$4,$5,$6,$7,0*
20,1,$1+$1,$6,$7,$8,$9,0*
20,1,$1+$1,$8,$9,$2,$3,0*%
G04 Aperture macros list end*
%TA.AperFunction,ComponentPad*%
%ADD10R,1.700000X1.700000*%
%TD*%
%TA.AperFunction,ComponentPad*%
%ADD11O,1.700000X1.700000*%
%TD*%
%TA.AperFunction,SMDPad,CuDef*%
%ADD12RoundRect,0.200000X-0.200000X-0.275000X0.200000X-0.275000X0.200000X0.275000X-0.200000X0.275000X0*%
%TD*%
%TA.AperFunction,SMDPad,CuDef*%
%ADD13RoundRect,0.200000X0.275000X-0.200000X0.275000X0.200000X-0.275000X0.200000X-0.275000X-0.200000X0*%
%TD*%
%TA.AperFunction,SMDPad,CuDef*%
%ADD14RoundRect,0.225000X0.250000X-0.225000X0.250000X0.225000X-0.250000X0.225000X-0.250000X-0.225000X0*%
%TD*%
%TA.AperFunction,SMDPad,CuDef*%
%ADD15RoundRect,0.225000X0.225000X0.250000X-0.225000X0.250000X-0.225000X-0.250000X0.225000X-0.250000X0*%
%TD*%
%TA.AperFunction,SMDPad,CuDef*%
%ADD16RoundRect,0.200000X-0.275000X0.200000X-0.275000X-0.200000X0.275000X-0.200000X0.275000X0.200000X0*%
%TD*%
%TA.AperFunction,SMDPad,CuDef*%
%ADD17RoundRect,0.150000X-0.587500X-0.150000X0.587500X-0.150000X0.587500X0.150000X-0.587500X0.150000X0*%
%TD*%
%TA.AperFunction,SMDPad,CuDef*%
%ADD18R,0.900000X1.700000*%
%TD*%
%TA.AperFunction,SMDPad,CuDef*%
%ADD19RoundRect,0.218750X-0.218750X-0.256250X0.218750X-0.256250X0.218750X0.256250X-0.218750X0.256250X0*%
%TD*%
%TA.AperFunction,SMDPad,CuDef*%
%ADD20R,0.900000X2.000000*%
%TD*%
%TA.AperFunction,SMDPad,CuDef*%
%ADD21R,2.000000X0.900000*%
%TD*%
%TA.AperFunction,SMDPad,CuDef*%
%ADD22R,5.000000X5.000000*%
%TD*%
%TA.AperFunction,SMDPad,CuDef*%
%ADD23RoundRect,0.218750X0.218750X0.256250X-0.218750X0.256250X-0.218750X-0.256250X0.218750X-0.256250X0*%
%TD*%
%TA.AperFunction,SMDPad,CuDef*%
%ADD24RoundRect,0.225000X-0.250000X0.225000X-0.250000X-0.225000X0.250000X-0.225000X0.250000X0.225000X0*%
%TD*%
%TA.AperFunction,SMDPad,CuDef*%
%ADD25R,1.000000X1.000000*%
%TD*%
%TA.AperFunction,SMDPad,CuDef*%
%ADD26R,0.450000X1.380000*%
%TD*%
%TA.AperFunction,SMDPad,CuDef*%
%ADD27R,1.650000X1.300000*%
%TD*%
%TA.AperFunction,SMDPad,CuDef*%
%ADD28R,1.000000X1.900000*%
%TD*%
%TA.AperFunction,SMDPad,CuDef*%
%ADD29R,1.425000X1.550000*%
%TD*%
%TA.AperFunction,SMDPad,CuDef*%
%ADD30R,1.800000X1.900000*%
%TD*%
%TA.AperFunction,SMDPad,CuDef*%
%ADD31RoundRect,0.200000X0.200000X0.275000X-0.200000X0.275000X-0.200000X-0.275000X0.200000X-0.275000X0*%
%TD*%
%TA.AperFunction,SMDPad,CuDef*%
%ADD32RoundRect,0.062500X0.062500X-0.350000X0.062500X0.350000X-0.062500X0.350000X-0.062500X-0.350000X0*%
%TD*%
%TA.AperFunction,SMDPad,CuDef*%
%ADD33RoundRect,0.062500X0.350000X-0.062500X0.350000X0.062500X-0.350000X0.062500X-0.350000X-0.062500X0*%
%TD*%
%TA.AperFunction,SMDPad,CuDef*%
%ADD34R,2.600000X2.600000*%
%TD*%
%TA.AperFunction,ComponentPad*%
%ADD35C,3.500000*%
%TD*%
%TA.AperFunction,ViaPad*%
%ADD36C,0.400000*%
%TD*%
%TA.AperFunction,Conductor*%
%ADD37C,0.127000*%
%TD*%
%TA.AperFunction,Conductor*%
%ADD38C,0.150000*%
%TD*%
%TA.AperFunction,Conductor*%
%ADD39C,0.400000*%
%TD*%
G04 APERTURE END LIST*
D10*
X115160000Y-105300000D03*
D11*
X117700000Y-105300000D03*
X120240000Y-105300000D03*
X122780000Y-105300000D03*
D12*
X105300000Y-116400000D03*
X103650000Y-116400000D03*
X105300000Y-114700000D03*
X103650000Y-114700000D03*
D13*
X86700000Y-116475000D03*
X86700000Y-114825000D03*
D14*
X86750000Y-119525000D03*
X86750000Y-117975000D03*
D15*
X105275000Y-113050000D03*
X103725000Y-113050000D03*
D13*
X98337500Y-110825000D03*
X98337500Y-109175000D03*
D16*
X86700000Y-108725000D03*
X86700000Y-110375000D03*
D17*
X94700000Y-109050000D03*
X94700000Y-110950000D03*
X96575000Y-110000000D03*
D18*
X106050000Y-105250000D03*
X102650000Y-105250000D03*
D19*
X87637500Y-105600000D03*
X89212500Y-105600000D03*
D15*
X88150000Y-121000000D03*
X86600000Y-121000000D03*
D20*
X66945000Y-122700000D03*
X68215000Y-122700000D03*
X69485000Y-122700000D03*
X70755000Y-122700000D03*
X72025000Y-122700000D03*
X73295000Y-122700000D03*
X74565000Y-122700000D03*
X75835000Y-122700000D03*
X77105000Y-122700000D03*
X78375000Y-122700000D03*
X79645000Y-122700000D03*
X80915000Y-122700000D03*
X82185000Y-122700000D03*
X83455000Y-122700000D03*
D21*
X84455000Y-119915000D03*
X84455000Y-118645000D03*
X84455000Y-117375000D03*
X84455000Y-116105000D03*
X84455000Y-114835000D03*
X84455000Y-113565000D03*
X84455000Y-112295000D03*
X84455000Y-111025000D03*
X84455000Y-109755000D03*
X84455000Y-108485000D03*
D20*
X83455000Y-105700000D03*
X82185000Y-105700000D03*
X80915000Y-105700000D03*
X79645000Y-105700000D03*
X78375000Y-105700000D03*
X77105000Y-105700000D03*
X75835000Y-105700000D03*
X74565000Y-105700000D03*
X73295000Y-105700000D03*
X72025000Y-105700000D03*
X70755000Y-105700000D03*
X69485000Y-105700000D03*
X68215000Y-105700000D03*
X66945000Y-105700000D03*
D22*
X74445000Y-115200000D03*
D13*
X94100000Y-115450000D03*
X94100000Y-113800000D03*
D15*
X88175000Y-122600000D03*
X86625000Y-122600000D03*
D12*
X93875000Y-107100000D03*
X95525000Y-107100000D03*
D13*
X95600000Y-115450000D03*
X95600000Y-113800000D03*
D15*
X88200000Y-124300000D03*
X86650000Y-124300000D03*
D23*
X92287500Y-105600000D03*
X90712500Y-105600000D03*
D13*
X88300000Y-119600000D03*
X88300000Y-117950000D03*
D16*
X99837500Y-109175000D03*
X99837500Y-110825000D03*
D13*
X97150000Y-115475000D03*
X97150000Y-113825000D03*
D24*
X86700000Y-111825000D03*
X86700000Y-113375000D03*
D25*
X101425000Y-120575000D03*
X101425000Y-123075000D03*
D26*
X92600000Y-120740000D03*
X93250000Y-120740000D03*
X93900000Y-120740000D03*
X94550000Y-120740000D03*
X95200000Y-120740000D03*
D27*
X97275000Y-123400000D03*
D28*
X95450000Y-123400000D03*
D27*
X90525000Y-123400000D03*
D29*
X96387500Y-120825000D03*
D30*
X92750000Y-123400000D03*
D29*
X91412500Y-120825000D03*
D15*
X105175000Y-107850000D03*
X103625000Y-107850000D03*
D19*
X93912500Y-105600000D03*
X95487500Y-105600000D03*
D31*
X87625000Y-107100000D03*
X89275000Y-107100000D03*
D17*
X90800000Y-109050000D03*
X90800000Y-110950000D03*
X92675000Y-110000000D03*
D18*
X106050000Y-110450000D03*
X102650000Y-110450000D03*
D13*
X99675000Y-123150000D03*
X99675000Y-121500000D03*
D32*
X89250000Y-116537500D03*
X89750000Y-116537500D03*
X90250000Y-116537500D03*
X90750000Y-116537500D03*
X91250000Y-116537500D03*
X91750000Y-116537500D03*
D33*
X92437500Y-115850000D03*
X92437500Y-115350000D03*
X92437500Y-114850000D03*
X92437500Y-114350000D03*
X92437500Y-113850000D03*
X92437500Y-113350000D03*
D32*
X91750000Y-112662500D03*
X91250000Y-112662500D03*
X90750000Y-112662500D03*
X90250000Y-112662500D03*
X89750000Y-112662500D03*
X89250000Y-112662500D03*
D33*
X88562500Y-113350000D03*
X88562500Y-113850000D03*
X88562500Y-114350000D03*
X88562500Y-114850000D03*
X88562500Y-115350000D03*
X88562500Y-115850000D03*
D34*
X90500000Y-114600000D03*
D12*
X90675000Y-107100000D03*
X92325000Y-107100000D03*
D35*
X138287500Y-114100000D03*
X100287500Y-114100000D03*
D36*
X93600000Y-118900000D03*
X87698672Y-114399501D03*
X81500000Y-110837000D03*
X87700000Y-113800000D03*
X82300000Y-111200000D03*
X84800000Y-122100000D03*
X103500000Y-122200000D03*
X96050000Y-116800000D03*
X81900000Y-124700000D03*
X106650000Y-107850000D03*
X92900000Y-104200000D03*
X89400000Y-122450000D03*
X85400000Y-122900000D03*
X89100000Y-120300000D03*
X74725000Y-111925000D03*
X97350000Y-109175000D03*
X85975000Y-118450000D03*
X95300000Y-119450000D03*
X89750500Y-117800000D03*
X91055027Y-118951373D03*
X86000000Y-112600000D03*
X103150000Y-123350000D03*
X89150000Y-121050000D03*
X85250000Y-107250000D03*
X68700000Y-120900000D03*
X78400000Y-109875000D03*
X99150000Y-119750000D03*
X89468437Y-108473450D03*
X93850000Y-112624000D03*
X96075000Y-111050000D03*
X96225000Y-112149500D03*
X87850000Y-112775000D03*
X87750000Y-115225000D03*
X88727713Y-118729724D03*
X92025382Y-118324500D03*
X92622224Y-112623216D03*
X93473301Y-109273301D03*
X89450000Y-109250000D03*
X92175000Y-112025000D03*
X93250000Y-110699500D03*
X90775000Y-111999500D03*
X90675000Y-104625000D03*
X88725500Y-116750000D03*
X93475000Y-116350000D03*
X101325000Y-108100000D03*
X76400000Y-120425000D03*
X88500989Y-110475000D03*
X98922691Y-110077309D03*
X96416953Y-109341953D03*
X78175000Y-118150000D03*
X88024980Y-116370667D03*
X93228604Y-114060935D03*
D37*
X93250000Y-121650000D02*
X93250000Y-120740000D01*
X93036989Y-121863011D02*
X93250000Y-121650000D01*
X90436989Y-121863011D02*
X93036989Y-121863011D01*
X90400000Y-121826022D02*
X90436989Y-121863011D01*
X90400000Y-118951602D02*
X90400000Y-121826022D01*
X90750000Y-118601602D02*
X90400000Y-118951602D01*
X90750000Y-116537500D02*
X90750000Y-118601602D01*
X93900000Y-122100000D02*
X93900000Y-120740000D01*
X93800000Y-122200000D02*
X93900000Y-122100000D01*
X93786989Y-122186989D02*
X93800000Y-122200000D01*
X91713011Y-122186989D02*
X93786989Y-122186989D01*
X91500000Y-122400000D02*
X91713011Y-122186989D01*
X90300000Y-122400000D02*
X91500000Y-122400000D01*
X89800000Y-121900000D02*
X90300000Y-122400000D01*
X89800000Y-119089850D02*
X89800000Y-121900000D01*
X90250000Y-118639850D02*
X89800000Y-119089850D01*
X90250000Y-116537500D02*
X90250000Y-118639850D01*
X93100000Y-105054798D02*
X93100000Y-106800000D01*
X93100000Y-106800000D02*
X93400000Y-107100000D01*
X93400000Y-107100000D02*
X93875000Y-107100000D01*
X92045202Y-104000000D02*
X93100000Y-105054798D01*
X68600000Y-104000000D02*
X92045202Y-104000000D01*
X68215000Y-104385000D02*
X68600000Y-104000000D01*
X68215000Y-105700000D02*
X68215000Y-104385000D01*
D38*
X93280000Y-119220000D02*
X93600000Y-118900000D01*
X92700000Y-119220000D02*
X93280000Y-119220000D01*
D37*
X88512999Y-114399501D02*
X88562500Y-114350000D01*
X87698672Y-114399501D02*
X88512999Y-114399501D01*
X81500000Y-110800000D02*
X81500000Y-110837000D01*
X75500000Y-110800000D02*
X81500000Y-110800000D01*
X72500000Y-107800000D02*
X75500000Y-110800000D01*
X72025000Y-105700000D02*
X72025000Y-107325000D01*
X72025000Y-107325000D02*
X72500000Y-107800000D01*
X87750000Y-113850000D02*
X87700000Y-113800000D01*
X88562500Y-113850000D02*
X87750000Y-113850000D01*
X75228000Y-111300000D02*
X82100000Y-111300000D01*
X70755000Y-106827000D02*
X75228000Y-111300000D01*
X70755000Y-105700000D02*
X70755000Y-106827000D01*
X82100000Y-111300000D02*
X82200000Y-111300000D01*
X82200000Y-111300000D02*
X82300000Y-111200000D01*
X84800000Y-122100000D02*
X84200000Y-122700000D01*
X84200000Y-122700000D02*
X83455000Y-122700000D01*
X105300000Y-120400000D02*
X103500000Y-122200000D01*
X105300000Y-116400000D02*
X105300000Y-120400000D01*
X105300000Y-116350000D02*
X103650000Y-114700000D01*
X105300000Y-116400000D02*
X105300000Y-116350000D01*
X102587500Y-116400000D02*
X100287500Y-114100000D01*
X103650000Y-116400000D02*
X102587500Y-116400000D01*
D38*
X89250000Y-110000000D02*
X92675000Y-110000000D01*
X84950000Y-105700000D02*
X89250000Y-110000000D01*
X83455000Y-105700000D02*
X84950000Y-105700000D01*
X88300000Y-117500040D02*
X88300000Y-117950000D01*
X88024980Y-117225020D02*
X88300000Y-117500040D01*
X88024980Y-116370667D02*
X88024980Y-117225020D01*
X89275999Y-119074001D02*
X88750000Y-119600000D01*
X88725500Y-116750000D02*
X88725500Y-116902118D01*
X88725500Y-116902118D02*
X89275999Y-117452617D01*
X88750000Y-119600000D02*
X88300000Y-119600000D01*
X89275999Y-117452617D02*
X89275999Y-119074001D01*
X86700000Y-108250001D02*
X86700000Y-108725000D01*
X85699999Y-107250000D02*
X86700000Y-108250001D01*
X85250000Y-107250000D02*
X85699999Y-107250000D01*
X85825489Y-109500489D02*
X86700000Y-110375000D01*
X85825489Y-107869785D02*
X85825489Y-109500489D01*
X85730215Y-107774511D02*
X85825489Y-107869785D01*
X83325000Y-107750000D02*
X85528939Y-107750000D01*
X85528939Y-107750000D02*
X85553450Y-107774511D01*
X83174511Y-109149511D02*
X82550000Y-108525000D01*
X83174511Y-113250489D02*
X83174511Y-109149511D01*
X82550000Y-108525000D02*
X83325000Y-107750000D01*
X78275000Y-118150000D02*
X83174511Y-113250489D01*
X78175000Y-118150000D02*
X78275000Y-118150000D01*
X85553450Y-107774511D02*
X85730215Y-107774511D01*
X88763984Y-106350480D02*
X89925480Y-106350480D01*
X88500000Y-106614464D02*
X88763984Y-106350480D01*
X88500000Y-108300000D02*
X88500000Y-106614464D01*
X89925480Y-106350480D02*
X90675000Y-107100000D01*
X89450000Y-109250000D02*
X88500000Y-108300000D01*
X106050000Y-108725000D02*
X106050000Y-110450000D01*
X74445000Y-115200000D02*
X74445000Y-112205000D01*
X89750000Y-116537500D02*
X89750000Y-115350000D01*
X86625000Y-122600000D02*
X85700000Y-122600000D01*
X105175000Y-107850000D02*
X106050000Y-108725000D01*
X95450000Y-120990000D02*
X95200000Y-120740000D01*
X95285000Y-120825000D02*
X95200000Y-120740000D01*
X85090705Y-119915000D02*
X86575705Y-118430000D01*
X86650000Y-124300000D02*
X86650000Y-122625000D01*
X74445000Y-112205000D02*
X74725000Y-111925000D01*
X86750000Y-116525000D02*
X86700000Y-116475000D01*
X105175000Y-107850000D02*
X106050000Y-106975000D01*
X91055027Y-118951373D02*
X91412500Y-119308846D01*
X91412500Y-119308846D02*
X91412500Y-120825000D01*
D39*
X73045000Y-115200000D02*
X74445000Y-115200000D01*
D38*
X90525000Y-123400000D02*
X90350000Y-123400000D01*
X89750000Y-116537500D02*
X89750000Y-117400000D01*
X95200000Y-120740000D02*
X95200000Y-119550000D01*
X96387500Y-120825000D02*
X95285000Y-120825000D01*
X86600000Y-121000000D02*
X86600000Y-122575000D01*
D39*
X66945000Y-122700000D02*
X66945000Y-121300000D01*
D38*
X86650000Y-122625000D02*
X86625000Y-122600000D01*
X86850000Y-118330000D02*
X86750000Y-118430000D01*
D39*
X66945000Y-107700000D02*
X72975000Y-114225000D01*
D38*
X97350000Y-109175000D02*
X98337500Y-109175000D01*
X105175000Y-107850000D02*
X106650000Y-107850000D01*
X79160000Y-119915000D02*
X74445000Y-115200000D01*
X95600000Y-116350000D02*
X96050000Y-116800000D01*
X86700000Y-113375000D02*
X86700000Y-113300000D01*
X86700000Y-113300000D02*
X86000000Y-112600000D01*
D39*
X73222500Y-113977500D02*
X74445000Y-115200000D01*
D38*
X84455000Y-119915000D02*
X85090705Y-119915000D01*
X95600000Y-115450000D02*
X95600000Y-116350000D01*
X95200000Y-119550000D02*
X95300000Y-119450000D01*
X89750500Y-117400500D02*
X89750500Y-117800000D01*
X92750000Y-123400000D02*
X95450000Y-123400000D01*
X95450000Y-123400000D02*
X95450000Y-120990000D01*
X106050000Y-112275000D02*
X106050000Y-110450000D01*
X105275000Y-113050000D02*
X106050000Y-112275000D01*
X85700000Y-122600000D02*
X85400000Y-122900000D01*
X86575705Y-118430000D02*
X86750000Y-118430000D01*
X86750000Y-117975000D02*
X86750000Y-116525000D01*
D39*
X66945000Y-121300000D02*
X73045000Y-115200000D01*
X72975000Y-114225000D02*
X73222500Y-113977500D01*
X66945000Y-105700000D02*
X66945000Y-107700000D01*
D38*
X89750000Y-117400000D02*
X89750500Y-117400500D01*
X90525000Y-123400000D02*
X92750000Y-123400000D01*
X93912500Y-105600000D02*
X93912500Y-105212500D01*
X89750000Y-115350000D02*
X90500000Y-114600000D01*
X97275000Y-123400000D02*
X95450000Y-123400000D01*
X106050000Y-106975000D02*
X106050000Y-105250000D01*
X90350000Y-123400000D02*
X89400000Y-122450000D01*
X93912500Y-105212500D02*
X92900000Y-104200000D01*
X86600000Y-122575000D02*
X86625000Y-122600000D01*
X86275000Y-118450000D02*
X86750000Y-117975000D01*
X84455000Y-119915000D02*
X79160000Y-119915000D01*
X85975000Y-118450000D02*
X86275000Y-118450000D01*
D39*
X101700000Y-123350000D02*
X101425000Y-123075000D01*
D38*
X99675000Y-123150000D02*
X99750000Y-123075000D01*
X99750000Y-123075000D02*
X101425000Y-123075000D01*
D39*
X103150000Y-123350000D02*
X101700000Y-123350000D01*
D38*
X89100000Y-121000000D02*
X89150000Y-121050000D01*
D39*
X68215000Y-122700000D02*
X68215000Y-121385000D01*
D38*
X88200000Y-122625000D02*
X88175000Y-122600000D01*
X88150000Y-121000000D02*
X89100000Y-121000000D01*
D39*
X68215000Y-121385000D02*
X68700000Y-120900000D01*
D38*
X88175000Y-122600000D02*
X88175000Y-121025000D01*
X88175000Y-121025000D02*
X88150000Y-121000000D01*
X88200000Y-124100000D02*
X88200000Y-122625000D01*
X78375000Y-105700000D02*
X78375000Y-108200000D01*
X99675000Y-120275000D02*
X99150000Y-119750000D01*
X78375000Y-110000000D02*
X78375000Y-108350000D01*
X78375000Y-108200000D02*
X78375000Y-108325000D01*
X99675000Y-121500000D02*
X99675000Y-120275000D01*
X94225000Y-116525000D02*
X94225000Y-115575000D01*
X93475000Y-117275000D02*
X94225000Y-116525000D01*
X92580000Y-120720000D02*
X92600000Y-120740000D01*
X91500000Y-118500000D02*
X91500000Y-117925000D01*
X92220000Y-119220000D02*
X91500000Y-118500000D01*
X92150000Y-117275000D02*
X93475000Y-117275000D01*
X92700000Y-119220000D02*
X92700000Y-120640000D01*
X94100000Y-115450000D02*
X93700000Y-115850000D01*
X91500000Y-117925000D02*
X92150000Y-117275000D01*
X92700000Y-120640000D02*
X92600000Y-120740000D01*
X94225000Y-115575000D02*
X94100000Y-115450000D01*
X93700000Y-115850000D02*
X92437500Y-115850000D01*
X92700000Y-119220000D02*
X92220000Y-119220000D01*
X95600000Y-113800000D02*
X94100000Y-113800000D01*
X94100000Y-113800000D02*
X94100000Y-114076618D01*
X92826618Y-115350000D02*
X92437500Y-115350000D01*
X94100000Y-114076618D02*
X92826618Y-115350000D01*
X95487500Y-105600000D02*
X95487500Y-107062500D01*
X95487500Y-107062500D02*
X95525000Y-107100000D01*
X93850000Y-112624000D02*
X95570072Y-112624000D01*
X90800000Y-109050000D02*
X90044987Y-109050000D01*
X96350000Y-113425000D02*
X96350000Y-114600000D01*
X96325000Y-113400000D02*
X96350000Y-113425000D01*
X96350000Y-114600000D02*
X97150000Y-115400000D01*
X97150000Y-115400000D02*
X97150000Y-115475000D01*
X96325000Y-113378928D02*
X96325000Y-113400000D01*
X95570072Y-112624000D02*
X96325000Y-113378928D01*
X90044987Y-109050000D02*
X89468437Y-108473450D01*
X96774500Y-112149500D02*
X97125000Y-112500000D01*
X88562500Y-112187500D02*
X89225000Y-111525000D01*
X92400000Y-111525000D02*
X93024500Y-112149500D01*
X89225000Y-111525000D02*
X92400000Y-111525000D01*
X93024500Y-112149500D02*
X96225000Y-112149500D01*
X88562500Y-113350000D02*
X88562500Y-112187500D01*
X97125000Y-113750000D02*
X97075000Y-113800000D01*
X96075000Y-111050000D02*
X94800000Y-111050000D01*
X94800000Y-111050000D02*
X94700000Y-110950000D01*
X97125000Y-112500000D02*
X97125000Y-113750000D01*
X96225000Y-112149500D02*
X96774500Y-112149500D01*
X95600000Y-108150000D02*
X99525000Y-108150000D01*
X99837500Y-108462500D02*
X99837500Y-109175000D01*
X99525000Y-108150000D02*
X99837500Y-108462500D01*
X94700000Y-109050000D02*
X95600000Y-108150000D01*
X87875000Y-115350000D02*
X87750000Y-115225000D01*
X88562500Y-115350000D02*
X87875000Y-115350000D01*
X92800000Y-110950000D02*
X93525000Y-111675000D01*
X93525000Y-111675000D02*
X98987500Y-111675000D01*
X87850000Y-111375000D02*
X87850000Y-112775000D01*
X90800000Y-110950000D02*
X92800000Y-110950000D01*
X88275000Y-110950000D02*
X90800000Y-110950000D01*
X88275000Y-110950000D02*
X87850000Y-111375000D01*
X98987500Y-111675000D02*
X99837500Y-110825000D01*
X86700000Y-115149040D02*
X86700000Y-114825000D01*
X77100000Y-121500000D02*
X77500000Y-121100000D01*
X98524500Y-118324500D02*
X92025382Y-118324500D01*
X101425000Y-120575000D02*
X100775000Y-120575000D01*
X77105000Y-121505000D02*
X77100000Y-121500000D01*
X88546072Y-118850000D02*
X88666348Y-118729724D01*
X88666348Y-118729724D02*
X88727713Y-118729724D01*
X77105000Y-122700000D02*
X77105000Y-121505000D01*
X100775000Y-120575000D02*
X98524500Y-118324500D01*
X77500000Y-121100000D02*
X85269022Y-121100000D01*
X87425000Y-118850000D02*
X86750000Y-119525000D01*
X87550480Y-118800480D02*
X87600000Y-118850000D01*
X86750000Y-119619022D02*
X86750000Y-119525000D01*
X87550480Y-115999520D02*
X86700000Y-115149040D01*
X85269022Y-121100000D02*
X86750000Y-119619022D01*
X87550480Y-115999520D02*
X87550480Y-118800480D01*
X88546072Y-118850000D02*
X87600000Y-118850000D01*
X87600000Y-118850000D02*
X87425000Y-118850000D01*
X89500000Y-108000000D02*
X89125000Y-107625000D01*
X89125000Y-107625000D02*
X89125000Y-107100000D01*
X93473301Y-109273301D02*
X92200000Y-108000000D01*
X92582940Y-112662500D02*
X92622224Y-112623216D01*
X92200000Y-108000000D02*
X89500000Y-108000000D01*
X91750000Y-112662500D02*
X92582940Y-112662500D01*
X87512500Y-105600000D02*
X87512500Y-107062500D01*
X87512500Y-107062500D02*
X87475000Y-107100000D01*
X91250000Y-112273382D02*
X91547902Y-111975480D01*
X91547902Y-111975480D02*
X92125480Y-111975480D01*
X92125480Y-111975480D02*
X92175000Y-112025000D01*
X91250000Y-112662500D02*
X91250000Y-112273382D01*
X92287500Y-107062500D02*
X92325000Y-107100000D01*
X92287500Y-105600000D02*
X92287500Y-107062500D01*
X90750000Y-112024500D02*
X90750000Y-112662500D01*
X93313361Y-110699500D02*
X93663341Y-110349520D01*
X98087500Y-110575000D02*
X98337500Y-110825000D01*
X93663341Y-110349520D02*
X95586659Y-110349520D01*
X93250000Y-110699500D02*
X93313361Y-110699500D01*
X95586659Y-110349520D02*
X95812139Y-110575000D01*
X95812139Y-110575000D02*
X98087500Y-110575000D01*
X90775000Y-111999500D02*
X90750000Y-112024500D01*
X91250000Y-116537500D02*
X91437500Y-116537500D01*
X93475000Y-116350000D02*
X93050000Y-116350000D01*
X93050000Y-116350000D02*
X92650000Y-116750000D01*
X90675000Y-105562500D02*
X90712500Y-105600000D01*
X92650000Y-116750000D02*
X91962500Y-116750000D01*
X89087500Y-105600000D02*
X90712500Y-105600000D01*
X90675000Y-104625000D02*
X90675000Y-105562500D01*
X91962500Y-116750000D02*
X91750000Y-116537500D01*
X91437500Y-116537500D02*
X91750000Y-116537500D01*
X88500989Y-110475000D02*
X88400989Y-110375000D01*
X69485000Y-122700000D02*
X69485000Y-121550000D01*
X98845382Y-110000000D02*
X98922691Y-110077309D01*
X96575000Y-110000000D02*
X98845382Y-110000000D01*
X96416953Y-109341953D02*
X96416953Y-109841953D01*
X101375000Y-109525000D02*
X101725000Y-109525000D01*
X101725000Y-109525000D02*
X102650000Y-110450000D01*
X101325000Y-108100000D02*
X101325000Y-109475000D01*
X69485000Y-121550000D02*
X70610000Y-120425000D01*
X96416953Y-109841953D02*
X96575000Y-110000000D01*
X102650000Y-111975000D02*
X103725000Y-113050000D01*
X86750000Y-110675000D02*
X87049520Y-110375480D01*
X102650000Y-110450000D02*
X102650000Y-111975000D01*
X101325000Y-109475000D02*
X101375000Y-109525000D01*
X88400989Y-110375000D02*
X86700000Y-110375000D01*
X86700000Y-110375000D02*
X86700000Y-111825000D01*
X70610000Y-120425000D02*
X76400000Y-120425000D01*
X92832322Y-114850000D02*
X92437500Y-114850000D01*
X93228604Y-114060935D02*
X93228604Y-114453718D01*
X93228604Y-114453718D02*
X92832322Y-114850000D01*
X99365948Y-109849520D02*
X100309052Y-109849520D01*
X95087861Y-110000000D02*
X96588341Y-108499520D01*
X103625000Y-107850000D02*
X102650000Y-106875000D01*
X96588341Y-108499520D02*
X98875000Y-108499520D01*
X99087980Y-109571552D02*
X99365948Y-109849520D01*
X100587020Y-107312980D02*
X102650000Y-105250000D01*
X100587020Y-109571552D02*
X100587020Y-107312980D01*
X92675000Y-110000000D02*
X95087861Y-110000000D01*
X102650000Y-106875000D02*
X102650000Y-105250000D01*
X100309052Y-109849520D02*
X100587020Y-109571552D01*
X98875000Y-108499520D02*
X99087980Y-108712500D01*
X99087980Y-108712500D02*
X99087980Y-109571552D01*
%TA.AperFunction,Conductor*%
G36*
X86796121Y-120766002D02*
G01*
X86842614Y-120819658D01*
X86854000Y-120872000D01*
X86854000Y-121558885D01*
X86867035Y-121603280D01*
X86873897Y-121613957D01*
X86879000Y-121649452D01*
X86879000Y-123258885D01*
X86892035Y-123303280D01*
X86898897Y-123313957D01*
X86904000Y-123349452D01*
X86904000Y-124428000D01*
X86883998Y-124496121D01*
X86830342Y-124542614D01*
X86778000Y-124554000D01*
X85710115Y-124554000D01*
X85694876Y-124558475D01*
X85693671Y-124559865D01*
X85692000Y-124567548D01*
X85692000Y-124595438D01*
X85692337Y-124601953D01*
X85701894Y-124694057D01*
X85704788Y-124707456D01*
X85754381Y-124856107D01*
X85760555Y-124869285D01*
X85845897Y-125007197D01*
X85864735Y-125075649D01*
X85843574Y-125143419D01*
X85789133Y-125188990D01*
X85738753Y-125199500D01*
X78215492Y-125199500D01*
X78147371Y-125179498D01*
X78100878Y-125125842D01*
X78089492Y-125073500D01*
X78089492Y-124026500D01*
X78109494Y-123958379D01*
X78163150Y-123911886D01*
X78215492Y-123900500D01*
X78844748Y-123900500D01*
X78850816Y-123899293D01*
X78891061Y-123891288D01*
X78891062Y-123891288D01*
X78903231Y-123888867D01*
X78913548Y-123881973D01*
X78913551Y-123881972D01*
X78939997Y-123864301D01*
X79007749Y-123843085D01*
X79080003Y-123864301D01*
X79106449Y-123881972D01*
X79106452Y-123881973D01*
X79116769Y-123888867D01*
X79128938Y-123891288D01*
X79128939Y-123891288D01*
X79169184Y-123899293D01*
X79175252Y-123900500D01*
X80114748Y-123900500D01*
X80120816Y-123899293D01*
X80161061Y-123891288D01*
X80161062Y-123891288D01*
X80173231Y-123888867D01*
X80183548Y-123881973D01*
X80183551Y-123881972D01*
X80209997Y-123864301D01*
X80277749Y-123843085D01*
X80350003Y-123864301D01*
X80376449Y-123881972D01*
X80376452Y-123881973D01*
X80386769Y-123888867D01*
X80398938Y-123891288D01*
X80398939Y-123891288D01*
X80439184Y-123899293D01*
X80445252Y-123900500D01*
X81384748Y-123900500D01*
X81390816Y-123899293D01*
X81431061Y-123891288D01*
X81431062Y-123891288D01*
X81443231Y-123888867D01*
X81453548Y-123881973D01*
X81453551Y-123881972D01*
X81479997Y-123864301D01*
X81547749Y-123843085D01*
X81620003Y-123864301D01*
X81646449Y-123881972D01*
X81646452Y-123881973D01*
X81656769Y-123888867D01*
X81668938Y-123891288D01*
X81668939Y-123891288D01*
X81709184Y-123899293D01*
X81715252Y-123900500D01*
X82654748Y-123900500D01*
X82660816Y-123899293D01*
X82701061Y-123891288D01*
X82701062Y-123891288D01*
X82713231Y-123888867D01*
X82723548Y-123881973D01*
X82723551Y-123881972D01*
X82749997Y-123864301D01*
X82817749Y-123843085D01*
X82890003Y-123864301D01*
X82916449Y-123881972D01*
X82916452Y-123881973D01*
X82926769Y-123888867D01*
X82938938Y-123891288D01*
X82938939Y-123891288D01*
X82979184Y-123899293D01*
X82985252Y-123900500D01*
X83924748Y-123900500D01*
X83930816Y-123899293D01*
X83971061Y-123891288D01*
X83971062Y-123891288D01*
X83983231Y-123888867D01*
X84049552Y-123844552D01*
X84093867Y-123778231D01*
X84099538Y-123749724D01*
X84104293Y-123725816D01*
X84105500Y-123719748D01*
X84105500Y-123091375D01*
X84125502Y-123023254D01*
X84179158Y-122976761D01*
X84206918Y-122967796D01*
X84210374Y-122967108D01*
X84226002Y-122964000D01*
X84290838Y-122951104D01*
X84290839Y-122951103D01*
X84303008Y-122948683D01*
X84382693Y-122895438D01*
X85667000Y-122895438D01*
X85667337Y-122901953D01*
X85676894Y-122994057D01*
X85679788Y-123007456D01*
X85729381Y-123156107D01*
X85735555Y-123169286D01*
X85817788Y-123302173D01*
X85826824Y-123313574D01*
X85886694Y-123373340D01*
X85920773Y-123435623D01*
X85915770Y-123506443D01*
X85886850Y-123551530D01*
X85851015Y-123587428D01*
X85842002Y-123598840D01*
X85759996Y-123731880D01*
X85753849Y-123745061D01*
X85704509Y-123893814D01*
X85701642Y-123907190D01*
X85692328Y-123998097D01*
X85692000Y-124004514D01*
X85692000Y-124027885D01*
X85696475Y-124043124D01*
X85697865Y-124044329D01*
X85705548Y-124046000D01*
X86377885Y-124046000D01*
X86393124Y-124041525D01*
X86394329Y-124040135D01*
X86396000Y-124032452D01*
X86396000Y-123641115D01*
X86382965Y-123596720D01*
X86376103Y-123586043D01*
X86371000Y-123550548D01*
X86371000Y-122872115D01*
X86366525Y-122856876D01*
X86365135Y-122855671D01*
X86357452Y-122854000D01*
X85685115Y-122854000D01*
X85669876Y-122858475D01*
X85668671Y-122859865D01*
X85667000Y-122867548D01*
X85667000Y-122895438D01*
X84382693Y-122895438D01*
X84390333Y-122890333D01*
X84398172Y-122878601D01*
X84413838Y-122859514D01*
X84732862Y-122540490D01*
X84795174Y-122506464D01*
X84802243Y-122505137D01*
X84858466Y-122496232D01*
X84915512Y-122487197D01*
X84915513Y-122487197D01*
X84925304Y-122485646D01*
X85038342Y-122428050D01*
X85128050Y-122338342D01*
X85185646Y-122225304D01*
X85189178Y-122203008D01*
X85203941Y-122109793D01*
X85205492Y-122100000D01*
X85202505Y-122081143D01*
X85187197Y-121984487D01*
X85187196Y-121984485D01*
X85185646Y-121974696D01*
X85128050Y-121861658D01*
X85038342Y-121771950D01*
X84925304Y-121714354D01*
X84915515Y-121712804D01*
X84915513Y-121712803D01*
X84809793Y-121696059D01*
X84800000Y-121694508D01*
X84790207Y-121696059D01*
X84684487Y-121712803D01*
X84684485Y-121712804D01*
X84674696Y-121714354D01*
X84561658Y-121771950D01*
X84471950Y-121861658D01*
X84414354Y-121974696D01*
X84396129Y-122089769D01*
X84394864Y-122097753D01*
X84364452Y-122161906D01*
X84359510Y-122167138D01*
X84320595Y-122206053D01*
X84258283Y-122240079D01*
X84187468Y-122235014D01*
X84130632Y-122192467D01*
X84105821Y-122125947D01*
X84105500Y-122116958D01*
X84105500Y-121680252D01*
X84101416Y-121659719D01*
X84096288Y-121633939D01*
X84096288Y-121633938D01*
X84093867Y-121621769D01*
X84086975Y-121611454D01*
X84086973Y-121611450D01*
X84060280Y-121571502D01*
X84039065Y-121503750D01*
X84057848Y-121435283D01*
X84110665Y-121387839D01*
X84165045Y-121375500D01*
X85229479Y-121375500D01*
X85254061Y-121377921D01*
X85269022Y-121380897D01*
X85296154Y-121375500D01*
X85296155Y-121375500D01*
X85376517Y-121359515D01*
X85440624Y-121316680D01*
X85444637Y-121313998D01*
X85447204Y-121317839D01*
X85447213Y-121317834D01*
X85444646Y-121313993D01*
X85456927Y-121305787D01*
X85485873Y-121296723D01*
X85487864Y-121295636D01*
X85489070Y-121295722D01*
X85524679Y-121284572D01*
X85593146Y-121303355D01*
X85640590Y-121356172D01*
X85649437Y-121387540D01*
X85650440Y-121387323D01*
X85654788Y-121407456D01*
X85704381Y-121556107D01*
X85710555Y-121569286D01*
X85792788Y-121702173D01*
X85801824Y-121713574D01*
X85812745Y-121724476D01*
X85846824Y-121786759D01*
X85841821Y-121857579D01*
X85822607Y-121891743D01*
X85817003Y-121898838D01*
X85734996Y-122031880D01*
X85728849Y-122045061D01*
X85679509Y-122193814D01*
X85676642Y-122207190D01*
X85667328Y-122298097D01*
X85667000Y-122304514D01*
X85667000Y-122327885D01*
X85671475Y-122343124D01*
X85672865Y-122344329D01*
X85680548Y-122346000D01*
X86352885Y-122346000D01*
X86368124Y-122341525D01*
X86369329Y-122340135D01*
X86371000Y-122332452D01*
X86371000Y-122041115D01*
X86357965Y-121996720D01*
X86351103Y-121986043D01*
X86346000Y-121950548D01*
X86346000Y-120872000D01*
X86366002Y-120803879D01*
X86419658Y-120757386D01*
X86472000Y-120746000D01*
X86728000Y-120746000D01*
X86796121Y-120766002D01*
G37*
%TD.AperFunction*%
%TA.AperFunction,Conductor*%
G36*
X232177094Y-103200501D02*
G01*
X232292936Y-103200501D01*
X232312317Y-103202001D01*
X232318691Y-103202993D01*
X232326621Y-103204228D01*
X232326623Y-103204228D01*
X232335493Y-103205609D01*
X232344395Y-103204445D01*
X232344398Y-103204445D01*
X232356760Y-103202828D01*
X232377806Y-103201852D01*
X232447119Y-103204445D01*
X232673206Y-103212903D01*
X232682602Y-103213607D01*
X232906847Y-103238871D01*
X233007616Y-103250225D01*
X233016921Y-103251628D01*
X233338266Y-103312428D01*
X233347452Y-103314524D01*
X233663363Y-103399170D01*
X233672368Y-103401947D01*
X233981085Y-103509970D01*
X233989856Y-103513413D01*
X234289615Y-103644194D01*
X234298104Y-103648282D01*
X234552822Y-103782903D01*
X234572981Y-103796171D01*
X234576525Y-103799026D01*
X234576528Y-103799028D01*
X234583516Y-103804656D01*
X234591804Y-103808098D01*
X234591805Y-103808098D01*
X234612333Y-103816622D01*
X234627013Y-103823870D01*
X248807543Y-112011004D01*
X248823580Y-112021994D01*
X248841846Y-112036707D01*
X248850131Y-112040147D01*
X248850134Y-112040149D01*
X248857812Y-112043337D01*
X248878731Y-112054433D01*
X249086461Y-112191060D01*
X249098214Y-112199809D01*
X249309641Y-112377216D01*
X249320290Y-112387263D01*
X249509701Y-112588027D01*
X249519099Y-112599227D01*
X249659213Y-112787433D01*
X249683921Y-112820622D01*
X249691972Y-112832863D01*
X249811424Y-113039760D01*
X249829964Y-113071873D01*
X249836540Y-113084966D01*
X249945852Y-113338378D01*
X249945852Y-113338379D01*
X249950863Y-113352144D01*
X250027541Y-113608265D01*
X250030020Y-113616547D01*
X250033398Y-113630799D01*
X250067547Y-113824470D01*
X250081323Y-113902599D01*
X250083023Y-113917147D01*
X250086920Y-113984051D01*
X250099071Y-114192674D01*
X250099071Y-114207326D01*
X250095910Y-114261599D01*
X250083655Y-114472020D01*
X250083024Y-114482848D01*
X250081324Y-114497396D01*
X250033881Y-114766463D01*
X250033399Y-114769195D01*
X250030021Y-114783447D01*
X249954215Y-115036658D01*
X249950864Y-115047852D01*
X249945853Y-115061618D01*
X249839768Y-115307550D01*
X249836540Y-115315033D01*
X249829964Y-115328126D01*
X249746754Y-115472251D01*
X249691972Y-115567136D01*
X249683921Y-115579378D01*
X249519099Y-115800773D01*
X249509701Y-115811973D01*
X249320290Y-116012737D01*
X249309641Y-116022784D01*
X249098214Y-116200191D01*
X249086461Y-116208940D01*
X248884729Y-116341622D01*
X248860960Y-116353861D01*
X248852545Y-116357116D01*
X248845417Y-116362575D01*
X248845418Y-116362575D01*
X248827774Y-116376089D01*
X248814158Y-116385178D01*
X246985222Y-117441115D01*
X234633632Y-124572309D01*
X234616095Y-124580702D01*
X234602585Y-124585928D01*
X234602582Y-124585930D01*
X234594214Y-124589167D01*
X234587089Y-124594624D01*
X234587086Y-124594626D01*
X234577189Y-124602206D01*
X234559450Y-124613574D01*
X234298096Y-124751702D01*
X234289607Y-124755790D01*
X233989845Y-124886573D01*
X233981073Y-124890016D01*
X233672365Y-124998035D01*
X233663361Y-125000812D01*
X233347460Y-125085455D01*
X233338274Y-125087551D01*
X233016914Y-125148354D01*
X233007597Y-125149759D01*
X232682602Y-125186375D01*
X232673205Y-125187079D01*
X232477749Y-125194391D01*
X232385125Y-125197856D01*
X232361035Y-125196444D01*
X232358758Y-125196090D01*
X232356719Y-125195772D01*
X232356717Y-125195772D01*
X232347847Y-125194391D01*
X232338945Y-125195555D01*
X232338940Y-125195555D01*
X232316911Y-125198436D01*
X232300575Y-125199500D01*
X88610669Y-125199500D01*
X88542548Y-125179498D01*
X88496055Y-125125842D01*
X88485951Y-125055568D01*
X88515445Y-124990988D01*
X88559257Y-124961940D01*
X88558126Y-124959719D01*
X88669388Y-124903028D01*
X88669387Y-124903028D01*
X88678220Y-124898528D01*
X88773528Y-124803220D01*
X88834719Y-124683126D01*
X88850500Y-124583488D01*
X88850500Y-124094669D01*
X89192001Y-124094669D01*
X89192371Y-124101490D01*
X89197895Y-124152352D01*
X89201521Y-124167604D01*
X89246676Y-124288054D01*
X89255214Y-124303649D01*
X89331715Y-124405724D01*
X89344276Y-124418285D01*
X89446351Y-124494786D01*
X89461946Y-124503324D01*
X89582394Y-124548478D01*
X89597649Y-124552105D01*
X89648514Y-124557631D01*
X89655328Y-124558000D01*
X90252885Y-124558000D01*
X90268124Y-124553525D01*
X90269329Y-124552135D01*
X90271000Y-124544452D01*
X90271000Y-124539884D01*
X90779000Y-124539884D01*
X90783475Y-124555123D01*
X90784865Y-124556328D01*
X90792548Y-124557999D01*
X91307974Y-124557999D01*
X91376095Y-124578001D01*
X91408800Y-124608434D01*
X91481715Y-124705724D01*
X91494276Y-124718285D01*
X91596351Y-124794786D01*
X91611946Y-124803324D01*
X91732394Y-124848478D01*
X91747649Y-124852105D01*
X91798514Y-124857631D01*
X91805328Y-124858000D01*
X92477885Y-124858000D01*
X92493124Y-124853525D01*
X92494329Y-124852135D01*
X92496000Y-124844452D01*
X92496000Y-124839884D01*
X93004000Y-124839884D01*
X93008475Y-124855123D01*
X93009865Y-124856328D01*
X93017548Y-124857999D01*
X93694669Y-124857999D01*
X93701490Y-124857629D01*
X93752352Y-124852105D01*
X93767604Y-124848479D01*
X93888054Y-124803324D01*
X93903649Y-124794786D01*
X94005724Y-124718285D01*
X94018285Y-124705724D01*
X94094786Y-124603649D01*
X94103324Y-124588054D01*
X94148478Y-124467606D01*
X94152105Y-124452351D01*
X94157631Y-124401486D01*
X94158000Y-124394672D01*
X94158000Y-124394669D01*
X94442001Y-124394669D01*
X94442371Y-124401490D01*
X94447895Y-124452352D01*
X94451521Y-124467604D01*
X94496676Y-124588054D01*
X94505214Y-124603649D01*
X94581715Y-124705724D01*
X94594276Y-124718285D01*
X94696351Y-124794786D01*
X94711946Y-124803324D01*
X94832394Y-124848478D01*
X94847649Y-124852105D01*
X94898514Y-124857631D01*
X94905328Y-124858000D01*
X95177885Y-124858000D01*
X95193124Y-124853525D01*
X95194329Y-124852135D01*
X95196000Y-124844452D01*
X95196000Y-124839884D01*
X95704000Y-124839884D01*
X95708475Y-124855123D01*
X95709865Y-124856328D01*
X95717548Y-124857999D01*
X95994669Y-124857999D01*
X96001490Y-124857629D01*
X96052352Y-124852105D01*
X96067604Y-124848479D01*
X96188054Y-124803324D01*
X96203649Y-124794786D01*
X96305724Y-124718285D01*
X96318285Y-124705724D01*
X96391199Y-124608435D01*
X96448058Y-124565920D01*
X96492025Y-124558000D01*
X97002885Y-124558000D01*
X97018124Y-124553525D01*
X97019329Y-124552135D01*
X97021000Y-124544452D01*
X97021000Y-124539884D01*
X97529000Y-124539884D01*
X97533475Y-124555123D01*
X97534865Y-124556328D01*
X97542548Y-124557999D01*
X98144669Y-124557999D01*
X98151490Y-124557629D01*
X98202352Y-124552105D01*
X98217604Y-124548479D01*
X98338054Y-124503324D01*
X98353649Y-124494786D01*
X98455724Y-124418285D01*
X98468285Y-124405724D01*
X98544786Y-124303649D01*
X98553324Y-124288054D01*
X98598478Y-124167606D01*
X98602105Y-124152351D01*
X98607631Y-124101486D01*
X98608000Y-124094672D01*
X98608000Y-123672115D01*
X98603525Y-123656876D01*
X98602135Y-123655671D01*
X98594452Y-123654000D01*
X97547115Y-123654000D01*
X97531876Y-123658475D01*
X97530671Y-123659865D01*
X97529000Y-123667548D01*
X97529000Y-124539884D01*
X97021000Y-124539884D01*
X97021000Y-123672115D01*
X97016525Y-123656876D01*
X97015135Y-123655671D01*
X97007452Y-123654000D01*
X95722115Y-123654000D01*
X95706876Y-123658475D01*
X95705671Y-123659865D01*
X95704000Y-123667548D01*
X95704000Y-124839884D01*
X95196000Y-124839884D01*
X95196000Y-123672115D01*
X95191525Y-123656876D01*
X95190135Y-123655671D01*
X95182452Y-123654000D01*
X94460116Y-123654000D01*
X94444877Y-123658475D01*
X94443672Y-123659865D01*
X94442001Y-123667548D01*
X94442001Y-124394669D01*
X94158000Y-124394669D01*
X94158000Y-123672115D01*
X94153525Y-123656876D01*
X94152135Y-123655671D01*
X94144452Y-123654000D01*
X93022115Y-123654000D01*
X93006876Y-123658475D01*
X93005671Y-123659865D01*
X93004000Y-123667548D01*
X93004000Y-124839884D01*
X92496000Y-124839884D01*
X92496000Y-123672115D01*
X92491525Y-123656876D01*
X92490135Y-123655671D01*
X92482452Y-123654000D01*
X90797115Y-123654000D01*
X90781876Y-123658475D01*
X90780671Y-123659865D01*
X90779000Y-123667548D01*
X90779000Y-124539884D01*
X90271000Y-124539884D01*
X90271000Y-123672115D01*
X90266525Y-123656876D01*
X90265135Y-123655671D01*
X90257452Y-123654000D01*
X89210116Y-123654000D01*
X89194877Y-123658475D01*
X89193672Y-123659865D01*
X89192001Y-123667548D01*
X89192001Y-124094669D01*
X88850500Y-124094669D01*
X88850500Y-124016512D01*
X88834719Y-123916874D01*
X88773528Y-123796780D01*
X88678220Y-123701472D01*
X88618492Y-123671039D01*
X88566962Y-123644783D01*
X88566961Y-123644783D01*
X88558126Y-123640281D01*
X88558053Y-123640270D01*
X88503960Y-123603283D01*
X88476322Y-123537886D01*
X88475500Y-123523521D01*
X88475500Y-123366294D01*
X88495502Y-123298173D01*
X88544297Y-123254027D01*
X88653220Y-123198528D01*
X88748528Y-123103220D01*
X88809719Y-122983126D01*
X88811980Y-122968855D01*
X88819173Y-122923434D01*
X88825500Y-122883488D01*
X88825500Y-122316512D01*
X88809719Y-122216874D01*
X88748528Y-122096780D01*
X88653220Y-122001472D01*
X88584807Y-121966614D01*
X88541962Y-121944783D01*
X88541961Y-121944783D01*
X88533126Y-121940281D01*
X88533053Y-121940270D01*
X88478960Y-121903283D01*
X88451322Y-121837886D01*
X88450500Y-121823521D01*
X88450500Y-121766294D01*
X88470502Y-121698173D01*
X88519297Y-121654027D01*
X88526215Y-121650502D01*
X88628220Y-121598528D01*
X88723528Y-121503220D01*
X88728027Y-121494390D01*
X88728030Y-121494386D01*
X88755732Y-121440016D01*
X88804480Y-121388400D01*
X88873394Y-121371334D01*
X88925202Y-121384951D01*
X89024696Y-121435646D01*
X89034485Y-121437196D01*
X89034487Y-121437197D01*
X89140207Y-121453941D01*
X89150000Y-121455492D01*
X89159793Y-121453941D01*
X89265513Y-121437197D01*
X89265515Y-121437196D01*
X89275304Y-121435646D01*
X89352798Y-121396161D01*
X89422574Y-121383057D01*
X89488358Y-121409757D01*
X89529265Y-121467784D01*
X89536000Y-121508428D01*
X89536000Y-121861588D01*
X89533579Y-121886168D01*
X89530828Y-121900000D01*
X89533249Y-121912172D01*
X89538840Y-121940281D01*
X89543929Y-121965863D01*
X89551317Y-122003008D01*
X89558214Y-122013330D01*
X89602012Y-122078877D01*
X89623227Y-122146629D01*
X89604444Y-122215096D01*
X89551627Y-122262540D01*
X89541477Y-122266861D01*
X89461946Y-122296676D01*
X89446351Y-122305214D01*
X89344276Y-122381715D01*
X89331715Y-122394276D01*
X89255214Y-122496351D01*
X89246676Y-122511946D01*
X89201522Y-122632394D01*
X89197895Y-122647649D01*
X89192369Y-122698514D01*
X89192000Y-122705328D01*
X89192000Y-123127885D01*
X89196475Y-123143124D01*
X89197865Y-123144329D01*
X89205548Y-123146000D01*
X94139884Y-123146000D01*
X94155123Y-123141525D01*
X94156328Y-123140135D01*
X94157999Y-123132452D01*
X94157999Y-122405331D01*
X94157629Y-122398510D01*
X94152105Y-122347650D01*
X94148478Y-122332392D01*
X94139315Y-122307952D01*
X94134131Y-122237145D01*
X94140886Y-122215505D01*
X94141788Y-122213328D01*
X94144234Y-122209667D01*
X94148683Y-122203008D01*
X94155413Y-122169172D01*
X94164000Y-122126002D01*
X94164000Y-122125998D01*
X94169171Y-122100000D01*
X94166421Y-122086174D01*
X94164000Y-122061594D01*
X94164000Y-121754998D01*
X94184002Y-121686877D01*
X94237658Y-121640384D01*
X94301480Y-121629750D01*
X94305252Y-121630500D01*
X94427354Y-121630500D01*
X94495475Y-121650502D01*
X94528180Y-121680935D01*
X94606715Y-121785724D01*
X94619277Y-121798286D01*
X94661334Y-121829806D01*
X94703849Y-121886665D01*
X94708875Y-121957484D01*
X94674815Y-122019777D01*
X94661334Y-122031458D01*
X94594276Y-122081715D01*
X94581715Y-122094276D01*
X94505214Y-122196351D01*
X94496676Y-122211946D01*
X94451522Y-122332394D01*
X94447895Y-122347649D01*
X94442369Y-122398514D01*
X94442000Y-122405328D01*
X94442000Y-123127885D01*
X94446475Y-123143124D01*
X94447865Y-123144329D01*
X94455548Y-123146000D01*
X98589884Y-123146000D01*
X98605123Y-123141525D01*
X98606328Y-123140135D01*
X98607999Y-123132452D01*
X98607999Y-122918481D01*
X98999500Y-122918481D01*
X98999501Y-123381518D01*
X99000276Y-123386411D01*
X99000276Y-123386412D01*
X99008070Y-123435623D01*
X99014354Y-123475304D01*
X99071950Y-123588342D01*
X99161658Y-123678050D01*
X99274696Y-123735646D01*
X99284485Y-123737196D01*
X99284487Y-123737197D01*
X99311849Y-123741530D01*
X99368481Y-123750500D01*
X99674938Y-123750500D01*
X99981518Y-123750499D01*
X100004875Y-123746800D01*
X100065506Y-123737198D01*
X100065508Y-123737197D01*
X100075304Y-123735646D01*
X100094597Y-123725816D01*
X100118648Y-123713561D01*
X100188342Y-123678050D01*
X100278050Y-123588342D01*
X100335646Y-123475304D01*
X100338578Y-123456792D01*
X100368988Y-123392639D01*
X100429256Y-123355110D01*
X100463027Y-123350500D01*
X100598500Y-123350500D01*
X100666621Y-123370502D01*
X100713114Y-123424158D01*
X100724500Y-123476500D01*
X100724500Y-123594748D01*
X100736133Y-123653231D01*
X100780448Y-123719552D01*
X100846769Y-123763867D01*
X100858938Y-123766288D01*
X100858939Y-123766288D01*
X100899184Y-123774293D01*
X100905252Y-123775500D01*
X101944748Y-123775500D01*
X102003231Y-123763867D01*
X102010095Y-123759280D01*
X102054238Y-123750500D01*
X103108564Y-123750500D01*
X103128274Y-123752051D01*
X103150000Y-123755492D01*
X103159793Y-123753941D01*
X103265513Y-123737197D01*
X103265515Y-123737196D01*
X103275304Y-123735646D01*
X103388342Y-123678050D01*
X103478050Y-123588342D01*
X103535646Y-123475304D01*
X103555492Y-123350000D01*
X103553941Y-123340207D01*
X103537197Y-123234487D01*
X103537196Y-123234485D01*
X103535646Y-123224696D01*
X103478050Y-123111658D01*
X103388342Y-123021950D01*
X103275304Y-122964354D01*
X103265515Y-122962804D01*
X103265513Y-122962803D01*
X103159793Y-122946059D01*
X103150000Y-122944508D01*
X103140207Y-122946059D01*
X103128274Y-122947949D01*
X103108564Y-122949500D01*
X102251500Y-122949500D01*
X102183379Y-122929498D01*
X102136886Y-122875842D01*
X102125500Y-122823500D01*
X102125500Y-122555252D01*
X102113867Y-122496769D01*
X102069552Y-122430448D01*
X102003231Y-122386133D01*
X101991062Y-122383712D01*
X101991061Y-122383712D01*
X101950816Y-122375707D01*
X101944748Y-122374500D01*
X100905252Y-122374500D01*
X100899184Y-122375707D01*
X100858939Y-122383712D01*
X100858938Y-122383712D01*
X100846769Y-122386133D01*
X100780448Y-122430448D01*
X100736133Y-122496769D01*
X100724500Y-122555252D01*
X100724500Y-122673500D01*
X100704498Y-122741621D01*
X100650842Y-122788114D01*
X100598500Y-122799500D01*
X100400021Y-122799500D01*
X100331900Y-122779498D01*
X100287754Y-122730703D01*
X100287528Y-122730259D01*
X100278050Y-122711658D01*
X100188342Y-122621950D01*
X100075304Y-122564354D01*
X100065515Y-122562804D01*
X100065513Y-122562803D01*
X100038151Y-122558470D01*
X99981519Y-122549500D01*
X99675062Y-122549500D01*
X99368482Y-122549501D01*
X99363589Y-122550276D01*
X99363588Y-122550276D01*
X99284494Y-122562802D01*
X99284492Y-122562803D01*
X99274696Y-122564354D01*
X99161658Y-122621950D01*
X99071950Y-122711658D01*
X99014354Y-122824696D01*
X98999500Y-122918481D01*
X98607999Y-122918481D01*
X98607999Y-122705331D01*
X98607629Y-122698510D01*
X98602105Y-122647648D01*
X98598479Y-122632396D01*
X98553324Y-122511946D01*
X98544786Y-122496351D01*
X98468285Y-122394276D01*
X98455724Y-122381715D01*
X98353649Y-122305214D01*
X98338054Y-122296676D01*
X98217606Y-122251522D01*
X98202351Y-122247895D01*
X98151486Y-122242369D01*
X98144672Y-122242000D01*
X97468724Y-122242000D01*
X97400603Y-122221998D01*
X97354110Y-122168342D01*
X97344006Y-122098068D01*
X97373500Y-122033488D01*
X97393160Y-122015173D01*
X97455725Y-121968284D01*
X97468285Y-121955724D01*
X97544786Y-121853649D01*
X97553324Y-121838054D01*
X97598478Y-121717606D01*
X97602105Y-121702351D01*
X97607631Y-121651486D01*
X97608000Y-121644672D01*
X97608000Y-121097115D01*
X97603525Y-121081876D01*
X97602135Y-121080671D01*
X97594452Y-121079000D01*
X95443115Y-121079000D01*
X95427876Y-121083475D01*
X95426671Y-121084865D01*
X95425000Y-121092548D01*
X95425000Y-121852000D01*
X95404998Y-121920121D01*
X95351342Y-121966614D01*
X95299000Y-121978000D01*
X95101000Y-121978000D01*
X95032879Y-121957998D01*
X94986386Y-121904342D01*
X94975000Y-121852000D01*
X94975000Y-121454826D01*
X94975167Y-121451422D01*
X94975500Y-121449748D01*
X94975500Y-120496885D01*
X95425000Y-120496885D01*
X95429475Y-120512124D01*
X95430865Y-120513329D01*
X95438548Y-120515000D01*
X95869170Y-120515000D01*
X95937291Y-120535002D01*
X95951682Y-120545775D01*
X95978865Y-120569329D01*
X95986548Y-120571000D01*
X96115385Y-120571000D01*
X96130624Y-120566525D01*
X96131829Y-120565135D01*
X96133500Y-120557452D01*
X96133500Y-120552885D01*
X96641500Y-120552885D01*
X96645975Y-120568124D01*
X96647365Y-120569329D01*
X96655048Y-120571000D01*
X97589884Y-120571000D01*
X97605123Y-120566525D01*
X97606328Y-120565135D01*
X97607999Y-120557452D01*
X97607999Y-120005331D01*
X97607629Y-119998510D01*
X97602105Y-119947648D01*
X97598479Y-119932396D01*
X97553324Y-119811946D01*
X97544786Y-119796351D01*
X97468285Y-119694276D01*
X97455724Y-119681715D01*
X97353649Y-119605214D01*
X97338054Y-119596676D01*
X97217606Y-119551522D01*
X97202351Y-119547895D01*
X97151486Y-119542369D01*
X97144672Y-119542000D01*
X96659615Y-119542000D01*
X96644376Y-119546475D01*
X96643171Y-119547865D01*
X96641500Y-119555548D01*
X96641500Y-120552885D01*
X96133500Y-120552885D01*
X96133500Y-119560116D01*
X96129025Y-119544877D01*
X96127635Y-119543672D01*
X96119952Y-119542001D01*
X95630331Y-119542001D01*
X95623510Y-119542371D01*
X95564793Y-119548748D01*
X95564533Y-119546353D01*
X95535467Y-119546351D01*
X95535207Y-119548748D01*
X95476486Y-119542369D01*
X95469672Y-119542000D01*
X95443115Y-119542000D01*
X95427876Y-119546475D01*
X95426671Y-119547865D01*
X95425000Y-119555548D01*
X95425000Y-120496885D01*
X94975500Y-120496885D01*
X94975500Y-120030252D01*
X94975167Y-120028578D01*
X94975000Y-120025174D01*
X94975000Y-119560116D01*
X94970525Y-119544877D01*
X94969135Y-119543672D01*
X94961452Y-119542001D01*
X94930331Y-119542001D01*
X94923510Y-119542371D01*
X94872648Y-119547895D01*
X94857396Y-119551521D01*
X94736946Y-119596676D01*
X94721351Y-119605214D01*
X94619276Y-119681715D01*
X94606715Y-119694276D01*
X94528180Y-119799065D01*
X94471321Y-119841580D01*
X94427354Y-119849500D01*
X94305252Y-119849500D01*
X94249579Y-119860574D01*
X94200421Y-119860574D01*
X94144748Y-119849500D01*
X93655252Y-119849500D01*
X93599579Y-119860574D01*
X93550421Y-119860574D01*
X93494748Y-119849500D01*
X93101500Y-119849500D01*
X93033379Y-119829498D01*
X92986886Y-119775842D01*
X92975500Y-119723500D01*
X92975500Y-119621500D01*
X92995502Y-119553379D01*
X93049158Y-119506886D01*
X93101500Y-119495500D01*
X93240457Y-119495500D01*
X93265039Y-119497921D01*
X93280000Y-119500897D01*
X93307132Y-119495500D01*
X93307133Y-119495500D01*
X93387495Y-119479515D01*
X93442688Y-119442636D01*
X93455622Y-119433994D01*
X93455623Y-119433993D01*
X93478624Y-119418624D01*
X93487102Y-119405936D01*
X93502772Y-119386844D01*
X93552186Y-119337430D01*
X93621570Y-119302076D01*
X93715513Y-119287197D01*
X93715515Y-119287196D01*
X93725304Y-119285646D01*
X93838342Y-119228050D01*
X93928050Y-119138342D01*
X93985646Y-119025304D01*
X93995684Y-118961930D01*
X94003941Y-118909793D01*
X94005492Y-118900000D01*
X93985646Y-118774696D01*
X93981144Y-118765861D01*
X93980844Y-118764937D01*
X93978816Y-118693969D01*
X94015478Y-118633171D01*
X94079190Y-118601846D01*
X94100677Y-118600000D01*
X98358194Y-118600000D01*
X98426315Y-118620002D01*
X98447289Y-118636905D01*
X99001463Y-119191079D01*
X99035489Y-119253391D01*
X99030424Y-119324206D01*
X98987877Y-119381042D01*
X98969572Y-119392440D01*
X98920493Y-119417448D01*
X98920492Y-119417449D01*
X98911658Y-119421950D01*
X98821950Y-119511658D01*
X98764354Y-119624696D01*
X98762804Y-119634485D01*
X98762803Y-119634487D01*
X98758869Y-119659329D01*
X98744508Y-119750000D01*
X98746059Y-119759793D01*
X98762110Y-119861133D01*
X98764354Y-119875304D01*
X98821950Y-119988342D01*
X98911658Y-120078050D01*
X99024696Y-120135646D01*
X99034485Y-120137196D01*
X99034487Y-120137197D01*
X99128430Y-120152076D01*
X99197814Y-120187430D01*
X99362595Y-120352211D01*
X99396621Y-120414523D01*
X99399500Y-120441306D01*
X99399500Y-120786973D01*
X99379498Y-120855094D01*
X99325842Y-120901587D01*
X99293211Y-120911422D01*
X99274696Y-120914354D01*
X99161658Y-120971950D01*
X99071950Y-121061658D01*
X99014354Y-121174696D01*
X99012804Y-121184485D01*
X99012803Y-121184487D01*
X99010811Y-121197064D01*
X98999500Y-121268481D01*
X98999501Y-121731518D01*
X99000276Y-121736409D01*
X99000276Y-121736412D01*
X99012444Y-121813241D01*
X99014354Y-121825304D01*
X99071950Y-121938342D01*
X99161658Y-122028050D01*
X99274696Y-122085646D01*
X99284485Y-122087196D01*
X99284487Y-122087197D01*
X99311849Y-122091530D01*
X99368481Y-122100500D01*
X99674938Y-122100500D01*
X99981518Y-122100499D01*
X99986412Y-122099724D01*
X100065506Y-122087198D01*
X100065508Y-122087197D01*
X100075304Y-122085646D01*
X100096795Y-122074696D01*
X100122508Y-122061594D01*
X100188342Y-122028050D01*
X100278050Y-121938342D01*
X100335646Y-121825304D01*
X100337381Y-121814354D01*
X100344992Y-121766294D01*
X100350500Y-121731519D01*
X100350499Y-121268482D01*
X100349724Y-121263588D01*
X100337198Y-121184494D01*
X100337197Y-121184492D01*
X100335646Y-121174696D01*
X100278050Y-121061658D01*
X100188342Y-120971950D01*
X100075304Y-120914354D01*
X100056792Y-120911422D01*
X99992639Y-120881012D01*
X99955110Y-120820744D01*
X99950500Y-120786973D01*
X99950500Y-120444306D01*
X99970502Y-120376185D01*
X100024158Y-120329692D01*
X100094432Y-120319588D01*
X100159012Y-120349082D01*
X100165595Y-120355211D01*
X100552228Y-120741844D01*
X100567898Y-120760936D01*
X100576376Y-120773624D01*
X100586689Y-120780515D01*
X100599377Y-120788993D01*
X100599378Y-120788994D01*
X100667506Y-120834516D01*
X100665110Y-120838101D01*
X100702026Y-120867873D01*
X100724500Y-120939694D01*
X100724500Y-121094748D01*
X100736133Y-121153231D01*
X100780448Y-121219552D01*
X100846769Y-121263867D01*
X100858938Y-121266288D01*
X100858939Y-121266288D01*
X100899184Y-121274293D01*
X100905252Y-121275500D01*
X101944748Y-121275500D01*
X101950816Y-121274293D01*
X101991061Y-121266288D01*
X101991062Y-121266288D01*
X102003231Y-121263867D01*
X102069552Y-121219552D01*
X102113867Y-121153231D01*
X102125500Y-121094748D01*
X102125500Y-120055252D01*
X102122136Y-120038342D01*
X102116288Y-120008939D01*
X102116288Y-120008938D01*
X102113867Y-119996769D01*
X102069552Y-119930448D01*
X102003231Y-119886133D01*
X101991062Y-119883712D01*
X101991061Y-119883712D01*
X101950816Y-119875707D01*
X101944748Y-119874500D01*
X100905252Y-119874500D01*
X100899184Y-119875707D01*
X100858939Y-119883712D01*
X100858938Y-119883712D01*
X100846769Y-119886133D01*
X100780448Y-119930448D01*
X100773557Y-119940761D01*
X100773555Y-119940763D01*
X100761448Y-119958882D01*
X100706970Y-120004408D01*
X100636527Y-120013255D01*
X100567589Y-119977973D01*
X98747272Y-118157656D01*
X98731602Y-118138564D01*
X98730015Y-118136189D01*
X98723124Y-118125876D01*
X98700123Y-118110507D01*
X98700121Y-118110505D01*
X98663683Y-118086158D01*
X98663682Y-118086158D01*
X98631995Y-118064985D01*
X98619826Y-118062564D01*
X98619825Y-118062564D01*
X98551633Y-118049000D01*
X98536672Y-118046024D01*
X98536671Y-118046024D01*
X98524500Y-118043603D01*
X98512329Y-118046024D01*
X98509539Y-118046579D01*
X98484957Y-118049000D01*
X92368464Y-118049000D01*
X92300343Y-118028998D01*
X92279369Y-118012095D01*
X92263724Y-117996450D01*
X92150686Y-117938854D01*
X92140894Y-117937303D01*
X92137502Y-117936201D01*
X92078896Y-117896128D01*
X92051259Y-117830731D01*
X92063366Y-117760774D01*
X92087343Y-117727273D01*
X92227211Y-117587405D01*
X92289523Y-117553379D01*
X92316306Y-117550500D01*
X93435457Y-117550500D01*
X93460039Y-117552921D01*
X93475000Y-117555897D01*
X93502132Y-117550500D01*
X93502133Y-117550500D01*
X93582495Y-117534515D01*
X93634090Y-117500040D01*
X93650620Y-117488995D01*
X93653187Y-117492836D01*
X93653190Y-117492834D01*
X93650623Y-117488993D01*
X93663311Y-117480515D01*
X93673624Y-117473624D01*
X93682104Y-117460934D01*
X93697771Y-117441845D01*
X94391844Y-116747772D01*
X94410936Y-116732102D01*
X94413311Y-116730515D01*
X94423624Y-116723624D01*
X94440267Y-116698717D01*
X94473698Y-116648683D01*
X94484515Y-116632495D01*
X94491531Y-116597226D01*
X94500500Y-116552133D01*
X94503476Y-116537172D01*
X94503476Y-116537171D01*
X94505897Y-116525000D01*
X94502921Y-116510039D01*
X94500500Y-116485457D01*
X94500500Y-116112759D01*
X94520502Y-116044638D01*
X94569293Y-116000494D01*
X94570859Y-115999696D01*
X94572116Y-115999056D01*
X94641892Y-115985950D01*
X94707677Y-116012648D01*
X94737098Y-116046050D01*
X94759821Y-116083571D01*
X94769131Y-116095443D01*
X94879557Y-116205869D01*
X94891426Y-116215176D01*
X95025012Y-116296079D01*
X95038757Y-116302285D01*
X95188644Y-116349256D01*
X95201694Y-116351869D01*
X95265521Y-116357734D01*
X95271309Y-116358000D01*
X95327885Y-116358000D01*
X95343124Y-116353525D01*
X95344329Y-116352135D01*
X95346000Y-116344452D01*
X95346000Y-115322000D01*
X95366002Y-115253879D01*
X95419658Y-115207386D01*
X95472000Y-115196000D01*
X95728000Y-115196000D01*
X95796121Y-115216002D01*
X95842614Y-115269658D01*
X95854000Y-115322000D01*
X95854000Y-116339884D01*
X95858475Y-116355123D01*
X95859865Y-116356328D01*
X95867548Y-116357999D01*
X95928705Y-116357999D01*
X95934454Y-116357736D01*
X95998315Y-116351868D01*
X96011351Y-116349257D01*
X96161243Y-116302285D01*
X96174988Y-116296079D01*
X96308574Y-116215176D01*
X96320443Y-116205869D01*
X96430869Y-116095443D01*
X96440178Y-116083571D01*
X96463905Y-116044395D01*
X96516303Y-115996489D01*
X96586283Y-115984517D01*
X96636175Y-116003998D01*
X96636658Y-116003050D01*
X96749696Y-116060646D01*
X96759485Y-116062196D01*
X96759487Y-116062197D01*
X96786849Y-116066530D01*
X96843481Y-116075500D01*
X97149938Y-116075500D01*
X97456518Y-116075499D01*
X97461412Y-116074724D01*
X97540506Y-116062198D01*
X97540508Y-116062197D01*
X97550304Y-116060646D01*
X97663342Y-116003050D01*
X97753050Y-115913342D01*
X97810646Y-115800304D01*
X97812987Y-115785527D01*
X97820545Y-115737802D01*
X97825500Y-115706519D01*
X97825499Y-115243482D01*
X97824133Y-115234855D01*
X97812198Y-115159494D01*
X97812197Y-115159492D01*
X97810646Y-115149696D01*
X97805964Y-115140506D01*
X97785479Y-115100304D01*
X97753050Y-115036658D01*
X97663342Y-114946950D01*
X97550304Y-114889354D01*
X97540515Y-114887804D01*
X97540513Y-114887803D01*
X97513151Y-114883470D01*
X97456519Y-114874500D01*
X97418173Y-114874500D01*
X97066307Y-114874501D01*
X96998187Y-114854499D01*
X96977212Y-114837596D01*
X96780211Y-114640595D01*
X96746185Y-114578283D01*
X96751250Y-114507468D01*
X96793797Y-114450632D01*
X96860317Y-114425821D01*
X96869306Y-114425500D01*
X97357831Y-114425499D01*
X97456518Y-114425499D01*
X97461412Y-114424724D01*
X97540506Y-114412198D01*
X97540508Y-114412197D01*
X97550304Y-114410646D01*
X97572376Y-114399400D01*
X97583992Y-114393481D01*
X97663342Y-114353050D01*
X97753050Y-114263342D01*
X97810646Y-114150304D01*
X97825500Y-114056519D01*
X97825499Y-113593482D01*
X97814574Y-113524500D01*
X97812198Y-113509494D01*
X97812197Y-113509492D01*
X97810646Y-113499696D01*
X97753050Y-113386658D01*
X97663342Y-113296950D01*
X97550304Y-113239354D01*
X97540513Y-113237803D01*
X97540512Y-113237803D01*
X97506790Y-113232462D01*
X97442636Y-113202050D01*
X97405109Y-113141782D01*
X97400500Y-113108013D01*
X97400500Y-112539543D01*
X97402921Y-112514961D01*
X97403476Y-112512171D01*
X97405897Y-112500000D01*
X97401024Y-112475500D01*
X97399053Y-112465594D01*
X97395628Y-112448377D01*
X97384515Y-112392505D01*
X97351505Y-112343103D01*
X97338996Y-112324382D01*
X97341196Y-112322912D01*
X97341194Y-112322906D01*
X97338993Y-112324377D01*
X97330515Y-112311689D01*
X97323624Y-112301376D01*
X97310936Y-112292898D01*
X97291844Y-112277228D01*
X97180211Y-112165595D01*
X97146185Y-112103283D01*
X97151250Y-112032468D01*
X97193797Y-111975632D01*
X97260317Y-111950821D01*
X97269306Y-111950500D01*
X98947957Y-111950500D01*
X98972539Y-111952921D01*
X98987500Y-111955897D01*
X99014632Y-111950500D01*
X99014633Y-111950500D01*
X99094995Y-111934515D01*
X99158614Y-111892006D01*
X99163122Y-111888994D01*
X99164592Y-111891194D01*
X99164594Y-111891194D01*
X99163123Y-111888993D01*
X99175811Y-111880515D01*
X99186124Y-111873624D01*
X99194602Y-111860936D01*
X99210272Y-111841844D01*
X99589711Y-111462405D01*
X99652023Y-111428379D01*
X99678806Y-111425500D01*
X100099154Y-111425499D01*
X100144018Y-111425499D01*
X100148912Y-111424724D01*
X100228006Y-111412198D01*
X100228008Y-111412197D01*
X100237804Y-111410646D01*
X100350842Y-111353050D01*
X100440550Y-111263342D01*
X100498146Y-111150304D01*
X100513000Y-111056519D01*
X100512999Y-110593482D01*
X100511858Y-110586279D01*
X100499698Y-110509494D01*
X100499697Y-110509492D01*
X100498146Y-110499696D01*
X100440550Y-110386658D01*
X100368698Y-110314806D01*
X100334672Y-110252494D01*
X100339737Y-110181679D01*
X100382284Y-110124843D01*
X100406553Y-110111023D01*
X100416547Y-110109035D01*
X100462042Y-110078636D01*
X100477025Y-110068625D01*
X100477026Y-110068624D01*
X100484674Y-110063514D01*
X100484675Y-110063513D01*
X100497363Y-110055035D01*
X100507676Y-110048144D01*
X100516154Y-110035456D01*
X100531824Y-110016364D01*
X100753864Y-109794324D01*
X100772956Y-109778654D01*
X100775331Y-109777067D01*
X100785644Y-109770176D01*
X100792787Y-109759487D01*
X100804454Y-109742026D01*
X100821586Y-109716385D01*
X100821587Y-109716385D01*
X100821588Y-109716382D01*
X100829529Y-109704498D01*
X100846535Y-109679047D01*
X100852217Y-109650481D01*
X100885124Y-109587571D01*
X100946818Y-109552438D01*
X101017713Y-109556238D01*
X101075300Y-109597763D01*
X101080559Y-109605056D01*
X101083267Y-109609108D01*
X101090005Y-109619192D01*
X101098894Y-109632494D01*
X101126376Y-109673624D01*
X101136693Y-109680518D01*
X101145470Y-109689295D01*
X101145273Y-109689491D01*
X101160511Y-109704729D01*
X101160707Y-109704533D01*
X101169484Y-109713310D01*
X101176376Y-109723624D01*
X101199377Y-109738993D01*
X101199378Y-109738994D01*
X101212026Y-109747445D01*
X101267505Y-109784515D01*
X101347867Y-109800500D01*
X101362828Y-109803476D01*
X101362829Y-109803476D01*
X101375000Y-109805897D01*
X101387171Y-109803476D01*
X101387173Y-109803476D01*
X101389963Y-109802921D01*
X101414543Y-109800500D01*
X101558694Y-109800500D01*
X101626815Y-109820502D01*
X101647789Y-109837405D01*
X101962595Y-110152211D01*
X101996621Y-110214523D01*
X101999500Y-110241306D01*
X101999500Y-111319748D01*
X102000707Y-111325816D01*
X102007160Y-111358255D01*
X102011133Y-111378231D01*
X102018026Y-111388547D01*
X102032792Y-111410646D01*
X102055448Y-111444552D01*
X102121769Y-111488867D01*
X102133938Y-111491288D01*
X102133939Y-111491288D01*
X102174184Y-111499293D01*
X102180252Y-111500500D01*
X102248500Y-111500500D01*
X102316621Y-111520502D01*
X102363114Y-111574158D01*
X102374500Y-111626500D01*
X102374500Y-111935457D01*
X102372079Y-111960039D01*
X102369103Y-111975000D01*
X102374500Y-112002132D01*
X102374500Y-112002133D01*
X102390485Y-112082495D01*
X102412484Y-112115418D01*
X102435257Y-112149500D01*
X102435257Y-112149501D01*
X102442812Y-112160807D01*
X102451376Y-112173624D01*
X102461692Y-112180517D01*
X102461693Y-112180518D01*
X102464064Y-112182102D01*
X102483156Y-112197772D01*
X103037595Y-112752211D01*
X103071621Y-112814523D01*
X103074500Y-112841306D01*
X103074500Y-113333488D01*
X103090281Y-113433126D01*
X103151472Y-113553220D01*
X103246780Y-113648528D01*
X103366874Y-113709719D01*
X103376663Y-113711269D01*
X103376665Y-113711270D01*
X103406149Y-113715940D01*
X103466512Y-113725500D01*
X103983488Y-113725500D01*
X104043851Y-113715940D01*
X104073335Y-113711270D01*
X104073337Y-113711269D01*
X104083126Y-113709719D01*
X104203220Y-113648528D01*
X104214522Y-113637226D01*
X104276834Y-113603200D01*
X104347649Y-113608265D01*
X104404485Y-113650812D01*
X104410762Y-113660018D01*
X104467793Y-113752179D01*
X104476828Y-113763579D01*
X104530472Y-113817129D01*
X104564552Y-113879411D01*
X104559549Y-113950231D01*
X104540607Y-113984051D01*
X104534824Y-113991426D01*
X104453921Y-114125012D01*
X104447715Y-114138757D01*
X104428056Y-114201490D01*
X104388599Y-114260512D01*
X104323495Y-114288832D01*
X104253415Y-114277459D01*
X104200609Y-114230003D01*
X104195555Y-114221013D01*
X104182552Y-114195492D01*
X104182549Y-114195488D01*
X104178050Y-114186658D01*
X104088342Y-114096950D01*
X103975304Y-114039354D01*
X103965515Y-114037804D01*
X103965513Y-114037803D01*
X103938151Y-114033470D01*
X103881519Y-114024500D01*
X103650047Y-114024500D01*
X103418482Y-114024501D01*
X103413589Y-114025276D01*
X103413588Y-114025276D01*
X103334494Y-114037802D01*
X103334492Y-114037803D01*
X103324696Y-114039354D01*
X103211658Y-114096950D01*
X103121950Y-114186658D01*
X103064354Y-114299696D01*
X103062804Y-114309485D01*
X103062803Y-114309487D01*
X103059863Y-114328050D01*
X103049500Y-114393481D01*
X103049501Y-115006518D01*
X103050276Y-115011411D01*
X103050276Y-115011412D01*
X103058195Y-115061412D01*
X103064354Y-115100304D01*
X103121950Y-115213342D01*
X103211658Y-115303050D01*
X103324696Y-115360646D01*
X103334485Y-115362196D01*
X103334487Y-115362197D01*
X103358424Y-115365988D01*
X103418481Y-115375500D01*
X103423434Y-115375500D01*
X103650023Y-115375499D01*
X103881518Y-115375499D01*
X103886408Y-115374725D01*
X103888729Y-115374542D01*
X103958208Y-115389139D01*
X103987707Y-115411059D01*
X104111289Y-115534641D01*
X104145315Y-115596953D01*
X104140250Y-115667768D01*
X104097703Y-115724604D01*
X104031183Y-115749415D01*
X103983677Y-115743620D01*
X103975304Y-115739354D01*
X103965515Y-115737804D01*
X103965513Y-115737803D01*
X103938151Y-115733470D01*
X103881519Y-115724500D01*
X103650047Y-115724500D01*
X103418482Y-115724501D01*
X103413589Y-115725276D01*
X103413588Y-115725276D01*
X103334494Y-115737802D01*
X103334492Y-115737803D01*
X103324696Y-115739354D01*
X103211658Y-115796950D01*
X103121950Y-115886658D01*
X103064354Y-115999696D01*
X103062803Y-116009487D01*
X103062803Y-116009488D01*
X103059600Y-116029711D01*
X103029187Y-116093864D01*
X102968919Y-116131391D01*
X102935151Y-116136000D01*
X102749042Y-116136000D01*
X102680921Y-116115998D01*
X102659947Y-116099095D01*
X101917561Y-115356709D01*
X101883535Y-115294397D01*
X101888600Y-115223582D01*
X101899744Y-115200937D01*
X101909756Y-115184883D01*
X102015688Y-115015028D01*
X102019451Y-115006518D01*
X102125577Y-114766463D01*
X102127375Y-114762396D01*
X102202353Y-114496547D01*
X102214867Y-114403378D01*
X102238696Y-114225968D01*
X102238697Y-114225961D01*
X102239123Y-114222786D01*
X102239981Y-114195491D01*
X102242881Y-114103222D01*
X102242881Y-114103217D01*
X102242982Y-114100000D01*
X102240403Y-114063569D01*
X102233724Y-113969243D01*
X102223473Y-113824470D01*
X102216296Y-113791131D01*
X102166273Y-113558785D01*
X102166273Y-113558783D01*
X102165337Y-113554438D01*
X102069733Y-113295291D01*
X102050821Y-113260240D01*
X101940681Y-113056116D01*
X101938568Y-113052200D01*
X101774460Y-112830016D01*
X101765213Y-112820622D01*
X101650522Y-112704116D01*
X101580683Y-112633171D01*
X101361104Y-112465594D01*
X101354517Y-112461905D01*
X101123990Y-112332803D01*
X101123987Y-112332802D01*
X101120104Y-112330627D01*
X101115959Y-112329023D01*
X101115956Y-112329022D01*
X100870987Y-112234251D01*
X100862491Y-112230964D01*
X100858166Y-112229961D01*
X100858161Y-112229960D01*
X100656104Y-112183126D01*
X100593405Y-112168593D01*
X100318215Y-112144759D01*
X100313780Y-112145003D01*
X100313776Y-112145003D01*
X100046856Y-112159693D01*
X100046849Y-112159694D01*
X100042413Y-112159938D01*
X99865664Y-112195095D01*
X99775864Y-112212957D01*
X99775862Y-112212958D01*
X99771501Y-112213825D01*
X99510884Y-112305347D01*
X99265763Y-112432678D01*
X99262148Y-112435261D01*
X99262142Y-112435265D01*
X99044650Y-112590687D01*
X99044646Y-112590690D01*
X99041029Y-112593275D01*
X98950851Y-112679301D01*
X98877469Y-112749304D01*
X98841165Y-112783936D01*
X98838409Y-112787431D01*
X98838408Y-112787433D01*
X98708635Y-112952050D01*
X98670159Y-113000856D01*
X98628909Y-113071873D01*
X98533661Y-113235853D01*
X98533658Y-113235859D01*
X98531423Y-113239707D01*
X98497686Y-113323000D01*
X98429697Y-113490858D01*
X98427726Y-113495723D01*
X98426655Y-113500036D01*
X98426653Y-113500041D01*
X98362209Y-113759475D01*
X98361136Y-113763796D01*
X98360682Y-113768224D01*
X98360682Y-113768226D01*
X98337814Y-113991426D01*
X98332983Y-114038577D01*
X98333295Y-114046518D01*
X98343115Y-114296449D01*
X98343827Y-114314583D01*
X98349572Y-114346039D01*
X98377216Y-114497401D01*
X98393453Y-114586309D01*
X98394862Y-114590532D01*
X98477289Y-114837596D01*
X98480870Y-114848331D01*
X98527899Y-114942450D01*
X98600341Y-115087429D01*
X98604334Y-115095421D01*
X98689386Y-115218481D01*
X98749009Y-115304748D01*
X98761382Y-115322651D01*
X98842724Y-115410646D01*
X98891436Y-115463342D01*
X98948880Y-115525485D01*
X98952334Y-115528297D01*
X99159631Y-115697063D01*
X99159635Y-115697066D01*
X99163088Y-115699877D01*
X99166910Y-115702178D01*
X99369045Y-115823873D01*
X99399730Y-115842347D01*
X99488303Y-115879853D01*
X99649982Y-115948316D01*
X99649987Y-115948318D01*
X99654085Y-115950053D01*
X99658382Y-115951192D01*
X99658387Y-115951194D01*
X99751745Y-115975947D01*
X99921079Y-116020845D01*
X100195384Y-116053311D01*
X100471527Y-116046804D01*
X100574220Y-116029711D01*
X100739608Y-116002183D01*
X100739612Y-116002182D01*
X100743998Y-116001452D01*
X100748239Y-116000111D01*
X100748242Y-116000110D01*
X101003115Y-115919504D01*
X101003117Y-115919503D01*
X101007361Y-115918161D01*
X101011372Y-115916235D01*
X101011377Y-115916233D01*
X101252342Y-115800523D01*
X101252343Y-115800522D01*
X101256361Y-115798593D01*
X101345551Y-115738998D01*
X101384017Y-115713296D01*
X101451770Y-115692081D01*
X101520237Y-115710864D01*
X101543114Y-115728966D01*
X102373662Y-116559514D01*
X102389328Y-116578601D01*
X102397167Y-116590333D01*
X102484492Y-116648683D01*
X102496661Y-116651103D01*
X102496662Y-116651104D01*
X102561491Y-116663999D01*
X102561496Y-116664000D01*
X102561499Y-116664000D01*
X102561507Y-116664001D01*
X102573413Y-116666369D01*
X102587500Y-116669171D01*
X102601326Y-116666421D01*
X102625906Y-116664000D01*
X102935152Y-116664000D01*
X103003273Y-116684002D01*
X103049766Y-116737658D01*
X103059601Y-116770292D01*
X103064354Y-116800304D01*
X103121950Y-116913342D01*
X103211658Y-117003050D01*
X103324696Y-117060646D01*
X103334485Y-117062196D01*
X103334487Y-117062197D01*
X103361849Y-117066530D01*
X103418481Y-117075500D01*
X103649953Y-117075500D01*
X103881518Y-117075499D01*
X103886412Y-117074724D01*
X103965506Y-117062198D01*
X103965508Y-117062197D01*
X103975304Y-117060646D01*
X104088342Y-117003050D01*
X104178050Y-116913342D01*
X104235646Y-116800304D01*
X104250500Y-116706519D01*
X104250499Y-116093482D01*
X104235646Y-115999696D01*
X104231420Y-115991403D01*
X104229404Y-115920772D01*
X104266068Y-115859975D01*
X104329781Y-115828651D01*
X104400315Y-115836745D01*
X104440359Y-115863711D01*
X104662595Y-116085947D01*
X104696621Y-116148259D01*
X104699500Y-116175042D01*
X104699501Y-116454498D01*
X104699501Y-116706518D01*
X104700276Y-116711409D01*
X104700276Y-116711412D01*
X104704804Y-116740000D01*
X104714354Y-116800304D01*
X104771950Y-116913342D01*
X104861658Y-117003050D01*
X104967203Y-117056828D01*
X105018818Y-117105576D01*
X105036000Y-117169095D01*
X105036000Y-120238458D01*
X105015998Y-120306579D01*
X104999095Y-120327553D01*
X103567138Y-121759510D01*
X103504826Y-121793536D01*
X103497757Y-121794863D01*
X103441534Y-121803768D01*
X103384488Y-121812803D01*
X103384487Y-121812803D01*
X103374696Y-121814354D01*
X103261658Y-121871950D01*
X103171950Y-121961658D01*
X103114354Y-122074696D01*
X103112804Y-122084485D01*
X103112803Y-122084487D01*
X103104313Y-122138094D01*
X103094508Y-122200000D01*
X103096059Y-122209793D01*
X103111606Y-122307952D01*
X103114354Y-122325304D01*
X103171950Y-122438342D01*
X103261658Y-122528050D01*
X103374696Y-122585646D01*
X103384485Y-122587196D01*
X103384487Y-122587197D01*
X103490207Y-122603941D01*
X103500000Y-122605492D01*
X103509793Y-122603941D01*
X103615513Y-122587197D01*
X103615515Y-122587196D01*
X103625304Y-122585646D01*
X103738342Y-122528050D01*
X103828050Y-122438342D01*
X103885646Y-122325304D01*
X103905136Y-122202247D01*
X103935548Y-122138094D01*
X103940490Y-122132862D01*
X105459514Y-120613838D01*
X105478601Y-120598172D01*
X105490333Y-120590333D01*
X105548683Y-120503008D01*
X105551317Y-120489769D01*
X105564000Y-120426002D01*
X105564000Y-120425998D01*
X105566750Y-120412172D01*
X105569171Y-120400000D01*
X105566421Y-120386174D01*
X105564000Y-120361594D01*
X105564000Y-119642095D01*
X143745028Y-119642095D01*
X143770534Y-119909431D01*
X143771619Y-119913865D01*
X143771620Y-119913871D01*
X143825888Y-120135646D01*
X143834364Y-120170285D01*
X143836076Y-120174511D01*
X143836077Y-120174515D01*
X143927408Y-120400000D01*
X143935182Y-120419192D01*
X144070875Y-120650938D01*
X144113181Y-120703839D01*
X144234143Y-120855094D01*
X144238601Y-120860669D01*
X144434846Y-121043991D01*
X144508012Y-121094748D01*
X144651746Y-121194461D01*
X144651751Y-121194464D01*
X144655499Y-121197064D01*
X144659584Y-121199096D01*
X144659587Y-121199098D01*
X144700702Y-121219552D01*
X144895938Y-121316680D01*
X144900272Y-121318101D01*
X144900275Y-121318102D01*
X145146793Y-121398915D01*
X145146798Y-121398916D01*
X145151126Y-121400335D01*
X145155617Y-121401115D01*
X145155618Y-121401115D01*
X145411936Y-121445620D01*
X145411944Y-121445621D01*
X145415717Y-121446276D01*
X145419554Y-121446467D01*
X145498996Y-121450422D01*
X145499004Y-121450422D01*
X145500567Y-121450500D01*
X145668223Y-121450500D01*
X145670491Y-121450335D01*
X145670503Y-121450335D01*
X145800823Y-121440879D01*
X145867846Y-121436016D01*
X145872301Y-121435032D01*
X145872304Y-121435032D01*
X146125620Y-121379105D01*
X146125624Y-121379104D01*
X146130080Y-121378120D01*
X146299338Y-121313994D01*
X146376941Y-121284593D01*
X146376944Y-121284592D01*
X146381211Y-121282975D01*
X146558522Y-121184487D01*
X146611983Y-121154792D01*
X146611984Y-121154792D01*
X146615976Y-121152574D01*
X146723531Y-121070491D01*
X146825833Y-120992417D01*
X146825837Y-120992413D01*
X146829458Y-120989650D01*
X146898665Y-120918855D01*
X146944468Y-120872000D01*
X147017185Y-120797614D01*
X147070403Y-120724500D01*
X147172538Y-120584183D01*
X147172540Y-120584180D01*
X147175225Y-120580491D01*
X147248228Y-120441735D01*
X147298140Y-120346868D01*
X147298143Y-120346862D01*
X147300265Y-120342828D01*
X147306738Y-120324500D01*
X147388165Y-120093916D01*
X147388165Y-120093915D01*
X147389688Y-120089603D01*
X147420330Y-119934137D01*
X147440739Y-119830594D01*
X147440740Y-119830588D01*
X147441620Y-119826122D01*
X147443568Y-119787000D01*
X147454745Y-119562474D01*
X147454745Y-119562468D01*
X147454972Y-119557905D01*
X147429466Y-119290569D01*
X147428262Y-119285646D01*
X147366721Y-119034149D01*
X147365636Y-119029715D01*
X147363850Y-119025304D01*
X147266531Y-118785037D01*
X147266531Y-118785036D01*
X147264818Y-118780808D01*
X147129125Y-118549062D01*
X147018211Y-118410371D01*
X146964251Y-118342897D01*
X146964250Y-118342895D01*
X146961399Y-118339331D01*
X146765154Y-118156009D01*
X146603122Y-118043603D01*
X146548254Y-118005539D01*
X146548249Y-118005536D01*
X146544501Y-118002936D01*
X146540416Y-118000904D01*
X146540413Y-118000902D01*
X146410358Y-117936201D01*
X146304062Y-117883320D01*
X146299728Y-117881899D01*
X146299725Y-117881898D01*
X146053207Y-117801085D01*
X146053202Y-117801084D01*
X146048874Y-117799665D01*
X146044382Y-117798885D01*
X145788064Y-117754380D01*
X145788056Y-117754379D01*
X145784283Y-117753724D01*
X145775622Y-117753293D01*
X145701004Y-117749578D01*
X145700996Y-117749578D01*
X145699433Y-117749500D01*
X145531777Y-117749500D01*
X145529509Y-117749665D01*
X145529497Y-117749665D01*
X145413924Y-117758051D01*
X145332154Y-117763984D01*
X145327699Y-117764968D01*
X145327696Y-117764968D01*
X145074380Y-117820895D01*
X145074376Y-117820896D01*
X145069920Y-117821880D01*
X145009561Y-117844748D01*
X144823059Y-117915407D01*
X144823056Y-117915408D01*
X144818789Y-117917025D01*
X144724223Y-117969552D01*
X144617201Y-118028998D01*
X144584024Y-118047426D01*
X144561016Y-118064985D01*
X144374167Y-118207583D01*
X144374163Y-118207587D01*
X144370542Y-118210350D01*
X144367357Y-118213608D01*
X144367356Y-118213609D01*
X144352310Y-118229000D01*
X144182815Y-118402386D01*
X144180130Y-118406075D01*
X144033520Y-118607495D01*
X144024775Y-118619509D01*
X143979524Y-118705518D01*
X143901860Y-118853132D01*
X143901857Y-118853138D01*
X143899735Y-118857172D01*
X143898215Y-118861477D01*
X143898213Y-118861481D01*
X143827772Y-119060954D01*
X143810312Y-119110397D01*
X143796035Y-119182833D01*
X143759444Y-119368481D01*
X143758380Y-119373878D01*
X143758153Y-119378431D01*
X143758153Y-119378434D01*
X143745407Y-119634487D01*
X143745028Y-119642095D01*
X105564000Y-119642095D01*
X105564000Y-117169095D01*
X105584002Y-117100974D01*
X105632797Y-117056828D01*
X105738342Y-117003050D01*
X105828050Y-116913342D01*
X105885646Y-116800304D01*
X105900500Y-116706519D01*
X105900499Y-116093482D01*
X105897651Y-116075499D01*
X105887198Y-116009494D01*
X105887197Y-116009491D01*
X105885646Y-115999696D01*
X105828050Y-115886658D01*
X105810248Y-115868856D01*
X136884101Y-115868856D01*
X136890559Y-115878216D01*
X136906861Y-115892512D01*
X136913401Y-115897530D01*
X137152644Y-116057387D01*
X137159781Y-116061508D01*
X137417849Y-116188772D01*
X137425453Y-116191922D01*
X137697920Y-116284412D01*
X137705883Y-116286546D01*
X137988100Y-116342683D01*
X137996251Y-116343756D01*
X138283381Y-116362575D01*
X138291619Y-116362575D01*
X138578749Y-116343756D01*
X138586900Y-116342683D01*
X138869117Y-116286546D01*
X138877080Y-116284412D01*
X139149547Y-116191922D01*
X139157151Y-116188772D01*
X139415219Y-116061508D01*
X139422356Y-116057387D01*
X139661599Y-115897530D01*
X139668139Y-115892512D01*
X139682574Y-115879853D01*
X139690972Y-115866614D01*
X139685138Y-115856849D01*
X138300310Y-114472020D01*
X138286369Y-114464408D01*
X138284534Y-114464539D01*
X138277920Y-114468790D01*
X136891616Y-115855095D01*
X136884101Y-115868856D01*
X105810248Y-115868856D01*
X105765265Y-115823873D01*
X105731239Y-115761561D01*
X105736304Y-115690746D01*
X105778851Y-115633910D01*
X105793604Y-115625198D01*
X105793492Y-115625013D01*
X105933574Y-115540176D01*
X105945443Y-115530869D01*
X106055869Y-115420443D01*
X106065176Y-115408574D01*
X106146079Y-115274988D01*
X106152285Y-115261243D01*
X106199256Y-115111356D01*
X106201869Y-115098306D01*
X106207734Y-115034479D01*
X106208000Y-115028691D01*
X106208000Y-114972115D01*
X106203525Y-114956876D01*
X106202135Y-114955671D01*
X106194452Y-114954000D01*
X105172000Y-114954000D01*
X105103879Y-114933998D01*
X105057386Y-114880342D01*
X105046000Y-114828000D01*
X105046000Y-114091115D01*
X105032965Y-114046720D01*
X105026103Y-114036043D01*
X105021000Y-114000548D01*
X105021000Y-113658885D01*
X105529000Y-113658885D01*
X105542035Y-113703280D01*
X105548897Y-113713957D01*
X105554000Y-113749452D01*
X105554000Y-114427885D01*
X105558475Y-114443124D01*
X105559865Y-114444329D01*
X105567548Y-114446000D01*
X106189884Y-114446000D01*
X106205123Y-114441525D01*
X106206328Y-114440135D01*
X106207999Y-114432452D01*
X106207999Y-114371295D01*
X106207736Y-114365546D01*
X106201868Y-114301685D01*
X106199257Y-114288649D01*
X106152285Y-114138757D01*
X106146079Y-114125012D01*
X106133426Y-114104119D01*
X136024925Y-114104119D01*
X136043744Y-114391249D01*
X136044817Y-114399400D01*
X136100954Y-114681617D01*
X136103088Y-114689580D01*
X136195578Y-114962047D01*
X136198728Y-114969651D01*
X136325992Y-115227718D01*
X136330113Y-115234855D01*
X136489970Y-115474099D01*
X136494988Y-115480639D01*
X136507647Y-115495074D01*
X136520886Y-115503472D01*
X136530651Y-115497638D01*
X137915480Y-114112810D01*
X137921857Y-114101131D01*
X138651908Y-114101131D01*
X138652039Y-114102966D01*
X138656290Y-114109580D01*
X140042595Y-115495884D01*
X140056356Y-115503399D01*
X140065716Y-115496941D01*
X140080012Y-115480639D01*
X140085030Y-115474099D01*
X140244887Y-115234855D01*
X140249008Y-115227718D01*
X140376272Y-114969651D01*
X140379422Y-114962047D01*
X140471912Y-114689580D01*
X140474046Y-114681617D01*
X140530183Y-114399400D01*
X140531256Y-114391249D01*
X140550075Y-114104119D01*
X140550075Y-114095881D01*
X140531256Y-113808751D01*
X140530183Y-113800600D01*
X140474046Y-113518383D01*
X140471912Y-113510420D01*
X140379422Y-113237953D01*
X140376272Y-113230349D01*
X140249008Y-112972282D01*
X140244887Y-112965145D01*
X140085030Y-112725901D01*
X140080012Y-112719361D01*
X140067353Y-112704926D01*
X140054114Y-112696528D01*
X140044349Y-112702362D01*
X138659520Y-114087190D01*
X138651908Y-114101131D01*
X137921857Y-114101131D01*
X137923092Y-114098869D01*
X137922961Y-114097034D01*
X137918710Y-114090420D01*
X136532405Y-112704116D01*
X136518644Y-112696601D01*
X136509284Y-112703059D01*
X136494988Y-112719361D01*
X136489970Y-112725901D01*
X136330113Y-112965145D01*
X136325992Y-112972282D01*
X136198728Y-113230349D01*
X136195578Y-113237953D01*
X136103088Y-113510420D01*
X136100954Y-113518383D01*
X136044817Y-113800600D01*
X136043744Y-113808751D01*
X136024925Y-114095881D01*
X136024925Y-114104119D01*
X106133426Y-114104119D01*
X106065176Y-113991426D01*
X106055869Y-113979557D01*
X106045555Y-113969243D01*
X106011529Y-113906931D01*
X106016594Y-113836116D01*
X106045477Y-113791131D01*
X106073982Y-113762576D01*
X106082998Y-113751160D01*
X106165004Y-113618120D01*
X106171151Y-113604939D01*
X106220491Y-113456186D01*
X106223358Y-113442810D01*
X106232672Y-113351903D01*
X106233000Y-113345486D01*
X106233000Y-113322115D01*
X106228525Y-113306876D01*
X106227135Y-113305671D01*
X106219452Y-113304000D01*
X105547115Y-113304000D01*
X105531876Y-113308475D01*
X105530671Y-113309865D01*
X105529000Y-113317548D01*
X105529000Y-113658885D01*
X105021000Y-113658885D01*
X105021000Y-112777885D01*
X105529000Y-112777885D01*
X105533475Y-112793124D01*
X105534865Y-112794329D01*
X105542548Y-112796000D01*
X106214885Y-112796000D01*
X106230124Y-112791525D01*
X106231329Y-112790135D01*
X106233000Y-112782452D01*
X106233000Y-112754562D01*
X106232663Y-112748047D01*
X106223106Y-112655943D01*
X106220212Y-112642544D01*
X106170619Y-112493893D01*
X106164445Y-112480714D01*
X106082212Y-112347827D01*
X106073176Y-112336426D01*
X106070131Y-112333386D01*
X136884028Y-112333386D01*
X136889862Y-112343151D01*
X138274690Y-113727980D01*
X138288631Y-113735592D01*
X138290466Y-113735461D01*
X138297080Y-113731210D01*
X139683384Y-112344905D01*
X139690899Y-112331144D01*
X139684441Y-112321784D01*
X139668139Y-112307488D01*
X139661599Y-112302470D01*
X139422356Y-112142613D01*
X139415219Y-112138492D01*
X139157151Y-112011228D01*
X139149547Y-112008078D01*
X138877080Y-111915588D01*
X138869117Y-111913454D01*
X138586900Y-111857317D01*
X138578749Y-111856244D01*
X138291619Y-111837425D01*
X138283381Y-111837425D01*
X137996251Y-111856244D01*
X137988100Y-111857317D01*
X137705883Y-111913454D01*
X137697920Y-111915588D01*
X137425453Y-112008078D01*
X137417849Y-112011228D01*
X137159782Y-112138492D01*
X137152645Y-112142613D01*
X136913401Y-112302470D01*
X136906861Y-112307488D01*
X136892426Y-112320147D01*
X136884028Y-112333386D01*
X106070131Y-112333386D01*
X105962571Y-112226014D01*
X105951160Y-112217002D01*
X105818120Y-112134996D01*
X105804939Y-112128849D01*
X105656186Y-112079509D01*
X105642810Y-112076642D01*
X105551903Y-112067328D01*
X105546874Y-112067071D01*
X105531876Y-112071475D01*
X105530671Y-112072865D01*
X105529000Y-112080548D01*
X105529000Y-112777885D01*
X105021000Y-112777885D01*
X105021000Y-112085115D01*
X105016525Y-112069876D01*
X105015135Y-112068671D01*
X105007452Y-112067000D01*
X105004562Y-112067000D01*
X104998047Y-112067337D01*
X104905943Y-112076894D01*
X104892544Y-112079788D01*
X104743893Y-112129381D01*
X104730714Y-112135555D01*
X104597827Y-112217788D01*
X104586426Y-112226824D01*
X104476014Y-112337429D01*
X104467002Y-112348840D01*
X104410914Y-112439832D01*
X104358142Y-112487325D01*
X104288070Y-112498749D01*
X104222946Y-112470475D01*
X104214559Y-112462811D01*
X104203220Y-112451472D01*
X104083126Y-112390281D01*
X104073337Y-112388731D01*
X104073335Y-112388730D01*
X104043851Y-112384060D01*
X103983488Y-112374500D01*
X103491306Y-112374500D01*
X103423185Y-112354498D01*
X103402211Y-112337595D01*
X102962405Y-111897789D01*
X102928379Y-111835477D01*
X102925500Y-111808694D01*
X102925500Y-111626500D01*
X102945502Y-111558379D01*
X102999158Y-111511886D01*
X103051500Y-111500500D01*
X103119748Y-111500500D01*
X103125816Y-111499293D01*
X103166061Y-111491288D01*
X103166062Y-111491288D01*
X103178231Y-111488867D01*
X103244552Y-111444552D01*
X103267208Y-111410646D01*
X103281974Y-111388547D01*
X103288867Y-111378231D01*
X103292841Y-111358255D01*
X103295543Y-111344669D01*
X105092001Y-111344669D01*
X105092371Y-111351490D01*
X105097895Y-111402352D01*
X105101521Y-111417604D01*
X105146676Y-111538054D01*
X105155214Y-111553649D01*
X105231715Y-111655724D01*
X105244276Y-111668285D01*
X105346351Y-111744786D01*
X105361946Y-111753324D01*
X105482394Y-111798478D01*
X105497649Y-111802105D01*
X105548514Y-111807631D01*
X105555328Y-111808000D01*
X105777885Y-111808000D01*
X105793124Y-111803525D01*
X105794329Y-111802135D01*
X105796000Y-111794452D01*
X105796000Y-111789884D01*
X106304000Y-111789884D01*
X106308475Y-111805123D01*
X106309865Y-111806328D01*
X106317548Y-111807999D01*
X106544669Y-111807999D01*
X106551490Y-111807629D01*
X106602352Y-111802105D01*
X106617604Y-111798479D01*
X106738054Y-111753324D01*
X106753649Y-111744786D01*
X106855724Y-111668285D01*
X106868285Y-111655724D01*
X106944786Y-111553649D01*
X106953324Y-111538054D01*
X106998478Y-111417606D01*
X107002105Y-111402351D01*
X107007631Y-111351486D01*
X107008000Y-111344672D01*
X107008000Y-110722115D01*
X107003525Y-110706876D01*
X107002135Y-110705671D01*
X106994452Y-110704000D01*
X106322115Y-110704000D01*
X106306876Y-110708475D01*
X106305671Y-110709865D01*
X106304000Y-110717548D01*
X106304000Y-111789884D01*
X105796000Y-111789884D01*
X105796000Y-110722115D01*
X105791525Y-110706876D01*
X105790135Y-110705671D01*
X105782452Y-110704000D01*
X105110116Y-110704000D01*
X105094877Y-110708475D01*
X105093672Y-110709865D01*
X105092001Y-110717548D01*
X105092001Y-111344669D01*
X103295543Y-111344669D01*
X103299293Y-111325816D01*
X103300500Y-111319748D01*
X103300500Y-110177885D01*
X105092000Y-110177885D01*
X105096475Y-110193124D01*
X105097865Y-110194329D01*
X105105548Y-110196000D01*
X105777885Y-110196000D01*
X105793124Y-110191525D01*
X105794329Y-110190135D01*
X105796000Y-110182452D01*
X105796000Y-110177885D01*
X106304000Y-110177885D01*
X106308475Y-110193124D01*
X106309865Y-110194329D01*
X106317548Y-110196000D01*
X106989884Y-110196000D01*
X107005123Y-110191525D01*
X107006328Y-110190135D01*
X107007999Y-110182452D01*
X107007999Y-109555331D01*
X107007629Y-109548510D01*
X107002105Y-109497648D01*
X106998479Y-109482396D01*
X106953324Y-109361946D01*
X106944786Y-109346351D01*
X106868285Y-109244276D01*
X106855724Y-109231715D01*
X106753649Y-109155214D01*
X106738054Y-109146676D01*
X106617606Y-109101522D01*
X106602351Y-109097895D01*
X106551486Y-109092369D01*
X106544672Y-109092000D01*
X106322115Y-109092000D01*
X106306876Y-109096475D01*
X106305671Y-109097865D01*
X106304000Y-109105548D01*
X106304000Y-110177885D01*
X105796000Y-110177885D01*
X105796000Y-109110116D01*
X105791525Y-109094877D01*
X105790135Y-109093672D01*
X105782452Y-109092001D01*
X105555331Y-109092001D01*
X105548510Y-109092371D01*
X105497648Y-109097895D01*
X105482396Y-109101521D01*
X105361946Y-109146676D01*
X105346351Y-109155214D01*
X105244276Y-109231715D01*
X105231715Y-109244276D01*
X105155214Y-109346351D01*
X105146676Y-109361946D01*
X105101522Y-109482394D01*
X105097895Y-109497649D01*
X105092369Y-109548514D01*
X105092000Y-109555328D01*
X105092000Y-110177885D01*
X103300500Y-110177885D01*
X103300500Y-109580252D01*
X103295542Y-109555328D01*
X103291288Y-109533939D01*
X103291288Y-109533938D01*
X103288867Y-109521769D01*
X103244552Y-109455448D01*
X103200244Y-109425842D01*
X103188547Y-109418026D01*
X103178231Y-109411133D01*
X103166062Y-109408712D01*
X103166061Y-109408712D01*
X103125816Y-109400707D01*
X103119748Y-109399500D01*
X102180252Y-109399500D01*
X102174184Y-109400707D01*
X102133939Y-109408712D01*
X102133938Y-109408712D01*
X102121769Y-109411133D01*
X102113846Y-109416427D01*
X102045239Y-109423803D01*
X101978516Y-109388900D01*
X101947772Y-109358156D01*
X101932102Y-109339064D01*
X101930515Y-109336689D01*
X101923624Y-109326376D01*
X101900623Y-109311007D01*
X101902212Y-109308630D01*
X101902210Y-109308629D01*
X101900622Y-109311006D01*
X101844195Y-109273303D01*
X101844193Y-109273300D01*
X101844192Y-109273301D01*
X101842815Y-109272381D01*
X101832495Y-109265485D01*
X101820321Y-109263063D01*
X101820320Y-109263063D01*
X101752133Y-109249500D01*
X101737172Y-109246524D01*
X101737171Y-109246524D01*
X101725000Y-109244103D01*
X101720979Y-109244903D01*
X101658379Y-109226522D01*
X101611886Y-109172866D01*
X101600500Y-109120524D01*
X101600500Y-108842095D01*
X143745028Y-108842095D01*
X143770534Y-109109431D01*
X143771619Y-109113865D01*
X143771620Y-109113871D01*
X143819859Y-109311006D01*
X143834364Y-109370285D01*
X143836076Y-109374511D01*
X143836077Y-109374515D01*
X143933469Y-109614963D01*
X143935182Y-109619192D01*
X144070875Y-109850938D01*
X144117862Y-109909692D01*
X144229826Y-110049696D01*
X144238601Y-110060669D01*
X144434846Y-110243991D01*
X144487462Y-110280492D01*
X144651746Y-110394461D01*
X144651751Y-110394464D01*
X144655499Y-110397064D01*
X144659584Y-110399096D01*
X144659587Y-110399098D01*
X144725593Y-110431935D01*
X144895938Y-110516680D01*
X144900272Y-110518101D01*
X144900275Y-110518102D01*
X145146793Y-110598915D01*
X145146798Y-110598916D01*
X145151126Y-110600335D01*
X145155617Y-110601115D01*
X145155618Y-110601115D01*
X145411936Y-110645620D01*
X145411944Y-110645621D01*
X145415717Y-110646276D01*
X145419554Y-110646467D01*
X145498996Y-110650422D01*
X145499004Y-110650422D01*
X145500567Y-110650500D01*
X145668223Y-110650500D01*
X145670491Y-110650335D01*
X145670503Y-110650335D01*
X145800823Y-110640879D01*
X145867846Y-110636016D01*
X145872301Y-110635032D01*
X145872304Y-110635032D01*
X146125620Y-110579105D01*
X146125624Y-110579104D01*
X146130080Y-110578120D01*
X146308014Y-110510707D01*
X146376941Y-110484593D01*
X146376944Y-110484592D01*
X146381211Y-110482975D01*
X146615976Y-110352574D01*
X146713795Y-110277921D01*
X146825833Y-110192417D01*
X146825837Y-110192413D01*
X146829458Y-110189650D01*
X146836495Y-110182452D01*
X147005601Y-110009464D01*
X147017185Y-109997614D01*
X147088536Y-109899588D01*
X147172538Y-109784183D01*
X147172540Y-109784180D01*
X147175225Y-109780491D01*
X147237837Y-109661485D01*
X147298140Y-109546868D01*
X147298143Y-109546862D01*
X147300265Y-109542828D01*
X147314637Y-109502132D01*
X147388165Y-109293916D01*
X147388165Y-109293915D01*
X147389688Y-109289603D01*
X147421672Y-109127331D01*
X147440739Y-109030594D01*
X147440740Y-109030588D01*
X147441620Y-109026122D01*
X147443139Y-108995608D01*
X147454745Y-108762474D01*
X147454745Y-108762468D01*
X147454972Y-108757905D01*
X147429466Y-108490569D01*
X147425686Y-108475118D01*
X147366721Y-108234149D01*
X147365636Y-108229715D01*
X147363850Y-108225304D01*
X147266531Y-107985037D01*
X147266531Y-107985036D01*
X147264818Y-107980808D01*
X147129125Y-107749062D01*
X147018211Y-107610371D01*
X146964251Y-107542897D01*
X146964250Y-107542895D01*
X146961399Y-107539331D01*
X146765154Y-107356009D01*
X146626058Y-107259514D01*
X146548254Y-107205539D01*
X146548249Y-107205536D01*
X146544501Y-107202936D01*
X146540416Y-107200904D01*
X146540413Y-107200902D01*
X146406912Y-107134487D01*
X146304062Y-107083320D01*
X146299728Y-107081899D01*
X146299725Y-107081898D01*
X146053207Y-107001085D01*
X146053202Y-107001084D01*
X146048874Y-106999665D01*
X146044382Y-106998885D01*
X145788064Y-106954380D01*
X145788056Y-106954379D01*
X145784283Y-106953724D01*
X145775622Y-106953293D01*
X145701004Y-106949578D01*
X145700996Y-106949578D01*
X145699433Y-106949500D01*
X145531777Y-106949500D01*
X145529509Y-106949665D01*
X145529497Y-106949665D01*
X145399177Y-106959121D01*
X145332154Y-106963984D01*
X145327699Y-106964968D01*
X145327696Y-106964968D01*
X145074380Y-107020895D01*
X145074376Y-107020896D01*
X145069920Y-107021880D01*
X144999175Y-107048683D01*
X144823059Y-107115407D01*
X144823056Y-107115408D01*
X144818789Y-107117025D01*
X144690240Y-107188428D01*
X144597021Y-107240207D01*
X144584024Y-107247426D01*
X144569536Y-107258483D01*
X144374167Y-107407583D01*
X144374163Y-107407587D01*
X144370542Y-107410350D01*
X144367357Y-107413608D01*
X144367356Y-107413609D01*
X144328319Y-107453542D01*
X144182815Y-107602386D01*
X144180130Y-107606075D01*
X144037974Y-107801376D01*
X144024775Y-107819509D01*
X143981703Y-107901376D01*
X143901860Y-108053132D01*
X143901857Y-108053138D01*
X143899735Y-108057172D01*
X143898215Y-108061477D01*
X143898213Y-108061481D01*
X143813196Y-108302231D01*
X143810312Y-108310397D01*
X143792711Y-108399696D01*
X143760609Y-108562571D01*
X143758380Y-108573878D01*
X143758153Y-108578431D01*
X143758153Y-108578434D01*
X143745338Y-108835871D01*
X143745028Y-108842095D01*
X101600500Y-108842095D01*
X101600500Y-108443082D01*
X101620502Y-108374961D01*
X101637405Y-108353987D01*
X101653050Y-108338342D01*
X101710646Y-108225304D01*
X101716890Y-108185884D01*
X101728941Y-108109793D01*
X101730492Y-108100000D01*
X101713164Y-107990594D01*
X101712197Y-107984487D01*
X101712196Y-107984485D01*
X101710646Y-107974696D01*
X101653050Y-107861658D01*
X101563342Y-107771950D01*
X101450304Y-107714354D01*
X101440515Y-107712804D01*
X101440513Y-107712803D01*
X101334793Y-107696059D01*
X101325000Y-107694508D01*
X101315207Y-107696059D01*
X101209487Y-107712803D01*
X101209485Y-107712804D01*
X101199696Y-107714354D01*
X101086658Y-107771950D01*
X101077615Y-107780993D01*
X101074538Y-107782673D01*
X101071626Y-107784789D01*
X101071353Y-107784413D01*
X101015303Y-107815019D01*
X100944488Y-107809954D01*
X100887652Y-107767407D01*
X100862841Y-107700887D01*
X100862520Y-107691898D01*
X100862520Y-107479286D01*
X100882522Y-107411165D01*
X100899425Y-107390191D01*
X101978516Y-106311100D01*
X102040828Y-106277074D01*
X102113908Y-106283614D01*
X102121769Y-106288867D01*
X102133938Y-106291288D01*
X102133939Y-106291288D01*
X102150349Y-106294552D01*
X102180252Y-106300500D01*
X102248500Y-106300500D01*
X102316621Y-106320502D01*
X102363114Y-106374158D01*
X102374500Y-106426500D01*
X102374500Y-106835457D01*
X102372079Y-106860039D01*
X102369103Y-106875000D01*
X102374500Y-106902132D01*
X102374500Y-106902133D01*
X102390485Y-106982495D01*
X102397378Y-106992811D01*
X102407284Y-107007636D01*
X102419889Y-107026500D01*
X102434711Y-107048683D01*
X102451376Y-107073624D01*
X102461692Y-107080517D01*
X102461693Y-107080518D01*
X102464064Y-107082102D01*
X102483156Y-107097772D01*
X102937595Y-107552211D01*
X102971621Y-107614523D01*
X102974500Y-107641306D01*
X102974500Y-108133488D01*
X102977417Y-108151903D01*
X102986637Y-108210116D01*
X102990281Y-108233126D01*
X103051472Y-108353220D01*
X103146780Y-108448528D01*
X103266874Y-108509719D01*
X103276663Y-108511269D01*
X103276665Y-108511270D01*
X103295835Y-108514306D01*
X103366512Y-108525500D01*
X103883488Y-108525500D01*
X103954165Y-108514306D01*
X103973335Y-108511270D01*
X103973337Y-108511269D01*
X103983126Y-108509719D01*
X104103220Y-108448528D01*
X104114522Y-108437226D01*
X104176834Y-108403200D01*
X104247649Y-108408265D01*
X104304485Y-108450812D01*
X104310762Y-108460018D01*
X104367793Y-108552179D01*
X104376824Y-108563574D01*
X104487429Y-108673986D01*
X104498840Y-108682998D01*
X104631880Y-108765004D01*
X104645061Y-108771151D01*
X104793814Y-108820491D01*
X104807190Y-108823358D01*
X104898097Y-108832672D01*
X104903126Y-108832929D01*
X104918124Y-108828525D01*
X104919329Y-108827135D01*
X104921000Y-108819452D01*
X104921000Y-108814885D01*
X105429000Y-108814885D01*
X105433475Y-108830124D01*
X105434865Y-108831329D01*
X105442548Y-108833000D01*
X105445438Y-108833000D01*
X105451953Y-108832663D01*
X105544057Y-108823106D01*
X105557456Y-108820212D01*
X105706107Y-108770619D01*
X105719286Y-108764445D01*
X105852173Y-108682212D01*
X105863574Y-108673176D01*
X105973986Y-108562571D01*
X105982998Y-108551160D01*
X106065004Y-108418120D01*
X106071151Y-108404939D01*
X106120491Y-108256186D01*
X106123358Y-108242810D01*
X106132672Y-108151903D01*
X106133000Y-108145486D01*
X106133000Y-108122115D01*
X106128525Y-108106876D01*
X106127135Y-108105671D01*
X106119452Y-108104000D01*
X105447115Y-108104000D01*
X105431876Y-108108475D01*
X105430671Y-108109865D01*
X105429000Y-108117548D01*
X105429000Y-108814885D01*
X104921000Y-108814885D01*
X104921000Y-107577885D01*
X105429000Y-107577885D01*
X105433475Y-107593124D01*
X105434865Y-107594329D01*
X105442548Y-107596000D01*
X106114885Y-107596000D01*
X106130124Y-107591525D01*
X106131329Y-107590135D01*
X106133000Y-107582452D01*
X106133000Y-107554562D01*
X106132663Y-107548047D01*
X106123106Y-107455943D01*
X106120212Y-107442544D01*
X106070619Y-107293893D01*
X106064445Y-107280714D01*
X105982212Y-107147827D01*
X105973176Y-107136426D01*
X105862571Y-107026014D01*
X105851160Y-107017002D01*
X105718120Y-106934996D01*
X105704939Y-106928849D01*
X105556186Y-106879509D01*
X105542810Y-106876642D01*
X105451903Y-106867328D01*
X105446874Y-106867071D01*
X105431876Y-106871475D01*
X105430671Y-106872865D01*
X105429000Y-106880548D01*
X105429000Y-107577885D01*
X104921000Y-107577885D01*
X104921000Y-106885115D01*
X104916525Y-106869876D01*
X104915135Y-106868671D01*
X104907452Y-106867000D01*
X104904562Y-106867000D01*
X104898047Y-106867337D01*
X104805943Y-106876894D01*
X104792544Y-106879788D01*
X104643893Y-106929381D01*
X104630714Y-106935555D01*
X104497827Y-107017788D01*
X104486426Y-107026824D01*
X104376014Y-107137429D01*
X104367002Y-107148840D01*
X104310914Y-107239832D01*
X104258142Y-107287325D01*
X104188070Y-107298749D01*
X104122946Y-107270475D01*
X104114559Y-107262811D01*
X104103220Y-107251472D01*
X103983126Y-107190281D01*
X103973337Y-107188731D01*
X103973335Y-107188730D01*
X103943851Y-107184060D01*
X103883488Y-107174500D01*
X103391306Y-107174500D01*
X103323185Y-107154498D01*
X103302211Y-107137595D01*
X102962405Y-106797789D01*
X102928379Y-106735477D01*
X102925500Y-106708694D01*
X102925500Y-106426500D01*
X102945502Y-106358379D01*
X102999158Y-106311886D01*
X103051500Y-106300500D01*
X103119748Y-106300500D01*
X103149651Y-106294552D01*
X103166061Y-106291288D01*
X103166062Y-106291288D01*
X103178231Y-106288867D01*
X103244552Y-106244552D01*
X103279234Y-106192647D01*
X103281974Y-106188547D01*
X103288867Y-106178231D01*
X103295543Y-106144669D01*
X105092001Y-106144669D01*
X105092371Y-106151490D01*
X105097895Y-106202352D01*
X105101521Y-106217604D01*
X105146676Y-106338054D01*
X105155214Y-106353649D01*
X105231715Y-106455724D01*
X105244276Y-106468285D01*
X105346351Y-106544786D01*
X105361946Y-106553324D01*
X105482394Y-106598478D01*
X105497649Y-106602105D01*
X105548514Y-106607631D01*
X105555328Y-106608000D01*
X105777885Y-106608000D01*
X105793124Y-106603525D01*
X105794329Y-106602135D01*
X105796000Y-106594452D01*
X105796000Y-106589884D01*
X106304000Y-106589884D01*
X106308475Y-106605123D01*
X106309865Y-106606328D01*
X106317548Y-106607999D01*
X106544669Y-106607999D01*
X106551490Y-106607629D01*
X106602352Y-106602105D01*
X106617604Y-106598479D01*
X106738054Y-106553324D01*
X106753649Y-106544786D01*
X106855724Y-106468285D01*
X106868285Y-106455724D01*
X106944786Y-106353649D01*
X106953324Y-106338054D01*
X106998478Y-106217606D01*
X107002105Y-106202351D01*
X107005647Y-106169748D01*
X114109500Y-106169748D01*
X114110707Y-106175816D01*
X114117354Y-106209231D01*
X114121133Y-106228231D01*
X114128026Y-106238547D01*
X114133568Y-106246841D01*
X114165448Y-106294552D01*
X114231769Y-106338867D01*
X114243938Y-106341288D01*
X114243939Y-106341288D01*
X114284184Y-106349293D01*
X114290252Y-106350500D01*
X116029748Y-106350500D01*
X116035816Y-106349293D01*
X116076061Y-106341288D01*
X116076062Y-106341288D01*
X116088231Y-106338867D01*
X116154552Y-106294552D01*
X116186432Y-106246841D01*
X116191974Y-106238547D01*
X116198867Y-106228231D01*
X116202647Y-106209231D01*
X116209293Y-106175816D01*
X116210500Y-106169748D01*
X116210500Y-105285262D01*
X116644520Y-105285262D01*
X116645036Y-105291406D01*
X116659084Y-105458694D01*
X116661759Y-105490553D01*
X116663458Y-105496478D01*
X116709395Y-105656678D01*
X116718544Y-105688586D01*
X116721359Y-105694063D01*
X116721360Y-105694066D01*
X116793275Y-105833998D01*
X116812712Y-105871818D01*
X116940677Y-106033270D01*
X116945370Y-106037264D01*
X116945371Y-106037265D01*
X117089854Y-106160229D01*
X117097564Y-106166791D01*
X117102942Y-106169797D01*
X117102944Y-106169798D01*
X117141342Y-106191258D01*
X117277398Y-106267297D01*
X117351235Y-106291288D01*
X117467471Y-106329056D01*
X117467475Y-106329057D01*
X117473329Y-106330959D01*
X117677894Y-106355351D01*
X117684029Y-106354879D01*
X117684031Y-106354879D01*
X117756625Y-106349293D01*
X117883300Y-106339546D01*
X117889230Y-106337890D01*
X117889232Y-106337890D01*
X118050447Y-106292878D01*
X118081725Y-106284145D01*
X118087214Y-106281372D01*
X118087220Y-106281370D01*
X118219952Y-106214322D01*
X118265610Y-106191258D01*
X118281345Y-106178965D01*
X118371281Y-106108699D01*
X118427951Y-106064424D01*
X118473376Y-106011799D01*
X118558540Y-105913134D01*
X118558540Y-105913133D01*
X118562564Y-105908472D01*
X118583387Y-105871818D01*
X118604871Y-105833998D01*
X118664323Y-105729344D01*
X118729351Y-105533863D01*
X118755171Y-105329474D01*
X118755583Y-105300000D01*
X118754138Y-105285262D01*
X119184520Y-105285262D01*
X119185036Y-105291406D01*
X119199084Y-105458694D01*
X119201759Y-105490553D01*
X119203458Y-105496478D01*
X119249395Y-105656678D01*
X119258544Y-105688586D01*
X119261359Y-105694063D01*
X119261360Y-105694066D01*
X119333275Y-105833998D01*
X119352712Y-105871818D01*
X119480677Y-106033270D01*
X119485370Y-106037264D01*
X119485371Y-106037265D01*
X119629854Y-106160229D01*
X119637564Y-106166791D01*
X119642942Y-106169797D01*
X119642944Y-106169798D01*
X119681342Y-106191258D01*
X119817398Y-106267297D01*
X119891235Y-106291288D01*
X120007471Y-106329056D01*
X120007475Y-106329057D01*
X120013329Y-106330959D01*
X120217894Y-106355351D01*
X120224029Y-106354879D01*
X120224031Y-106354879D01*
X120296625Y-106349293D01*
X120423300Y-106339546D01*
X120429230Y-106337890D01*
X120429232Y-106337890D01*
X120590447Y-106292878D01*
X120621725Y-106284145D01*
X120627214Y-106281372D01*
X120627220Y-106281370D01*
X120759952Y-106214322D01*
X120805610Y-106191258D01*
X120821345Y-106178965D01*
X120911281Y-106108699D01*
X120967951Y-106064424D01*
X121013376Y-106011799D01*
X121098540Y-105913134D01*
X121098540Y-105913133D01*
X121102564Y-105908472D01*
X121123387Y-105871818D01*
X121144871Y-105833998D01*
X121204323Y-105729344D01*
X121213271Y-105702444D01*
X121228496Y-105656678D01*
X121268978Y-105598354D01*
X121334566Y-105571175D01*
X121404437Y-105583770D01*
X121456406Y-105632141D01*
X121470971Y-105668751D01*
X121478564Y-105702444D01*
X121481645Y-105712275D01*
X121561770Y-105909603D01*
X121566413Y-105918794D01*
X121677694Y-106100388D01*
X121683777Y-106108699D01*
X121823213Y-106269667D01*
X121830580Y-106276883D01*
X121994434Y-106412916D01*
X122002881Y-106418831D01*
X122186756Y-106526279D01*
X122196042Y-106530729D01*
X122395001Y-106606703D01*
X122404899Y-106609579D01*
X122508250Y-106630606D01*
X122522299Y-106629410D01*
X122526000Y-106619065D01*
X122526000Y-106618517D01*
X123034000Y-106618517D01*
X123038064Y-106632359D01*
X123051478Y-106634393D01*
X123058184Y-106633534D01*
X123068262Y-106631392D01*
X123272255Y-106570191D01*
X123281842Y-106566433D01*
X123473095Y-106472739D01*
X123481945Y-106467464D01*
X123655328Y-106343792D01*
X123663200Y-106337139D01*
X123814052Y-106186812D01*
X123820730Y-106178965D01*
X123944180Y-106007165D01*
X136535366Y-106007165D01*
X136570452Y-106264970D01*
X136571760Y-106269456D01*
X136571760Y-106269458D01*
X136573521Y-106275500D01*
X136643258Y-106514757D01*
X136752186Y-106751039D01*
X136754746Y-106754944D01*
X136754749Y-106754949D01*
X136892275Y-106964712D01*
X136892279Y-106964717D01*
X136894841Y-106968625D01*
X136946786Y-107026824D01*
X137045653Y-107137595D01*
X137068091Y-107162735D01*
X137268129Y-107329105D01*
X137490561Y-107464080D01*
X137494875Y-107465889D01*
X137494877Y-107465890D01*
X137726186Y-107562886D01*
X137726191Y-107562888D01*
X137730501Y-107564695D01*
X137735033Y-107565846D01*
X137735036Y-107565847D01*
X137830672Y-107590135D01*
X137982677Y-107628739D01*
X138198786Y-107650500D01*
X138353544Y-107650500D01*
X138355869Y-107650327D01*
X138355875Y-107650327D01*
X138542314Y-107636472D01*
X138542318Y-107636471D01*
X138546966Y-107636126D01*
X138800732Y-107578705D01*
X138805086Y-107577012D01*
X139038870Y-107486098D01*
X139038872Y-107486097D01*
X139043223Y-107484405D01*
X139052180Y-107479286D01*
X139145577Y-107425905D01*
X139269112Y-107355299D01*
X139473436Y-107194223D01*
X139651708Y-107004714D01*
X139762847Y-106844508D01*
X139797346Y-106794779D01*
X139797348Y-106794776D01*
X139800011Y-106790937D01*
X139806277Y-106778231D01*
X139913021Y-106561775D01*
X139913022Y-106561772D01*
X139915086Y-106557587D01*
X139936005Y-106492238D01*
X139957688Y-106424500D01*
X139994406Y-106309792D01*
X140024617Y-106124291D01*
X140035477Y-106057606D01*
X140035477Y-106057605D01*
X140036228Y-106052994D01*
X140039634Y-105792835D01*
X140004548Y-105535030D01*
X139999453Y-105517548D01*
X139976285Y-105438064D01*
X139931742Y-105285243D01*
X139822814Y-105048961D01*
X139820251Y-105045051D01*
X139682725Y-104835288D01*
X139682721Y-104835283D01*
X139680159Y-104831375D01*
X139572785Y-104711073D01*
X139510026Y-104640757D01*
X139510024Y-104640755D01*
X139506909Y-104637265D01*
X139306871Y-104470895D01*
X139084439Y-104335920D01*
X139050693Y-104321769D01*
X138848814Y-104237114D01*
X138848809Y-104237112D01*
X138844499Y-104235305D01*
X138839967Y-104234154D01*
X138839964Y-104234153D01*
X138703515Y-104199500D01*
X138592323Y-104171261D01*
X138376214Y-104149500D01*
X138221456Y-104149500D01*
X138219131Y-104149673D01*
X138219125Y-104149673D01*
X138032686Y-104163528D01*
X138032682Y-104163529D01*
X138028034Y-104163874D01*
X137774268Y-104221295D01*
X137769916Y-104222987D01*
X137769914Y-104222988D01*
X137536130Y-104313902D01*
X137536128Y-104313903D01*
X137531777Y-104315595D01*
X137527723Y-104317912D01*
X137527721Y-104317913D01*
X137462259Y-104355328D01*
X137305888Y-104444701D01*
X137101564Y-104605777D01*
X136923292Y-104795286D01*
X136848118Y-104903649D01*
X136782329Y-104998483D01*
X136774989Y-105009063D01*
X136772923Y-105013253D01*
X136772921Y-105013256D01*
X136665145Y-105231806D01*
X136659914Y-105242413D01*
X136658492Y-105246856D01*
X136658491Y-105246858D01*
X136620254Y-105366311D01*
X136580594Y-105490208D01*
X136538772Y-105747006D01*
X136538711Y-105751683D01*
X136535451Y-106000701D01*
X136535366Y-106007165D01*
X123944180Y-106007165D01*
X123945003Y-106006020D01*
X123950313Y-105997183D01*
X124044670Y-105806267D01*
X124048469Y-105796672D01*
X124110377Y-105592910D01*
X124112555Y-105582837D01*
X124113986Y-105571962D01*
X124111775Y-105557778D01*
X124098617Y-105554000D01*
X123052115Y-105554000D01*
X123036876Y-105558475D01*
X123035671Y-105559865D01*
X123034000Y-105567548D01*
X123034000Y-106618517D01*
X122526000Y-106618517D01*
X122526000Y-105027885D01*
X123034000Y-105027885D01*
X123038475Y-105043124D01*
X123039865Y-105044329D01*
X123047548Y-105046000D01*
X124098344Y-105046000D01*
X124111875Y-105042027D01*
X124113180Y-105032947D01*
X124071214Y-104865875D01*
X124067894Y-104856124D01*
X123982972Y-104660814D01*
X123978105Y-104651739D01*
X123862426Y-104472926D01*
X123856136Y-104464757D01*
X123712806Y-104307240D01*
X123705273Y-104300215D01*
X123538139Y-104168222D01*
X123529552Y-104162517D01*
X123343117Y-104059599D01*
X123333705Y-104055369D01*
X123132959Y-103984280D01*
X123122988Y-103981646D01*
X123051837Y-103968972D01*
X123038540Y-103970432D01*
X123034000Y-103984989D01*
X123034000Y-105027885D01*
X122526000Y-105027885D01*
X122526000Y-103983102D01*
X122522082Y-103969758D01*
X122507806Y-103967771D01*
X122469324Y-103973660D01*
X122459288Y-103976051D01*
X122256868Y-104042212D01*
X122247359Y-104046209D01*
X122058463Y-104144542D01*
X122049738Y-104150036D01*
X121879433Y-104277905D01*
X121871726Y-104284748D01*
X121724590Y-104438717D01*
X121718104Y-104446727D01*
X121598098Y-104622649D01*
X121593000Y-104631623D01*
X121503338Y-104824783D01*
X121499775Y-104834470D01*
X121471012Y-104938185D01*
X121433533Y-104998483D01*
X121369405Y-105028946D01*
X121298986Y-105019903D01*
X121244636Y-104974224D01*
X121228973Y-104940933D01*
X121226941Y-104934202D01*
X121215935Y-104897749D01*
X121119218Y-104715849D01*
X121037136Y-104615207D01*
X120992906Y-104560975D01*
X120992903Y-104560972D01*
X120989011Y-104556200D01*
X120982173Y-104550543D01*
X120835025Y-104428811D01*
X120835021Y-104428809D01*
X120830275Y-104424882D01*
X120649055Y-104326897D01*
X120452254Y-104265977D01*
X120446129Y-104265333D01*
X120446128Y-104265333D01*
X120253498Y-104245087D01*
X120253496Y-104245087D01*
X120247369Y-104244443D01*
X120160529Y-104252346D01*
X120048342Y-104262555D01*
X120048339Y-104262556D01*
X120042203Y-104263114D01*
X119844572Y-104321280D01*
X119662002Y-104416726D01*
X119657201Y-104420586D01*
X119657198Y-104420588D01*
X119536007Y-104518028D01*
X119501447Y-104545815D01*
X119369024Y-104703630D01*
X119366056Y-104709028D01*
X119366053Y-104709033D01*
X119294185Y-104839762D01*
X119269776Y-104884162D01*
X119207484Y-105080532D01*
X119206798Y-105086649D01*
X119206797Y-105086653D01*
X119191574Y-105222373D01*
X119184520Y-105285262D01*
X118754138Y-105285262D01*
X118735480Y-105094970D01*
X118675935Y-104897749D01*
X118579218Y-104715849D01*
X118497136Y-104615207D01*
X118452906Y-104560975D01*
X118452903Y-104560972D01*
X118449011Y-104556200D01*
X118442173Y-104550543D01*
X118295025Y-104428811D01*
X118295021Y-104428809D01*
X118290275Y-104424882D01*
X118109055Y-104326897D01*
X117912254Y-104265977D01*
X117906129Y-104265333D01*
X117906128Y-104265333D01*
X117713498Y-104245087D01*
X117713496Y-104245087D01*
X117707369Y-104244443D01*
X117620529Y-104252346D01*
X117508342Y-104262555D01*
X117508339Y-104262556D01*
X117502203Y-104263114D01*
X117304572Y-104321280D01*
X117122002Y-104416726D01*
X117117201Y-104420586D01*
X117117198Y-104420588D01*
X116996007Y-104518028D01*
X116961447Y-104545815D01*
X116829024Y-104703630D01*
X116826056Y-104709028D01*
X116826053Y-104709033D01*
X116754185Y-104839762D01*
X116729776Y-104884162D01*
X116667484Y-105080532D01*
X116666798Y-105086649D01*
X116666797Y-105086653D01*
X116651574Y-105222373D01*
X116644520Y-105285262D01*
X116210500Y-105285262D01*
X116210500Y-104430252D01*
X116198867Y-104371769D01*
X116154552Y-104305448D01*
X116088231Y-104261133D01*
X116076062Y-104258712D01*
X116076061Y-104258712D01*
X116035816Y-104250707D01*
X116029748Y-104249500D01*
X114290252Y-104249500D01*
X114284184Y-104250707D01*
X114243939Y-104258712D01*
X114243938Y-104258712D01*
X114231769Y-104261133D01*
X114165448Y-104305448D01*
X114121133Y-104371769D01*
X114109500Y-104430252D01*
X114109500Y-106169748D01*
X107005647Y-106169748D01*
X107007631Y-106151486D01*
X107008000Y-106144672D01*
X107008000Y-105522115D01*
X107003525Y-105506876D01*
X107002135Y-105505671D01*
X106994452Y-105504000D01*
X106322115Y-105504000D01*
X106306876Y-105508475D01*
X106305671Y-105509865D01*
X106304000Y-105517548D01*
X106304000Y-106589884D01*
X105796000Y-106589884D01*
X105796000Y-105522115D01*
X105791525Y-105506876D01*
X105790135Y-105505671D01*
X105782452Y-105504000D01*
X105110116Y-105504000D01*
X105094877Y-105508475D01*
X105093672Y-105509865D01*
X105092001Y-105517548D01*
X105092001Y-106144669D01*
X103295543Y-106144669D01*
X103300500Y-106119748D01*
X103300500Y-104977885D01*
X105092000Y-104977885D01*
X105096475Y-104993124D01*
X105097865Y-104994329D01*
X105105548Y-104996000D01*
X105777885Y-104996000D01*
X105793124Y-104991525D01*
X105794329Y-104990135D01*
X105796000Y-104982452D01*
X105796000Y-104977885D01*
X106304000Y-104977885D01*
X106308475Y-104993124D01*
X106309865Y-104994329D01*
X106317548Y-104996000D01*
X106989884Y-104996000D01*
X107005123Y-104991525D01*
X107006328Y-104990135D01*
X107007999Y-104982452D01*
X107007999Y-104355331D01*
X107007629Y-104348510D01*
X107002105Y-104297648D01*
X106998479Y-104282396D01*
X106953324Y-104161946D01*
X106944786Y-104146351D01*
X106868285Y-104044276D01*
X106855724Y-104031715D01*
X106753649Y-103955214D01*
X106738054Y-103946676D01*
X106617606Y-103901522D01*
X106602351Y-103897895D01*
X106551486Y-103892369D01*
X106544672Y-103892000D01*
X106322115Y-103892000D01*
X106306876Y-103896475D01*
X106305671Y-103897865D01*
X106304000Y-103905548D01*
X106304000Y-104977885D01*
X105796000Y-104977885D01*
X105796000Y-103910116D01*
X105791525Y-103894877D01*
X105790135Y-103893672D01*
X105782452Y-103892001D01*
X105555331Y-103892001D01*
X105548510Y-103892371D01*
X105497648Y-103897895D01*
X105482396Y-103901521D01*
X105361946Y-103946676D01*
X105346351Y-103955214D01*
X105244276Y-104031715D01*
X105231715Y-104044276D01*
X105155214Y-104146351D01*
X105146676Y-104161946D01*
X105101522Y-104282394D01*
X105097895Y-104297649D01*
X105092369Y-104348514D01*
X105092000Y-104355328D01*
X105092000Y-104977885D01*
X103300500Y-104977885D01*
X103300500Y-104380252D01*
X103288867Y-104321769D01*
X103277962Y-104305448D01*
X103251443Y-104265761D01*
X103244552Y-104255448D01*
X103178231Y-104211133D01*
X103166062Y-104208712D01*
X103166061Y-104208712D01*
X103125816Y-104200707D01*
X103119748Y-104199500D01*
X102180252Y-104199500D01*
X102174184Y-104200707D01*
X102133939Y-104208712D01*
X102133938Y-104208712D01*
X102121769Y-104211133D01*
X102055448Y-104255448D01*
X102048557Y-104265761D01*
X102022039Y-104305448D01*
X102011133Y-104321769D01*
X101999500Y-104380252D01*
X101999500Y-105458694D01*
X101979498Y-105526815D01*
X101962595Y-105547789D01*
X100420176Y-107090208D01*
X100401084Y-107105878D01*
X100388396Y-107114356D01*
X100373027Y-107137357D01*
X100370650Y-107135768D01*
X100370648Y-107135771D01*
X100373025Y-107137360D01*
X100360639Y-107155897D01*
X100334657Y-107194782D01*
X100327505Y-107205485D01*
X100325084Y-107217655D01*
X100325084Y-107217656D01*
X100318358Y-107251471D01*
X100312680Y-107280019D01*
X100306123Y-107312980D01*
X100308544Y-107325151D01*
X100309099Y-107327941D01*
X100311520Y-107352523D01*
X100311520Y-108260668D01*
X100291518Y-108328789D01*
X100237862Y-108375282D01*
X100167588Y-108385386D01*
X100103008Y-108355892D01*
X100080755Y-108330671D01*
X100079498Y-108328789D01*
X100036124Y-108263876D01*
X100024616Y-108256186D01*
X100023436Y-108255398D01*
X100004344Y-108239728D01*
X99747772Y-107983156D01*
X99732102Y-107964064D01*
X99730515Y-107961689D01*
X99723624Y-107951376D01*
X99700623Y-107936007D01*
X99700622Y-107936006D01*
X99648794Y-107901376D01*
X99648508Y-107901185D01*
X99642815Y-107897380D01*
X99642812Y-107897379D01*
X99632495Y-107890485D01*
X99552133Y-107874500D01*
X99537172Y-107871524D01*
X99537171Y-107871524D01*
X99525000Y-107869103D01*
X99512829Y-107871524D01*
X99510039Y-107872079D01*
X99485457Y-107874500D01*
X96096082Y-107874500D01*
X96027961Y-107854498D01*
X95981468Y-107800842D01*
X95971364Y-107730568D01*
X96000858Y-107665988D01*
X96006987Y-107659405D01*
X96053050Y-107613342D01*
X96110646Y-107500304D01*
X96112202Y-107490484D01*
X96122241Y-107427096D01*
X96125500Y-107406519D01*
X96125499Y-106793482D01*
X96124724Y-106788588D01*
X96112198Y-106709494D01*
X96112197Y-106709492D01*
X96110646Y-106699696D01*
X96053050Y-106586658D01*
X95963342Y-106496950D01*
X95888149Y-106458637D01*
X95836534Y-106409888D01*
X95819468Y-106340973D01*
X95842369Y-106273772D01*
X95888149Y-106234103D01*
X95955751Y-106199658D01*
X96049658Y-106105751D01*
X96100474Y-106006020D01*
X96105450Y-105996254D01*
X96105450Y-105996253D01*
X96109951Y-105987420D01*
X96125500Y-105889246D01*
X96125500Y-105310754D01*
X96109951Y-105212580D01*
X96049658Y-105094249D01*
X95955751Y-105000342D01*
X95837420Y-104940049D01*
X95739246Y-104924500D01*
X95235754Y-104924500D01*
X95137580Y-104940049D01*
X95019249Y-105000342D01*
X94979901Y-105039690D01*
X94917589Y-105073716D01*
X94846774Y-105068651D01*
X94789938Y-105026104D01*
X94783662Y-105016898D01*
X94708530Y-104895486D01*
X94699494Y-104884085D01*
X94589920Y-104774702D01*
X94578509Y-104765690D01*
X94446709Y-104684447D01*
X94433532Y-104678303D01*
X94286157Y-104629421D01*
X94272790Y-104626555D01*
X94183300Y-104617386D01*
X94169376Y-104621475D01*
X94168171Y-104622865D01*
X94166500Y-104630548D01*
X94166500Y-105728000D01*
X94146498Y-105796121D01*
X94092842Y-105842614D01*
X94040500Y-105854000D01*
X93784500Y-105854000D01*
X93716379Y-105833998D01*
X93669886Y-105780342D01*
X93658500Y-105728000D01*
X93658500Y-104635115D01*
X93654025Y-104619876D01*
X93652635Y-104618671D01*
X93645679Y-104617158D01*
X93642218Y-104617337D01*
X93550979Y-104626804D01*
X93537583Y-104629697D01*
X93390313Y-104678830D01*
X93377134Y-104685004D01*
X93292983Y-104737078D01*
X93224531Y-104755916D01*
X93156761Y-104734755D01*
X93137585Y-104719030D01*
X92259038Y-103840484D01*
X92243372Y-103821396D01*
X92235535Y-103809667D01*
X92148210Y-103751317D01*
X92136041Y-103748897D01*
X92136040Y-103748896D01*
X92071204Y-103736000D01*
X92045202Y-103730828D01*
X92033031Y-103733249D01*
X92033029Y-103733249D01*
X92031370Y-103733579D01*
X92006790Y-103736000D01*
X78215492Y-103736000D01*
X78147371Y-103715998D01*
X78100878Y-103662342D01*
X78089492Y-103610000D01*
X78089492Y-103326500D01*
X78109494Y-103258379D01*
X78163150Y-103211886D01*
X78215492Y-103200500D01*
X232177094Y-103200501D01*
G37*
%TD.AperFunction*%
%TA.AperFunction,Conductor*%
G36*
X91175493Y-118553494D02*
G01*
X91233079Y-118595020D01*
X91240374Y-118607569D01*
X91240485Y-118607495D01*
X91301376Y-118698624D01*
X91311692Y-118705517D01*
X91311693Y-118705518D01*
X91314064Y-118707102D01*
X91333156Y-118722772D01*
X91937289Y-119326905D01*
X91971315Y-119389217D01*
X91966250Y-119460032D01*
X91923703Y-119516868D01*
X91857183Y-119541679D01*
X91848194Y-119542000D01*
X91684615Y-119542000D01*
X91669376Y-119546475D01*
X91668171Y-119547865D01*
X91666500Y-119555548D01*
X91666500Y-120953000D01*
X91646498Y-121021121D01*
X91592842Y-121067614D01*
X91540500Y-121079000D01*
X91284500Y-121079000D01*
X91216379Y-121058998D01*
X91169886Y-121005342D01*
X91158500Y-120953000D01*
X91158500Y-119560116D01*
X91154025Y-119544877D01*
X91152635Y-119543672D01*
X91144952Y-119542001D01*
X90790000Y-119542001D01*
X90721879Y-119521999D01*
X90675386Y-119468343D01*
X90664000Y-119416001D01*
X90664000Y-119113145D01*
X90684002Y-119045024D01*
X90700905Y-119024049D01*
X90800457Y-118924498D01*
X90909520Y-118815435D01*
X90928607Y-118799770D01*
X90940333Y-118791935D01*
X90955060Y-118769895D01*
X90955063Y-118769892D01*
X90998683Y-118704610D01*
X91006845Y-118663574D01*
X91009996Y-118647735D01*
X91042904Y-118584826D01*
X91104599Y-118549694D01*
X91175493Y-118553494D01*
G37*
%TD.AperFunction*%
%TA.AperFunction,Conductor*%
G36*
X83172532Y-113746250D02*
G01*
X83229368Y-113788797D01*
X83254179Y-113855317D01*
X83254500Y-113864306D01*
X83254500Y-114034748D01*
X83255707Y-114040816D01*
X83258831Y-114056519D01*
X83266133Y-114093231D01*
X83273027Y-114103548D01*
X83273028Y-114103551D01*
X83290699Y-114129997D01*
X83311915Y-114197749D01*
X83290699Y-114270003D01*
X83273028Y-114296449D01*
X83273027Y-114296452D01*
X83266133Y-114306769D01*
X83263712Y-114318938D01*
X83263712Y-114318939D01*
X83258418Y-114345555D01*
X83254500Y-114365252D01*
X83254500Y-115304748D01*
X83255707Y-115310816D01*
X83263562Y-115350304D01*
X83266133Y-115363231D01*
X83273027Y-115373548D01*
X83273028Y-115373551D01*
X83290699Y-115399997D01*
X83311915Y-115467749D01*
X83290699Y-115540003D01*
X83273028Y-115566449D01*
X83273027Y-115566452D01*
X83266133Y-115576769D01*
X83254500Y-115635252D01*
X83254500Y-116574748D01*
X83266133Y-116633231D01*
X83273027Y-116643548D01*
X83273028Y-116643551D01*
X83290699Y-116669997D01*
X83311915Y-116737749D01*
X83290699Y-116810003D01*
X83273028Y-116836449D01*
X83273027Y-116836452D01*
X83266133Y-116846769D01*
X83254500Y-116905252D01*
X83254500Y-117844748D01*
X83255707Y-117850816D01*
X83263598Y-117890485D01*
X83266133Y-117903231D01*
X83273027Y-117913548D01*
X83273028Y-117913551D01*
X83290699Y-117939997D01*
X83311915Y-118007749D01*
X83290699Y-118080003D01*
X83273028Y-118106449D01*
X83273027Y-118106452D01*
X83266133Y-118116769D01*
X83254500Y-118175252D01*
X83254500Y-118917354D01*
X83234498Y-118985475D01*
X83204065Y-119018180D01*
X83099276Y-119096715D01*
X83086715Y-119109276D01*
X83010214Y-119211351D01*
X83001676Y-119226946D01*
X82956522Y-119347394D01*
X82952895Y-119362649D01*
X82947369Y-119413514D01*
X82947000Y-119420328D01*
X82947000Y-119642885D01*
X82951475Y-119658124D01*
X82952865Y-119659329D01*
X82960548Y-119661000D01*
X84583000Y-119661000D01*
X84651121Y-119681002D01*
X84697614Y-119734658D01*
X84709000Y-119787000D01*
X84709000Y-120043000D01*
X84688998Y-120111121D01*
X84635342Y-120157614D01*
X84583000Y-120169000D01*
X82965116Y-120169000D01*
X82949877Y-120173475D01*
X82948672Y-120174865D01*
X82947001Y-120182548D01*
X82947001Y-120409669D01*
X82947371Y-120416490D01*
X82952895Y-120467352D01*
X82956521Y-120482604D01*
X83001676Y-120603054D01*
X83010216Y-120618651D01*
X83013428Y-120622938D01*
X83038274Y-120689445D01*
X83023219Y-120758827D01*
X82973044Y-120809056D01*
X82912600Y-120824500D01*
X78215492Y-120824500D01*
X78147371Y-120804498D01*
X78100878Y-120750842D01*
X78089492Y-120698500D01*
X78089492Y-118676650D01*
X78109494Y-118608529D01*
X78163150Y-118562036D01*
X78195781Y-118552201D01*
X78290513Y-118537197D01*
X78290515Y-118537196D01*
X78300304Y-118535646D01*
X78413342Y-118478050D01*
X78503050Y-118388342D01*
X78560646Y-118275304D01*
X78561256Y-118271452D01*
X78589889Y-118224727D01*
X83039405Y-113775211D01*
X83101717Y-113741185D01*
X83172532Y-113746250D01*
G37*
%TD.AperFunction*%
%TA.AperFunction,Conductor*%
G36*
X89454032Y-119389750D02*
G01*
X89510868Y-119432297D01*
X89535679Y-119498817D01*
X89536000Y-119507806D01*
X89536000Y-120591572D01*
X89515998Y-120659693D01*
X89462342Y-120706186D01*
X89392068Y-120716290D01*
X89352797Y-120703839D01*
X89337909Y-120696253D01*
X89275304Y-120664354D01*
X89265515Y-120662804D01*
X89265513Y-120662803D01*
X89159793Y-120646059D01*
X89150000Y-120644508D01*
X89140207Y-120646059D01*
X89034487Y-120662803D01*
X89034485Y-120662804D01*
X89024696Y-120664354D01*
X89015865Y-120668854D01*
X89015861Y-120668855D01*
X88962091Y-120696253D01*
X88892314Y-120709358D01*
X88826529Y-120682658D01*
X88785861Y-120624087D01*
X88784719Y-120616874D01*
X88780219Y-120608043D01*
X88780218Y-120608039D01*
X88728028Y-120505612D01*
X88723528Y-120496780D01*
X88628220Y-120401472D01*
X88630597Y-120399095D01*
X88597802Y-120356562D01*
X88591730Y-120285825D01*
X88624865Y-120223035D01*
X88681362Y-120191134D01*
X88681078Y-120190261D01*
X88685387Y-120188861D01*
X88686687Y-120188127D01*
X88689089Y-120187658D01*
X88690505Y-120187198D01*
X88700304Y-120185646D01*
X88813342Y-120128050D01*
X88903050Y-120038342D01*
X88960646Y-119925304D01*
X88975500Y-119831519D01*
X88975500Y-119816306D01*
X88995502Y-119748185D01*
X89012405Y-119727211D01*
X89320905Y-119418711D01*
X89383217Y-119384685D01*
X89454032Y-119389750D01*
G37*
%TD.AperFunction*%
%TA.AperFunction,Conductor*%
G36*
X85864012Y-118576156D02*
G01*
X85888644Y-118605077D01*
X85917788Y-118652173D01*
X85926824Y-118663574D01*
X86037429Y-118773986D01*
X86048840Y-118782998D01*
X86139832Y-118839086D01*
X86187325Y-118891858D01*
X86198749Y-118961930D01*
X86170475Y-119027054D01*
X86162811Y-119035441D01*
X86151472Y-119046780D01*
X86146971Y-119055613D01*
X86146970Y-119055615D01*
X86091506Y-119164470D01*
X86042758Y-119216086D01*
X85973843Y-119233152D01*
X85906642Y-119210252D01*
X85878413Y-119182833D01*
X85823285Y-119109276D01*
X85810724Y-119096715D01*
X85705935Y-119018180D01*
X85663420Y-118961321D01*
X85655500Y-118917354D01*
X85655500Y-118671380D01*
X85675502Y-118603259D01*
X85729158Y-118556766D01*
X85799432Y-118546662D01*
X85864012Y-118576156D01*
G37*
%TD.AperFunction*%
%TA.AperFunction,Conductor*%
G36*
X89921046Y-117473114D02*
G01*
X89970947Y-117523616D01*
X89986000Y-117583338D01*
X89986000Y-118478308D01*
X89965998Y-118546429D01*
X89949095Y-118567403D01*
X89766594Y-118749904D01*
X89704282Y-118783930D01*
X89633467Y-118778865D01*
X89576631Y-118736318D01*
X89551820Y-118669798D01*
X89551499Y-118660809D01*
X89551499Y-117584000D01*
X89571501Y-117515879D01*
X89625157Y-117469386D01*
X89677499Y-117458000D01*
X89845765Y-117458000D01*
X89851764Y-117457607D01*
X89921046Y-117473114D01*
G37*
%TD.AperFunction*%
%TA.AperFunction,Conductor*%
G36*
X86896121Y-116241002D02*
G01*
X86942614Y-116294658D01*
X86954000Y-116347000D01*
X86954000Y-116958885D01*
X86958474Y-116974124D01*
X86960512Y-116975889D01*
X86998896Y-117035615D01*
X87004000Y-117071114D01*
X87004000Y-118103000D01*
X86983998Y-118171121D01*
X86930342Y-118217614D01*
X86878000Y-118229000D01*
X86622000Y-118229000D01*
X86553879Y-118208998D01*
X86507386Y-118155342D01*
X86496000Y-118103000D01*
X86496000Y-117441115D01*
X86491526Y-117425876D01*
X86489488Y-117424111D01*
X86451104Y-117364385D01*
X86446000Y-117328886D01*
X86446000Y-116347000D01*
X86466002Y-116278879D01*
X86519658Y-116232386D01*
X86572000Y-116221000D01*
X86828000Y-116221000D01*
X86896121Y-116241002D01*
G37*
%TD.AperFunction*%
%TA.AperFunction,Conductor*%
G36*
X85864012Y-109929082D02*
G01*
X85870595Y-109935211D01*
X85987754Y-110052370D01*
X86021780Y-110114682D01*
X86023734Y-110143481D01*
X86024500Y-110143481D01*
X86024501Y-110606518D01*
X86025276Y-110611411D01*
X86025276Y-110611412D01*
X86034709Y-110670972D01*
X86039354Y-110700304D01*
X86043857Y-110709141D01*
X86043857Y-110709142D01*
X86048118Y-110717505D01*
X86096950Y-110813342D01*
X86186658Y-110903050D01*
X86299696Y-110960646D01*
X86301662Y-110960957D01*
X86356635Y-110998546D01*
X86384273Y-111063942D01*
X86372168Y-111133899D01*
X86324163Y-111186206D01*
X86316298Y-111190574D01*
X86279125Y-111209515D01*
X86196780Y-111251472D01*
X86101472Y-111346780D01*
X86040281Y-111466874D01*
X86024500Y-111566512D01*
X86024500Y-112083488D01*
X86031769Y-112129381D01*
X86038139Y-112169599D01*
X86040281Y-112183126D01*
X86101472Y-112303220D01*
X86112774Y-112314522D01*
X86146800Y-112376834D01*
X86141735Y-112447649D01*
X86099188Y-112504485D01*
X86089982Y-112510762D01*
X85997821Y-112567793D01*
X85986426Y-112576824D01*
X85870843Y-112692609D01*
X85868539Y-112690309D01*
X85822396Y-112722985D01*
X85751471Y-112726175D01*
X85690080Y-112690514D01*
X85657714Y-112627324D01*
X85655500Y-112603806D01*
X85655500Y-111825252D01*
X85650174Y-111798478D01*
X85646288Y-111778939D01*
X85646288Y-111778938D01*
X85643867Y-111766769D01*
X85636973Y-111756452D01*
X85636972Y-111756449D01*
X85619301Y-111730003D01*
X85598085Y-111662251D01*
X85619301Y-111589997D01*
X85636972Y-111563551D01*
X85636973Y-111563548D01*
X85643867Y-111553231D01*
X85650271Y-111521039D01*
X85654293Y-111500816D01*
X85655500Y-111494748D01*
X85655500Y-110555252D01*
X85648177Y-110518438D01*
X85646288Y-110508939D01*
X85646288Y-110508938D01*
X85643867Y-110496769D01*
X85636973Y-110486452D01*
X85636972Y-110486449D01*
X85619301Y-110460003D01*
X85598085Y-110392251D01*
X85619301Y-110319997D01*
X85636972Y-110293551D01*
X85636973Y-110293548D01*
X85643867Y-110283231D01*
X85648360Y-110260646D01*
X85654293Y-110230816D01*
X85655500Y-110224748D01*
X85655500Y-110024306D01*
X85675502Y-109956185D01*
X85729158Y-109909692D01*
X85799432Y-109899588D01*
X85864012Y-109929082D01*
G37*
%TD.AperFunction*%
%TA.AperFunction,Conductor*%
G36*
X97297689Y-108795022D02*
G01*
X97344182Y-108848678D01*
X97351876Y-108893948D01*
X97358975Y-108918124D01*
X97360365Y-108919329D01*
X97368048Y-108921000D01*
X98465500Y-108921000D01*
X98533621Y-108941002D01*
X98580114Y-108994658D01*
X98591500Y-109047000D01*
X98591500Y-109303000D01*
X98571498Y-109371121D01*
X98517842Y-109417614D01*
X98465500Y-109429000D01*
X97372616Y-109429000D01*
X97357377Y-109433475D01*
X97335112Y-109459170D01*
X97333809Y-109458041D01*
X97328552Y-109467664D01*
X97266232Y-109501676D01*
X97221286Y-109503230D01*
X97200244Y-109500160D01*
X97200240Y-109500160D01*
X97195718Y-109499500D01*
X96945019Y-109499500D01*
X96876898Y-109479498D01*
X96830405Y-109425842D01*
X96821646Y-109361664D01*
X96820894Y-109361664D01*
X96820894Y-109356153D01*
X96820571Y-109353786D01*
X96820894Y-109351747D01*
X96820894Y-109351746D01*
X96822445Y-109341953D01*
X96818915Y-109319663D01*
X96804150Y-109226440D01*
X96804149Y-109226438D01*
X96802599Y-109216649D01*
X96745003Y-109103611D01*
X96655295Y-109013903D01*
X96656246Y-109012952D01*
X96619138Y-108964827D01*
X96613063Y-108894091D01*
X96647458Y-108830019D01*
X96665552Y-108811925D01*
X96727864Y-108777899D01*
X96754647Y-108775020D01*
X97229568Y-108775020D01*
X97297689Y-108795022D01*
G37*
%TD.AperFunction*%
M02*
