%TF.GenerationSoftware,KiCad,Pcbnew,(6.0.4)*%
%TF.CreationDate,2022-06-11T13:57:15+01:00*%
%TF.ProjectId,soil-moisture-sensor,736f696c-2d6d-46f6-9973-747572652d73,%%version%%*%
%TF.SameCoordinates,Original*%
%TF.FileFunction,Soldermask,Top*%
%TF.FilePolarity,Negative*%
%FSLAX46Y46*%
G04 Gerber Fmt 4.6, Leading zero omitted, Abs format (unit mm)*
G04 Created by KiCad (PCBNEW (6.0.4)) date 2022-06-11 13:57:15*
%MOMM*%
%LPD*%
G01*
G04 APERTURE LIST*
G04 Aperture macros list*
%AMRoundRect*
0 Rectangle with rounded corners*
0 $1 Rounding radius*
0 $2 $3 $4 $5 $6 $7 $8 $9 X,Y pos of 4 corners*
0 Add a 4 corners polygon primitive as box body*
4,1,4,$2,$3,$4,$5,$6,$7,$8,$9,$2,$3,0*
0 Add four circle primitives for the rounded corners*
1,1,$1+$1,$2,$3*
1,1,$1+$1,$4,$5*
1,1,$1+$1,$6,$7*
1,1,$1+$1,$8,$9*
0 Add four rect primitives between the rounded corners*
20,1,$1+$1,$2,$3,$4,$5,0*
20,1,$1+$1,$4,$5,$6,$7,0*
20,1,$1+$1,$6,$7,$8,$9,0*
20,1,$1+$1,$8,$9,$2,$3,0*%
G04 Aperture macros list end*
%ADD10RoundRect,0.075000X2.500000X-2.500000X2.500000X2.500000X-2.500000X2.500000X-2.500000X-2.500000X0*%
%ADD11RoundRect,0.075000X0.450000X-1.000000X0.450000X1.000000X-0.450000X1.000000X-0.450000X-1.000000X0*%
%ADD12RoundRect,0.075000X1.000000X0.450000X-1.000000X0.450000X-1.000000X-0.450000X1.000000X-0.450000X0*%
%ADD13C,3.650000*%
%ADD14C,3.000000*%
%ADD15RoundRect,0.275000X0.275000X-0.200000X0.275000X0.200000X-0.275000X0.200000X-0.275000X-0.200000X0*%
%ADD16RoundRect,0.175000X0.100000X-0.130000X0.100000X0.130000X-0.100000X0.130000X-0.100000X-0.130000X0*%
%ADD17C,3.350000*%
%ADD18RoundRect,0.175000X0.130000X0.100000X-0.130000X0.100000X-0.130000X-0.100000X0.130000X-0.100000X0*%
%ADD19RoundRect,0.275000X-0.275000X0.200000X-0.275000X-0.200000X0.275000X-0.200000X0.275000X0.200000X0*%
%ADD20RoundRect,0.225000X-0.587500X-0.150000X0.587500X-0.150000X0.587500X0.150000X-0.587500X0.150000X0*%
%ADD21RoundRect,0.075000X0.450000X0.850000X-0.450000X0.850000X-0.450000X-0.850000X0.450000X-0.850000X0*%
%ADD22RoundRect,0.293750X-0.218750X-0.256250X0.218750X-0.256250X0.218750X0.256250X-0.218750X0.256250X0*%
%ADD23RoundRect,0.325000X0.475000X-0.250000X0.475000X0.250000X-0.475000X0.250000X-0.475000X-0.250000X0*%
%ADD24RoundRect,0.275000X-0.200000X-0.275000X0.200000X-0.275000X0.200000X0.275000X-0.200000X0.275000X0*%
%ADD25RoundRect,0.300000X0.225000X0.250000X-0.225000X0.250000X-0.225000X-0.250000X0.225000X-0.250000X0*%
%ADD26RoundRect,0.293750X0.218750X0.256250X-0.218750X0.256250X-0.218750X-0.256250X0.218750X-0.256250X0*%
%ADD27RoundRect,0.075000X-0.500000X0.500000X-0.500000X-0.500000X0.500000X-0.500000X0.500000X0.500000X0*%
%ADD28RoundRect,0.075000X-0.180000X-0.125000X0.180000X-0.125000X0.180000X0.125000X-0.180000X0.125000X0*%
%ADD29RoundRect,0.075000X-0.712500X-0.775000X0.712500X-0.775000X0.712500X0.775000X-0.712500X0.775000X0*%
%ADD30RoundRect,0.075000X-0.900000X-0.950000X0.900000X-0.950000X0.900000X0.950000X-0.900000X0.950000X0*%
%ADD31RoundRect,0.075000X-0.825000X-0.650000X0.825000X-0.650000X0.825000X0.650000X-0.825000X0.650000X0*%
%ADD32RoundRect,0.075000X-0.500000X-0.950000X0.500000X-0.950000X0.500000X0.950000X-0.500000X0.950000X0*%
%ADD33RoundRect,0.075000X-0.225000X-0.690000X0.225000X-0.690000X0.225000X0.690000X-0.225000X0.690000X0*%
%ADD34RoundRect,0.275000X0.200000X0.275000X-0.200000X0.275000X-0.200000X-0.275000X0.200000X-0.275000X0*%
%ADD35RoundRect,0.075000X0.125000X-0.180000X0.125000X0.180000X-0.125000X0.180000X-0.125000X-0.180000X0*%
%ADD36RoundRect,0.075000X1.300000X-1.300000X1.300000X1.300000X-1.300000X1.300000X-1.300000X-1.300000X0*%
%ADD37RoundRect,0.137500X0.350000X-0.062500X0.350000X0.062500X-0.350000X0.062500X-0.350000X-0.062500X0*%
%ADD38RoundRect,0.137500X0.062500X-0.350000X0.062500X0.350000X-0.062500X0.350000X-0.062500X-0.350000X0*%
%ADD39RoundRect,0.075000X0.180000X0.125000X-0.180000X0.125000X-0.180000X-0.125000X0.180000X-0.125000X0*%
G04 APERTURE END LIST*
D10*
X74445000Y-115200000D03*
D11*
X66945000Y-105700000D03*
X68215000Y-105700000D03*
X69485000Y-105700000D03*
X70755000Y-105700000D03*
X72025000Y-105700000D03*
X73295000Y-105700000D03*
X74565000Y-105700000D03*
X75835000Y-105700000D03*
X77105000Y-105700000D03*
X78375000Y-105700000D03*
X79645000Y-105700000D03*
X80915000Y-105700000D03*
X82185000Y-105700000D03*
X83455000Y-105700000D03*
D12*
X84455000Y-108485000D03*
X84455000Y-109755000D03*
X84455000Y-111025000D03*
X84455000Y-112295000D03*
X84455000Y-113565000D03*
X84455000Y-114835000D03*
X84455000Y-116105000D03*
X84455000Y-117375000D03*
X84455000Y-118645000D03*
X84455000Y-119915000D03*
D11*
X83455000Y-122700000D03*
X82185000Y-122700000D03*
X80915000Y-122700000D03*
X79645000Y-122700000D03*
X78375000Y-122700000D03*
X77105000Y-122700000D03*
X75835000Y-122700000D03*
X74565000Y-122700000D03*
X73295000Y-122700000D03*
X72025000Y-122700000D03*
X70755000Y-122700000D03*
X69485000Y-122700000D03*
X68215000Y-122700000D03*
X66945000Y-122700000D03*
D13*
X138287500Y-114100000D03*
X100287500Y-114100000D03*
D14*
X138287500Y-105900000D03*
D15*
X99675000Y-123150000D03*
X99675000Y-121500000D03*
X86800000Y-113775000D03*
X86800000Y-115425000D03*
D16*
X86750000Y-118430000D03*
X86750000Y-119070000D03*
D17*
X145600000Y-108800000D03*
X145600000Y-119600000D03*
D18*
X102755000Y-111575000D03*
X103395000Y-111575000D03*
D15*
X98337500Y-109175000D03*
X98337500Y-110825000D03*
D19*
X86750000Y-110675000D03*
X86750000Y-109025000D03*
D20*
X94700000Y-109050000D03*
X94700000Y-110950000D03*
X96575000Y-110000000D03*
D21*
X101400000Y-105475000D03*
X104800000Y-105475000D03*
D22*
X89212500Y-105600000D03*
X87637500Y-105600000D03*
D15*
X94100000Y-113800000D03*
X94100000Y-115450000D03*
D23*
X87400000Y-120550000D03*
X87400000Y-122450000D03*
D24*
X95525000Y-107100000D03*
X93875000Y-107100000D03*
D15*
X95600000Y-113800000D03*
X95600000Y-115450000D03*
D25*
X86650000Y-124100000D03*
X88200000Y-124100000D03*
D26*
X90712500Y-105600000D03*
X92287500Y-105600000D03*
D24*
X88075000Y-117050000D03*
X86425000Y-117050000D03*
D19*
X99837500Y-109175000D03*
X99837500Y-110825000D03*
D15*
X97150000Y-113825000D03*
X97150000Y-115475000D03*
D18*
X86480000Y-112400000D03*
X87120000Y-112400000D03*
D27*
X101425000Y-123075000D03*
X101425000Y-120575000D03*
D28*
X90230000Y-119100000D03*
X91070000Y-119100000D03*
D29*
X91412500Y-120825000D03*
D30*
X92750000Y-123400000D03*
D29*
X96387500Y-120825000D03*
D31*
X90525000Y-123400000D03*
D32*
X95450000Y-123400000D03*
D31*
X97275000Y-123400000D03*
D33*
X95200000Y-120740000D03*
X94550000Y-120740000D03*
X93900000Y-120740000D03*
X93250000Y-120740000D03*
X92600000Y-120740000D03*
D18*
X102705000Y-107500000D03*
X103345000Y-107500000D03*
D22*
X95487500Y-105600000D03*
X93912500Y-105600000D03*
D34*
X87625000Y-107100000D03*
X89275000Y-107100000D03*
D20*
X92675000Y-110000000D03*
X90800000Y-110950000D03*
X90800000Y-109050000D03*
D21*
X101375000Y-109525000D03*
X104775000Y-109525000D03*
D35*
X92700000Y-119220000D03*
X92700000Y-118380000D03*
D36*
X90500000Y-114600000D03*
D37*
X88562500Y-115850000D03*
X88562500Y-115350000D03*
X88562500Y-114850000D03*
X88562500Y-114350000D03*
X88562500Y-113850000D03*
X88562500Y-113350000D03*
D38*
X89250000Y-112662500D03*
X89750000Y-112662500D03*
X90250000Y-112662500D03*
X90750000Y-112662500D03*
X91250000Y-112662500D03*
X91750000Y-112662500D03*
D37*
X92437500Y-113350000D03*
X92437500Y-113850000D03*
X92437500Y-114350000D03*
X92437500Y-114850000D03*
X92437500Y-115350000D03*
X92437500Y-115850000D03*
D38*
X91750000Y-116537500D03*
X91250000Y-116537500D03*
X90750000Y-116537500D03*
X90250000Y-116537500D03*
X89750000Y-116537500D03*
X89250000Y-116537500D03*
D24*
X90675000Y-107100000D03*
X92325000Y-107100000D03*
D39*
X88972500Y-119875000D03*
X89812500Y-119875000D03*
M02*
