%TF.GenerationSoftware,KiCad,Pcbnew,(6.0.4)*%
%TF.CreationDate,2022-06-27T14:28:37+01:00*%
%TF.ProjectId,soil-moisture-sensor,736f696c-2d6d-46f6-9973-747572652d73,%%version%%*%
%TF.SameCoordinates,Original*%
%TF.FileFunction,Copper,L4,Bot*%
%TF.FilePolarity,Positive*%
%FSLAX46Y46*%
G04 Gerber Fmt 4.6, Leading zero omitted, Abs format (unit mm)*
G04 Created by KiCad (PCBNEW (6.0.4)) date 2022-06-27 14:28:37*
%MOMM*%
%LPD*%
G01*
G04 APERTURE LIST*
G04 Aperture macros list*
%AMRoundRect*
0 Rectangle with rounded corners*
0 $1 Rounding radius*
0 $2 $3 $4 $5 $6 $7 $8 $9 X,Y pos of 4 corners*
0 Add a 4 corners polygon primitive as box body*
4,1,4,$2,$3,$4,$5,$6,$7,$8,$9,$2,$3,0*
0 Add four circle primitives for the rounded corners*
1,1,$1+$1,$2,$3*
1,1,$1+$1,$4,$5*
1,1,$1+$1,$6,$7*
1,1,$1+$1,$8,$9*
0 Add four rect primitives between the rounded corners*
20,1,$1+$1,$2,$3,$4,$5,0*
20,1,$1+$1,$4,$5,$6,$7,0*
20,1,$1+$1,$6,$7,$8,$9,0*
20,1,$1+$1,$8,$9,$2,$3,0*%
G04 Aperture macros list end*
%TA.AperFunction,ConnectorPad*%
%ADD10RoundRect,4.750000X-31.125000X0.000000X31.125000X0.000000X31.125000X0.000000X-31.125000X0.000000X0*%
%TD*%
%TA.AperFunction,ComponentPad*%
%ADD11C,3.500000*%
%TD*%
%TA.AperFunction,ViaPad*%
%ADD12C,0.400000*%
%TD*%
%TA.AperFunction,Conductor*%
%ADD13C,0.150000*%
%TD*%
%TA.AperFunction,Conductor*%
%ADD14C,0.400000*%
%TD*%
G04 APERTURE END LIST*
D10*
X199474999Y-114200000D03*
D11*
X100287500Y-114100000D03*
X138287500Y-114100000D03*
D12*
X81900000Y-124700000D03*
X88075000Y-118150000D03*
X86450000Y-116100000D03*
X86175000Y-112975000D03*
X88075000Y-118150000D03*
X85400000Y-122900000D03*
X89200000Y-118950000D03*
X74725000Y-111925000D03*
X97000000Y-109175000D03*
X101650000Y-110850000D03*
X85975000Y-118450000D03*
X89200000Y-118950000D03*
X91000000Y-118900000D03*
X103150000Y-123350000D03*
X93875000Y-108025000D03*
X86300000Y-107950000D03*
X88650000Y-122000000D03*
X68700000Y-120900000D03*
X78400000Y-109875000D03*
X99150000Y-119750000D03*
X89468437Y-108473450D03*
X93850000Y-112624000D03*
X96075000Y-111050000D03*
X96225000Y-112149500D03*
X87850000Y-112775000D03*
X87750000Y-115225000D03*
X86000000Y-120400000D03*
X89050000Y-118275000D03*
X92000000Y-118250000D03*
X85000000Y-121700000D03*
X92622224Y-112623216D03*
X93473301Y-109273301D03*
X89450000Y-109250000D03*
X92175000Y-112025000D03*
X93250000Y-110699500D03*
X90775000Y-111999500D03*
X90675000Y-104625000D03*
X92650000Y-116750000D03*
X93475000Y-116350000D03*
X87225000Y-116850000D03*
X101325000Y-108100000D03*
X76400000Y-120425000D03*
X88500989Y-110475000D03*
X98922691Y-110077309D03*
X96416953Y-109341953D03*
X78175000Y-118150000D03*
X93228604Y-114060935D03*
X88700000Y-116425000D03*
X87675000Y-113875000D03*
X82625000Y-112050000D03*
X87675000Y-114575000D03*
X82700000Y-113000000D03*
D13*
X78375000Y-111925000D02*
X78675000Y-111625000D01*
X74725000Y-111925000D02*
X78375000Y-111925000D01*
D14*
X143275000Y-114200000D02*
X134125000Y-123350000D01*
X134125000Y-123350000D02*
X103150000Y-123350000D01*
X146200000Y-114200000D02*
X199474999Y-114200000D01*
X146200000Y-114200000D02*
X143275000Y-114200000D01*
D13*
X96775489Y-117375489D02*
X85800489Y-117375489D01*
X99150000Y-119750000D02*
X96775489Y-117375489D01*
X78400000Y-109975000D02*
X78400000Y-109875000D01*
X85800489Y-117375489D02*
X78400000Y-109975000D01*
X89468437Y-108473450D02*
X88975489Y-108966398D01*
X88975489Y-108966398D02*
X88975489Y-112550489D01*
X88975489Y-112550489D02*
X89675000Y-113250000D01*
X93224000Y-113250000D02*
X93850000Y-112624000D01*
X89675000Y-113250000D02*
X93224000Y-113250000D01*
X96225000Y-112149500D02*
X96225000Y-111200000D01*
X96225000Y-111200000D02*
X96075000Y-111050000D01*
X88100000Y-115225000D02*
X88475000Y-114850000D01*
X88475000Y-114850000D02*
X88525000Y-114800000D01*
X88525000Y-114800000D02*
X88525000Y-113400000D01*
X87750000Y-115225000D02*
X88100000Y-115225000D01*
X87900000Y-112775000D02*
X87850000Y-112775000D01*
X88525000Y-113400000D02*
X87900000Y-112775000D01*
X86000000Y-120400000D02*
X85000000Y-121400000D01*
X92000000Y-118250000D02*
X91975000Y-118275000D01*
X91975000Y-118275000D02*
X89050000Y-118275000D01*
X85000000Y-121400000D02*
X85000000Y-121700000D01*
X93724511Y-111520929D02*
X93724511Y-109524511D01*
X93724511Y-109524511D02*
X93473301Y-109273301D01*
X92622224Y-112623216D02*
X93724511Y-111520929D01*
X92175000Y-112025000D02*
X91600000Y-112600000D01*
X89450000Y-111525000D02*
X89450000Y-109250000D01*
X90525000Y-112600000D02*
X89450000Y-111525000D01*
X91600000Y-112600000D02*
X90525000Y-112600000D01*
X90775000Y-111999500D02*
X90775000Y-111050000D01*
X91125500Y-110699500D02*
X93250000Y-110699500D01*
X90775000Y-111050000D02*
X91125500Y-110699500D01*
X94750000Y-106375000D02*
X93000000Y-104625000D01*
X87274511Y-116899511D02*
X92500489Y-116899511D01*
X94750000Y-115075000D02*
X94750000Y-106375000D01*
X87225000Y-116850000D02*
X87274511Y-116899511D01*
X92500489Y-116899511D02*
X92650000Y-116750000D01*
X93475000Y-116350000D02*
X94750000Y-115075000D01*
X93000000Y-104625000D02*
X90675000Y-104625000D01*
X77600000Y-118150000D02*
X78175000Y-118150000D01*
X89775000Y-107025000D02*
X89775000Y-104575000D01*
X93019785Y-104150489D02*
X96416953Y-107547657D01*
X76400000Y-120425000D02*
X76400000Y-119350000D01*
X91224511Y-104150489D02*
X93019785Y-104150489D01*
X76400000Y-119350000D02*
X77600000Y-118150000D01*
X88500989Y-110475000D02*
X88500989Y-108299011D01*
X90199511Y-104150489D02*
X91224511Y-104150489D01*
X98922691Y-110077309D02*
X99347691Y-110077309D01*
X96416953Y-107547657D02*
X96416953Y-109341953D01*
X89025000Y-107775000D02*
X89775000Y-107025000D01*
X99347691Y-110077309D02*
X101325000Y-108100000D01*
X88500989Y-108299011D02*
X89025000Y-107775000D01*
X89775000Y-104575000D02*
X90199511Y-104150489D01*
X88700000Y-116425000D02*
X91064065Y-114060935D01*
X91064065Y-114060935D02*
X93228604Y-114060935D01*
X84450000Y-113875000D02*
X82625000Y-112050000D01*
X87675000Y-113875000D02*
X84450000Y-113875000D01*
X87675000Y-114575000D02*
X84275000Y-114575000D01*
X84275000Y-114575000D02*
X82700000Y-113000000D01*
%TA.AperFunction,Conductor*%
G36*
X232172052Y-103200501D02*
G01*
X232292936Y-103200501D01*
X232312317Y-103202001D01*
X232318691Y-103202993D01*
X232326621Y-103204228D01*
X232326623Y-103204228D01*
X232335493Y-103205609D01*
X232344395Y-103204445D01*
X232344398Y-103204445D01*
X232356760Y-103202828D01*
X232377806Y-103201852D01*
X232447119Y-103204445D01*
X232673206Y-103212903D01*
X232682602Y-103213607D01*
X232906847Y-103238871D01*
X233007616Y-103250225D01*
X233016921Y-103251628D01*
X233338266Y-103312428D01*
X233347452Y-103314524D01*
X233663363Y-103399170D01*
X233672368Y-103401947D01*
X233981085Y-103509970D01*
X233989856Y-103513413D01*
X234289615Y-103644194D01*
X234298104Y-103648282D01*
X234552822Y-103782903D01*
X234572981Y-103796171D01*
X234576525Y-103799026D01*
X234576528Y-103799028D01*
X234583516Y-103804656D01*
X234591804Y-103808098D01*
X234591805Y-103808098D01*
X234612333Y-103816622D01*
X234627013Y-103823870D01*
X248807543Y-112011004D01*
X248823580Y-112021994D01*
X248841846Y-112036707D01*
X248850131Y-112040147D01*
X248850134Y-112040149D01*
X248857812Y-112043337D01*
X248878731Y-112054433D01*
X249086461Y-112191060D01*
X249098214Y-112199809D01*
X249243579Y-112321784D01*
X249306096Y-112374241D01*
X249309641Y-112377216D01*
X249320290Y-112387263D01*
X249509701Y-112588027D01*
X249519099Y-112599227D01*
X249649957Y-112775000D01*
X249683921Y-112820622D01*
X249691972Y-112832863D01*
X249822635Y-113059178D01*
X249829964Y-113071873D01*
X249836540Y-113084966D01*
X249944460Y-113335151D01*
X249945852Y-113338379D01*
X249950863Y-113352144D01*
X250029234Y-113613921D01*
X250030020Y-113616547D01*
X250033398Y-113630799D01*
X250079206Y-113890595D01*
X250081323Y-113902599D01*
X250083024Y-113917152D01*
X250099071Y-114192674D01*
X250099071Y-114207326D01*
X250083655Y-114472020D01*
X250083024Y-114482848D01*
X250081324Y-114497396D01*
X250036188Y-114753379D01*
X250033399Y-114769195D01*
X250030021Y-114783447D01*
X249959052Y-115020502D01*
X249950864Y-115047852D01*
X249945853Y-115061618D01*
X249882655Y-115208126D01*
X249836540Y-115315033D01*
X249829964Y-115328126D01*
X249756426Y-115455499D01*
X249691972Y-115567136D01*
X249683921Y-115579378D01*
X249519099Y-115800773D01*
X249509701Y-115811973D01*
X249320290Y-116012737D01*
X249309641Y-116022784D01*
X249098214Y-116200191D01*
X249086461Y-116208940D01*
X248884729Y-116341622D01*
X248860960Y-116353861D01*
X248852545Y-116357116D01*
X248845417Y-116362575D01*
X248845418Y-116362575D01*
X248827774Y-116376089D01*
X248814158Y-116385178D01*
X246599127Y-117664027D01*
X234633632Y-124572309D01*
X234616095Y-124580702D01*
X234602585Y-124585928D01*
X234602582Y-124585930D01*
X234594214Y-124589167D01*
X234587089Y-124594624D01*
X234587086Y-124594626D01*
X234577189Y-124602206D01*
X234559450Y-124613574D01*
X234298096Y-124751702D01*
X234289607Y-124755790D01*
X233989845Y-124886573D01*
X233981073Y-124890016D01*
X233672365Y-124998035D01*
X233663361Y-125000812D01*
X233347460Y-125085455D01*
X233338274Y-125087551D01*
X233016914Y-125148354D01*
X233007597Y-125149759D01*
X232682602Y-125186375D01*
X232673205Y-125187079D01*
X232477749Y-125194391D01*
X232385125Y-125197856D01*
X232361035Y-125196444D01*
X232358758Y-125196090D01*
X232356719Y-125195772D01*
X232356717Y-125195772D01*
X232347847Y-125194391D01*
X232338945Y-125195555D01*
X232338940Y-125195555D01*
X232316911Y-125198436D01*
X232300575Y-125199500D01*
X78215492Y-125199500D01*
X78147371Y-125179498D01*
X78100878Y-125125842D01*
X78089492Y-125073500D01*
X78089492Y-123350000D01*
X102594750Y-123350000D01*
X102595828Y-123358188D01*
X102595828Y-123366448D01*
X102595529Y-123366448D01*
X102595614Y-123369419D01*
X102596049Y-123376328D01*
X102595420Y-123384891D01*
X102597118Y-123393312D01*
X102605875Y-123436745D01*
X102607283Y-123445201D01*
X102613670Y-123493709D01*
X102616829Y-123501335D01*
X102618085Y-123506022D01*
X102623285Y-123523082D01*
X102625233Y-123532743D01*
X102647602Y-123576645D01*
X102651744Y-123585630D01*
X102669139Y-123627625D01*
X102674169Y-123634180D01*
X102675302Y-123635657D01*
X102687604Y-123655154D01*
X102693707Y-123667132D01*
X102699521Y-123673455D01*
X102699524Y-123673459D01*
X102724627Y-123700759D01*
X102731839Y-123709339D01*
X102752347Y-123736065D01*
X102752353Y-123736071D01*
X102757379Y-123742621D01*
X102768239Y-123750955D01*
X102784269Y-123765617D01*
X102795799Y-123778156D01*
X102803104Y-123782685D01*
X102803105Y-123782686D01*
X102831565Y-123800332D01*
X102841874Y-123807456D01*
X102872375Y-123830861D01*
X102880003Y-123834020D01*
X102880004Y-123834021D01*
X102888293Y-123837454D01*
X102906476Y-123846778D01*
X102923986Y-123857635D01*
X102932240Y-123860033D01*
X102960954Y-123868375D01*
X102974022Y-123872964D01*
X102998661Y-123883170D01*
X102998664Y-123883171D01*
X103006291Y-123886330D01*
X103014472Y-123887407D01*
X103014475Y-123887408D01*
X103026902Y-123889044D01*
X103045596Y-123892967D01*
X103068825Y-123899715D01*
X103076308Y-123900264D01*
X103077208Y-123900331D01*
X103077219Y-123900331D01*
X103079515Y-123900500D01*
X103105662Y-123900500D01*
X103122109Y-123901578D01*
X103150000Y-123905250D01*
X103158188Y-123904172D01*
X103177891Y-123901578D01*
X103194338Y-123900500D01*
X134110007Y-123900500D01*
X134115284Y-123900611D01*
X134177294Y-123903210D01*
X134188848Y-123900500D01*
X134219662Y-123893273D01*
X134231333Y-123891110D01*
X134258357Y-123887408D01*
X134274432Y-123885206D01*
X134288230Y-123879235D01*
X134309499Y-123872201D01*
X134315775Y-123870729D01*
X134324136Y-123868768D01*
X134331661Y-123864631D01*
X134331664Y-123864630D01*
X134362268Y-123847805D01*
X134372913Y-123842589D01*
X134412855Y-123825305D01*
X134424541Y-123815842D01*
X134443126Y-123803354D01*
X134450518Y-123799290D01*
X134456308Y-123796107D01*
X134464422Y-123789103D01*
X134488958Y-123764567D01*
X134498759Y-123755742D01*
X134523392Y-123735794D01*
X134523393Y-123735793D01*
X134530070Y-123730386D01*
X134535043Y-123723388D01*
X134535048Y-123723383D01*
X134540968Y-123715052D01*
X134554579Y-123698946D01*
X138684240Y-119569285D01*
X143644759Y-119569285D01*
X143645003Y-119573720D01*
X143645003Y-119573724D01*
X143659417Y-119835616D01*
X143659938Y-119845087D01*
X143674039Y-119915979D01*
X143700996Y-120051500D01*
X143713825Y-120115999D01*
X143805347Y-120376616D01*
X143932678Y-120621737D01*
X143935261Y-120625352D01*
X143935265Y-120625358D01*
X144090687Y-120842850D01*
X144093275Y-120846471D01*
X144283936Y-121046335D01*
X144287431Y-121049091D01*
X144287433Y-121049092D01*
X144484465Y-121204419D01*
X144500856Y-121217341D01*
X144586133Y-121266874D01*
X144735853Y-121353839D01*
X144735859Y-121353842D01*
X144739707Y-121356077D01*
X144995723Y-121459774D01*
X145000036Y-121460845D01*
X145000041Y-121460847D01*
X145259475Y-121525291D01*
X145259480Y-121525292D01*
X145263796Y-121526364D01*
X145268224Y-121526818D01*
X145268226Y-121526818D01*
X145343339Y-121534514D01*
X145499370Y-121550500D01*
X145670362Y-121550500D01*
X145875530Y-121535973D01*
X145879885Y-121535035D01*
X145879888Y-121535035D01*
X146141215Y-121478773D01*
X146141217Y-121478773D01*
X146145562Y-121477837D01*
X146404709Y-121382233D01*
X146453185Y-121356077D01*
X146643884Y-121253181D01*
X146647800Y-121251068D01*
X146869984Y-121086960D01*
X147066829Y-120893183D01*
X147234406Y-120673604D01*
X147265666Y-120617786D01*
X147367197Y-120436490D01*
X147367198Y-120436487D01*
X147369373Y-120432604D01*
X147469036Y-120174991D01*
X147479464Y-120130004D01*
X147506368Y-120013929D01*
X147531407Y-119905905D01*
X147555241Y-119630715D01*
X147554997Y-119626276D01*
X147540307Y-119359356D01*
X147540306Y-119359349D01*
X147540062Y-119354913D01*
X147486175Y-119084001D01*
X147394653Y-118823384D01*
X147267322Y-118578263D01*
X147264739Y-118574648D01*
X147264735Y-118574642D01*
X147109313Y-118357150D01*
X147109310Y-118357146D01*
X147106725Y-118353529D01*
X146916064Y-118153665D01*
X146901029Y-118141812D01*
X146702639Y-117985414D01*
X146702637Y-117985413D01*
X146699144Y-117982659D01*
X146522411Y-117880004D01*
X146464147Y-117846161D01*
X146464141Y-117846158D01*
X146460293Y-117843923D01*
X146259032Y-117762404D01*
X146208403Y-117741897D01*
X146208401Y-117741896D01*
X146204277Y-117740226D01*
X146199964Y-117739155D01*
X146199959Y-117739153D01*
X145940525Y-117674709D01*
X145940520Y-117674708D01*
X145936204Y-117673636D01*
X145931776Y-117673182D01*
X145931774Y-117673182D01*
X145851573Y-117664965D01*
X145700630Y-117649500D01*
X145529638Y-117649500D01*
X145324470Y-117664027D01*
X145320115Y-117664965D01*
X145320112Y-117664965D01*
X145058785Y-117721227D01*
X145058783Y-117721227D01*
X145054438Y-117722163D01*
X144795291Y-117817767D01*
X144791373Y-117819881D01*
X144721877Y-117857379D01*
X144552200Y-117948932D01*
X144330016Y-118113040D01*
X144326837Y-118116169D01*
X144326834Y-118116172D01*
X144311476Y-118131291D01*
X144133171Y-118306817D01*
X143965594Y-118526396D01*
X143963416Y-118530285D01*
X143839902Y-118750835D01*
X143830627Y-118767396D01*
X143829023Y-118771541D01*
X143829022Y-118771544D01*
X143773798Y-118914290D01*
X143730964Y-119025009D01*
X143729961Y-119029334D01*
X143729960Y-119029339D01*
X143702303Y-119148662D01*
X143668593Y-119294095D01*
X143644759Y-119569285D01*
X138684240Y-119569285D01*
X143466119Y-114787405D01*
X143528431Y-114753379D01*
X143555214Y-114750500D01*
X161506131Y-114750500D01*
X161574252Y-114770502D01*
X161620745Y-114824158D01*
X161631358Y-114862564D01*
X161662561Y-115142947D01*
X161668745Y-115198520D01*
X161762419Y-115696661D01*
X161763023Y-115698922D01*
X161763025Y-115698932D01*
X161791983Y-115807383D01*
X161893180Y-116186377D01*
X161893955Y-116188596D01*
X161893958Y-116188606D01*
X161991032Y-116466582D01*
X162060291Y-116664909D01*
X162262812Y-117129565D01*
X162499602Y-117577729D01*
X162500857Y-117579725D01*
X162500860Y-117579731D01*
X162559881Y-117673636D01*
X162769327Y-118006876D01*
X162770736Y-118008784D01*
X162770739Y-118008788D01*
X162850054Y-118116172D01*
X163070471Y-118414592D01*
X163075127Y-118419996D01*
X163345709Y-118734021D01*
X163401337Y-118798581D01*
X163760062Y-119156681D01*
X164144628Y-119486876D01*
X164146513Y-119488263D01*
X164146519Y-119488268D01*
X164306895Y-119606291D01*
X164552869Y-119787307D01*
X164982487Y-120056284D01*
X165156139Y-120147647D01*
X165423148Y-120288127D01*
X165431062Y-120292291D01*
X165433242Y-120293236D01*
X165433249Y-120293240D01*
X165744969Y-120428456D01*
X165896071Y-120494000D01*
X166015636Y-120535520D01*
X166372665Y-120659502D01*
X166372674Y-120659505D01*
X166374895Y-120660276D01*
X166465042Y-120684178D01*
X166862557Y-120789578D01*
X166862570Y-120789581D01*
X166864837Y-120790182D01*
X166867162Y-120790615D01*
X167360804Y-120882552D01*
X167360810Y-120882553D01*
X167363141Y-120882987D01*
X167375408Y-120884330D01*
X167864697Y-120937916D01*
X167864706Y-120937917D01*
X167867001Y-120938168D01*
X168211517Y-120950500D01*
X230738481Y-120950500D01*
X231071707Y-120938168D01*
X231092433Y-120937401D01*
X231092434Y-120937401D01*
X231094756Y-120937315D01*
X231097058Y-120937059D01*
X231097069Y-120937058D01*
X231596166Y-120881516D01*
X231596170Y-120881515D01*
X231598519Y-120881254D01*
X232096660Y-120787580D01*
X232098921Y-120786976D01*
X232098931Y-120786974D01*
X232305367Y-120731852D01*
X232586376Y-120656819D01*
X232588595Y-120656044D01*
X232588605Y-120656041D01*
X233050401Y-120494774D01*
X233064908Y-120489708D01*
X233529564Y-120287187D01*
X233977728Y-120050397D01*
X234003534Y-120034178D01*
X234178565Y-119924168D01*
X234406875Y-119780672D01*
X234416851Y-119773304D01*
X234802758Y-119488268D01*
X234814591Y-119479528D01*
X235119467Y-119216830D01*
X235196793Y-119150202D01*
X235196796Y-119150199D01*
X235198580Y-119148662D01*
X235556680Y-118789937D01*
X235886875Y-118405371D01*
X235889842Y-118401340D01*
X236185907Y-117999031D01*
X236187306Y-117997130D01*
X236456283Y-117567512D01*
X236692290Y-117118937D01*
X236724048Y-117045725D01*
X236893055Y-116656104D01*
X236893999Y-116653928D01*
X236993992Y-116365979D01*
X237059501Y-116177334D01*
X237059504Y-116177325D01*
X237060275Y-116175104D01*
X237119105Y-115953226D01*
X237189577Y-115687442D01*
X237189580Y-115687429D01*
X237190181Y-115685162D01*
X237225236Y-115496941D01*
X237282551Y-115189195D01*
X237282552Y-115189189D01*
X237282986Y-115186858D01*
X237297622Y-115053220D01*
X237337915Y-114685302D01*
X237337916Y-114685293D01*
X237338167Y-114682998D01*
X237350499Y-114338482D01*
X237350499Y-114061518D01*
X237337314Y-113705243D01*
X237336399Y-113697016D01*
X237281515Y-113203833D01*
X237281514Y-113203829D01*
X237281253Y-113201480D01*
X237187579Y-112703339D01*
X237185761Y-112696528D01*
X237101878Y-112382379D01*
X237056818Y-112213623D01*
X237036146Y-112154426D01*
X236896331Y-111754060D01*
X236889707Y-111735091D01*
X236687186Y-111270435D01*
X236450396Y-110822271D01*
X236406623Y-110752625D01*
X236330482Y-110631481D01*
X236180671Y-110393124D01*
X236152464Y-110354934D01*
X235880931Y-109987309D01*
X235879527Y-109985408D01*
X235620410Y-109684688D01*
X235550201Y-109603206D01*
X235550198Y-109603203D01*
X235548661Y-109601419D01*
X235317500Y-109370661D01*
X235191610Y-109244990D01*
X235191609Y-109244989D01*
X235189936Y-109243319D01*
X234805370Y-108913124D01*
X234803485Y-108911737D01*
X234803479Y-108911732D01*
X234399030Y-108614092D01*
X234397129Y-108612693D01*
X233967511Y-108343716D01*
X233528637Y-108112813D01*
X233521046Y-108108819D01*
X233521043Y-108108818D01*
X233518936Y-108107709D01*
X233516756Y-108106764D01*
X233516749Y-108106760D01*
X233065993Y-107911234D01*
X233053927Y-107906000D01*
X232794242Y-107815822D01*
X232577333Y-107740498D01*
X232577324Y-107740495D01*
X232575103Y-107739724D01*
X232376250Y-107686999D01*
X232087441Y-107610422D01*
X232087428Y-107610419D01*
X232085161Y-107609818D01*
X231941031Y-107582975D01*
X231589194Y-107517448D01*
X231589188Y-107517447D01*
X231586857Y-107517013D01*
X231465168Y-107503686D01*
X231085301Y-107462084D01*
X231085292Y-107462083D01*
X231082997Y-107461832D01*
X230738481Y-107449500D01*
X168211517Y-107449500D01*
X167890839Y-107461368D01*
X167857565Y-107462599D01*
X167857564Y-107462599D01*
X167855242Y-107462685D01*
X167852940Y-107462941D01*
X167852929Y-107462942D01*
X167353832Y-107518484D01*
X167353828Y-107518485D01*
X167351479Y-107518746D01*
X166853338Y-107612420D01*
X166851077Y-107613024D01*
X166851067Y-107613026D01*
X166653341Y-107665822D01*
X166363622Y-107743181D01*
X166361403Y-107743956D01*
X166361393Y-107743959D01*
X166159453Y-107814480D01*
X165885090Y-107910292D01*
X165420434Y-108112813D01*
X164972270Y-108349603D01*
X164970274Y-108350858D01*
X164970268Y-108350861D01*
X164927685Y-108377625D01*
X164543123Y-108619328D01*
X164541215Y-108620737D01*
X164541211Y-108620740D01*
X164375081Y-108743446D01*
X164135407Y-108920472D01*
X164133621Y-108922011D01*
X163760725Y-109243319D01*
X163751418Y-109251338D01*
X163393318Y-109610063D01*
X163063123Y-109994629D01*
X163061736Y-109996514D01*
X163061731Y-109996520D01*
X162809342Y-110339480D01*
X162762692Y-110402870D01*
X162493715Y-110832488D01*
X162409515Y-110992526D01*
X162265483Y-111266286D01*
X162257708Y-111281063D01*
X162256763Y-111283243D01*
X162256759Y-111283250D01*
X162125138Y-111586683D01*
X162055999Y-111746072D01*
X161998887Y-111910537D01*
X161891136Y-112220828D01*
X161889723Y-112224896D01*
X161858368Y-112343151D01*
X161760421Y-112712558D01*
X161760418Y-112712571D01*
X161759817Y-112714838D01*
X161759384Y-112717163D01*
X161667935Y-113208188D01*
X161667012Y-113213142D01*
X161631792Y-113534747D01*
X161631521Y-113537217D01*
X161604222Y-113602755D01*
X161545824Y-113643131D01*
X161506270Y-113649500D01*
X143289993Y-113649500D01*
X143284717Y-113649389D01*
X143271331Y-113648828D01*
X143222706Y-113646790D01*
X143214341Y-113648752D01*
X143180338Y-113656727D01*
X143168667Y-113658890D01*
X143162616Y-113659719D01*
X143125568Y-113664794D01*
X143117684Y-113668206D01*
X143117683Y-113668206D01*
X143111770Y-113670765D01*
X143090501Y-113677799D01*
X143075864Y-113681232D01*
X143068339Y-113685369D01*
X143068336Y-113685370D01*
X143037732Y-113702195D01*
X143027087Y-113707411D01*
X142987145Y-113724695D01*
X142975459Y-113734158D01*
X142956875Y-113746645D01*
X142943692Y-113753893D01*
X142935578Y-113760897D01*
X142911042Y-113785433D01*
X142901241Y-113794258D01*
X142876608Y-113814206D01*
X142869930Y-113819614D01*
X142864957Y-113826612D01*
X142864952Y-113826617D01*
X142859032Y-113834948D01*
X142845421Y-113851054D01*
X138386113Y-118310363D01*
X133933881Y-122762595D01*
X133871569Y-122796621D01*
X133844786Y-122799500D01*
X103194338Y-122799500D01*
X103177891Y-122798422D01*
X103158188Y-122795828D01*
X103150000Y-122794750D01*
X103115055Y-122799351D01*
X103113557Y-122799500D01*
X103112215Y-122799500D01*
X103108634Y-122799991D01*
X103108620Y-122799992D01*
X103070389Y-122805230D01*
X103069733Y-122805318D01*
X103047755Y-122808211D01*
X103006291Y-122813670D01*
X103005064Y-122814178D01*
X103000568Y-122814794D01*
X102934174Y-122843525D01*
X102932414Y-122844270D01*
X102879999Y-122865981D01*
X102872375Y-122869139D01*
X102869000Y-122871728D01*
X102862145Y-122874695D01*
X102855474Y-122880097D01*
X102809396Y-122917410D01*
X102806807Y-122919451D01*
X102763927Y-122952354D01*
X102763925Y-122952356D01*
X102757379Y-122957379D01*
X102753931Y-122961872D01*
X102753079Y-122962640D01*
X102751608Y-122964207D01*
X102744930Y-122969614D01*
X102739955Y-122976615D01*
X102707882Y-123021746D01*
X102705152Y-123025442D01*
X102669139Y-123072375D01*
X102666141Y-123079611D01*
X102663452Y-123083800D01*
X102662535Y-123085555D01*
X102657558Y-123092558D01*
X102654648Y-123100641D01*
X102654647Y-123100643D01*
X102637162Y-123149210D01*
X102635020Y-123154747D01*
X102613670Y-123206291D01*
X102612591Y-123214482D01*
X102610840Y-123221018D01*
X102609838Y-123224213D01*
X102609376Y-123226389D01*
X102606467Y-123234468D01*
X102605838Y-123243034D01*
X102602325Y-123290865D01*
X102601585Y-123298082D01*
X102594750Y-123350000D01*
X78089492Y-123350000D01*
X78089492Y-121700000D01*
X84444750Y-121700000D01*
X84463670Y-121843709D01*
X84519139Y-121977625D01*
X84607379Y-122092621D01*
X84722375Y-122180861D01*
X84856291Y-122236330D01*
X85000000Y-122255250D01*
X85143709Y-122236330D01*
X85277625Y-122180861D01*
X85392621Y-122092621D01*
X85463692Y-122000000D01*
X88094750Y-122000000D01*
X88113670Y-122143709D01*
X88169139Y-122277625D01*
X88257379Y-122392621D01*
X88372375Y-122480861D01*
X88506291Y-122536330D01*
X88650000Y-122555250D01*
X88793709Y-122536330D01*
X88927625Y-122480861D01*
X89042621Y-122392621D01*
X89130861Y-122277625D01*
X89186330Y-122143709D01*
X89205250Y-122000000D01*
X89186330Y-121856291D01*
X89130861Y-121722375D01*
X89042621Y-121607379D01*
X88927625Y-121519139D01*
X88793709Y-121463670D01*
X88650000Y-121444750D01*
X88506291Y-121463670D01*
X88372375Y-121519139D01*
X88257379Y-121607379D01*
X88169139Y-121722375D01*
X88113670Y-121856291D01*
X88094750Y-122000000D01*
X85463692Y-122000000D01*
X85480861Y-121977625D01*
X85536330Y-121843709D01*
X85555250Y-121700000D01*
X85536330Y-121556291D01*
X85535130Y-121553395D01*
X85536764Y-121484790D01*
X85567686Y-121434062D01*
X86023304Y-120978444D01*
X86085616Y-120944418D01*
X86095947Y-120942618D01*
X86143709Y-120936330D01*
X86151336Y-120933171D01*
X86151339Y-120933170D01*
X86269996Y-120884021D01*
X86277625Y-120880861D01*
X86392621Y-120792621D01*
X86480861Y-120677625D01*
X86536330Y-120543709D01*
X86555250Y-120400000D01*
X86536330Y-120256291D01*
X86480861Y-120122375D01*
X86392621Y-120007379D01*
X86277625Y-119919139D01*
X86143709Y-119863670D01*
X86000000Y-119844750D01*
X85856291Y-119863670D01*
X85722375Y-119919139D01*
X85607379Y-120007379D01*
X85519139Y-120122375D01*
X85515979Y-120130004D01*
X85466831Y-120248660D01*
X85463670Y-120256291D01*
X85458931Y-120292291D01*
X85457383Y-120304047D01*
X85428661Y-120368974D01*
X85421556Y-120376696D01*
X84651472Y-121146780D01*
X84640577Y-121168163D01*
X84630253Y-121185009D01*
X84616151Y-121204419D01*
X84613087Y-121213850D01*
X84613085Y-121213853D01*
X84608736Y-121227237D01*
X84601172Y-121245498D01*
X84598334Y-121251068D01*
X84590281Y-121266874D01*
X84588730Y-121276668D01*
X84586528Y-121290570D01*
X84581914Y-121309790D01*
X84574500Y-121332607D01*
X84574500Y-121332608D01*
X84573025Y-121332129D01*
X84553482Y-121377619D01*
X84519139Y-121422375D01*
X84463670Y-121556291D01*
X84444750Y-121700000D01*
X78089492Y-121700000D01*
X78089492Y-118827006D01*
X78109494Y-118758885D01*
X78163150Y-118712392D01*
X78199045Y-118702084D01*
X78318709Y-118686330D01*
X78452625Y-118630861D01*
X78567621Y-118542621D01*
X78655861Y-118427625D01*
X78711330Y-118293709D01*
X78730250Y-118150000D01*
X78711330Y-118006291D01*
X78655861Y-117872375D01*
X78567621Y-117757379D01*
X78452625Y-117669139D01*
X78318709Y-117613670D01*
X78199045Y-117597916D01*
X78134119Y-117569194D01*
X78095027Y-117509928D01*
X78089492Y-117472994D01*
X78089492Y-110570430D01*
X78109494Y-110502309D01*
X78163150Y-110455816D01*
X78233424Y-110445712D01*
X78298004Y-110475206D01*
X78304587Y-110481335D01*
X85547269Y-117724017D01*
X85568652Y-117734912D01*
X85585498Y-117745236D01*
X85604908Y-117759338D01*
X85614339Y-117762402D01*
X85614342Y-117762404D01*
X85627726Y-117766753D01*
X85645987Y-117774317D01*
X85658525Y-117780705D01*
X85667363Y-117785208D01*
X85691060Y-117788961D01*
X85710279Y-117793575D01*
X85733096Y-117800989D01*
X88465529Y-117800989D01*
X88533650Y-117820991D01*
X88580143Y-117874647D01*
X88590247Y-117944921D01*
X88574648Y-117989990D01*
X88574169Y-117990820D01*
X88569139Y-117997375D01*
X88513670Y-118131291D01*
X88494750Y-118275000D01*
X88513670Y-118418709D01*
X88569139Y-118552625D01*
X88657379Y-118667621D01*
X88772375Y-118755861D01*
X88906291Y-118811330D01*
X89050000Y-118830250D01*
X89193709Y-118811330D01*
X89327625Y-118755861D01*
X89365839Y-118726538D01*
X89432060Y-118700937D01*
X89442544Y-118700500D01*
X91640037Y-118700500D01*
X91708158Y-118720502D01*
X91715361Y-118725567D01*
X91715825Y-118725835D01*
X91722375Y-118730861D01*
X91856291Y-118786330D01*
X92000000Y-118805250D01*
X92143709Y-118786330D01*
X92277625Y-118730861D01*
X92392621Y-118642621D01*
X92480861Y-118527625D01*
X92536330Y-118393709D01*
X92555250Y-118250000D01*
X92536330Y-118106291D01*
X92482034Y-117975207D01*
X92474445Y-117904617D01*
X92506225Y-117841130D01*
X92567283Y-117804903D01*
X92598443Y-117800989D01*
X96547051Y-117800989D01*
X96615172Y-117820991D01*
X96636146Y-117837894D01*
X98571556Y-119773304D01*
X98605582Y-119835616D01*
X98607382Y-119845947D01*
X98613670Y-119893709D01*
X98616829Y-119901336D01*
X98616830Y-119901339D01*
X98620519Y-119910244D01*
X98669139Y-120027625D01*
X98757379Y-120142621D01*
X98872375Y-120230861D01*
X99006291Y-120286330D01*
X99150000Y-120305250D01*
X99293709Y-120286330D01*
X99427625Y-120230861D01*
X99542621Y-120142621D01*
X99630861Y-120027625D01*
X99686330Y-119893709D01*
X99705250Y-119750000D01*
X99686330Y-119606291D01*
X99630861Y-119472375D01*
X99542621Y-119357379D01*
X99427625Y-119269139D01*
X99419996Y-119265979D01*
X99301339Y-119216830D01*
X99301336Y-119216829D01*
X99293709Y-119213670D01*
X99245952Y-119207383D01*
X99181026Y-119178661D01*
X99173304Y-119171556D01*
X97028709Y-117026961D01*
X97007326Y-117016066D01*
X96990480Y-117005742D01*
X96979093Y-116997469D01*
X96971070Y-116991640D01*
X96961639Y-116988576D01*
X96961636Y-116988574D01*
X96948252Y-116984225D01*
X96929991Y-116976661D01*
X96917453Y-116970273D01*
X96917452Y-116970273D01*
X96908615Y-116965770D01*
X96884918Y-116962017D01*
X96865699Y-116957403D01*
X96842882Y-116949989D01*
X93962919Y-116949989D01*
X93894798Y-116929987D01*
X93848305Y-116876331D01*
X93838201Y-116806057D01*
X93866931Y-116743151D01*
X93867621Y-116742621D01*
X93872264Y-116736571D01*
X93872267Y-116736567D01*
X93927252Y-116664909D01*
X93955861Y-116627625D01*
X94011330Y-116493709D01*
X94017617Y-116445952D01*
X94046339Y-116381026D01*
X94053444Y-116373304D01*
X95098528Y-115328220D01*
X95109423Y-115306837D01*
X95119747Y-115289991D01*
X95128020Y-115278604D01*
X95133849Y-115270581D01*
X95136913Y-115261150D01*
X95136915Y-115261147D01*
X95141264Y-115247763D01*
X95148828Y-115229502D01*
X95155216Y-115216964D01*
X95155216Y-115216963D01*
X95159719Y-115208126D01*
X95163472Y-115184429D01*
X95168086Y-115165210D01*
X95175500Y-115142393D01*
X95175500Y-114077953D01*
X98182207Y-114077953D01*
X98198694Y-114363878D01*
X98199519Y-114368083D01*
X98199520Y-114368091D01*
X98223303Y-114489314D01*
X98253832Y-114644920D01*
X98255219Y-114648970D01*
X98255220Y-114648975D01*
X98345213Y-114911822D01*
X98346602Y-114915878D01*
X98359720Y-114941960D01*
X98460806Y-115142947D01*
X98475287Y-115171740D01*
X98477713Y-115175269D01*
X98477716Y-115175275D01*
X98576761Y-115319386D01*
X98637506Y-115407770D01*
X98640393Y-115410943D01*
X98640394Y-115410944D01*
X98815169Y-115603020D01*
X98830256Y-115619600D01*
X99049972Y-115803311D01*
X99053598Y-115805586D01*
X99053600Y-115805587D01*
X99064767Y-115812592D01*
X99292588Y-115955503D01*
X99296490Y-115957265D01*
X99296494Y-115957267D01*
X99549702Y-116071595D01*
X99549706Y-116071597D01*
X99553614Y-116073361D01*
X99622605Y-116093797D01*
X99824106Y-116153485D01*
X99824111Y-116153486D01*
X99828219Y-116154703D01*
X99832453Y-116155351D01*
X99832458Y-116155352D01*
X100071447Y-116191922D01*
X100111324Y-116198024D01*
X100257089Y-116200314D01*
X100393398Y-116202456D01*
X100393404Y-116202456D01*
X100397689Y-116202523D01*
X100401941Y-116202008D01*
X100401949Y-116202008D01*
X100621721Y-116175411D01*
X100682014Y-116168115D01*
X100686162Y-116167027D01*
X100686166Y-116167026D01*
X100954888Y-116096528D01*
X100959039Y-116095439D01*
X100963000Y-116093799D01*
X100963004Y-116093797D01*
X101134444Y-116022784D01*
X101223638Y-115985839D01*
X101261133Y-115963929D01*
X101423831Y-115868856D01*
X136884101Y-115868856D01*
X136890559Y-115878216D01*
X136906861Y-115892512D01*
X136913401Y-115897530D01*
X137152644Y-116057387D01*
X137159781Y-116061508D01*
X137417849Y-116188772D01*
X137425453Y-116191922D01*
X137697920Y-116284412D01*
X137705883Y-116286546D01*
X137988100Y-116342683D01*
X137996251Y-116343756D01*
X138283381Y-116362575D01*
X138291619Y-116362575D01*
X138578749Y-116343756D01*
X138586900Y-116342683D01*
X138869117Y-116286546D01*
X138877080Y-116284412D01*
X139149547Y-116191922D01*
X139157151Y-116188772D01*
X139415219Y-116061508D01*
X139422356Y-116057387D01*
X139661599Y-115897530D01*
X139668139Y-115892512D01*
X139682574Y-115879853D01*
X139690972Y-115866614D01*
X139685138Y-115856849D01*
X138300310Y-114472020D01*
X138286369Y-114464408D01*
X138284534Y-114464539D01*
X138277920Y-114468790D01*
X136891616Y-115855095D01*
X136884101Y-115868856D01*
X101423831Y-115868856D01*
X101467217Y-115843503D01*
X101467218Y-115843503D01*
X101470915Y-115841342D01*
X101514225Y-115807383D01*
X101692921Y-115667267D01*
X101696293Y-115664623D01*
X101712950Y-115647435D01*
X101876930Y-115478220D01*
X101895602Y-115458952D01*
X101898135Y-115455504D01*
X101898139Y-115455499D01*
X102062617Y-115231589D01*
X102065155Y-115228134D01*
X102071963Y-115215595D01*
X102199763Y-114980217D01*
X102199764Y-114980215D01*
X102201813Y-114976441D01*
X102303048Y-114708530D01*
X102329255Y-114594104D01*
X102366030Y-114433538D01*
X102366031Y-114433533D01*
X102366987Y-114429358D01*
X102392446Y-114144092D01*
X102392865Y-114104119D01*
X136024925Y-114104119D01*
X136043744Y-114391249D01*
X136044817Y-114399400D01*
X136100954Y-114681617D01*
X136103088Y-114689580D01*
X136195578Y-114962047D01*
X136198728Y-114969651D01*
X136325992Y-115227718D01*
X136330113Y-115234855D01*
X136489970Y-115474099D01*
X136494988Y-115480639D01*
X136507647Y-115495074D01*
X136520886Y-115503472D01*
X136530651Y-115497638D01*
X137915480Y-114112810D01*
X137921857Y-114101131D01*
X138651908Y-114101131D01*
X138652039Y-114102966D01*
X138656290Y-114109580D01*
X140042595Y-115495884D01*
X140056356Y-115503399D01*
X140065716Y-115496941D01*
X140080012Y-115480639D01*
X140085030Y-115474099D01*
X140244887Y-115234855D01*
X140249008Y-115227718D01*
X140376272Y-114969651D01*
X140379422Y-114962047D01*
X140471912Y-114689580D01*
X140474046Y-114681617D01*
X140530183Y-114399400D01*
X140531256Y-114391249D01*
X140550075Y-114104119D01*
X140550075Y-114095881D01*
X140531256Y-113808751D01*
X140530183Y-113800600D01*
X140474046Y-113518383D01*
X140471912Y-113510420D01*
X140379422Y-113237953D01*
X140376272Y-113230349D01*
X140249008Y-112972282D01*
X140244887Y-112965145D01*
X140085030Y-112725901D01*
X140080012Y-112719361D01*
X140067353Y-112704926D01*
X140054114Y-112696528D01*
X140044349Y-112702362D01*
X138659520Y-114087190D01*
X138651908Y-114101131D01*
X137921857Y-114101131D01*
X137923092Y-114098869D01*
X137922961Y-114097034D01*
X137918710Y-114090420D01*
X136532405Y-112704116D01*
X136518644Y-112696601D01*
X136509284Y-112703059D01*
X136494988Y-112719361D01*
X136489970Y-112725901D01*
X136330113Y-112965145D01*
X136325992Y-112972282D01*
X136198728Y-113230349D01*
X136195578Y-113237953D01*
X136103088Y-113510420D01*
X136100954Y-113518383D01*
X136044817Y-113800600D01*
X136043744Y-113808751D01*
X136024925Y-114095881D01*
X136024925Y-114104119D01*
X102392865Y-114104119D01*
X102392908Y-114100000D01*
X102390803Y-114069123D01*
X102373720Y-113818540D01*
X102373719Y-113818534D01*
X102373428Y-113814263D01*
X102362716Y-113762534D01*
X102329627Y-113602755D01*
X102315350Y-113533814D01*
X102219748Y-113263842D01*
X102088391Y-113009342D01*
X102085928Y-113005837D01*
X101926173Y-112778529D01*
X101926168Y-112778523D01*
X101923709Y-112775024D01*
X101797754Y-112639480D01*
X101731672Y-112568367D01*
X101731669Y-112568364D01*
X101728751Y-112565224D01*
X101725435Y-112562510D01*
X101725432Y-112562507D01*
X101568034Y-112433678D01*
X101507123Y-112383823D01*
X101424817Y-112333386D01*
X136884028Y-112333386D01*
X136889862Y-112343151D01*
X138274690Y-113727980D01*
X138288631Y-113735592D01*
X138290466Y-113735461D01*
X138297080Y-113731210D01*
X139683384Y-112344905D01*
X139690899Y-112331144D01*
X139684441Y-112321784D01*
X139668139Y-112307488D01*
X139661599Y-112302470D01*
X139422356Y-112142613D01*
X139415219Y-112138492D01*
X139157151Y-112011228D01*
X139149547Y-112008078D01*
X138877080Y-111915588D01*
X138869117Y-111913454D01*
X138586900Y-111857317D01*
X138578749Y-111856244D01*
X138291619Y-111837425D01*
X138283381Y-111837425D01*
X137996251Y-111856244D01*
X137988100Y-111857317D01*
X137705883Y-111913454D01*
X137697920Y-111915588D01*
X137425453Y-112008078D01*
X137417849Y-112011228D01*
X137159782Y-112138492D01*
X137152645Y-112142613D01*
X136913401Y-112302470D01*
X136906861Y-112307488D01*
X136892426Y-112320147D01*
X136884028Y-112333386D01*
X101424817Y-112333386D01*
X101262927Y-112234180D01*
X101258991Y-112232452D01*
X101004610Y-112120786D01*
X101004606Y-112120785D01*
X101000682Y-112119062D01*
X100725239Y-112040600D01*
X100496727Y-112008078D01*
X100445948Y-112000851D01*
X100445946Y-112000851D01*
X100441696Y-112000246D01*
X100289833Y-111999451D01*
X100159586Y-111998769D01*
X100159580Y-111998769D01*
X100155300Y-111998747D01*
X100151056Y-111999306D01*
X100151052Y-111999306D01*
X100039592Y-112013980D01*
X99871351Y-112036129D01*
X99867211Y-112037262D01*
X99867209Y-112037262D01*
X99845003Y-112043337D01*
X99595102Y-112111702D01*
X99591154Y-112113386D01*
X99335617Y-112222382D01*
X99335613Y-112222384D01*
X99331665Y-112224068D01*
X99085915Y-112371146D01*
X99082564Y-112373830D01*
X99082562Y-112373832D01*
X99063718Y-112388929D01*
X98862400Y-112550215D01*
X98665255Y-112757962D01*
X98498129Y-112990543D01*
X98364114Y-113243653D01*
X98362639Y-113247684D01*
X98279857Y-113473898D01*
X98265690Y-113512610D01*
X98204678Y-113792436D01*
X98182207Y-114077953D01*
X95175500Y-114077953D01*
X95175500Y-111050000D01*
X95519750Y-111050000D01*
X95538670Y-111193709D01*
X95594139Y-111327625D01*
X95682379Y-111442621D01*
X95746511Y-111491831D01*
X95750204Y-111494665D01*
X95792071Y-111552003D01*
X95799500Y-111594627D01*
X95799500Y-111756956D01*
X95779498Y-111825077D01*
X95773462Y-111833661D01*
X95744139Y-111871875D01*
X95688670Y-112005791D01*
X95669750Y-112149500D01*
X95688670Y-112293209D01*
X95744139Y-112427125D01*
X95832379Y-112542121D01*
X95947375Y-112630361D01*
X96081291Y-112685830D01*
X96225000Y-112704750D01*
X96368709Y-112685830D01*
X96502625Y-112630361D01*
X96617621Y-112542121D01*
X96705861Y-112427125D01*
X96761330Y-112293209D01*
X96780250Y-112149500D01*
X96761330Y-112005791D01*
X96705861Y-111871875D01*
X96676538Y-111833661D01*
X96650937Y-111767440D01*
X96650500Y-111756956D01*
X96650500Y-111132607D01*
X96643086Y-111109790D01*
X96638472Y-111090570D01*
X96636270Y-111076668D01*
X96634719Y-111066874D01*
X96634026Y-111065515D01*
X96631542Y-111049830D01*
X96630250Y-111050000D01*
X96627650Y-111030250D01*
X96611330Y-110906291D01*
X96555861Y-110772375D01*
X96467621Y-110657379D01*
X96352625Y-110569139D01*
X96218709Y-110513670D01*
X96075000Y-110494750D01*
X95931291Y-110513670D01*
X95797375Y-110569139D01*
X95682379Y-110657379D01*
X95594139Y-110772375D01*
X95538670Y-110906291D01*
X95519750Y-111050000D01*
X95175500Y-111050000D01*
X95175500Y-110077309D01*
X98367441Y-110077309D01*
X98386361Y-110221018D01*
X98441830Y-110354934D01*
X98530070Y-110469930D01*
X98645066Y-110558170D01*
X98778982Y-110613639D01*
X98922691Y-110632559D01*
X99066400Y-110613639D01*
X99200316Y-110558170D01*
X99238530Y-110528847D01*
X99304751Y-110503246D01*
X99315235Y-110502809D01*
X99415084Y-110502809D01*
X99437901Y-110495395D01*
X99457120Y-110490781D01*
X99480817Y-110487028D01*
X99489655Y-110482525D01*
X99502193Y-110476137D01*
X99520454Y-110468573D01*
X99533838Y-110464224D01*
X99533841Y-110464222D01*
X99543272Y-110461158D01*
X99562682Y-110447056D01*
X99579528Y-110436732D01*
X99600911Y-110425837D01*
X99696219Y-110330529D01*
X101257462Y-108769285D01*
X143644759Y-108769285D01*
X143645003Y-108773720D01*
X143645003Y-108773724D01*
X143658894Y-109026114D01*
X143659938Y-109045087D01*
X143673741Y-109114480D01*
X143706691Y-109280131D01*
X143713825Y-109315999D01*
X143805347Y-109576616D01*
X143932678Y-109821737D01*
X143935261Y-109825352D01*
X143935265Y-109825358D01*
X144090687Y-110042850D01*
X144093275Y-110046471D01*
X144137836Y-110093183D01*
X144192708Y-110150703D01*
X144283936Y-110246335D01*
X144287431Y-110249091D01*
X144287433Y-110249092D01*
X144482500Y-110402870D01*
X144500856Y-110417341D01*
X144594330Y-110471635D01*
X144735853Y-110553839D01*
X144735859Y-110553842D01*
X144739707Y-110556077D01*
X144995723Y-110659774D01*
X145000036Y-110660845D01*
X145000041Y-110660847D01*
X145259475Y-110725291D01*
X145259480Y-110725292D01*
X145263796Y-110726364D01*
X145268224Y-110726818D01*
X145268226Y-110726818D01*
X145343339Y-110734514D01*
X145499370Y-110750500D01*
X145670362Y-110750500D01*
X145875530Y-110735973D01*
X145879885Y-110735035D01*
X145879888Y-110735035D01*
X146141215Y-110678773D01*
X146141217Y-110678773D01*
X146145562Y-110677837D01*
X146404709Y-110582233D01*
X146449306Y-110558170D01*
X146643884Y-110453181D01*
X146647800Y-110451068D01*
X146869984Y-110286960D01*
X146883150Y-110274000D01*
X147017327Y-110141913D01*
X147066829Y-110093183D01*
X147234406Y-109873604D01*
X147265666Y-109817785D01*
X147367197Y-109636490D01*
X147367198Y-109636487D01*
X147369373Y-109632604D01*
X147374413Y-109619578D01*
X147458842Y-109401340D01*
X147469036Y-109374991D01*
X147477080Y-109340290D01*
X147514847Y-109177348D01*
X147531407Y-109105905D01*
X147555241Y-108830715D01*
X147554358Y-108814674D01*
X147540307Y-108559356D01*
X147540306Y-108559349D01*
X147540062Y-108554913D01*
X147499224Y-108349603D01*
X147487043Y-108288364D01*
X147487042Y-108288362D01*
X147486175Y-108284001D01*
X147394653Y-108023384D01*
X147267322Y-107778263D01*
X147264739Y-107774648D01*
X147264735Y-107774642D01*
X147109313Y-107557150D01*
X147109310Y-107557146D01*
X147106725Y-107553529D01*
X146983470Y-107424325D01*
X146919136Y-107356885D01*
X146919134Y-107356883D01*
X146916064Y-107353665D01*
X146912567Y-107350908D01*
X146702639Y-107185414D01*
X146702637Y-107185413D01*
X146699144Y-107182659D01*
X146559977Y-107101824D01*
X146464147Y-107046161D01*
X146464141Y-107046158D01*
X146460293Y-107043923D01*
X146285720Y-106973214D01*
X146208403Y-106941897D01*
X146208401Y-106941896D01*
X146204277Y-106940226D01*
X146199964Y-106939155D01*
X146199959Y-106939153D01*
X145940525Y-106874709D01*
X145940520Y-106874708D01*
X145936204Y-106873636D01*
X145931776Y-106873182D01*
X145931774Y-106873182D01*
X145848820Y-106864683D01*
X145700630Y-106849500D01*
X145529638Y-106849500D01*
X145324470Y-106864027D01*
X145320115Y-106864965D01*
X145320112Y-106864965D01*
X145058785Y-106921227D01*
X145058783Y-106921227D01*
X145054438Y-106922163D01*
X144795291Y-107017767D01*
X144791373Y-107019881D01*
X144556116Y-107146819D01*
X144552200Y-107148932D01*
X144330016Y-107313040D01*
X144326837Y-107316169D01*
X144326834Y-107316172D01*
X144268570Y-107373528D01*
X144133171Y-107506817D01*
X143965594Y-107726396D01*
X143963416Y-107730285D01*
X143835784Y-107958188D01*
X143830627Y-107967396D01*
X143829023Y-107971541D01*
X143829022Y-107971544D01*
X143818935Y-107997618D01*
X143730964Y-108225009D01*
X143729961Y-108229334D01*
X143729960Y-108229339D01*
X143701793Y-108350861D01*
X143668593Y-108494095D01*
X143644759Y-108769285D01*
X101257462Y-108769285D01*
X101348303Y-108678444D01*
X101410615Y-108644418D01*
X101420949Y-108642618D01*
X101468709Y-108636330D01*
X101476336Y-108633171D01*
X101476339Y-108633170D01*
X101594996Y-108584021D01*
X101602625Y-108580861D01*
X101717621Y-108492621D01*
X101805861Y-108377625D01*
X101861330Y-108243709D01*
X101880250Y-108100000D01*
X101861330Y-107956291D01*
X101805861Y-107822375D01*
X101717621Y-107707379D01*
X101602625Y-107619139D01*
X101468709Y-107563670D01*
X101325000Y-107544750D01*
X101181291Y-107563670D01*
X101047375Y-107619139D01*
X100932379Y-107707379D01*
X100844139Y-107822375D01*
X100840979Y-107830004D01*
X100791831Y-107948660D01*
X100788670Y-107956291D01*
X100787592Y-107964480D01*
X100782383Y-108004047D01*
X100753661Y-108068975D01*
X100746556Y-108076697D01*
X99278578Y-109544674D01*
X99216266Y-109578700D01*
X99141266Y-109571988D01*
X99074034Y-109544141D01*
X99066400Y-109540979D01*
X98922691Y-109522059D01*
X98778982Y-109540979D01*
X98645066Y-109596448D01*
X98530070Y-109684688D01*
X98441830Y-109799684D01*
X98386361Y-109933600D01*
X98367441Y-110077309D01*
X95175500Y-110077309D01*
X95175500Y-107212141D01*
X95195502Y-107144020D01*
X95249158Y-107097527D01*
X95319432Y-107087423D01*
X95384012Y-107116917D01*
X95390595Y-107123046D01*
X95954548Y-107686999D01*
X95988574Y-107749311D01*
X95991453Y-107776094D01*
X95991453Y-108949409D01*
X95971451Y-109017530D01*
X95965415Y-109026114D01*
X95936092Y-109064328D01*
X95880623Y-109198244D01*
X95861703Y-109341953D01*
X95880623Y-109485662D01*
X95936092Y-109619578D01*
X96024332Y-109734574D01*
X96139328Y-109822814D01*
X96273244Y-109878283D01*
X96416953Y-109897203D01*
X96560662Y-109878283D01*
X96694578Y-109822814D01*
X96809574Y-109734574D01*
X96897814Y-109619578D01*
X96953283Y-109485662D01*
X96972203Y-109341953D01*
X96953283Y-109198244D01*
X96897814Y-109064328D01*
X96868491Y-109026114D01*
X96842890Y-108959893D01*
X96842453Y-108949409D01*
X96842453Y-107480264D01*
X96835039Y-107457447D01*
X96830425Y-107438227D01*
X96828223Y-107424325D01*
X96826672Y-107414531D01*
X96817143Y-107395828D01*
X96815781Y-107393155D01*
X96808217Y-107374894D01*
X96803867Y-107361508D01*
X96803866Y-107361507D01*
X96800802Y-107352076D01*
X96786702Y-107332669D01*
X96776374Y-107315816D01*
X96765481Y-107294437D01*
X96670173Y-107199129D01*
X96670171Y-107199128D01*
X95413138Y-105942095D01*
X136432528Y-105942095D01*
X136458034Y-106209431D01*
X136521864Y-106470285D01*
X136523576Y-106474511D01*
X136523577Y-106474515D01*
X136590006Y-106638519D01*
X136622682Y-106719192D01*
X136758375Y-106950938D01*
X136813510Y-107019881D01*
X136872725Y-107093925D01*
X136926101Y-107160669D01*
X137122346Y-107343991D01*
X137211289Y-107405693D01*
X137339246Y-107494461D01*
X137339251Y-107494464D01*
X137342999Y-107497064D01*
X137347084Y-107499096D01*
X137347087Y-107499098D01*
X137387460Y-107519183D01*
X137583438Y-107616680D01*
X137587772Y-107618101D01*
X137587775Y-107618102D01*
X137834293Y-107698915D01*
X137834298Y-107698916D01*
X137838626Y-107700335D01*
X137843117Y-107701115D01*
X137843118Y-107701115D01*
X138099436Y-107745620D01*
X138099444Y-107745621D01*
X138103217Y-107746276D01*
X138107054Y-107746467D01*
X138186496Y-107750422D01*
X138186504Y-107750422D01*
X138188067Y-107750500D01*
X138355723Y-107750500D01*
X138357991Y-107750335D01*
X138358003Y-107750335D01*
X138489108Y-107740822D01*
X138555346Y-107736016D01*
X138559801Y-107735032D01*
X138559804Y-107735032D01*
X138813120Y-107679105D01*
X138813124Y-107679104D01*
X138817580Y-107678120D01*
X138979748Y-107616680D01*
X139064441Y-107584593D01*
X139064444Y-107584592D01*
X139068711Y-107582975D01*
X139286958Y-107461749D01*
X139299483Y-107454792D01*
X139299484Y-107454792D01*
X139303476Y-107452574D01*
X139392910Y-107384320D01*
X139513333Y-107292417D01*
X139513337Y-107292413D01*
X139516958Y-107289650D01*
X139704685Y-107097614D01*
X139833074Y-106921227D01*
X139860038Y-106884183D01*
X139860040Y-106884180D01*
X139862725Y-106880491D01*
X139949813Y-106714963D01*
X139985640Y-106646868D01*
X139985643Y-106646862D01*
X139987765Y-106642828D01*
X140047203Y-106474515D01*
X140075665Y-106393916D01*
X140075665Y-106393915D01*
X140077188Y-106389603D01*
X140129120Y-106126122D01*
X140129347Y-106121566D01*
X140142245Y-105862474D01*
X140142245Y-105862468D01*
X140142472Y-105857905D01*
X140116966Y-105590569D01*
X140053136Y-105329715D01*
X140004318Y-105209188D01*
X139954031Y-105085037D01*
X139954031Y-105085036D01*
X139952318Y-105080808D01*
X139816625Y-104849062D01*
X139705711Y-104710371D01*
X139651751Y-104642897D01*
X139651750Y-104642895D01*
X139648899Y-104639331D01*
X139452654Y-104456009D01*
X139342250Y-104379419D01*
X139235754Y-104305539D01*
X139235749Y-104305536D01*
X139232001Y-104302936D01*
X139227916Y-104300904D01*
X139227913Y-104300902D01*
X139056060Y-104215407D01*
X138991562Y-104183320D01*
X138987228Y-104181899D01*
X138987225Y-104181898D01*
X138740707Y-104101085D01*
X138740702Y-104101084D01*
X138736374Y-104099665D01*
X138731882Y-104098885D01*
X138475564Y-104054380D01*
X138475556Y-104054379D01*
X138471783Y-104053724D01*
X138463122Y-104053293D01*
X138388504Y-104049578D01*
X138388496Y-104049578D01*
X138386933Y-104049500D01*
X138219277Y-104049500D01*
X138217009Y-104049665D01*
X138216997Y-104049665D01*
X138086677Y-104059121D01*
X138019654Y-104063984D01*
X138015199Y-104064968D01*
X138015196Y-104064968D01*
X137761880Y-104120895D01*
X137761876Y-104120896D01*
X137757420Y-104121880D01*
X137631854Y-104169453D01*
X137510559Y-104215407D01*
X137510556Y-104215408D01*
X137506289Y-104217025D01*
X137271524Y-104347426D01*
X137267892Y-104350198D01*
X137061667Y-104507583D01*
X137061663Y-104507587D01*
X137058042Y-104510350D01*
X136870315Y-104702386D01*
X136712275Y-104919509D01*
X136710151Y-104923547D01*
X136589360Y-105153132D01*
X136589357Y-105153138D01*
X136587235Y-105157172D01*
X136585715Y-105161477D01*
X136585713Y-105161481D01*
X136526304Y-105329715D01*
X136497812Y-105410397D01*
X136445880Y-105673878D01*
X136445653Y-105678431D01*
X136445653Y-105678434D01*
X136436492Y-105862474D01*
X136432528Y-105942095D01*
X95413138Y-105942095D01*
X93296979Y-103825935D01*
X93273005Y-103801961D01*
X93251622Y-103791066D01*
X93234776Y-103780742D01*
X93223389Y-103772469D01*
X93215366Y-103766640D01*
X93205935Y-103763576D01*
X93205932Y-103763574D01*
X93192548Y-103759225D01*
X93174287Y-103751661D01*
X93161749Y-103745273D01*
X93161748Y-103745273D01*
X93152911Y-103740770D01*
X93129214Y-103737017D01*
X93109995Y-103732403D01*
X93087178Y-103724989D01*
X90132118Y-103724989D01*
X90109301Y-103732403D01*
X90090082Y-103737017D01*
X90066385Y-103740770D01*
X90057548Y-103745273D01*
X90057547Y-103745273D01*
X90045009Y-103751661D01*
X90026748Y-103759225D01*
X90013362Y-103763575D01*
X90013361Y-103763576D01*
X90003930Y-103766640D01*
X89995910Y-103772467D01*
X89995908Y-103772468D01*
X89984523Y-103780740D01*
X89967670Y-103791068D01*
X89946291Y-103801961D01*
X89426472Y-104321780D01*
X89415577Y-104343163D01*
X89405253Y-104360009D01*
X89391151Y-104379419D01*
X89388087Y-104388850D01*
X89388085Y-104388853D01*
X89383736Y-104402237D01*
X89376172Y-104420498D01*
X89365281Y-104441874D01*
X89361528Y-104465570D01*
X89356914Y-104484790D01*
X89349500Y-104507607D01*
X89349500Y-106796562D01*
X89329498Y-106864683D01*
X89312595Y-106885658D01*
X88747805Y-107450447D01*
X88152461Y-108045791D01*
X88141566Y-108067174D01*
X88131242Y-108084020D01*
X88117140Y-108103430D01*
X88114076Y-108112861D01*
X88114074Y-108112864D01*
X88109725Y-108126248D01*
X88102161Y-108144509D01*
X88091270Y-108165885D01*
X88089719Y-108175679D01*
X88087517Y-108189581D01*
X88082903Y-108208801D01*
X88075489Y-108231618D01*
X88075489Y-110082456D01*
X88055487Y-110150577D01*
X88049451Y-110159161D01*
X88020128Y-110197375D01*
X87964659Y-110331291D01*
X87945739Y-110475000D01*
X87964659Y-110618709D01*
X88020128Y-110752625D01*
X88108368Y-110867621D01*
X88223364Y-110955861D01*
X88357280Y-111011330D01*
X88406406Y-111017798D01*
X88440436Y-111022278D01*
X88505363Y-111051001D01*
X88544454Y-111110266D01*
X88549989Y-111147200D01*
X88549989Y-112411765D01*
X88529987Y-112479886D01*
X88476331Y-112526379D01*
X88406057Y-112536483D01*
X88341477Y-112506989D01*
X88324027Y-112488469D01*
X88288847Y-112442621D01*
X88242621Y-112382379D01*
X88127625Y-112294139D01*
X87993709Y-112238670D01*
X87850000Y-112219750D01*
X87706291Y-112238670D01*
X87572375Y-112294139D01*
X87457379Y-112382379D01*
X87369139Y-112497375D01*
X87313670Y-112631291D01*
X87294750Y-112775000D01*
X87313670Y-112918709D01*
X87369139Y-113052625D01*
X87457379Y-113167621D01*
X87463929Y-113172647D01*
X87467714Y-113176432D01*
X87501740Y-113238744D01*
X87496675Y-113309559D01*
X87454128Y-113366395D01*
X87426839Y-113381935D01*
X87397375Y-113394139D01*
X87390825Y-113399165D01*
X87359161Y-113423462D01*
X87292940Y-113449063D01*
X87282456Y-113449500D01*
X84678438Y-113449500D01*
X84610317Y-113429498D01*
X84589343Y-113412595D01*
X83203444Y-112026696D01*
X83169418Y-111964384D01*
X83167617Y-111954047D01*
X83162408Y-111914479D01*
X83161330Y-111906291D01*
X83158170Y-111898660D01*
X83109021Y-111780004D01*
X83105861Y-111772375D01*
X83017621Y-111657379D01*
X82902625Y-111569139D01*
X82768709Y-111513670D01*
X82625000Y-111494750D01*
X82481291Y-111513670D01*
X82347375Y-111569139D01*
X82232379Y-111657379D01*
X82144139Y-111772375D01*
X82088670Y-111906291D01*
X82069750Y-112050000D01*
X82088670Y-112193709D01*
X82144139Y-112327625D01*
X82232379Y-112442621D01*
X82259195Y-112463198D01*
X82301062Y-112520533D01*
X82305285Y-112591404D01*
X82282453Y-112639863D01*
X82219139Y-112722375D01*
X82163670Y-112856291D01*
X82162593Y-112864474D01*
X82161729Y-112867697D01*
X82124778Y-112928319D01*
X82060917Y-112959341D01*
X81990422Y-112950912D01*
X81950928Y-112924180D01*
X78991077Y-109964329D01*
X78957051Y-109902017D01*
X78954643Y-109879613D01*
X78955250Y-109875000D01*
X78936330Y-109731291D01*
X78880861Y-109597375D01*
X78792621Y-109482379D01*
X78677625Y-109394139D01*
X78543709Y-109338670D01*
X78400000Y-109319750D01*
X78256291Y-109338670D01*
X78248660Y-109341831D01*
X78248103Y-109341980D01*
X78177126Y-109340290D01*
X78118331Y-109300496D01*
X78090383Y-109235231D01*
X78089492Y-109220273D01*
X78089492Y-107950000D01*
X85744750Y-107950000D01*
X85763670Y-108093709D01*
X85819139Y-108227625D01*
X85907379Y-108342621D01*
X86022375Y-108430861D01*
X86156291Y-108486330D01*
X86300000Y-108505250D01*
X86443709Y-108486330D01*
X86577625Y-108430861D01*
X86692621Y-108342621D01*
X86780861Y-108227625D01*
X86836330Y-108093709D01*
X86855250Y-107950000D01*
X86836330Y-107806291D01*
X86780861Y-107672375D01*
X86692621Y-107557379D01*
X86577625Y-107469139D01*
X86443709Y-107413670D01*
X86300000Y-107394750D01*
X86156291Y-107413670D01*
X86022375Y-107469139D01*
X85907379Y-107557379D01*
X85819139Y-107672375D01*
X85763670Y-107806291D01*
X85744750Y-107950000D01*
X78089492Y-107950000D01*
X78089492Y-103326500D01*
X78109494Y-103258379D01*
X78163150Y-103211886D01*
X78215492Y-103200500D01*
X232172052Y-103200501D01*
G37*
%TD.AperFunction*%
%TA.AperFunction,Conductor*%
G36*
X89159012Y-113336214D02*
G01*
X89165595Y-113342343D01*
X89421780Y-113598528D01*
X89443163Y-113609423D01*
X89460009Y-113619747D01*
X89479419Y-113633849D01*
X89488850Y-113636913D01*
X89488853Y-113636915D01*
X89502237Y-113641264D01*
X89520498Y-113648828D01*
X89533036Y-113655216D01*
X89541874Y-113659719D01*
X89565571Y-113663472D01*
X89584790Y-113668086D01*
X89607607Y-113675500D01*
X90543562Y-113675500D01*
X90611683Y-113695502D01*
X90658176Y-113749158D01*
X90668280Y-113819432D01*
X90638786Y-113884012D01*
X90632657Y-113890595D01*
X88676696Y-115846556D01*
X88614384Y-115880582D01*
X88604053Y-115882382D01*
X88556291Y-115888670D01*
X88548664Y-115891829D01*
X88548661Y-115891830D01*
X88430004Y-115940979D01*
X88422375Y-115944139D01*
X88307379Y-116032379D01*
X88219139Y-116147375D01*
X88163670Y-116281291D01*
X88152721Y-116364457D01*
X88123999Y-116429384D01*
X88064734Y-116468476D01*
X88027799Y-116474011D01*
X87682067Y-116474011D01*
X87613946Y-116454009D01*
X87605363Y-116447973D01*
X87575424Y-116425000D01*
X87502625Y-116369139D01*
X87368709Y-116313670D01*
X87225000Y-116294750D01*
X87081291Y-116313670D01*
X86947375Y-116369139D01*
X86832379Y-116457379D01*
X86744139Y-116572375D01*
X86688670Y-116706291D01*
X86687592Y-116714480D01*
X86671009Y-116840436D01*
X86642286Y-116905363D01*
X86583021Y-116944454D01*
X86546087Y-116949989D01*
X86028927Y-116949989D01*
X85960806Y-116929987D01*
X85939832Y-116913084D01*
X84242343Y-115215595D01*
X84208317Y-115153283D01*
X84213382Y-115082468D01*
X84255929Y-115025632D01*
X84322449Y-115000821D01*
X84331438Y-115000500D01*
X87080631Y-115000500D01*
X87148752Y-115020502D01*
X87195245Y-115074158D01*
X87205553Y-115142946D01*
X87194750Y-115225000D01*
X87213670Y-115368709D01*
X87269139Y-115502625D01*
X87357379Y-115617621D01*
X87472375Y-115705861D01*
X87606291Y-115761330D01*
X87750000Y-115780250D01*
X87893709Y-115761330D01*
X88027625Y-115705861D01*
X88065839Y-115676538D01*
X88132060Y-115650937D01*
X88142544Y-115650500D01*
X88167393Y-115650500D01*
X88190210Y-115643086D01*
X88209429Y-115638472D01*
X88233126Y-115634719D01*
X88241964Y-115630216D01*
X88254502Y-115623828D01*
X88272763Y-115616264D01*
X88286147Y-115611915D01*
X88286150Y-115611913D01*
X88295581Y-115608849D01*
X88314991Y-115594747D01*
X88331837Y-115584423D01*
X88353220Y-115573528D01*
X88448528Y-115478220D01*
X88752191Y-115174556D01*
X88752194Y-115174554D01*
X88873528Y-115053220D01*
X88884419Y-115031844D01*
X88894749Y-115014989D01*
X88903021Y-115003604D01*
X88903021Y-115003603D01*
X88908850Y-114995581D01*
X88916264Y-114972763D01*
X88923827Y-114954502D01*
X88934719Y-114933126D01*
X88936270Y-114923335D01*
X88936272Y-114923328D01*
X88938473Y-114909431D01*
X88943087Y-114890212D01*
X88947436Y-114876827D01*
X88947437Y-114876820D01*
X88950500Y-114867393D01*
X88950500Y-113431438D01*
X88970502Y-113363317D01*
X89024158Y-113316824D01*
X89094432Y-113306720D01*
X89159012Y-113336214D01*
G37*
%TD.AperFunction*%
M02*
