%TF.GenerationSoftware,KiCad,Pcbnew,(6.0.4)*%
%TF.CreationDate,2022-06-07T20:54:31+01:00*%
%TF.ProjectId,soil-moisture-sensor,736f696c-2d6d-46f6-9973-747572652d73,%%version%%*%
%TF.SameCoordinates,Original*%
%TF.FileFunction,Legend,Top*%
%TF.FilePolarity,Positive*%
%FSLAX46Y46*%
G04 Gerber Fmt 4.6, Leading zero omitted, Abs format (unit mm)*
G04 Created by KiCad (PCBNEW (6.0.4)) date 2022-06-07 20:54:31*
%MOMM*%
%LPD*%
G01*
G04 APERTURE LIST*
G04 Aperture macros list*
%AMRoundRect*
0 Rectangle with rounded corners*
0 $1 Rounding radius*
0 $2 $3 $4 $5 $6 $7 $8 $9 X,Y pos of 4 corners*
0 Add a 4 corners polygon primitive as box body*
4,1,4,$2,$3,$4,$5,$6,$7,$8,$9,$2,$3,0*
0 Add four circle primitives for the rounded corners*
1,1,$1+$1,$2,$3*
1,1,$1+$1,$4,$5*
1,1,$1+$1,$6,$7*
1,1,$1+$1,$8,$9*
0 Add four rect primitives between the rounded corners*
20,1,$1+$1,$2,$3,$4,$5,0*
20,1,$1+$1,$4,$5,$6,$7,0*
20,1,$1+$1,$6,$7,$8,$9,0*
20,1,$1+$1,$8,$9,$2,$3,0*%
G04 Aperture macros list end*
%ADD10C,0.200000*%
%ADD11C,0.150000*%
%ADD12C,0.120000*%
%ADD13C,3.500000*%
%ADD14C,7.150000*%
%ADD15RoundRect,0.275000X-0.200000X-0.275000X0.200000X-0.275000X0.200000X0.275000X-0.200000X0.275000X0*%
%ADD16RoundRect,0.225000X-0.587500X-0.150000X0.587500X-0.150000X0.587500X0.150000X-0.587500X0.150000X0*%
%ADD17RoundRect,0.175000X-0.130000X-0.100000X0.130000X-0.100000X0.130000X0.100000X-0.130000X0.100000X0*%
%ADD18RoundRect,0.293750X-0.218750X-0.256250X0.218750X-0.256250X0.218750X0.256250X-0.218750X0.256250X0*%
%ADD19RoundRect,0.075000X0.850000X-0.450000X0.850000X0.450000X-0.850000X0.450000X-0.850000X-0.450000X0*%
%ADD20RoundRect,0.075000X0.180000X0.125000X-0.180000X0.125000X-0.180000X-0.125000X0.180000X-0.125000X0*%
%ADD21RoundRect,0.075000X-0.712500X-0.775000X0.712500X-0.775000X0.712500X0.775000X-0.712500X0.775000X0*%
%ADD22RoundRect,0.075000X-0.900000X-0.950000X0.900000X-0.950000X0.900000X0.950000X-0.900000X0.950000X0*%
%ADD23RoundRect,0.075000X-0.825000X-0.650000X0.825000X-0.650000X0.825000X0.650000X-0.825000X0.650000X0*%
%ADD24RoundRect,0.075000X-0.500000X-0.950000X0.500000X-0.950000X0.500000X0.950000X-0.500000X0.950000X0*%
%ADD25RoundRect,0.075000X-0.225000X-0.690000X0.225000X-0.690000X0.225000X0.690000X-0.225000X0.690000X0*%
%ADD26RoundRect,0.075000X-0.500000X-0.500000X0.500000X-0.500000X0.500000X0.500000X-0.500000X0.500000X0*%
%ADD27RoundRect,0.075000X1.300000X-1.300000X1.300000X1.300000X-1.300000X1.300000X-1.300000X-1.300000X0*%
%ADD28RoundRect,0.137500X0.350000X-0.062500X0.350000X0.062500X-0.350000X0.062500X-0.350000X-0.062500X0*%
%ADD29RoundRect,0.137500X0.062500X-0.350000X0.062500X0.350000X-0.062500X0.350000X-0.062500X-0.350000X0*%
%ADD30RoundRect,0.275000X0.200000X0.275000X-0.200000X0.275000X-0.200000X-0.275000X0.200000X-0.275000X0*%
%ADD31RoundRect,0.075000X-0.180000X-0.125000X0.180000X-0.125000X0.180000X0.125000X-0.180000X0.125000X0*%
%ADD32C,3.350000*%
%ADD33RoundRect,0.300000X-0.225000X-0.250000X0.225000X-0.250000X0.225000X0.250000X-0.225000X0.250000X0*%
%ADD34RoundRect,0.075000X2.500000X-2.500000X2.500000X2.500000X-2.500000X2.500000X-2.500000X-2.500000X0*%
%ADD35RoundRect,0.075000X0.450000X-1.000000X0.450000X1.000000X-0.450000X1.000000X-0.450000X-1.000000X0*%
%ADD36RoundRect,0.075000X1.000000X0.450000X-1.000000X0.450000X-1.000000X-0.450000X1.000000X-0.450000X0*%
%ADD37RoundRect,0.325000X-0.250000X-0.475000X0.250000X-0.475000X0.250000X0.475000X-0.250000X0.475000X0*%
%ADD38RoundRect,0.175000X0.100000X-0.130000X0.100000X0.130000X-0.100000X0.130000X-0.100000X-0.130000X0*%
G04 APERTURE END LIST*
D10*
X77938095Y-110146666D02*
X78319047Y-109880000D01*
X77938095Y-109689523D02*
X78738095Y-109689523D01*
X78738095Y-109994285D01*
X78700000Y-110070476D01*
X78661904Y-110108571D01*
X78585714Y-110146666D01*
X78471428Y-110146666D01*
X78395238Y-110108571D01*
X78357142Y-110070476D01*
X78319047Y-109994285D01*
X78319047Y-109689523D01*
X78738095Y-110413333D02*
X77938095Y-110946666D01*
X78738095Y-110946666D02*
X77938095Y-110413333D01*
X81938095Y-117041904D02*
X82738095Y-117041904D01*
X82166666Y-117308571D01*
X82738095Y-117575238D01*
X81938095Y-117575238D01*
X81938095Y-117956190D02*
X82738095Y-117956190D01*
X81976190Y-118299047D02*
X81938095Y-118413333D01*
X81938095Y-118603809D01*
X81976190Y-118680000D01*
X82014285Y-118718095D01*
X82090476Y-118756190D01*
X82166666Y-118756190D01*
X82242857Y-118718095D01*
X82280952Y-118680000D01*
X82319047Y-118603809D01*
X82357142Y-118451428D01*
X82395238Y-118375238D01*
X82433333Y-118337142D01*
X82509523Y-118299047D01*
X82585714Y-118299047D01*
X82661904Y-118337142D01*
X82700000Y-118375238D01*
X82738095Y-118451428D01*
X82738095Y-118641904D01*
X82700000Y-118756190D01*
X81976190Y-111751428D02*
X81938095Y-111865714D01*
X81938095Y-112056190D01*
X81976190Y-112132380D01*
X82014285Y-112170476D01*
X82090476Y-112208571D01*
X82166666Y-112208571D01*
X82242857Y-112170476D01*
X82280952Y-112132380D01*
X82319047Y-112056190D01*
X82357142Y-111903809D01*
X82395238Y-111827619D01*
X82433333Y-111789523D01*
X82509523Y-111751428D01*
X82585714Y-111751428D01*
X82661904Y-111789523D01*
X82700000Y-111827619D01*
X82738095Y-111903809D01*
X82738095Y-112094285D01*
X82700000Y-112208571D01*
X82014285Y-113008571D02*
X81976190Y-112970476D01*
X81938095Y-112856190D01*
X81938095Y-112780000D01*
X81976190Y-112665714D01*
X82052380Y-112589523D01*
X82128571Y-112551428D01*
X82280952Y-112513333D01*
X82395238Y-112513333D01*
X82547619Y-112551428D01*
X82623809Y-112589523D01*
X82700000Y-112665714D01*
X82738095Y-112780000D01*
X82738095Y-112856190D01*
X82700000Y-112970476D01*
X82661904Y-113008571D01*
X81938095Y-113351428D02*
X82738095Y-113351428D01*
X81938095Y-113808571D02*
X82395238Y-113465714D01*
X82738095Y-113808571D02*
X82280952Y-113351428D01*
X78738095Y-111763333D02*
X77938095Y-112030000D01*
X78738095Y-112296666D01*
X78014285Y-113020476D02*
X77976190Y-112982380D01*
X77938095Y-112868095D01*
X77938095Y-112791904D01*
X77976190Y-112677619D01*
X78052380Y-112601428D01*
X78128571Y-112563333D01*
X78280952Y-112525238D01*
X78395238Y-112525238D01*
X78547619Y-112563333D01*
X78623809Y-112601428D01*
X78700000Y-112677619D01*
X78738095Y-112791904D01*
X78738095Y-112868095D01*
X78700000Y-112982380D01*
X78661904Y-113020476D01*
X78014285Y-113820476D02*
X77976190Y-113782380D01*
X77938095Y-113668095D01*
X77938095Y-113591904D01*
X77976190Y-113477619D01*
X78052380Y-113401428D01*
X78128571Y-113363333D01*
X78280952Y-113325238D01*
X78395238Y-113325238D01*
X78547619Y-113363333D01*
X78623809Y-113401428D01*
X78700000Y-113477619D01*
X78738095Y-113591904D01*
X78738095Y-113668095D01*
X78700000Y-113782380D01*
X78661904Y-113820476D01*
X81938095Y-107234761D02*
X82319047Y-106968095D01*
X81938095Y-106777619D02*
X82738095Y-106777619D01*
X82738095Y-107082380D01*
X82700000Y-107158571D01*
X82661904Y-107196666D01*
X82585714Y-107234761D01*
X82471428Y-107234761D01*
X82395238Y-107196666D01*
X82357142Y-107158571D01*
X82319047Y-107082380D01*
X82319047Y-106777619D01*
X82357142Y-107577619D02*
X82357142Y-107844285D01*
X81938095Y-107958571D02*
X81938095Y-107577619D01*
X82738095Y-107577619D01*
X82738095Y-107958571D01*
X81976190Y-108263333D02*
X81938095Y-108377619D01*
X81938095Y-108568095D01*
X81976190Y-108644285D01*
X82014285Y-108682380D01*
X82090476Y-108720476D01*
X82166666Y-108720476D01*
X82242857Y-108682380D01*
X82280952Y-108644285D01*
X82319047Y-108568095D01*
X82357142Y-108415714D01*
X82395238Y-108339523D01*
X82433333Y-108301428D01*
X82509523Y-108263333D01*
X82585714Y-108263333D01*
X82661904Y-108301428D01*
X82700000Y-108339523D01*
X82738095Y-108415714D01*
X82738095Y-108606190D01*
X82700000Y-108720476D01*
X81226190Y-120451428D02*
X81559523Y-120451428D01*
X81559523Y-119927619D02*
X81559523Y-120927619D01*
X81083333Y-120927619D01*
X80845238Y-120927619D02*
X80273809Y-120927619D01*
X80559523Y-119927619D02*
X80559523Y-120927619D01*
X79940476Y-119927619D02*
X79940476Y-120927619D01*
X79702380Y-120927619D01*
X79559523Y-120880000D01*
X79464285Y-120784761D01*
X79416666Y-120689523D01*
X79369047Y-120499047D01*
X79369047Y-120356190D01*
X79416666Y-120165714D01*
X79464285Y-120070476D01*
X79559523Y-119975238D01*
X79702380Y-119927619D01*
X79940476Y-119927619D01*
X78940476Y-119927619D02*
X78940476Y-120927619D01*
X78700000Y-117320476D02*
X78738095Y-117244285D01*
X78738095Y-117130000D01*
X78700000Y-117015714D01*
X78623809Y-116939523D01*
X78547619Y-116901428D01*
X78395238Y-116863333D01*
X78280952Y-116863333D01*
X78128571Y-116901428D01*
X78052380Y-116939523D01*
X77976190Y-117015714D01*
X77938095Y-117130000D01*
X77938095Y-117206190D01*
X77976190Y-117320476D01*
X78014285Y-117358571D01*
X78280952Y-117358571D01*
X78280952Y-117206190D01*
X77938095Y-117701428D02*
X78738095Y-117701428D01*
X77938095Y-118158571D01*
X78738095Y-118158571D01*
X77938095Y-118539523D02*
X78738095Y-118539523D01*
X78738095Y-118730000D01*
X78700000Y-118844285D01*
X78623809Y-118920476D01*
X78547619Y-118958571D01*
X78395238Y-118996666D01*
X78280952Y-118996666D01*
X78128571Y-118958571D01*
X78052380Y-118920476D01*
X77976190Y-118844285D01*
X77938095Y-118730000D01*
X77938095Y-118539523D01*
X82738095Y-114313333D02*
X81938095Y-114580000D01*
X82738095Y-114846666D01*
X82014285Y-115570476D02*
X81976190Y-115532380D01*
X81938095Y-115418095D01*
X81938095Y-115341904D01*
X81976190Y-115227619D01*
X82052380Y-115151428D01*
X82128571Y-115113333D01*
X82280952Y-115075238D01*
X82395238Y-115075238D01*
X82547619Y-115113333D01*
X82623809Y-115151428D01*
X82700000Y-115227619D01*
X82738095Y-115341904D01*
X82738095Y-115418095D01*
X82700000Y-115532380D01*
X82661904Y-115570476D01*
X82014285Y-116370476D02*
X81976190Y-116332380D01*
X81938095Y-116218095D01*
X81938095Y-116141904D01*
X81976190Y-116027619D01*
X82052380Y-115951428D01*
X82128571Y-115913333D01*
X82280952Y-115875238D01*
X82395238Y-115875238D01*
X82547619Y-115913333D01*
X82623809Y-115951428D01*
X82700000Y-116027619D01*
X82738095Y-116141904D01*
X82738095Y-116218095D01*
X82700000Y-116332380D01*
X82661904Y-116370476D01*
X78738095Y-107120476D02*
X78738095Y-107577619D01*
X77938095Y-107349047D02*
X78738095Y-107349047D01*
X78738095Y-107768095D02*
X77938095Y-108301428D01*
X78738095Y-108301428D02*
X77938095Y-107768095D01*
X77938095Y-104265714D02*
X78738095Y-104265714D01*
X78738095Y-104456190D01*
X78700000Y-104570476D01*
X78623809Y-104646666D01*
X78547619Y-104684761D01*
X78395238Y-104722857D01*
X78280952Y-104722857D01*
X78128571Y-104684761D01*
X78052380Y-104646666D01*
X77976190Y-104570476D01*
X77938095Y-104456190D01*
X77938095Y-104265714D01*
X78738095Y-104951428D02*
X78738095Y-105408571D01*
X77938095Y-105180000D02*
X78738095Y-105180000D01*
X77938095Y-106132380D02*
X78319047Y-105865714D01*
X77938095Y-105675238D02*
X78738095Y-105675238D01*
X78738095Y-105980000D01*
X78700000Y-106056190D01*
X78661904Y-106094285D01*
X78585714Y-106132380D01*
X78471428Y-106132380D01*
X78395238Y-106094285D01*
X78357142Y-106056190D01*
X78319047Y-105980000D01*
X78319047Y-105675238D01*
X78014285Y-114941904D02*
X77976190Y-114903809D01*
X77938095Y-114789523D01*
X77938095Y-114713333D01*
X77976190Y-114599047D01*
X78052380Y-114522857D01*
X78128571Y-114484761D01*
X78280952Y-114446666D01*
X78395238Y-114446666D01*
X78547619Y-114484761D01*
X78623809Y-114522857D01*
X78700000Y-114599047D01*
X78738095Y-114713333D01*
X78738095Y-114789523D01*
X78700000Y-114903809D01*
X78661904Y-114941904D01*
X78738095Y-115170476D02*
X78738095Y-115627619D01*
X77938095Y-115399047D02*
X78738095Y-115399047D01*
X77976190Y-115856190D02*
X77938095Y-115970476D01*
X77938095Y-116160952D01*
X77976190Y-116237142D01*
X78014285Y-116275238D01*
X78090476Y-116313333D01*
X78166666Y-116313333D01*
X78242857Y-116275238D01*
X78280952Y-116237142D01*
X78319047Y-116160952D01*
X78357142Y-116008571D01*
X78395238Y-115932380D01*
X78433333Y-115894285D01*
X78509523Y-115856190D01*
X78585714Y-115856190D01*
X78661904Y-115894285D01*
X78700000Y-115932380D01*
X78738095Y-116008571D01*
X78738095Y-116199047D01*
X78700000Y-116313333D01*
X81938095Y-109213333D02*
X82738095Y-109213333D01*
X82166666Y-109480000D01*
X82738095Y-109746666D01*
X81938095Y-109746666D01*
X82738095Y-110280000D02*
X82738095Y-110432380D01*
X82700000Y-110508571D01*
X82623809Y-110584761D01*
X82471428Y-110622857D01*
X82204761Y-110622857D01*
X82052380Y-110584761D01*
X81976190Y-110508571D01*
X81938095Y-110432380D01*
X81938095Y-110280000D01*
X81976190Y-110203809D01*
X82052380Y-110127619D01*
X82204761Y-110089523D01*
X82471428Y-110089523D01*
X82623809Y-110127619D01*
X82700000Y-110203809D01*
X82738095Y-110280000D01*
X81976190Y-110927619D02*
X81938095Y-111041904D01*
X81938095Y-111232380D01*
X81976190Y-111308571D01*
X82014285Y-111346666D01*
X82090476Y-111384761D01*
X82166666Y-111384761D01*
X82242857Y-111346666D01*
X82280952Y-111308571D01*
X82319047Y-111232380D01*
X82357142Y-111080000D01*
X82395238Y-111003809D01*
X82433333Y-110965714D01*
X82509523Y-110927619D01*
X82585714Y-110927619D01*
X82661904Y-110965714D01*
X82700000Y-111003809D01*
X82738095Y-111080000D01*
X82738095Y-111270476D01*
X82700000Y-111384761D01*
X85316666Y-121818333D02*
X84840476Y-121818333D01*
X85411904Y-121532619D02*
X85078571Y-122532619D01*
X84745238Y-121532619D01*
X84554761Y-122532619D02*
X84221428Y-121532619D01*
X83888095Y-122532619D01*
X82983333Y-121532619D02*
X83316666Y-122008809D01*
X83554761Y-121532619D02*
X83554761Y-122532619D01*
X83173809Y-122532619D01*
X83078571Y-122485000D01*
X83030952Y-122437380D01*
X82983333Y-122342142D01*
X82983333Y-122199285D01*
X83030952Y-122104047D01*
X83078571Y-122056428D01*
X83173809Y-122008809D01*
X83554761Y-122008809D01*
X85126190Y-119922619D02*
X85126190Y-120922619D01*
X84697619Y-119970238D02*
X84554761Y-119922619D01*
X84316666Y-119922619D01*
X84221428Y-119970238D01*
X84173809Y-120017857D01*
X84126190Y-120113095D01*
X84126190Y-120208333D01*
X84173809Y-120303571D01*
X84221428Y-120351190D01*
X84316666Y-120398809D01*
X84507142Y-120446428D01*
X84602380Y-120494047D01*
X84650000Y-120541666D01*
X84697619Y-120636904D01*
X84697619Y-120732142D01*
X84650000Y-120827380D01*
X84602380Y-120875000D01*
X84507142Y-120922619D01*
X84269047Y-120922619D01*
X84126190Y-120875000D01*
X83697619Y-119922619D02*
X83697619Y-120922619D01*
X83316666Y-120922619D01*
X83221428Y-120875000D01*
X83173809Y-120827380D01*
X83126190Y-120732142D01*
X83126190Y-120589285D01*
X83173809Y-120494047D01*
X83221428Y-120446428D01*
X83316666Y-120398809D01*
X83697619Y-120398809D01*
X82700000Y-104570476D02*
X82738095Y-104494285D01*
X82738095Y-104380000D01*
X82700000Y-104265714D01*
X82623809Y-104189523D01*
X82547619Y-104151428D01*
X82395238Y-104113333D01*
X82280952Y-104113333D01*
X82128571Y-104151428D01*
X82052380Y-104189523D01*
X81976190Y-104265714D01*
X81938095Y-104380000D01*
X81938095Y-104456190D01*
X81976190Y-104570476D01*
X82014285Y-104608571D01*
X82280952Y-104608571D01*
X82280952Y-104456190D01*
X81938095Y-104951428D02*
X82738095Y-104951428D01*
X81938095Y-105408571D01*
X82738095Y-105408571D01*
X81938095Y-105789523D02*
X82738095Y-105789523D01*
X82738095Y-105980000D01*
X82700000Y-106094285D01*
X82623809Y-106170476D01*
X82547619Y-106208571D01*
X82395238Y-106246666D01*
X82280952Y-106246666D01*
X82128571Y-106208571D01*
X82052380Y-106170476D01*
X81976190Y-106094285D01*
X81938095Y-105980000D01*
X81938095Y-105789523D01*
D11*
X117228333Y-111092380D02*
X116895000Y-110616190D01*
X116656904Y-111092380D02*
X116656904Y-110092380D01*
X117037857Y-110092380D01*
X117133095Y-110140000D01*
X117180714Y-110187619D01*
X117228333Y-110282857D01*
X117228333Y-110425714D01*
X117180714Y-110520952D01*
X117133095Y-110568571D01*
X117037857Y-110616190D01*
X116656904Y-110616190D01*
X117704523Y-111092380D02*
X117895000Y-111092380D01*
X117990238Y-111044761D01*
X118037857Y-110997142D01*
X118133095Y-110854285D01*
X118180714Y-110663809D01*
X118180714Y-110282857D01*
X118133095Y-110187619D01*
X118085476Y-110140000D01*
X117990238Y-110092380D01*
X117799761Y-110092380D01*
X117704523Y-110140000D01*
X117656904Y-110187619D01*
X117609285Y-110282857D01*
X117609285Y-110520952D01*
X117656904Y-110616190D01*
X117704523Y-110663809D01*
X117799761Y-110711428D01*
X117990238Y-110711428D01*
X118085476Y-110663809D01*
X118133095Y-110616190D01*
X118180714Y-110520952D01*
X98604761Y-105647619D02*
X98509523Y-105600000D01*
X98414285Y-105504761D01*
X98271428Y-105361904D01*
X98176190Y-105314285D01*
X98080952Y-105314285D01*
X98128571Y-105552380D02*
X98033333Y-105504761D01*
X97938095Y-105409523D01*
X97890476Y-105219047D01*
X97890476Y-104885714D01*
X97938095Y-104695238D01*
X98033333Y-104600000D01*
X98128571Y-104552380D01*
X98319047Y-104552380D01*
X98414285Y-104600000D01*
X98509523Y-104695238D01*
X98557142Y-104885714D01*
X98557142Y-105219047D01*
X98509523Y-105409523D01*
X98414285Y-105504761D01*
X98319047Y-105552380D01*
X98128571Y-105552380D01*
X99509523Y-105552380D02*
X98938095Y-105552380D01*
X99223809Y-105552380D02*
X99223809Y-104552380D01*
X99128571Y-104695238D01*
X99033333Y-104790476D01*
X98938095Y-104838095D01*
X108233333Y-117422380D02*
X107900000Y-116946190D01*
X107661904Y-117422380D02*
X107661904Y-116422380D01*
X108042857Y-116422380D01*
X108138095Y-116470000D01*
X108185714Y-116517619D01*
X108233333Y-116612857D01*
X108233333Y-116755714D01*
X108185714Y-116850952D01*
X108138095Y-116898571D01*
X108042857Y-116946190D01*
X107661904Y-116946190D01*
X109138095Y-116422380D02*
X108661904Y-116422380D01*
X108614285Y-116898571D01*
X108661904Y-116850952D01*
X108757142Y-116803333D01*
X108995238Y-116803333D01*
X109090476Y-116850952D01*
X109138095Y-116898571D01*
X109185714Y-116993809D01*
X109185714Y-117231904D01*
X109138095Y-117327142D01*
X109090476Y-117374761D01*
X108995238Y-117422380D01*
X108757142Y-117422380D01*
X108661904Y-117374761D01*
X108614285Y-117327142D01*
X130533333Y-113307142D02*
X130485714Y-113354761D01*
X130342857Y-113402380D01*
X130247619Y-113402380D01*
X130104761Y-113354761D01*
X130009523Y-113259523D01*
X129961904Y-113164285D01*
X129914285Y-112973809D01*
X129914285Y-112830952D01*
X129961904Y-112640476D01*
X130009523Y-112545238D01*
X130104761Y-112450000D01*
X130247619Y-112402380D01*
X130342857Y-112402380D01*
X130485714Y-112450000D01*
X130533333Y-112497619D01*
X131485714Y-113402380D02*
X130914285Y-113402380D01*
X131200000Y-113402380D02*
X131200000Y-112402380D01*
X131104761Y-112545238D01*
X131009523Y-112640476D01*
X130914285Y-112688095D01*
X121181904Y-105702380D02*
X121181904Y-104702380D01*
X121420000Y-104702380D01*
X121562857Y-104750000D01*
X121658095Y-104845238D01*
X121705714Y-104940476D01*
X121753333Y-105130952D01*
X121753333Y-105273809D01*
X121705714Y-105464285D01*
X121658095Y-105559523D01*
X121562857Y-105654761D01*
X121420000Y-105702380D01*
X121181904Y-105702380D01*
X122324761Y-105130952D02*
X122229523Y-105083333D01*
X122181904Y-105035714D01*
X122134285Y-104940476D01*
X122134285Y-104892857D01*
X122181904Y-104797619D01*
X122229523Y-104750000D01*
X122324761Y-104702380D01*
X122515238Y-104702380D01*
X122610476Y-104750000D01*
X122658095Y-104797619D01*
X122705714Y-104892857D01*
X122705714Y-104940476D01*
X122658095Y-105035714D01*
X122610476Y-105083333D01*
X122515238Y-105130952D01*
X122324761Y-105130952D01*
X122229523Y-105178571D01*
X122181904Y-105226190D01*
X122134285Y-105321428D01*
X122134285Y-105511904D01*
X122181904Y-105607142D01*
X122229523Y-105654761D01*
X122324761Y-105702380D01*
X122515238Y-105702380D01*
X122610476Y-105654761D01*
X122658095Y-105607142D01*
X122705714Y-105511904D01*
X122705714Y-105321428D01*
X122658095Y-105226190D01*
X122610476Y-105178571D01*
X122515238Y-105130952D01*
X89133333Y-106322380D02*
X88800000Y-105846190D01*
X88561904Y-106322380D02*
X88561904Y-105322380D01*
X88942857Y-105322380D01*
X89038095Y-105370000D01*
X89085714Y-105417619D01*
X89133333Y-105512857D01*
X89133333Y-105655714D01*
X89085714Y-105750952D01*
X89038095Y-105798571D01*
X88942857Y-105846190D01*
X88561904Y-105846190D01*
X89704761Y-105750952D02*
X89609523Y-105703333D01*
X89561904Y-105655714D01*
X89514285Y-105560476D01*
X89514285Y-105512857D01*
X89561904Y-105417619D01*
X89609523Y-105370000D01*
X89704761Y-105322380D01*
X89895238Y-105322380D01*
X89990476Y-105370000D01*
X90038095Y-105417619D01*
X90085714Y-105512857D01*
X90085714Y-105560476D01*
X90038095Y-105655714D01*
X89990476Y-105703333D01*
X89895238Y-105750952D01*
X89704761Y-105750952D01*
X89609523Y-105798571D01*
X89561904Y-105846190D01*
X89514285Y-105941428D01*
X89514285Y-106131904D01*
X89561904Y-106227142D01*
X89609523Y-106274761D01*
X89704761Y-106322380D01*
X89895238Y-106322380D01*
X89990476Y-106274761D01*
X90038095Y-106227142D01*
X90085714Y-106131904D01*
X90085714Y-105941428D01*
X90038095Y-105846190D01*
X89990476Y-105798571D01*
X89895238Y-105750952D01*
X112204761Y-110553333D02*
X112252380Y-110410476D01*
X112252380Y-110172380D01*
X112204761Y-110077142D01*
X112157142Y-110029523D01*
X112061904Y-109981904D01*
X111966666Y-109981904D01*
X111871428Y-110029523D01*
X111823809Y-110077142D01*
X111776190Y-110172380D01*
X111728571Y-110362857D01*
X111680952Y-110458095D01*
X111633333Y-110505714D01*
X111538095Y-110553333D01*
X111442857Y-110553333D01*
X111347619Y-110505714D01*
X111300000Y-110458095D01*
X111252380Y-110362857D01*
X111252380Y-110124761D01*
X111300000Y-109981904D01*
X111252380Y-109648571D02*
X112252380Y-109410476D01*
X111538095Y-109220000D01*
X112252380Y-109029523D01*
X111252380Y-108791428D01*
X111347619Y-108458095D02*
X111300000Y-108410476D01*
X111252380Y-108315238D01*
X111252380Y-108077142D01*
X111300000Y-107981904D01*
X111347619Y-107934285D01*
X111442857Y-107886666D01*
X111538095Y-107886666D01*
X111680952Y-107934285D01*
X112252380Y-108505714D01*
X112252380Y-107886666D01*
X88261904Y-117752380D02*
X88261904Y-116752380D01*
X88500000Y-116752380D01*
X88642857Y-116800000D01*
X88738095Y-116895238D01*
X88785714Y-116990476D01*
X88833333Y-117180952D01*
X88833333Y-117323809D01*
X88785714Y-117514285D01*
X88738095Y-117609523D01*
X88642857Y-117704761D01*
X88500000Y-117752380D01*
X88261904Y-117752380D01*
X89738095Y-116752380D02*
X89261904Y-116752380D01*
X89214285Y-117228571D01*
X89261904Y-117180952D01*
X89357142Y-117133333D01*
X89595238Y-117133333D01*
X89690476Y-117180952D01*
X89738095Y-117228571D01*
X89785714Y-117323809D01*
X89785714Y-117561904D01*
X89738095Y-117657142D01*
X89690476Y-117704761D01*
X89595238Y-117752380D01*
X89357142Y-117752380D01*
X89261904Y-117704761D01*
X89214285Y-117657142D01*
X120061904Y-108452380D02*
X120061904Y-107452380D01*
X120300000Y-107452380D01*
X120442857Y-107500000D01*
X120538095Y-107595238D01*
X120585714Y-107690476D01*
X120633333Y-107880952D01*
X120633333Y-108023809D01*
X120585714Y-108214285D01*
X120538095Y-108309523D01*
X120442857Y-108404761D01*
X120300000Y-108452380D01*
X120061904Y-108452380D01*
X121014285Y-107547619D02*
X121061904Y-107500000D01*
X121157142Y-107452380D01*
X121395238Y-107452380D01*
X121490476Y-107500000D01*
X121538095Y-107547619D01*
X121585714Y-107642857D01*
X121585714Y-107738095D01*
X121538095Y-107880952D01*
X120966666Y-108452380D01*
X121585714Y-108452380D01*
X130733333Y-115907142D02*
X130685714Y-115954761D01*
X130542857Y-116002380D01*
X130447619Y-116002380D01*
X130304761Y-115954761D01*
X130209523Y-115859523D01*
X130161904Y-115764285D01*
X130114285Y-115573809D01*
X130114285Y-115430952D01*
X130161904Y-115240476D01*
X130209523Y-115145238D01*
X130304761Y-115050000D01*
X130447619Y-115002380D01*
X130542857Y-115002380D01*
X130685714Y-115050000D01*
X130733333Y-115097619D01*
X131638095Y-115002380D02*
X131161904Y-115002380D01*
X131114285Y-115478571D01*
X131161904Y-115430952D01*
X131257142Y-115383333D01*
X131495238Y-115383333D01*
X131590476Y-115430952D01*
X131638095Y-115478571D01*
X131685714Y-115573809D01*
X131685714Y-115811904D01*
X131638095Y-115907142D01*
X131590476Y-115954761D01*
X131495238Y-116002380D01*
X131257142Y-116002380D01*
X131161904Y-115954761D01*
X131114285Y-115907142D01*
X91957142Y-106322380D02*
X91623809Y-105846190D01*
X91385714Y-106322380D02*
X91385714Y-105322380D01*
X91766666Y-105322380D01*
X91861904Y-105370000D01*
X91909523Y-105417619D01*
X91957142Y-105512857D01*
X91957142Y-105655714D01*
X91909523Y-105750952D01*
X91861904Y-105798571D01*
X91766666Y-105846190D01*
X91385714Y-105846190D01*
X92909523Y-106322380D02*
X92338095Y-106322380D01*
X92623809Y-106322380D02*
X92623809Y-105322380D01*
X92528571Y-105465238D01*
X92433333Y-105560476D01*
X92338095Y-105608095D01*
X93290476Y-105417619D02*
X93338095Y-105370000D01*
X93433333Y-105322380D01*
X93671428Y-105322380D01*
X93766666Y-105370000D01*
X93814285Y-105417619D01*
X93861904Y-105512857D01*
X93861904Y-105608095D01*
X93814285Y-105750952D01*
X93242857Y-106322380D01*
X93861904Y-106322380D01*
X103204761Y-105647619D02*
X103109523Y-105600000D01*
X103014285Y-105504761D01*
X102871428Y-105361904D01*
X102776190Y-105314285D01*
X102680952Y-105314285D01*
X102728571Y-105552380D02*
X102633333Y-105504761D01*
X102538095Y-105409523D01*
X102490476Y-105219047D01*
X102490476Y-104885714D01*
X102538095Y-104695238D01*
X102633333Y-104600000D01*
X102728571Y-104552380D01*
X102919047Y-104552380D01*
X103014285Y-104600000D01*
X103109523Y-104695238D01*
X103157142Y-104885714D01*
X103157142Y-105219047D01*
X103109523Y-105409523D01*
X103014285Y-105504761D01*
X102919047Y-105552380D01*
X102728571Y-105552380D01*
X103538095Y-104647619D02*
X103585714Y-104600000D01*
X103680952Y-104552380D01*
X103919047Y-104552380D01*
X104014285Y-104600000D01*
X104061904Y-104647619D01*
X104109523Y-104742857D01*
X104109523Y-104838095D01*
X104061904Y-104980952D01*
X103490476Y-105552380D01*
X104109523Y-105552380D01*
X124133333Y-108922380D02*
X123800000Y-108446190D01*
X123561904Y-108922380D02*
X123561904Y-107922380D01*
X123942857Y-107922380D01*
X124038095Y-107970000D01*
X124085714Y-108017619D01*
X124133333Y-108112857D01*
X124133333Y-108255714D01*
X124085714Y-108350952D01*
X124038095Y-108398571D01*
X123942857Y-108446190D01*
X123561904Y-108446190D01*
X124466666Y-107922380D02*
X125085714Y-107922380D01*
X124752380Y-108303333D01*
X124895238Y-108303333D01*
X124990476Y-108350952D01*
X125038095Y-108398571D01*
X125085714Y-108493809D01*
X125085714Y-108731904D01*
X125038095Y-108827142D01*
X124990476Y-108874761D01*
X124895238Y-108922380D01*
X124609523Y-108922380D01*
X124514285Y-108874761D01*
X124466666Y-108827142D01*
X93566666Y-118352380D02*
X93566666Y-119066666D01*
X93519047Y-119209523D01*
X93423809Y-119304761D01*
X93280952Y-119352380D01*
X93185714Y-119352380D01*
X94566666Y-119352380D02*
X93995238Y-119352380D01*
X94280952Y-119352380D02*
X94280952Y-118352380D01*
X94185714Y-118495238D01*
X94090476Y-118590476D01*
X93995238Y-118638095D01*
X119861904Y-121702380D02*
X119861904Y-120702380D01*
X120100000Y-120702380D01*
X120242857Y-120750000D01*
X120338095Y-120845238D01*
X120385714Y-120940476D01*
X120433333Y-121130952D01*
X120433333Y-121273809D01*
X120385714Y-121464285D01*
X120338095Y-121559523D01*
X120242857Y-121654761D01*
X120100000Y-121702380D01*
X119861904Y-121702380D01*
X121290476Y-120702380D02*
X121100000Y-120702380D01*
X121004761Y-120750000D01*
X120957142Y-120797619D01*
X120861904Y-120940476D01*
X120814285Y-121130952D01*
X120814285Y-121511904D01*
X120861904Y-121607142D01*
X120909523Y-121654761D01*
X121004761Y-121702380D01*
X121195238Y-121702380D01*
X121290476Y-121654761D01*
X121338095Y-121607142D01*
X121385714Y-121511904D01*
X121385714Y-121273809D01*
X121338095Y-121178571D01*
X121290476Y-121130952D01*
X121195238Y-121083333D01*
X121004761Y-121083333D01*
X120909523Y-121130952D01*
X120861904Y-121178571D01*
X120814285Y-121273809D01*
X85852380Y-115261904D02*
X86661904Y-115261904D01*
X86757142Y-115214285D01*
X86804761Y-115166666D01*
X86852380Y-115071428D01*
X86852380Y-114880952D01*
X86804761Y-114785714D01*
X86757142Y-114738095D01*
X86661904Y-114690476D01*
X85852380Y-114690476D01*
X85947619Y-114261904D02*
X85900000Y-114214285D01*
X85852380Y-114119047D01*
X85852380Y-113880952D01*
X85900000Y-113785714D01*
X85947619Y-113738095D01*
X86042857Y-113690476D01*
X86138095Y-113690476D01*
X86280952Y-113738095D01*
X86852380Y-114309523D01*
X86852380Y-113690476D01*
X91982142Y-110682380D02*
X91648809Y-110206190D01*
X91410714Y-110682380D02*
X91410714Y-109682380D01*
X91791666Y-109682380D01*
X91886904Y-109730000D01*
X91934523Y-109777619D01*
X91982142Y-109872857D01*
X91982142Y-110015714D01*
X91934523Y-110110952D01*
X91886904Y-110158571D01*
X91791666Y-110206190D01*
X91410714Y-110206190D01*
X92934523Y-110682380D02*
X92363095Y-110682380D01*
X92648809Y-110682380D02*
X92648809Y-109682380D01*
X92553571Y-109825238D01*
X92458333Y-109920476D01*
X92363095Y-109968095D01*
X93886904Y-110682380D02*
X93315476Y-110682380D01*
X93601190Y-110682380D02*
X93601190Y-109682380D01*
X93505952Y-109825238D01*
X93410714Y-109920476D01*
X93315476Y-109968095D01*
X97733333Y-109422380D02*
X97400000Y-108946190D01*
X97161904Y-109422380D02*
X97161904Y-108422380D01*
X97542857Y-108422380D01*
X97638095Y-108470000D01*
X97685714Y-108517619D01*
X97733333Y-108612857D01*
X97733333Y-108755714D01*
X97685714Y-108850952D01*
X97638095Y-108898571D01*
X97542857Y-108946190D01*
X97161904Y-108946190D01*
X98590476Y-108755714D02*
X98590476Y-109422380D01*
X98352380Y-108374761D02*
X98114285Y-109089047D01*
X98733333Y-109089047D01*
X90261904Y-120152380D02*
X90261904Y-119152380D01*
X90500000Y-119152380D01*
X90642857Y-119200000D01*
X90738095Y-119295238D01*
X90785714Y-119390476D01*
X90833333Y-119580952D01*
X90833333Y-119723809D01*
X90785714Y-119914285D01*
X90738095Y-120009523D01*
X90642857Y-120104761D01*
X90500000Y-120152380D01*
X90261904Y-120152380D01*
X91166666Y-119152380D02*
X91785714Y-119152380D01*
X91452380Y-119533333D01*
X91595238Y-119533333D01*
X91690476Y-119580952D01*
X91738095Y-119628571D01*
X91785714Y-119723809D01*
X91785714Y-119961904D01*
X91738095Y-120057142D01*
X91690476Y-120104761D01*
X91595238Y-120152380D01*
X91309523Y-120152380D01*
X91214285Y-120104761D01*
X91166666Y-120057142D01*
X88657142Y-107822380D02*
X88323809Y-107346190D01*
X88085714Y-107822380D02*
X88085714Y-106822380D01*
X88466666Y-106822380D01*
X88561904Y-106870000D01*
X88609523Y-106917619D01*
X88657142Y-107012857D01*
X88657142Y-107155714D01*
X88609523Y-107250952D01*
X88561904Y-107298571D01*
X88466666Y-107346190D01*
X88085714Y-107346190D01*
X89609523Y-107822380D02*
X89038095Y-107822380D01*
X89323809Y-107822380D02*
X89323809Y-106822380D01*
X89228571Y-106965238D01*
X89133333Y-107060476D01*
X89038095Y-107108095D01*
X90228571Y-106822380D02*
X90323809Y-106822380D01*
X90419047Y-106870000D01*
X90466666Y-106917619D01*
X90514285Y-107012857D01*
X90561904Y-107203333D01*
X90561904Y-107441428D01*
X90514285Y-107631904D01*
X90466666Y-107727142D01*
X90419047Y-107774761D01*
X90323809Y-107822380D01*
X90228571Y-107822380D01*
X90133333Y-107774761D01*
X90085714Y-107727142D01*
X90038095Y-107631904D01*
X89990476Y-107441428D01*
X89990476Y-107203333D01*
X90038095Y-107012857D01*
X90085714Y-106917619D01*
X90133333Y-106870000D01*
X90228571Y-106822380D01*
X114708333Y-103922380D02*
X114375000Y-103446190D01*
X114136904Y-103922380D02*
X114136904Y-102922380D01*
X114517857Y-102922380D01*
X114613095Y-102970000D01*
X114660714Y-103017619D01*
X114708333Y-103112857D01*
X114708333Y-103255714D01*
X114660714Y-103350952D01*
X114613095Y-103398571D01*
X114517857Y-103446190D01*
X114136904Y-103446190D01*
X115041666Y-102922380D02*
X115708333Y-102922380D01*
X115279761Y-103922380D01*
X114133333Y-113227142D02*
X114085714Y-113274761D01*
X113942857Y-113322380D01*
X113847619Y-113322380D01*
X113704761Y-113274761D01*
X113609523Y-113179523D01*
X113561904Y-113084285D01*
X113514285Y-112893809D01*
X113514285Y-112750952D01*
X113561904Y-112560476D01*
X113609523Y-112465238D01*
X113704761Y-112370000D01*
X113847619Y-112322380D01*
X113942857Y-112322380D01*
X114085714Y-112370000D01*
X114133333Y-112417619D01*
X114466666Y-112322380D02*
X115133333Y-112322380D01*
X114704761Y-113322380D01*
X112204761Y-120713333D02*
X112252380Y-120570476D01*
X112252380Y-120332380D01*
X112204761Y-120237142D01*
X112157142Y-120189523D01*
X112061904Y-120141904D01*
X111966666Y-120141904D01*
X111871428Y-120189523D01*
X111823809Y-120237142D01*
X111776190Y-120332380D01*
X111728571Y-120522857D01*
X111680952Y-120618095D01*
X111633333Y-120665714D01*
X111538095Y-120713333D01*
X111442857Y-120713333D01*
X111347619Y-120665714D01*
X111300000Y-120618095D01*
X111252380Y-120522857D01*
X111252380Y-120284761D01*
X111300000Y-120141904D01*
X111252380Y-119808571D02*
X112252380Y-119570476D01*
X111538095Y-119380000D01*
X112252380Y-119189523D01*
X111252380Y-118951428D01*
X112252380Y-118046666D02*
X112252380Y-118618095D01*
X112252380Y-118332380D02*
X111252380Y-118332380D01*
X111395238Y-118427619D01*
X111490476Y-118522857D01*
X111538095Y-118618095D01*
X88085714Y-109322380D02*
X88085714Y-108322380D01*
X88323809Y-108322380D01*
X88466666Y-108370000D01*
X88561904Y-108465238D01*
X88609523Y-108560476D01*
X88657142Y-108750952D01*
X88657142Y-108893809D01*
X88609523Y-109084285D01*
X88561904Y-109179523D01*
X88466666Y-109274761D01*
X88323809Y-109322380D01*
X88085714Y-109322380D01*
X89609523Y-109322380D02*
X89038095Y-109322380D01*
X89323809Y-109322380D02*
X89323809Y-108322380D01*
X89228571Y-108465238D01*
X89133333Y-108560476D01*
X89038095Y-108608095D01*
X90228571Y-108322380D02*
X90323809Y-108322380D01*
X90419047Y-108370000D01*
X90466666Y-108417619D01*
X90514285Y-108512857D01*
X90561904Y-108703333D01*
X90561904Y-108941428D01*
X90514285Y-109131904D01*
X90466666Y-109227142D01*
X90419047Y-109274761D01*
X90323809Y-109322380D01*
X90228571Y-109322380D01*
X90133333Y-109274761D01*
X90085714Y-109227142D01*
X90038095Y-109131904D01*
X89990476Y-108941428D01*
X89990476Y-108703333D01*
X90038095Y-108512857D01*
X90085714Y-108417619D01*
X90133333Y-108370000D01*
X90228571Y-108322380D01*
X126008333Y-105702380D02*
X125675000Y-105226190D01*
X125436904Y-105702380D02*
X125436904Y-104702380D01*
X125817857Y-104702380D01*
X125913095Y-104750000D01*
X125960714Y-104797619D01*
X126008333Y-104892857D01*
X126008333Y-105035714D01*
X125960714Y-105130952D01*
X125913095Y-105178571D01*
X125817857Y-105226190D01*
X125436904Y-105226190D01*
X126865476Y-104702380D02*
X126675000Y-104702380D01*
X126579761Y-104750000D01*
X126532142Y-104797619D01*
X126436904Y-104940476D01*
X126389285Y-105130952D01*
X126389285Y-105511904D01*
X126436904Y-105607142D01*
X126484523Y-105654761D01*
X126579761Y-105702380D01*
X126770238Y-105702380D01*
X126865476Y-105654761D01*
X126913095Y-105607142D01*
X126960714Y-105511904D01*
X126960714Y-105273809D01*
X126913095Y-105178571D01*
X126865476Y-105130952D01*
X126770238Y-105083333D01*
X126579761Y-105083333D01*
X126484523Y-105130952D01*
X126436904Y-105178571D01*
X126389285Y-105273809D01*
X82868095Y-124262380D02*
X82868095Y-125071904D01*
X82915714Y-125167142D01*
X82963333Y-125214761D01*
X83058571Y-125262380D01*
X83249047Y-125262380D01*
X83344285Y-125214761D01*
X83391904Y-125167142D01*
X83439523Y-125071904D01*
X83439523Y-124262380D01*
X83820476Y-124262380D02*
X84439523Y-124262380D01*
X84106190Y-124643333D01*
X84249047Y-124643333D01*
X84344285Y-124690952D01*
X84391904Y-124738571D01*
X84439523Y-124833809D01*
X84439523Y-125071904D01*
X84391904Y-125167142D01*
X84344285Y-125214761D01*
X84249047Y-125262380D01*
X83963333Y-125262380D01*
X83868095Y-125214761D01*
X83820476Y-125167142D01*
X119213333Y-112977142D02*
X119165714Y-113024761D01*
X119022857Y-113072380D01*
X118927619Y-113072380D01*
X118784761Y-113024761D01*
X118689523Y-112929523D01*
X118641904Y-112834285D01*
X118594285Y-112643809D01*
X118594285Y-112500952D01*
X118641904Y-112310476D01*
X118689523Y-112215238D01*
X118784761Y-112120000D01*
X118927619Y-112072380D01*
X119022857Y-112072380D01*
X119165714Y-112120000D01*
X119213333Y-112167619D01*
X120070476Y-112072380D02*
X119880000Y-112072380D01*
X119784761Y-112120000D01*
X119737142Y-112167619D01*
X119641904Y-112310476D01*
X119594285Y-112500952D01*
X119594285Y-112881904D01*
X119641904Y-112977142D01*
X119689523Y-113024761D01*
X119784761Y-113072380D01*
X119975238Y-113072380D01*
X120070476Y-113024761D01*
X120118095Y-112977142D01*
X120165714Y-112881904D01*
X120165714Y-112643809D01*
X120118095Y-112548571D01*
X120070476Y-112500952D01*
X119975238Y-112453333D01*
X119784761Y-112453333D01*
X119689523Y-112500952D01*
X119641904Y-112548571D01*
X119594285Y-112643809D01*
X91874404Y-109322380D02*
X91874404Y-108322380D01*
X92112500Y-108322380D01*
X92255357Y-108370000D01*
X92350595Y-108465238D01*
X92398214Y-108560476D01*
X92445833Y-108750952D01*
X92445833Y-108893809D01*
X92398214Y-109084285D01*
X92350595Y-109179523D01*
X92255357Y-109274761D01*
X92112500Y-109322380D01*
X91874404Y-109322380D01*
X92922023Y-109322380D02*
X93112500Y-109322380D01*
X93207738Y-109274761D01*
X93255357Y-109227142D01*
X93350595Y-109084285D01*
X93398214Y-108893809D01*
X93398214Y-108512857D01*
X93350595Y-108417619D01*
X93302976Y-108370000D01*
X93207738Y-108322380D01*
X93017261Y-108322380D01*
X92922023Y-108370000D01*
X92874404Y-108417619D01*
X92826785Y-108512857D01*
X92826785Y-108750952D01*
X92874404Y-108846190D01*
X92922023Y-108893809D01*
X93017261Y-108941428D01*
X93207738Y-108941428D01*
X93302976Y-108893809D01*
X93350595Y-108846190D01*
X93398214Y-108750952D01*
X111207142Y-109266666D02*
X111254761Y-109314285D01*
X111302380Y-109457142D01*
X111302380Y-109552380D01*
X111254761Y-109695238D01*
X111159523Y-109790476D01*
X111064285Y-109838095D01*
X110873809Y-109885714D01*
X110730952Y-109885714D01*
X110540476Y-109838095D01*
X110445238Y-109790476D01*
X110350000Y-109695238D01*
X110302380Y-109552380D01*
X110302380Y-109457142D01*
X110350000Y-109314285D01*
X110397619Y-109266666D01*
X110635714Y-108409523D02*
X111302380Y-108409523D01*
X110254761Y-108647619D02*
X110969047Y-108885714D01*
X110969047Y-108266666D01*
D12*
X117157742Y-111547500D02*
X117632258Y-111547500D01*
X117157742Y-112592500D02*
X117632258Y-112592500D01*
X98700000Y-109060000D02*
X98050000Y-109060000D01*
X98700000Y-109060000D02*
X99350000Y-109060000D01*
X98700000Y-105940000D02*
X97025000Y-105940000D01*
X98700000Y-105940000D02*
X99350000Y-105940000D01*
X108162742Y-118922500D02*
X108637258Y-118922500D01*
X108162742Y-117877500D02*
X108637258Y-117877500D01*
X122720000Y-105945000D02*
X120435000Y-105945000D01*
X120435000Y-105945000D02*
X120435000Y-107415000D01*
X120435000Y-107415000D02*
X122720000Y-107415000D01*
X89062742Y-107822500D02*
X89537258Y-107822500D01*
X89062742Y-106777500D02*
X89537258Y-106777500D01*
X115400000Y-110870000D02*
X115700000Y-110870000D01*
X115700000Y-110870000D02*
X115700000Y-107570000D01*
X113200000Y-110870000D02*
X112900000Y-110870000D01*
X115700000Y-107570000D02*
X115400000Y-107570000D01*
X112900000Y-107570000D02*
X113200000Y-107570000D01*
X112900000Y-110870000D02*
X112900000Y-107570000D01*
X88200000Y-118100000D02*
X88200000Y-118900000D01*
X89500000Y-118900000D02*
X88200000Y-118900000D01*
X89500000Y-118100000D02*
X88200000Y-118100000D01*
X120000000Y-108800000D02*
X120000000Y-109600000D01*
X121300000Y-108800000D02*
X120000000Y-108800000D01*
X121300000Y-109600000D02*
X120000000Y-109600000D01*
X92362742Y-107822500D02*
X92837258Y-107822500D01*
X92362742Y-106777500D02*
X92837258Y-106777500D01*
X103300000Y-109060000D02*
X102650000Y-109060000D01*
X103300000Y-105940000D02*
X101625000Y-105940000D01*
X103300000Y-105940000D02*
X103950000Y-105940000D01*
X103300000Y-109060000D02*
X103950000Y-109060000D01*
X124062742Y-109377500D02*
X124537258Y-109377500D01*
X124062742Y-110422500D02*
X124537258Y-110422500D01*
X97710000Y-124540000D02*
X97710000Y-124800000D01*
X90090000Y-122260000D02*
X90090000Y-120490000D01*
X97710000Y-120490000D02*
X97710000Y-122260000D01*
X90090000Y-124800000D02*
X90090000Y-124540000D01*
X90090000Y-120490000D02*
X90470000Y-120490000D01*
X97710000Y-120490000D02*
X97330000Y-120490000D01*
X118700000Y-122250000D02*
X121850000Y-122250000D01*
X118700000Y-123950000D02*
X121850000Y-123950000D01*
X118700000Y-122250000D02*
X118700000Y-123950000D01*
X91810000Y-116135000D02*
X91810000Y-116610000D01*
X87590000Y-116135000D02*
X87590000Y-116610000D01*
X91810000Y-112865000D02*
X91810000Y-112390000D01*
X87590000Y-112390000D02*
X88065000Y-112390000D01*
X87590000Y-112865000D02*
X87590000Y-112390000D01*
X91810000Y-116610000D02*
X91335000Y-116610000D01*
X91810000Y-112390000D02*
X91335000Y-112390000D01*
X92862258Y-109322500D02*
X92387742Y-109322500D01*
X92862258Y-108277500D02*
X92387742Y-108277500D01*
X97662742Y-110922500D02*
X98137258Y-110922500D01*
X97662742Y-109877500D02*
X98137258Y-109877500D01*
X90500000Y-118100000D02*
X91800000Y-118100000D01*
X91800000Y-118900000D02*
X91800000Y-118100000D01*
X90500000Y-118900000D02*
X91800000Y-118900000D01*
X89062742Y-109322500D02*
X89537258Y-109322500D01*
X89062742Y-108277500D02*
X89537258Y-108277500D01*
X114637742Y-104377500D02*
X115112258Y-104377500D01*
X114637742Y-105422500D02*
X115112258Y-105422500D01*
X114159420Y-114810000D02*
X114440580Y-114810000D01*
X114159420Y-113790000D02*
X114440580Y-113790000D01*
X115700000Y-117730000D02*
X115400000Y-117730000D01*
X112900000Y-121030000D02*
X112900000Y-117730000D01*
X113200000Y-121030000D02*
X112900000Y-121030000D01*
X115400000Y-121030000D02*
X115700000Y-121030000D01*
X112900000Y-117730000D02*
X113200000Y-117730000D01*
X115700000Y-121030000D02*
X115700000Y-117730000D01*
X90100000Y-109565000D02*
X87815000Y-109565000D01*
X87815000Y-111035000D02*
X90100000Y-111035000D01*
X87815000Y-109565000D02*
X87815000Y-111035000D01*
X125937742Y-107202500D02*
X126412258Y-107202500D01*
X125937742Y-106157500D02*
X126412258Y-106157500D01*
X65755000Y-123320000D02*
X65755000Y-123700000D01*
X85080000Y-105080000D02*
X85080000Y-106080000D01*
X59335000Y-105080000D02*
X65755000Y-105080000D01*
X84300000Y-123320000D02*
X85080000Y-123320000D01*
X59335000Y-123320000D02*
X59335000Y-105080000D01*
X59335000Y-123320000D02*
X65755000Y-123320000D01*
X85080000Y-123320000D02*
X85080000Y-122320000D01*
X84300000Y-105080000D02*
X85080000Y-105080000D01*
X119118748Y-113565000D02*
X119641252Y-113565000D01*
X119118748Y-115035000D02*
X119641252Y-115035000D01*
X93412500Y-109565000D02*
X91127500Y-109565000D01*
X91127500Y-109565000D02*
X91127500Y-111035000D01*
X91127500Y-111035000D02*
X93412500Y-111035000D01*
%LPC*%
D13*
X95200000Y-114300000D03*
X133200000Y-114300000D03*
X133200000Y-106100000D03*
D14*
X102100000Y-114300000D03*
X126300000Y-114300000D03*
D15*
X118220000Y-112070000D03*
X116570000Y-112070000D03*
D16*
X99637500Y-107500000D03*
X97762500Y-108450000D03*
X97762500Y-106550000D03*
D15*
X107575000Y-118400000D03*
X109225000Y-118400000D03*
D17*
X131020000Y-114000000D03*
X130380000Y-114000000D03*
D18*
X122707500Y-106680000D03*
X121132500Y-106680000D03*
D15*
X90125000Y-107300000D03*
X88475000Y-107300000D03*
D19*
X114300000Y-107520000D03*
X114300000Y-110920000D03*
D20*
X89420000Y-118500000D03*
X88580000Y-118500000D03*
X121220000Y-109200000D03*
X120380000Y-109200000D03*
D17*
X131220000Y-116600000D03*
X130580000Y-116600000D03*
D15*
X93425000Y-107300000D03*
X91775000Y-107300000D03*
D16*
X104237500Y-107500000D03*
X102362500Y-108450000D03*
X102362500Y-106550000D03*
D15*
X125125000Y-109900000D03*
X123475000Y-109900000D03*
D21*
X91412500Y-120825000D03*
D22*
X92750000Y-123400000D03*
D21*
X96387500Y-120825000D03*
D23*
X90525000Y-123400000D03*
D24*
X95450000Y-123400000D03*
D23*
X97275000Y-123400000D03*
D25*
X95200000Y-120740000D03*
X94550000Y-120740000D03*
X93900000Y-120740000D03*
X93250000Y-120740000D03*
X92600000Y-120740000D03*
D26*
X121850000Y-123100000D03*
X119350000Y-123100000D03*
D27*
X89700000Y-114500000D03*
D28*
X87762500Y-115750000D03*
X87762500Y-115250000D03*
X87762500Y-114750000D03*
X87762500Y-114250000D03*
X87762500Y-113750000D03*
X87762500Y-113250000D03*
D29*
X88450000Y-112562500D03*
X88950000Y-112562500D03*
X89450000Y-112562500D03*
X89950000Y-112562500D03*
X90450000Y-112562500D03*
X90950000Y-112562500D03*
D28*
X91637500Y-113250000D03*
X91637500Y-113750000D03*
X91637500Y-114250000D03*
X91637500Y-114750000D03*
X91637500Y-115250000D03*
X91637500Y-115750000D03*
D29*
X90950000Y-116437500D03*
X90450000Y-116437500D03*
X89950000Y-116437500D03*
X89450000Y-116437500D03*
X88950000Y-116437500D03*
X88450000Y-116437500D03*
D30*
X91800000Y-108800000D03*
X93450000Y-108800000D03*
D15*
X98725000Y-110400000D03*
X97075000Y-110400000D03*
D31*
X91420000Y-118500000D03*
X90580000Y-118500000D03*
D32*
X145600000Y-119600000D03*
D15*
X88475000Y-108800000D03*
X90125000Y-108800000D03*
X115700000Y-104900000D03*
X114050000Y-104900000D03*
D33*
X115075000Y-114300000D03*
X113525000Y-114300000D03*
D32*
X145600000Y-108800000D03*
D19*
X114300000Y-117680000D03*
X114300000Y-121080000D03*
D18*
X90087500Y-110300000D03*
X88512500Y-110300000D03*
D15*
X127000000Y-106680000D03*
X125350000Y-106680000D03*
D34*
X74445000Y-115200000D03*
D35*
X66945000Y-105700000D03*
X68215000Y-105700000D03*
X69485000Y-105700000D03*
X70755000Y-105700000D03*
X72025000Y-105700000D03*
X73295000Y-105700000D03*
X74565000Y-105700000D03*
X75835000Y-105700000D03*
X77105000Y-105700000D03*
X78375000Y-105700000D03*
X79645000Y-105700000D03*
X80915000Y-105700000D03*
X82185000Y-105700000D03*
X83455000Y-105700000D03*
D36*
X84455000Y-108485000D03*
X84455000Y-109755000D03*
X84455000Y-111025000D03*
X84455000Y-112295000D03*
X84455000Y-113565000D03*
X84455000Y-114835000D03*
X84455000Y-116105000D03*
X84455000Y-117375000D03*
X84455000Y-118645000D03*
X84455000Y-119915000D03*
D35*
X83455000Y-122700000D03*
X82185000Y-122700000D03*
X80915000Y-122700000D03*
X79645000Y-122700000D03*
X78375000Y-122700000D03*
X77105000Y-122700000D03*
X75835000Y-122700000D03*
X74565000Y-122700000D03*
X73295000Y-122700000D03*
X72025000Y-122700000D03*
X70755000Y-122700000D03*
X69485000Y-122700000D03*
X68215000Y-122700000D03*
X66945000Y-122700000D03*
D37*
X120330000Y-114300000D03*
X118430000Y-114300000D03*
D18*
X93400000Y-110300000D03*
X91825000Y-110300000D03*
D38*
X111900000Y-108780000D03*
X111900000Y-109420000D03*
M02*
