%TF.GenerationSoftware,KiCad,Pcbnew,(6.0.4)*%
%TF.CreationDate,2023-01-03T21:15:19+00:00*%
%TF.ProjectId,soil-moisture-sensor,736f696c-2d6d-46f6-9973-747572652d73,%%version%%*%
%TF.SameCoordinates,Original*%
%TF.FileFunction,Copper,L4,Bot*%
%TF.FilePolarity,Positive*%
%FSLAX46Y46*%
G04 Gerber Fmt 4.6, Leading zero omitted, Abs format (unit mm)*
G04 Created by KiCad (PCBNEW (6.0.4)) date 2023-01-03 21:15:19*
%MOMM*%
%LPD*%
G01*
G04 APERTURE LIST*
G04 Aperture macros list*
%AMRoundRect*
0 Rectangle with rounded corners*
0 $1 Rounding radius*
0 $2 $3 $4 $5 $6 $7 $8 $9 X,Y pos of 4 corners*
0 Add a 4 corners polygon primitive as box body*
4,1,4,$2,$3,$4,$5,$6,$7,$8,$9,$2,$3,0*
0 Add four circle primitives for the rounded corners*
1,1,$1+$1,$2,$3*
1,1,$1+$1,$4,$5*
1,1,$1+$1,$6,$7*
1,1,$1+$1,$8,$9*
0 Add four rect primitives between the rounded corners*
20,1,$1+$1,$2,$3,$4,$5,0*
20,1,$1+$1,$4,$5,$6,$7,0*
20,1,$1+$1,$6,$7,$8,$9,0*
20,1,$1+$1,$8,$9,$2,$3,0*%
G04 Aperture macros list end*
%TA.AperFunction,ComponentPad*%
%ADD10R,1.700000X1.700000*%
%TD*%
%TA.AperFunction,ComponentPad*%
%ADD11O,1.700000X1.700000*%
%TD*%
%TA.AperFunction,ConnectorPad*%
%ADD12RoundRect,4.750000X-31.125000X0.000000X31.125000X0.000000X31.125000X0.000000X-31.125000X0.000000X0*%
%TD*%
%TA.AperFunction,ComponentPad*%
%ADD13C,3.500000*%
%TD*%
%TA.AperFunction,ViaPad*%
%ADD14C,0.400000*%
%TD*%
%TA.AperFunction,Conductor*%
%ADD15C,0.127000*%
%TD*%
%TA.AperFunction,Conductor*%
%ADD16C,0.150000*%
%TD*%
%TA.AperFunction,Conductor*%
%ADD17C,0.400000*%
%TD*%
G04 APERTURE END LIST*
D10*
X115160000Y-105300000D03*
D11*
X117700000Y-105300000D03*
X120240000Y-105300000D03*
X122780000Y-105300000D03*
D12*
X199474999Y-114200000D03*
D13*
X138287500Y-114100000D03*
X100287500Y-114100000D03*
D14*
X93600000Y-118900000D03*
X87698672Y-114399501D03*
X81500000Y-110837000D03*
X87700000Y-113800000D03*
X82300000Y-111200000D03*
X84800000Y-122100000D03*
X103500000Y-122200000D03*
X96050000Y-116800000D03*
X81900000Y-124700000D03*
X106650000Y-107850000D03*
X92900000Y-104200000D03*
X89400000Y-122450000D03*
X85400000Y-122900000D03*
X89100000Y-120300000D03*
X74725000Y-111925000D03*
X97350000Y-109175000D03*
X85975000Y-118450000D03*
X95300000Y-119450000D03*
X89750500Y-117800000D03*
X91055027Y-118951373D03*
X86000000Y-112600000D03*
X103150000Y-123350000D03*
X89150000Y-121050000D03*
X85250000Y-107250000D03*
X68700000Y-120900000D03*
X78400000Y-109875000D03*
X99150000Y-119750000D03*
X89468437Y-108473450D03*
X93850000Y-112624000D03*
X96075000Y-111050000D03*
X96225000Y-112149500D03*
X87850000Y-112775000D03*
X87750000Y-115225000D03*
X88727713Y-118729724D03*
X92025382Y-118324500D03*
X92622224Y-112623216D03*
X93473301Y-109273301D03*
X89450000Y-109250000D03*
X92175000Y-112025000D03*
X93250000Y-110699500D03*
X90775000Y-111999500D03*
X90675000Y-104625000D03*
X88725500Y-116750000D03*
X93475000Y-116350000D03*
X101325000Y-108100000D03*
X76400000Y-120425000D03*
X88500989Y-110475000D03*
X98922691Y-110077309D03*
X96416953Y-109341953D03*
X78175000Y-118150000D03*
X88024980Y-116370667D03*
X93228604Y-114060935D03*
D15*
X87700000Y-114398173D02*
X87698672Y-114399501D01*
X87700000Y-114300000D02*
X87700000Y-114398173D01*
X84745202Y-114300000D02*
X87700000Y-114300000D01*
X81500000Y-111054798D02*
X84745202Y-114300000D01*
X81500000Y-110837000D02*
X81500000Y-111054798D01*
X84900000Y-113800000D02*
X87700000Y-113800000D01*
X82300000Y-111200000D02*
X84900000Y-113800000D01*
X84913011Y-121986989D02*
X84850000Y-122050000D01*
X84800000Y-122100000D02*
X84850000Y-122050000D01*
X103286989Y-121986989D02*
X84913011Y-121986989D01*
X103500000Y-122200000D02*
X103286989Y-121986989D01*
D16*
X88725500Y-116750000D02*
X88925500Y-116950000D01*
X88925500Y-116950000D02*
X92875000Y-116950000D01*
X92875000Y-116950000D02*
X93475000Y-116350000D01*
X90439065Y-114060935D02*
X93228604Y-114060935D01*
X88129333Y-116370667D02*
X90439065Y-114060935D01*
X88024980Y-116370667D02*
X88129333Y-116370667D01*
X78375000Y-111925000D02*
X78675000Y-111625000D01*
X74725000Y-111925000D02*
X78375000Y-111925000D01*
D17*
X143275000Y-114200000D02*
X134125000Y-123350000D01*
X134125000Y-123350000D02*
X103150000Y-123350000D01*
X146200000Y-114200000D02*
X199474999Y-114200000D01*
X146200000Y-114200000D02*
X143275000Y-114200000D01*
D16*
X96821047Y-119750000D02*
X94396546Y-117325499D01*
X85850499Y-117325499D02*
X78400000Y-109875000D01*
X94396546Y-117325499D02*
X85850499Y-117325499D01*
X99150000Y-119750000D02*
X96821047Y-119750000D01*
X89468437Y-108473450D02*
X88975489Y-108966398D01*
X88975489Y-108966398D02*
X88975489Y-112550489D01*
X88975489Y-112550489D02*
X89675000Y-113250000D01*
X93224000Y-113250000D02*
X93850000Y-112624000D01*
X89675000Y-113250000D02*
X93224000Y-113250000D01*
X96225000Y-112149500D02*
X96225000Y-111200000D01*
X96225000Y-111200000D02*
X96075000Y-111050000D01*
X88100000Y-115225000D02*
X88475000Y-114850000D01*
X88475000Y-114850000D02*
X88525000Y-114800000D01*
X88525000Y-114800000D02*
X88525000Y-113400000D01*
X87750000Y-115225000D02*
X88100000Y-115225000D01*
X87900000Y-112775000D02*
X87850000Y-112775000D01*
X88525000Y-113400000D02*
X87900000Y-112775000D01*
X88727713Y-118729724D02*
X89091323Y-118729724D01*
X89546047Y-118275000D02*
X91975882Y-118275000D01*
X89091323Y-118729724D02*
X89546047Y-118275000D01*
X91975882Y-118275000D02*
X92025382Y-118324500D01*
X93724511Y-111520929D02*
X93724511Y-109524511D01*
X93724511Y-109524511D02*
X93473301Y-109273301D01*
X92622224Y-112623216D02*
X93724511Y-111520929D01*
X92175000Y-112025000D02*
X91600000Y-112600000D01*
X89450000Y-111525000D02*
X89450000Y-109250000D01*
X90525000Y-112600000D02*
X89450000Y-111525000D01*
X91600000Y-112600000D02*
X90525000Y-112600000D01*
X90775000Y-111999500D02*
X90775000Y-111050000D01*
X91125500Y-110699500D02*
X93250000Y-110699500D01*
X90775000Y-111050000D02*
X91125500Y-110699500D01*
X93475000Y-116350000D02*
X94750000Y-115075000D01*
X92159670Y-104625000D02*
X90675000Y-104625000D01*
X94750000Y-115075000D02*
X94750000Y-107215330D01*
X94750000Y-107215330D02*
X92159670Y-104625000D01*
X77600000Y-118150000D02*
X78175000Y-118150000D01*
X76400000Y-120425000D02*
X76400000Y-119350000D01*
X76400000Y-119350000D02*
X77600000Y-118150000D01*
X89775000Y-107025000D02*
X89775000Y-104575000D01*
X90199511Y-104150489D02*
X92179442Y-104150489D01*
X88500989Y-110475000D02*
X88500989Y-108299011D01*
X92179442Y-104150489D02*
X96416953Y-108388000D01*
X98922691Y-110077309D02*
X99347691Y-110077309D01*
X88500989Y-108299011D02*
X89775000Y-107025000D01*
X96416953Y-108388000D02*
X96416953Y-109341953D01*
X99347691Y-110077309D02*
X101325000Y-108100000D01*
X89775000Y-104575000D02*
X90199511Y-104150489D01*
%TA.AperFunction,Conductor*%
G36*
X232172052Y-103200501D02*
G01*
X232292936Y-103200501D01*
X232312317Y-103202001D01*
X232318691Y-103202993D01*
X232326621Y-103204228D01*
X232326623Y-103204228D01*
X232335493Y-103205609D01*
X232344395Y-103204445D01*
X232344398Y-103204445D01*
X232356760Y-103202828D01*
X232377806Y-103201852D01*
X232447119Y-103204445D01*
X232673206Y-103212903D01*
X232682602Y-103213607D01*
X232906847Y-103238871D01*
X233007616Y-103250225D01*
X233016921Y-103251628D01*
X233338266Y-103312428D01*
X233347452Y-103314524D01*
X233663363Y-103399170D01*
X233672368Y-103401947D01*
X233981085Y-103509970D01*
X233989856Y-103513413D01*
X234289615Y-103644194D01*
X234298104Y-103648282D01*
X234552822Y-103782903D01*
X234572981Y-103796171D01*
X234576525Y-103799026D01*
X234576528Y-103799028D01*
X234583516Y-103804656D01*
X234591804Y-103808098D01*
X234591805Y-103808098D01*
X234612333Y-103816622D01*
X234627013Y-103823870D01*
X248807543Y-112011004D01*
X248823580Y-112021994D01*
X248841846Y-112036707D01*
X248850131Y-112040147D01*
X248850134Y-112040149D01*
X248857812Y-112043337D01*
X248878731Y-112054433D01*
X249086461Y-112191060D01*
X249098214Y-112199809D01*
X249243579Y-112321784D01*
X249306096Y-112374241D01*
X249309641Y-112377216D01*
X249320290Y-112387263D01*
X249509701Y-112588027D01*
X249519099Y-112599227D01*
X249649957Y-112775000D01*
X249683921Y-112820622D01*
X249691972Y-112832863D01*
X249814447Y-113044996D01*
X249829964Y-113071873D01*
X249836540Y-113084966D01*
X249944460Y-113335151D01*
X249945852Y-113338379D01*
X249950863Y-113352144D01*
X250029234Y-113613921D01*
X250030020Y-113616547D01*
X250033398Y-113630799D01*
X250079206Y-113890595D01*
X250081323Y-113902599D01*
X250083024Y-113917152D01*
X250099071Y-114192674D01*
X250099071Y-114207326D01*
X250083655Y-114472020D01*
X250083024Y-114482848D01*
X250081324Y-114497396D01*
X250033434Y-114768998D01*
X250033399Y-114769195D01*
X250030021Y-114783447D01*
X249969253Y-114986428D01*
X249950864Y-115047852D01*
X249945853Y-115061618D01*
X249882655Y-115208126D01*
X249836540Y-115315033D01*
X249829964Y-115328126D01*
X249756426Y-115455499D01*
X249691972Y-115567136D01*
X249683921Y-115579378D01*
X249519099Y-115800773D01*
X249509701Y-115811973D01*
X249320290Y-116012737D01*
X249309641Y-116022784D01*
X249098214Y-116200191D01*
X249086461Y-116208940D01*
X248884729Y-116341622D01*
X248860960Y-116353861D01*
X248852545Y-116357116D01*
X248845417Y-116362575D01*
X248845418Y-116362575D01*
X248827774Y-116376089D01*
X248814158Y-116385178D01*
X246599127Y-117664027D01*
X234633632Y-124572309D01*
X234616095Y-124580702D01*
X234602585Y-124585928D01*
X234602582Y-124585930D01*
X234594214Y-124589167D01*
X234587089Y-124594624D01*
X234587086Y-124594626D01*
X234577189Y-124602206D01*
X234559450Y-124613574D01*
X234298096Y-124751702D01*
X234289607Y-124755790D01*
X233989845Y-124886573D01*
X233981073Y-124890016D01*
X233672365Y-124998035D01*
X233663361Y-125000812D01*
X233347460Y-125085455D01*
X233338274Y-125087551D01*
X233016914Y-125148354D01*
X233007597Y-125149759D01*
X232682602Y-125186375D01*
X232673205Y-125187079D01*
X232477749Y-125194391D01*
X232385125Y-125197856D01*
X232361035Y-125196444D01*
X232358758Y-125196090D01*
X232356719Y-125195772D01*
X232356717Y-125195772D01*
X232347847Y-125194391D01*
X232338945Y-125195555D01*
X232338940Y-125195555D01*
X232316911Y-125198436D01*
X232300575Y-125199500D01*
X78215492Y-125199500D01*
X78147371Y-125179498D01*
X78100878Y-125125842D01*
X78089492Y-125073500D01*
X78089492Y-122100000D01*
X84244750Y-122100000D01*
X84263670Y-122243709D01*
X84319139Y-122377625D01*
X84407379Y-122492621D01*
X84522375Y-122580861D01*
X84656291Y-122636330D01*
X84800000Y-122655250D01*
X84943709Y-122636330D01*
X85077625Y-122580861D01*
X85192621Y-122492621D01*
X85225108Y-122450283D01*
X85282445Y-122408417D01*
X85325069Y-122400989D01*
X102903392Y-122400989D01*
X102971513Y-122420991D01*
X103012511Y-122463988D01*
X103015977Y-122469991D01*
X103019139Y-122477625D01*
X103107379Y-122592621D01*
X103112134Y-122596269D01*
X103145657Y-122657661D01*
X103140592Y-122728476D01*
X103098045Y-122785312D01*
X103038983Y-122809366D01*
X103021721Y-122811639D01*
X103006291Y-122813670D01*
X103005064Y-122814178D01*
X103000568Y-122814794D01*
X102934174Y-122843525D01*
X102932414Y-122844270D01*
X102879999Y-122865981D01*
X102872375Y-122869139D01*
X102869000Y-122871728D01*
X102862145Y-122874695D01*
X102855474Y-122880097D01*
X102809396Y-122917410D01*
X102806807Y-122919451D01*
X102763927Y-122952354D01*
X102763925Y-122952356D01*
X102757379Y-122957379D01*
X102753931Y-122961872D01*
X102753079Y-122962640D01*
X102751608Y-122964207D01*
X102744930Y-122969614D01*
X102739955Y-122976615D01*
X102707882Y-123021746D01*
X102705152Y-123025442D01*
X102669139Y-123072375D01*
X102666141Y-123079611D01*
X102663452Y-123083800D01*
X102662535Y-123085555D01*
X102657558Y-123092558D01*
X102654648Y-123100641D01*
X102654647Y-123100643D01*
X102637162Y-123149210D01*
X102635020Y-123154747D01*
X102613670Y-123206291D01*
X102612591Y-123214482D01*
X102610840Y-123221018D01*
X102609838Y-123224213D01*
X102609376Y-123226389D01*
X102606467Y-123234468D01*
X102605838Y-123243034D01*
X102602325Y-123290865D01*
X102601585Y-123298082D01*
X102594750Y-123350000D01*
X102595828Y-123358188D01*
X102595828Y-123366448D01*
X102595529Y-123366448D01*
X102595614Y-123369419D01*
X102596049Y-123376328D01*
X102595420Y-123384891D01*
X102597118Y-123393312D01*
X102605875Y-123436745D01*
X102607283Y-123445201D01*
X102613670Y-123493709D01*
X102616829Y-123501335D01*
X102618085Y-123506022D01*
X102623285Y-123523082D01*
X102625233Y-123532743D01*
X102647602Y-123576645D01*
X102651744Y-123585630D01*
X102669139Y-123627625D01*
X102674169Y-123634180D01*
X102675302Y-123635657D01*
X102687604Y-123655154D01*
X102693707Y-123667132D01*
X102699521Y-123673455D01*
X102699524Y-123673459D01*
X102724627Y-123700759D01*
X102731839Y-123709339D01*
X102752347Y-123736065D01*
X102752353Y-123736071D01*
X102757379Y-123742621D01*
X102768239Y-123750955D01*
X102784269Y-123765617D01*
X102795799Y-123778156D01*
X102803104Y-123782685D01*
X102803105Y-123782686D01*
X102831565Y-123800332D01*
X102841874Y-123807456D01*
X102872375Y-123830861D01*
X102880003Y-123834020D01*
X102880004Y-123834021D01*
X102888293Y-123837454D01*
X102906476Y-123846778D01*
X102923986Y-123857635D01*
X102932240Y-123860033D01*
X102960954Y-123868375D01*
X102974022Y-123872964D01*
X102998661Y-123883170D01*
X102998664Y-123883171D01*
X103006291Y-123886330D01*
X103014472Y-123887407D01*
X103014475Y-123887408D01*
X103026902Y-123889044D01*
X103045596Y-123892967D01*
X103068825Y-123899715D01*
X103076308Y-123900264D01*
X103077208Y-123900331D01*
X103077219Y-123900331D01*
X103079515Y-123900500D01*
X103105662Y-123900500D01*
X103122109Y-123901578D01*
X103150000Y-123905250D01*
X103158188Y-123904172D01*
X103177891Y-123901578D01*
X103194338Y-123900500D01*
X134110007Y-123900500D01*
X134115284Y-123900611D01*
X134177294Y-123903210D01*
X134188848Y-123900500D01*
X134219662Y-123893273D01*
X134231333Y-123891110D01*
X134258357Y-123887408D01*
X134274432Y-123885206D01*
X134288230Y-123879235D01*
X134309499Y-123872201D01*
X134315775Y-123870729D01*
X134324136Y-123868768D01*
X134331661Y-123864631D01*
X134331664Y-123864630D01*
X134362268Y-123847805D01*
X134372913Y-123842589D01*
X134412855Y-123825305D01*
X134424541Y-123815842D01*
X134443126Y-123803354D01*
X134450518Y-123799290D01*
X134456308Y-123796107D01*
X134464422Y-123789103D01*
X134488958Y-123764567D01*
X134498759Y-123755742D01*
X134523392Y-123735794D01*
X134523393Y-123735793D01*
X134530070Y-123730386D01*
X134535043Y-123723388D01*
X134535048Y-123723383D01*
X134540968Y-123715052D01*
X134554579Y-123698946D01*
X138684240Y-119569285D01*
X143644759Y-119569285D01*
X143645003Y-119573720D01*
X143645003Y-119573724D01*
X143656827Y-119788558D01*
X143659938Y-119845087D01*
X143691392Y-120003218D01*
X143700996Y-120051500D01*
X143713825Y-120115999D01*
X143805347Y-120376616D01*
X143932678Y-120621737D01*
X143935261Y-120625352D01*
X143935265Y-120625358D01*
X144090687Y-120842850D01*
X144093275Y-120846471D01*
X144283936Y-121046335D01*
X144287431Y-121049091D01*
X144287433Y-121049092D01*
X144335469Y-121086960D01*
X144500856Y-121217341D01*
X144562559Y-121253181D01*
X144735853Y-121353839D01*
X144735859Y-121353842D01*
X144739707Y-121356077D01*
X144995723Y-121459774D01*
X145000036Y-121460845D01*
X145000041Y-121460847D01*
X145259475Y-121525291D01*
X145259480Y-121525292D01*
X145263796Y-121526364D01*
X145268224Y-121526818D01*
X145268226Y-121526818D01*
X145343339Y-121534514D01*
X145499370Y-121550500D01*
X145670362Y-121550500D01*
X145875530Y-121535973D01*
X145879885Y-121535035D01*
X145879888Y-121535035D01*
X146141215Y-121478773D01*
X146141217Y-121478773D01*
X146145562Y-121477837D01*
X146404709Y-121382233D01*
X146426853Y-121370285D01*
X146643884Y-121253181D01*
X146647800Y-121251068D01*
X146869984Y-121086960D01*
X147066829Y-120893183D01*
X147234406Y-120673604D01*
X147243466Y-120657427D01*
X147367197Y-120436490D01*
X147367198Y-120436487D01*
X147369373Y-120432604D01*
X147469036Y-120174991D01*
X147471347Y-120165023D01*
X147504962Y-120019996D01*
X147531407Y-119905905D01*
X147555241Y-119630715D01*
X147554997Y-119626276D01*
X147540307Y-119359356D01*
X147540306Y-119359349D01*
X147540062Y-119354913D01*
X147498258Y-119144747D01*
X147487043Y-119088364D01*
X147487042Y-119088362D01*
X147486175Y-119084001D01*
X147394653Y-118823384D01*
X147267322Y-118578263D01*
X147264739Y-118574648D01*
X147264735Y-118574642D01*
X147109313Y-118357150D01*
X147109310Y-118357146D01*
X147106725Y-118353529D01*
X146941941Y-118180791D01*
X146919136Y-118156885D01*
X146919134Y-118156883D01*
X146916064Y-118153665D01*
X146901029Y-118141812D01*
X146702639Y-117985414D01*
X146702637Y-117985413D01*
X146699144Y-117982659D01*
X146535287Y-117887483D01*
X146464147Y-117846161D01*
X146464141Y-117846158D01*
X146460293Y-117843923D01*
X146246626Y-117757379D01*
X146208403Y-117741897D01*
X146208401Y-117741896D01*
X146204277Y-117740226D01*
X146199964Y-117739155D01*
X146199959Y-117739153D01*
X145940525Y-117674709D01*
X145940520Y-117674708D01*
X145936204Y-117673636D01*
X145931776Y-117673182D01*
X145931774Y-117673182D01*
X145851573Y-117664965D01*
X145700630Y-117649500D01*
X145529638Y-117649500D01*
X145324470Y-117664027D01*
X145320115Y-117664965D01*
X145320112Y-117664965D01*
X145058785Y-117721227D01*
X145058783Y-117721227D01*
X145054438Y-117722163D01*
X144795291Y-117817767D01*
X144791373Y-117819881D01*
X144717062Y-117859977D01*
X144552200Y-117948932D01*
X144330016Y-118113040D01*
X144326837Y-118116169D01*
X144326834Y-118116172D01*
X144233388Y-118208162D01*
X144133171Y-118306817D01*
X143965594Y-118526396D01*
X143963416Y-118530285D01*
X143841120Y-118748660D01*
X143830627Y-118767396D01*
X143829023Y-118771541D01*
X143829022Y-118771544D01*
X143787160Y-118879750D01*
X143730964Y-119025009D01*
X143729961Y-119029334D01*
X143729960Y-119029339D01*
X143702500Y-119147812D01*
X143668593Y-119294095D01*
X143644759Y-119569285D01*
X138684240Y-119569285D01*
X143466119Y-114787405D01*
X143528431Y-114753379D01*
X143555214Y-114750500D01*
X161506131Y-114750500D01*
X161574252Y-114770502D01*
X161620745Y-114824158D01*
X161631358Y-114862564D01*
X161639211Y-114933126D01*
X161668745Y-115198520D01*
X161762419Y-115696661D01*
X161763023Y-115698922D01*
X161763025Y-115698932D01*
X161794506Y-115816830D01*
X161893180Y-116186377D01*
X161893955Y-116188596D01*
X161893958Y-116188606D01*
X162010387Y-116522007D01*
X162060291Y-116664909D01*
X162262812Y-117129565D01*
X162499602Y-117577729D01*
X162500857Y-117579725D01*
X162500860Y-117579731D01*
X162559881Y-117673636D01*
X162769327Y-118006876D01*
X162770736Y-118008784D01*
X162770739Y-118008788D01*
X162948062Y-118248863D01*
X163070471Y-118414592D01*
X163072010Y-118416378D01*
X163364898Y-118756291D01*
X163401337Y-118798581D01*
X163403006Y-118800247D01*
X163751178Y-119147812D01*
X163760062Y-119156681D01*
X164144628Y-119486876D01*
X164146513Y-119488263D01*
X164146519Y-119488268D01*
X164306895Y-119606291D01*
X164552869Y-119787307D01*
X164982487Y-120056284D01*
X165208112Y-120174991D01*
X165423148Y-120288127D01*
X165431062Y-120292291D01*
X165433242Y-120293236D01*
X165433249Y-120293240D01*
X165744969Y-120428456D01*
X165896071Y-120494000D01*
X166112448Y-120569139D01*
X166372665Y-120659502D01*
X166372674Y-120659505D01*
X166374895Y-120660276D01*
X166425162Y-120673604D01*
X166862557Y-120789578D01*
X166862570Y-120789581D01*
X166864837Y-120790182D01*
X166867162Y-120790615D01*
X167360804Y-120882552D01*
X167360810Y-120882553D01*
X167363141Y-120882987D01*
X167365506Y-120883246D01*
X167864697Y-120937916D01*
X167864706Y-120937917D01*
X167867001Y-120938168D01*
X168211517Y-120950500D01*
X230738481Y-120950500D01*
X231071707Y-120938168D01*
X231092433Y-120937401D01*
X231092434Y-120937401D01*
X231094756Y-120937315D01*
X231097058Y-120937059D01*
X231097069Y-120937058D01*
X231596166Y-120881516D01*
X231596170Y-120881515D01*
X231598519Y-120881254D01*
X232096660Y-120787580D01*
X232098921Y-120786976D01*
X232098931Y-120786974D01*
X232305367Y-120731852D01*
X232586376Y-120656819D01*
X232588595Y-120656044D01*
X232588605Y-120656041D01*
X233050470Y-120494750D01*
X233064908Y-120489708D01*
X233529564Y-120287187D01*
X233977728Y-120050397D01*
X234003534Y-120034178D01*
X234200719Y-119910244D01*
X234406875Y-119780672D01*
X234814591Y-119479528D01*
X235024645Y-119298534D01*
X235196793Y-119150202D01*
X235196796Y-119150199D01*
X235198580Y-119148662D01*
X235446809Y-118900000D01*
X235555009Y-118791611D01*
X235555010Y-118791610D01*
X235556680Y-118789937D01*
X235886875Y-118405371D01*
X235915238Y-118366831D01*
X236185907Y-117999031D01*
X236187306Y-117997130D01*
X236456283Y-117567512D01*
X236692290Y-117118937D01*
X236724048Y-117045725D01*
X236855526Y-116742621D01*
X236893999Y-116653928D01*
X237011262Y-116316247D01*
X237059501Y-116177334D01*
X237059504Y-116177325D01*
X237060275Y-116175104D01*
X237119105Y-115953226D01*
X237189577Y-115687442D01*
X237189580Y-115687429D01*
X237190181Y-115685162D01*
X237225236Y-115496941D01*
X237282551Y-115189195D01*
X237282552Y-115189189D01*
X237282986Y-115186858D01*
X237297440Y-115054879D01*
X237337915Y-114685302D01*
X237337916Y-114685293D01*
X237338167Y-114682998D01*
X237350499Y-114338482D01*
X237350499Y-114061518D01*
X237337314Y-113705243D01*
X237336399Y-113697014D01*
X237281515Y-113203833D01*
X237281514Y-113203829D01*
X237281253Y-113201480D01*
X237187579Y-112703339D01*
X237185761Y-112696528D01*
X237101878Y-112382379D01*
X237056818Y-112213623D01*
X237036146Y-112154426D01*
X236896331Y-111754060D01*
X236889707Y-111735091D01*
X236687186Y-111270435D01*
X236450396Y-110822271D01*
X236406623Y-110752625D01*
X236352700Y-110666831D01*
X236180671Y-110393124D01*
X236153354Y-110356139D01*
X235880931Y-109987309D01*
X235879527Y-109985408D01*
X235657751Y-109728024D01*
X235550201Y-109603206D01*
X235550198Y-109603203D01*
X235548661Y-109601419D01*
X235317500Y-109370661D01*
X235191610Y-109244990D01*
X235191609Y-109244989D01*
X235189936Y-109243319D01*
X234805370Y-108913124D01*
X234803485Y-108911737D01*
X234803479Y-108911732D01*
X234399030Y-108614092D01*
X234397129Y-108612693D01*
X233967511Y-108343716D01*
X233572089Y-108135674D01*
X233521046Y-108108819D01*
X233521043Y-108108818D01*
X233518936Y-108107709D01*
X233516756Y-108106764D01*
X233516749Y-108106760D01*
X233065993Y-107911234D01*
X233053927Y-107906000D01*
X232760694Y-107804172D01*
X232577333Y-107740498D01*
X232577324Y-107740495D01*
X232575103Y-107739724D01*
X232342763Y-107678120D01*
X232087441Y-107610422D01*
X232087428Y-107610419D01*
X232085161Y-107609818D01*
X231941031Y-107582975D01*
X231589194Y-107517448D01*
X231589188Y-107517447D01*
X231586857Y-107517013D01*
X231465168Y-107503686D01*
X231085301Y-107462084D01*
X231085292Y-107462083D01*
X231082997Y-107461832D01*
X230738481Y-107449500D01*
X168211517Y-107449500D01*
X167890839Y-107461368D01*
X167857565Y-107462599D01*
X167857564Y-107462599D01*
X167855242Y-107462685D01*
X167852940Y-107462941D01*
X167852929Y-107462942D01*
X167353832Y-107518484D01*
X167353828Y-107518485D01*
X167351479Y-107518746D01*
X166853338Y-107612420D01*
X166851077Y-107613024D01*
X166851067Y-107613026D01*
X166644631Y-107668148D01*
X166363622Y-107743181D01*
X166361403Y-107743956D01*
X166361393Y-107743959D01*
X166155610Y-107815822D01*
X165885090Y-107910292D01*
X165420434Y-108112813D01*
X164972270Y-108349603D01*
X164970274Y-108350858D01*
X164970268Y-108350861D01*
X164927685Y-108377625D01*
X164543123Y-108619328D01*
X164541215Y-108620737D01*
X164541211Y-108620740D01*
X164375081Y-108743446D01*
X164135407Y-108920472D01*
X164133621Y-108922011D01*
X163760725Y-109243319D01*
X163751418Y-109251338D01*
X163393318Y-109610063D01*
X163063123Y-109994629D01*
X163061736Y-109996514D01*
X163061731Y-109996520D01*
X162809342Y-110339480D01*
X162762692Y-110402870D01*
X162493715Y-110832488D01*
X162411717Y-110988340D01*
X162262592Y-111271781D01*
X162257708Y-111281063D01*
X162256763Y-111283243D01*
X162256759Y-111283250D01*
X162175860Y-111469750D01*
X162055999Y-111746072D01*
X162006200Y-111889479D01*
X161891136Y-112220828D01*
X161889723Y-112224896D01*
X161858368Y-112343151D01*
X161760421Y-112712558D01*
X161760418Y-112712571D01*
X161759817Y-112714838D01*
X161759384Y-112717163D01*
X161667935Y-113208188D01*
X161667012Y-113213142D01*
X161631792Y-113534747D01*
X161631521Y-113537217D01*
X161604222Y-113602755D01*
X161545824Y-113643131D01*
X161506270Y-113649500D01*
X143289993Y-113649500D01*
X143284717Y-113649389D01*
X143271331Y-113648828D01*
X143222706Y-113646790D01*
X143214341Y-113648752D01*
X143180338Y-113656727D01*
X143168667Y-113658890D01*
X143162616Y-113659719D01*
X143125568Y-113664794D01*
X143117684Y-113668206D01*
X143117683Y-113668206D01*
X143111770Y-113670765D01*
X143090501Y-113677799D01*
X143075864Y-113681232D01*
X143068339Y-113685369D01*
X143068336Y-113685370D01*
X143037732Y-113702195D01*
X143027087Y-113707411D01*
X142987145Y-113724695D01*
X142975459Y-113734158D01*
X142956875Y-113746645D01*
X142943692Y-113753893D01*
X142935578Y-113760897D01*
X142911042Y-113785433D01*
X142901241Y-113794258D01*
X142876608Y-113814206D01*
X142869930Y-113819614D01*
X142864957Y-113826612D01*
X142864952Y-113826617D01*
X142859032Y-113834948D01*
X142845421Y-113851054D01*
X138380164Y-118316312D01*
X133933881Y-122762595D01*
X133871569Y-122796621D01*
X133844786Y-122799500D01*
X103988408Y-122799500D01*
X103920287Y-122779498D01*
X103873794Y-122725842D01*
X103863690Y-122655568D01*
X103892340Y-122592837D01*
X103892621Y-122592621D01*
X103897105Y-122586777D01*
X103897109Y-122586773D01*
X103969354Y-122492621D01*
X103980861Y-122477625D01*
X104036330Y-122343709D01*
X104055250Y-122200000D01*
X104036330Y-122056291D01*
X103980861Y-121922375D01*
X103892621Y-121807379D01*
X103777625Y-121719139D01*
X103643709Y-121663670D01*
X103617512Y-121660221D01*
X103558171Y-121652408D01*
X103517423Y-121639757D01*
X103512814Y-121637409D01*
X103495949Y-121627075D01*
X103491948Y-121624168D01*
X103477284Y-121613514D01*
X103467854Y-121610450D01*
X103455338Y-121606383D01*
X103437074Y-121598817D01*
X103425356Y-121592847D01*
X103425357Y-121592847D01*
X103416517Y-121588343D01*
X103393724Y-121584733D01*
X103374498Y-121580117D01*
X103361994Y-121576054D01*
X103361992Y-121576054D01*
X103352560Y-121572989D01*
X89698089Y-121572989D01*
X89629968Y-121552987D01*
X89583475Y-121499331D01*
X89573371Y-121429057D01*
X89598125Y-121370287D01*
X89630861Y-121327625D01*
X89686330Y-121193709D01*
X89705250Y-121050000D01*
X89686330Y-120906291D01*
X89630861Y-120772375D01*
X89542621Y-120657379D01*
X89427625Y-120569139D01*
X89293709Y-120513670D01*
X89150000Y-120494750D01*
X89006291Y-120513670D01*
X88872375Y-120569139D01*
X88757379Y-120657379D01*
X88669139Y-120772375D01*
X88613670Y-120906291D01*
X88594750Y-121050000D01*
X88613670Y-121193709D01*
X88669139Y-121327625D01*
X88701875Y-121370287D01*
X88727474Y-121436506D01*
X88713209Y-121506054D01*
X88663608Y-121556850D01*
X88601911Y-121572989D01*
X84990912Y-121572989D01*
X84958301Y-121568696D01*
X84951340Y-121566831D01*
X84943709Y-121563670D01*
X84800000Y-121544750D01*
X84656291Y-121563670D01*
X84522375Y-121619139D01*
X84407379Y-121707379D01*
X84319139Y-121822375D01*
X84263670Y-121956291D01*
X84244750Y-122100000D01*
X78089492Y-122100000D01*
X78089492Y-118827006D01*
X78109494Y-118758885D01*
X78163150Y-118712392D01*
X78199045Y-118702084D01*
X78318709Y-118686330D01*
X78452625Y-118630861D01*
X78567621Y-118542621D01*
X78655861Y-118427625D01*
X78711330Y-118293709D01*
X78730250Y-118150000D01*
X78711330Y-118006291D01*
X78707536Y-117997130D01*
X78659021Y-117880004D01*
X78655861Y-117872375D01*
X78567621Y-117757379D01*
X78452625Y-117669139D01*
X78318709Y-117613670D01*
X78199045Y-117597916D01*
X78134119Y-117569194D01*
X78095027Y-117509928D01*
X78089492Y-117472994D01*
X78089492Y-110529727D01*
X78109494Y-110461606D01*
X78163150Y-110415113D01*
X78233424Y-110405009D01*
X78248101Y-110408020D01*
X78248664Y-110408171D01*
X78256291Y-110411330D01*
X78264475Y-110412407D01*
X78264477Y-110412408D01*
X78286031Y-110415245D01*
X78304048Y-110417617D01*
X78368974Y-110446339D01*
X78376696Y-110453444D01*
X85597279Y-117674027D01*
X85618655Y-117684918D01*
X85635511Y-117695248D01*
X85654918Y-117709349D01*
X85677736Y-117716763D01*
X85695997Y-117724326D01*
X85717373Y-117735218D01*
X85727164Y-117736769D01*
X85727171Y-117736771D01*
X85741068Y-117738972D01*
X85760287Y-117743586D01*
X85773672Y-117747935D01*
X85773679Y-117747936D01*
X85783106Y-117750999D01*
X89164110Y-117750999D01*
X89232231Y-117771001D01*
X89278724Y-117824657D01*
X89288828Y-117894931D01*
X89259334Y-117959511D01*
X89253205Y-117966094D01*
X89040190Y-118179109D01*
X88977878Y-118213135D01*
X88902877Y-118206423D01*
X88879053Y-118196555D01*
X88879054Y-118196555D01*
X88871422Y-118193394D01*
X88727713Y-118174474D01*
X88584004Y-118193394D01*
X88450088Y-118248863D01*
X88335092Y-118337103D01*
X88246852Y-118452099D01*
X88191383Y-118586015D01*
X88172463Y-118729724D01*
X88191383Y-118873433D01*
X88246852Y-119007349D01*
X88335092Y-119122345D01*
X88450088Y-119210585D01*
X88584004Y-119266054D01*
X88727713Y-119284974D01*
X88871422Y-119266054D01*
X89005338Y-119210585D01*
X89043552Y-119181262D01*
X89109773Y-119155661D01*
X89120257Y-119155224D01*
X89158716Y-119155224D01*
X89181533Y-119147810D01*
X89200752Y-119143196D01*
X89224449Y-119139443D01*
X89233287Y-119134940D01*
X89245825Y-119128552D01*
X89264086Y-119120988D01*
X89277470Y-119116639D01*
X89277473Y-119116637D01*
X89286904Y-119113573D01*
X89306314Y-119099471D01*
X89323160Y-119089147D01*
X89344543Y-119078252D01*
X89522795Y-118900000D01*
X93044750Y-118900000D01*
X93063670Y-119043709D01*
X93119139Y-119177625D01*
X93207379Y-119292621D01*
X93322375Y-119380861D01*
X93456291Y-119436330D01*
X93600000Y-119455250D01*
X93743709Y-119436330D01*
X93877625Y-119380861D01*
X93992621Y-119292621D01*
X94080861Y-119177625D01*
X94136330Y-119043709D01*
X94155250Y-118900000D01*
X94136330Y-118756291D01*
X94080861Y-118622375D01*
X93992621Y-118507379D01*
X93877625Y-118419139D01*
X93743709Y-118363670D01*
X93600000Y-118344750D01*
X93456291Y-118363670D01*
X93322375Y-118419139D01*
X93207379Y-118507379D01*
X93119139Y-118622375D01*
X93063670Y-118756291D01*
X93044750Y-118900000D01*
X89522795Y-118900000D01*
X89685390Y-118737405D01*
X89747702Y-118703379D01*
X89774485Y-118700500D01*
X91568329Y-118700500D01*
X91636450Y-118720502D01*
X91645033Y-118726538D01*
X91747757Y-118805361D01*
X91881673Y-118860830D01*
X92025382Y-118879750D01*
X92169091Y-118860830D01*
X92303007Y-118805361D01*
X92418003Y-118717121D01*
X92506243Y-118602125D01*
X92561712Y-118468209D01*
X92580632Y-118324500D01*
X92561712Y-118180791D01*
X92506243Y-118046875D01*
X92434749Y-117953702D01*
X92409148Y-117887483D01*
X92423412Y-117817934D01*
X92473013Y-117767138D01*
X92534711Y-117750999D01*
X94168108Y-117750999D01*
X94236229Y-117771001D01*
X94257203Y-117787904D01*
X95369300Y-118900000D01*
X96472518Y-120003218D01*
X96472519Y-120003220D01*
X96567827Y-120098528D01*
X96589206Y-120109421D01*
X96606059Y-120119749D01*
X96625466Y-120133849D01*
X96634897Y-120136913D01*
X96634898Y-120136914D01*
X96648284Y-120141264D01*
X96666545Y-120148828D01*
X96679083Y-120155216D01*
X96687921Y-120159719D01*
X96711618Y-120163472D01*
X96730837Y-120168086D01*
X96753654Y-120175500D01*
X98757456Y-120175500D01*
X98825577Y-120195502D01*
X98834161Y-120201538D01*
X98872375Y-120230861D01*
X99006291Y-120286330D01*
X99150000Y-120305250D01*
X99293709Y-120286330D01*
X99427625Y-120230861D01*
X99542621Y-120142621D01*
X99630861Y-120027625D01*
X99686330Y-119893709D01*
X99705250Y-119750000D01*
X99686330Y-119606291D01*
X99630861Y-119472375D01*
X99542621Y-119357379D01*
X99427625Y-119269139D01*
X99293709Y-119213670D01*
X99150000Y-119194750D01*
X99006291Y-119213670D01*
X98872375Y-119269139D01*
X98865825Y-119274165D01*
X98834161Y-119298462D01*
X98767940Y-119324063D01*
X98757456Y-119324500D01*
X97049484Y-119324500D01*
X96981363Y-119304498D01*
X96960389Y-119287595D01*
X95830983Y-118158188D01*
X94649766Y-116976971D01*
X94628383Y-116966076D01*
X94611537Y-116955752D01*
X94600150Y-116947479D01*
X94592127Y-116941650D01*
X94582696Y-116938586D01*
X94582693Y-116938584D01*
X94569309Y-116934235D01*
X94551048Y-116926671D01*
X94538510Y-116920283D01*
X94538509Y-116920283D01*
X94529672Y-116915780D01*
X94505975Y-116912027D01*
X94486756Y-116907413D01*
X94463939Y-116899999D01*
X94002363Y-116899999D01*
X93934242Y-116879997D01*
X93887749Y-116826341D01*
X93877645Y-116756067D01*
X93902401Y-116697295D01*
X93925594Y-116667069D01*
X93955861Y-116627625D01*
X94006162Y-116506187D01*
X94008170Y-116501339D01*
X94008171Y-116501336D01*
X94011330Y-116493709D01*
X94017617Y-116445952D01*
X94046339Y-116381026D01*
X94053444Y-116373304D01*
X95098528Y-115328220D01*
X95109423Y-115306837D01*
X95119747Y-115289991D01*
X95128020Y-115278604D01*
X95133849Y-115270581D01*
X95136913Y-115261150D01*
X95136915Y-115261147D01*
X95141264Y-115247763D01*
X95148828Y-115229502D01*
X95155216Y-115216964D01*
X95155216Y-115216963D01*
X95159719Y-115208126D01*
X95163472Y-115184429D01*
X95168086Y-115165210D01*
X95175500Y-115142393D01*
X95175500Y-114077953D01*
X98182207Y-114077953D01*
X98198694Y-114363878D01*
X98199519Y-114368083D01*
X98199520Y-114368091D01*
X98223303Y-114489314D01*
X98253832Y-114644920D01*
X98255219Y-114648970D01*
X98255220Y-114648975D01*
X98340738Y-114898752D01*
X98346602Y-114915878D01*
X98348529Y-114919709D01*
X98421527Y-115064849D01*
X98475287Y-115171740D01*
X98477713Y-115175269D01*
X98477716Y-115175275D01*
X98576761Y-115319386D01*
X98637506Y-115407770D01*
X98640393Y-115410943D01*
X98640394Y-115410944D01*
X98788305Y-115573496D01*
X98830256Y-115619600D01*
X99049972Y-115803311D01*
X99053598Y-115805586D01*
X99053600Y-115805587D01*
X99064767Y-115812592D01*
X99292588Y-115955503D01*
X99296490Y-115957265D01*
X99296494Y-115957267D01*
X99549702Y-116071595D01*
X99549706Y-116071597D01*
X99553614Y-116073361D01*
X99597933Y-116086489D01*
X99824106Y-116153485D01*
X99824111Y-116153486D01*
X99828219Y-116154703D01*
X99832453Y-116155351D01*
X99832458Y-116155352D01*
X100071447Y-116191922D01*
X100111324Y-116198024D01*
X100257089Y-116200314D01*
X100393398Y-116202456D01*
X100393404Y-116202456D01*
X100397689Y-116202523D01*
X100401941Y-116202008D01*
X100401949Y-116202008D01*
X100621721Y-116175411D01*
X100682014Y-116168115D01*
X100686162Y-116167027D01*
X100686166Y-116167026D01*
X100954888Y-116096528D01*
X100959039Y-116095439D01*
X100963000Y-116093799D01*
X100963004Y-116093797D01*
X101134444Y-116022784D01*
X101223638Y-115985839D01*
X101236975Y-115978046D01*
X101423831Y-115868856D01*
X136884101Y-115868856D01*
X136890559Y-115878216D01*
X136906861Y-115892512D01*
X136913401Y-115897530D01*
X137152644Y-116057387D01*
X137159781Y-116061508D01*
X137417849Y-116188772D01*
X137425453Y-116191922D01*
X137697920Y-116284412D01*
X137705883Y-116286546D01*
X137988100Y-116342683D01*
X137996251Y-116343756D01*
X138283381Y-116362575D01*
X138291619Y-116362575D01*
X138578749Y-116343756D01*
X138586900Y-116342683D01*
X138869117Y-116286546D01*
X138877080Y-116284412D01*
X139149547Y-116191922D01*
X139157151Y-116188772D01*
X139415219Y-116061508D01*
X139422356Y-116057387D01*
X139661599Y-115897530D01*
X139668139Y-115892512D01*
X139682574Y-115879853D01*
X139690972Y-115866614D01*
X139685138Y-115856849D01*
X138300310Y-114472020D01*
X138286369Y-114464408D01*
X138284534Y-114464539D01*
X138277920Y-114468790D01*
X136891616Y-115855095D01*
X136884101Y-115868856D01*
X101423831Y-115868856D01*
X101467217Y-115843503D01*
X101467218Y-115843503D01*
X101470915Y-115841342D01*
X101514225Y-115807383D01*
X101692921Y-115667267D01*
X101696293Y-115664623D01*
X101742991Y-115616435D01*
X101874586Y-115480639D01*
X101895602Y-115458952D01*
X101898135Y-115455504D01*
X101898139Y-115455499D01*
X102062617Y-115231589D01*
X102065155Y-115228134D01*
X102071302Y-115216812D01*
X102199763Y-114980217D01*
X102199764Y-114980215D01*
X102201813Y-114976441D01*
X102303048Y-114708530D01*
X102340186Y-114546377D01*
X102366030Y-114433538D01*
X102366031Y-114433533D01*
X102366987Y-114429358D01*
X102392446Y-114144092D01*
X102392865Y-114104119D01*
X136024925Y-114104119D01*
X136043744Y-114391249D01*
X136044817Y-114399400D01*
X136100954Y-114681617D01*
X136103088Y-114689580D01*
X136195578Y-114962047D01*
X136198728Y-114969651D01*
X136325992Y-115227718D01*
X136330113Y-115234855D01*
X136489970Y-115474099D01*
X136494988Y-115480639D01*
X136507647Y-115495074D01*
X136520886Y-115503472D01*
X136530651Y-115497638D01*
X137915480Y-114112810D01*
X137921857Y-114101131D01*
X138651908Y-114101131D01*
X138652039Y-114102966D01*
X138656290Y-114109580D01*
X140042595Y-115495884D01*
X140056356Y-115503399D01*
X140065716Y-115496941D01*
X140080012Y-115480639D01*
X140085030Y-115474099D01*
X140244887Y-115234855D01*
X140249008Y-115227718D01*
X140376272Y-114969651D01*
X140379422Y-114962047D01*
X140471912Y-114689580D01*
X140474046Y-114681617D01*
X140530183Y-114399400D01*
X140531256Y-114391249D01*
X140550075Y-114104119D01*
X140550075Y-114095881D01*
X140531256Y-113808751D01*
X140530183Y-113800600D01*
X140474046Y-113518383D01*
X140471912Y-113510420D01*
X140379422Y-113237953D01*
X140376272Y-113230349D01*
X140249008Y-112972282D01*
X140244887Y-112965145D01*
X140085030Y-112725901D01*
X140080012Y-112719361D01*
X140067353Y-112704926D01*
X140054114Y-112696528D01*
X140044349Y-112702362D01*
X138659520Y-114087190D01*
X138651908Y-114101131D01*
X137921857Y-114101131D01*
X137923092Y-114098869D01*
X137922961Y-114097034D01*
X137918710Y-114090420D01*
X136532405Y-112704116D01*
X136518644Y-112696601D01*
X136509284Y-112703059D01*
X136494988Y-112719361D01*
X136489970Y-112725901D01*
X136330113Y-112965145D01*
X136325992Y-112972282D01*
X136198728Y-113230349D01*
X136195578Y-113237953D01*
X136103088Y-113510420D01*
X136100954Y-113518383D01*
X136044817Y-113800600D01*
X136043744Y-113808751D01*
X136024925Y-114095881D01*
X136024925Y-114104119D01*
X102392865Y-114104119D01*
X102392908Y-114100000D01*
X102390803Y-114069123D01*
X102373720Y-113818540D01*
X102373719Y-113818534D01*
X102373428Y-113814263D01*
X102362716Y-113762534D01*
X102329627Y-113602755D01*
X102315350Y-113533814D01*
X102219748Y-113263842D01*
X102088391Y-113009342D01*
X102085928Y-113005837D01*
X101926173Y-112778529D01*
X101926168Y-112778523D01*
X101923709Y-112775024D01*
X101797754Y-112639480D01*
X101731672Y-112568367D01*
X101731669Y-112568364D01*
X101728751Y-112565224D01*
X101725435Y-112562510D01*
X101725432Y-112562507D01*
X101568034Y-112433678D01*
X101507123Y-112383823D01*
X101424817Y-112333386D01*
X136884028Y-112333386D01*
X136889862Y-112343151D01*
X138274690Y-113727980D01*
X138288631Y-113735592D01*
X138290466Y-113735461D01*
X138297080Y-113731210D01*
X139683384Y-112344905D01*
X139690899Y-112331144D01*
X139684441Y-112321784D01*
X139668139Y-112307488D01*
X139661599Y-112302470D01*
X139422356Y-112142613D01*
X139415219Y-112138492D01*
X139157151Y-112011228D01*
X139149547Y-112008078D01*
X138877080Y-111915588D01*
X138869117Y-111913454D01*
X138586900Y-111857317D01*
X138578749Y-111856244D01*
X138291619Y-111837425D01*
X138283381Y-111837425D01*
X137996251Y-111856244D01*
X137988100Y-111857317D01*
X137705883Y-111913454D01*
X137697920Y-111915588D01*
X137425453Y-112008078D01*
X137417849Y-112011228D01*
X137159782Y-112138492D01*
X137152645Y-112142613D01*
X136913401Y-112302470D01*
X136906861Y-112307488D01*
X136892426Y-112320147D01*
X136884028Y-112333386D01*
X101424817Y-112333386D01*
X101262927Y-112234180D01*
X101258991Y-112232452D01*
X101004610Y-112120786D01*
X101004606Y-112120785D01*
X101000682Y-112119062D01*
X100725239Y-112040600D01*
X100496727Y-112008078D01*
X100445948Y-112000851D01*
X100445946Y-112000851D01*
X100441696Y-112000246D01*
X100289833Y-111999451D01*
X100159586Y-111998769D01*
X100159580Y-111998769D01*
X100155300Y-111998747D01*
X100151056Y-111999306D01*
X100151052Y-111999306D01*
X100039592Y-112013980D01*
X99871351Y-112036129D01*
X99867211Y-112037262D01*
X99867209Y-112037262D01*
X99845003Y-112043337D01*
X99595102Y-112111702D01*
X99591154Y-112113386D01*
X99335617Y-112222382D01*
X99335613Y-112222384D01*
X99331665Y-112224068D01*
X99085915Y-112371146D01*
X99082564Y-112373830D01*
X99082562Y-112373832D01*
X99063718Y-112388929D01*
X98862400Y-112550215D01*
X98665255Y-112757962D01*
X98498129Y-112990543D01*
X98364114Y-113243653D01*
X98362639Y-113247684D01*
X98279857Y-113473898D01*
X98265690Y-113512610D01*
X98204678Y-113792436D01*
X98182207Y-114077953D01*
X95175500Y-114077953D01*
X95175500Y-111050000D01*
X95519750Y-111050000D01*
X95538670Y-111193709D01*
X95594139Y-111327625D01*
X95682379Y-111442621D01*
X95746511Y-111491831D01*
X95750204Y-111494665D01*
X95792071Y-111552003D01*
X95799500Y-111594627D01*
X95799500Y-111756956D01*
X95779498Y-111825077D01*
X95773462Y-111833661D01*
X95744139Y-111871875D01*
X95688670Y-112005791D01*
X95669750Y-112149500D01*
X95688670Y-112293209D01*
X95744139Y-112427125D01*
X95832379Y-112542121D01*
X95947375Y-112630361D01*
X96081291Y-112685830D01*
X96225000Y-112704750D01*
X96368709Y-112685830D01*
X96502625Y-112630361D01*
X96617621Y-112542121D01*
X96705861Y-112427125D01*
X96761330Y-112293209D01*
X96780250Y-112149500D01*
X96761330Y-112005791D01*
X96705861Y-111871875D01*
X96676538Y-111833661D01*
X96650937Y-111767440D01*
X96650500Y-111756956D01*
X96650500Y-111132607D01*
X96643086Y-111109790D01*
X96638472Y-111090570D01*
X96636270Y-111076668D01*
X96634719Y-111066874D01*
X96634026Y-111065515D01*
X96631542Y-111049830D01*
X96630250Y-111050000D01*
X96627650Y-111030250D01*
X96611330Y-110906291D01*
X96555861Y-110772375D01*
X96467621Y-110657379D01*
X96352625Y-110569139D01*
X96218709Y-110513670D01*
X96075000Y-110494750D01*
X95931291Y-110513670D01*
X95797375Y-110569139D01*
X95682379Y-110657379D01*
X95594139Y-110772375D01*
X95538670Y-110906291D01*
X95519750Y-111050000D01*
X95175500Y-111050000D01*
X95175500Y-110077309D01*
X98367441Y-110077309D01*
X98386361Y-110221018D01*
X98441830Y-110354934D01*
X98530070Y-110469930D01*
X98645066Y-110558170D01*
X98778982Y-110613639D01*
X98922691Y-110632559D01*
X99066400Y-110613639D01*
X99200316Y-110558170D01*
X99238530Y-110528847D01*
X99304751Y-110503246D01*
X99315235Y-110502809D01*
X99415084Y-110502809D01*
X99437901Y-110495395D01*
X99457120Y-110490781D01*
X99480817Y-110487028D01*
X99489655Y-110482525D01*
X99502193Y-110476137D01*
X99520454Y-110468573D01*
X99533838Y-110464224D01*
X99533841Y-110464222D01*
X99543272Y-110461158D01*
X99562682Y-110447056D01*
X99579528Y-110436732D01*
X99600911Y-110425837D01*
X99696219Y-110330529D01*
X101257462Y-108769285D01*
X143644759Y-108769285D01*
X143645003Y-108773720D01*
X143645003Y-108773724D01*
X143658894Y-109026114D01*
X143659938Y-109045087D01*
X143673741Y-109114480D01*
X143706691Y-109280131D01*
X143713825Y-109315999D01*
X143805347Y-109576616D01*
X143932678Y-109821737D01*
X143935261Y-109825352D01*
X143935265Y-109825358D01*
X144090687Y-110042850D01*
X144093275Y-110046471D01*
X144137836Y-110093183D01*
X144192708Y-110150703D01*
X144283936Y-110246335D01*
X144287431Y-110249091D01*
X144287433Y-110249092D01*
X144494599Y-110412408D01*
X144500856Y-110417341D01*
X144594330Y-110471635D01*
X144735853Y-110553839D01*
X144735859Y-110553842D01*
X144739707Y-110556077D01*
X144995723Y-110659774D01*
X145000036Y-110660845D01*
X145000041Y-110660847D01*
X145259475Y-110725291D01*
X145259480Y-110725292D01*
X145263796Y-110726364D01*
X145268224Y-110726818D01*
X145268226Y-110726818D01*
X145343339Y-110734514D01*
X145499370Y-110750500D01*
X145670362Y-110750500D01*
X145875530Y-110735973D01*
X145879885Y-110735035D01*
X145879888Y-110735035D01*
X146141215Y-110678773D01*
X146141217Y-110678773D01*
X146145562Y-110677837D01*
X146404709Y-110582233D01*
X146449306Y-110558170D01*
X146643884Y-110453181D01*
X146647800Y-110451068D01*
X146869984Y-110286960D01*
X146874182Y-110282828D01*
X147017327Y-110141913D01*
X147066829Y-110093183D01*
X147234406Y-109873604D01*
X147265666Y-109817785D01*
X147367197Y-109636490D01*
X147367198Y-109636487D01*
X147369373Y-109632604D01*
X147374413Y-109619578D01*
X147458842Y-109401340D01*
X147469036Y-109374991D01*
X147477080Y-109340290D01*
X147514847Y-109177348D01*
X147531407Y-109105905D01*
X147555241Y-108830715D01*
X147554358Y-108814674D01*
X147540307Y-108559356D01*
X147540306Y-108559349D01*
X147540062Y-108554913D01*
X147499224Y-108349603D01*
X147487043Y-108288364D01*
X147487042Y-108288361D01*
X147486175Y-108284001D01*
X147394653Y-108023384D01*
X147267322Y-107778263D01*
X147264739Y-107774648D01*
X147264735Y-107774642D01*
X147109313Y-107557150D01*
X147109310Y-107557146D01*
X147106725Y-107553529D01*
X146916064Y-107353665D01*
X146912567Y-107350908D01*
X146702639Y-107185414D01*
X146702637Y-107185413D01*
X146699144Y-107182659D01*
X146559982Y-107101827D01*
X146464147Y-107046161D01*
X146464141Y-107046158D01*
X146460293Y-107043923D01*
X146267471Y-106965822D01*
X146208403Y-106941897D01*
X146208401Y-106941896D01*
X146204277Y-106940226D01*
X146199964Y-106939155D01*
X146199959Y-106939153D01*
X145940525Y-106874709D01*
X145940520Y-106874708D01*
X145936204Y-106873636D01*
X145931776Y-106873182D01*
X145931774Y-106873182D01*
X145848820Y-106864683D01*
X145700630Y-106849500D01*
X145529638Y-106849500D01*
X145324470Y-106864027D01*
X145320115Y-106864965D01*
X145320112Y-106864965D01*
X145058785Y-106921227D01*
X145058783Y-106921227D01*
X145054438Y-106922163D01*
X144795291Y-107017767D01*
X144791373Y-107019881D01*
X144616051Y-107114480D01*
X144552200Y-107148932D01*
X144330016Y-107313040D01*
X144326837Y-107316169D01*
X144326834Y-107316172D01*
X144248070Y-107393709D01*
X144133171Y-107506817D01*
X143965594Y-107726396D01*
X143963416Y-107730285D01*
X143841120Y-107948660D01*
X143830627Y-107967396D01*
X143829023Y-107971541D01*
X143829022Y-107971544D01*
X143796881Y-108054625D01*
X143730964Y-108225009D01*
X143729961Y-108229334D01*
X143729960Y-108229339D01*
X143701793Y-108350861D01*
X143668593Y-108494095D01*
X143644759Y-108769285D01*
X101257462Y-108769285D01*
X101348303Y-108678444D01*
X101410615Y-108644418D01*
X101420949Y-108642618D01*
X101468709Y-108636330D01*
X101476336Y-108633171D01*
X101476339Y-108633170D01*
X101594996Y-108584021D01*
X101602625Y-108580861D01*
X101717621Y-108492621D01*
X101805861Y-108377625D01*
X101861330Y-108243709D01*
X101880250Y-108100000D01*
X101861330Y-107956291D01*
X101805861Y-107822375D01*
X101717621Y-107707379D01*
X101602625Y-107619139D01*
X101468709Y-107563670D01*
X101325000Y-107544750D01*
X101181291Y-107563670D01*
X101047375Y-107619139D01*
X100932379Y-107707379D01*
X100844139Y-107822375D01*
X100840979Y-107830004D01*
X100791831Y-107948660D01*
X100788670Y-107956291D01*
X100787592Y-107964480D01*
X100782383Y-108004047D01*
X100753661Y-108068975D01*
X100746556Y-108076697D01*
X99278578Y-109544674D01*
X99216266Y-109578700D01*
X99141266Y-109571988D01*
X99074034Y-109544141D01*
X99066400Y-109540979D01*
X98922691Y-109522059D01*
X98778982Y-109540979D01*
X98645066Y-109596448D01*
X98530070Y-109684688D01*
X98441830Y-109799684D01*
X98386361Y-109933600D01*
X98367441Y-110077309D01*
X95175500Y-110077309D01*
X95175500Y-108052485D01*
X95195502Y-107984364D01*
X95249158Y-107937871D01*
X95319432Y-107927767D01*
X95384012Y-107957261D01*
X95390595Y-107963390D01*
X95954548Y-108527343D01*
X95988574Y-108589655D01*
X95991453Y-108616438D01*
X95991453Y-108949409D01*
X95971451Y-109017530D01*
X95965415Y-109026114D01*
X95936092Y-109064328D01*
X95880623Y-109198244D01*
X95861703Y-109341953D01*
X95880623Y-109485662D01*
X95936092Y-109619578D01*
X96024332Y-109734574D01*
X96139328Y-109822814D01*
X96273244Y-109878283D01*
X96416953Y-109897203D01*
X96560662Y-109878283D01*
X96694578Y-109822814D01*
X96809574Y-109734574D01*
X96897814Y-109619578D01*
X96953283Y-109485662D01*
X96972203Y-109341953D01*
X96953283Y-109198244D01*
X96897814Y-109064328D01*
X96868491Y-109026114D01*
X96842890Y-108959893D01*
X96842453Y-108949409D01*
X96842453Y-108320607D01*
X96839390Y-108311180D01*
X96839389Y-108311173D01*
X96835040Y-108297788D01*
X96830426Y-108278569D01*
X96828224Y-108264669D01*
X96828223Y-108264666D01*
X96826672Y-108254874D01*
X96815783Y-108233503D01*
X96808218Y-108215239D01*
X96803868Y-108201852D01*
X96803867Y-108201849D01*
X96800803Y-108192420D01*
X96786697Y-108173006D01*
X96776369Y-108156150D01*
X96769985Y-108143620D01*
X96765481Y-108134780D01*
X94813919Y-106183218D01*
X113959500Y-106183218D01*
X113960170Y-106187768D01*
X113960170Y-106187771D01*
X113968216Y-106242426D01*
X113969642Y-106252112D01*
X114021068Y-106356855D01*
X114103650Y-106439293D01*
X114113006Y-106443866D01*
X114113007Y-106443867D01*
X114145460Y-106459730D01*
X114208482Y-106490536D01*
X114232597Y-106494054D01*
X114272256Y-106499840D01*
X114272260Y-106499840D01*
X114276782Y-106500500D01*
X116043218Y-106500500D01*
X116047768Y-106499830D01*
X116047771Y-106499830D01*
X116102426Y-106491784D01*
X116102427Y-106491784D01*
X116112112Y-106490358D01*
X116206804Y-106443867D01*
X116207507Y-106443522D01*
X116207509Y-106443521D01*
X116216855Y-106438932D01*
X116299293Y-106356350D01*
X116305432Y-106343792D01*
X116329965Y-106293602D01*
X116350536Y-106251518D01*
X116360500Y-106183218D01*
X116360500Y-105836362D01*
X116380502Y-105768241D01*
X116434158Y-105721748D01*
X116504432Y-105711644D01*
X116569012Y-105741138D01*
X116600926Y-105783611D01*
X116604046Y-105790379D01*
X116655883Y-105902821D01*
X116783222Y-106083002D01*
X116941264Y-106236961D01*
X116946060Y-106240166D01*
X116946063Y-106240168D01*
X117030261Y-106296427D01*
X117124717Y-106359540D01*
X117130020Y-106361818D01*
X117130023Y-106361820D01*
X117293221Y-106431935D01*
X117327436Y-106446635D01*
X117407088Y-106464658D01*
X117536995Y-106494054D01*
X117537001Y-106494055D01*
X117542632Y-106495329D01*
X117548403Y-106495556D01*
X117548405Y-106495556D01*
X117616211Y-106498220D01*
X117763098Y-106503991D01*
X117885524Y-106486240D01*
X117975738Y-106473160D01*
X117975743Y-106473159D01*
X117981452Y-106472331D01*
X117986916Y-106470476D01*
X117986921Y-106470475D01*
X118184907Y-106403268D01*
X118184912Y-106403266D01*
X118190379Y-106401410D01*
X118203761Y-106393916D01*
X118286630Y-106347507D01*
X118382884Y-106293602D01*
X118402987Y-106276883D01*
X118548086Y-106156204D01*
X118552518Y-106152518D01*
X118693602Y-105982884D01*
X118801410Y-105790379D01*
X118803266Y-105784912D01*
X118803268Y-105784907D01*
X118850264Y-105646460D01*
X118891101Y-105588383D01*
X118956854Y-105561605D01*
X119026646Y-105574626D01*
X119078319Y-105623313D01*
X119091700Y-105655946D01*
X119102089Y-105696855D01*
X119102091Y-105696860D01*
X119103511Y-105702452D01*
X119105928Y-105707694D01*
X119105928Y-105707695D01*
X119144046Y-105790379D01*
X119195883Y-105902821D01*
X119323222Y-106083002D01*
X119481264Y-106236961D01*
X119486060Y-106240166D01*
X119486063Y-106240168D01*
X119570261Y-106296427D01*
X119664717Y-106359540D01*
X119670020Y-106361818D01*
X119670023Y-106361820D01*
X119833221Y-106431935D01*
X119867436Y-106446635D01*
X119947088Y-106464658D01*
X120076995Y-106494054D01*
X120077001Y-106494055D01*
X120082632Y-106495329D01*
X120088403Y-106495556D01*
X120088405Y-106495556D01*
X120156211Y-106498220D01*
X120303098Y-106503991D01*
X120425524Y-106486240D01*
X120515738Y-106473160D01*
X120515743Y-106473159D01*
X120521452Y-106472331D01*
X120526916Y-106470476D01*
X120526921Y-106470475D01*
X120724907Y-106403268D01*
X120724912Y-106403266D01*
X120730379Y-106401410D01*
X120743761Y-106393916D01*
X120826630Y-106347507D01*
X120922884Y-106293602D01*
X120942987Y-106276883D01*
X121088086Y-106156204D01*
X121092518Y-106152518D01*
X121233602Y-105982884D01*
X121313020Y-105841073D01*
X121363754Y-105791414D01*
X121433286Y-105777066D01*
X121499537Y-105802588D01*
X121539695Y-105855238D01*
X121561770Y-105909603D01*
X121566413Y-105918794D01*
X121677694Y-106100388D01*
X121683777Y-106108699D01*
X121823213Y-106269667D01*
X121830580Y-106276883D01*
X121994434Y-106412916D01*
X122002881Y-106418831D01*
X122186756Y-106526279D01*
X122196042Y-106530729D01*
X122395001Y-106606703D01*
X122404899Y-106609579D01*
X122508250Y-106630606D01*
X122522299Y-106629410D01*
X122526000Y-106619065D01*
X122526000Y-106618517D01*
X123034000Y-106618517D01*
X123038064Y-106632359D01*
X123051478Y-106634393D01*
X123058184Y-106633534D01*
X123068262Y-106631392D01*
X123272255Y-106570191D01*
X123281842Y-106566433D01*
X123473095Y-106472739D01*
X123481945Y-106467464D01*
X123655328Y-106343792D01*
X123663200Y-106337139D01*
X123814052Y-106186812D01*
X123820730Y-106178965D01*
X123945003Y-106006020D01*
X123950313Y-105997183D01*
X123977539Y-105942095D01*
X136432528Y-105942095D01*
X136458034Y-106209431D01*
X136459119Y-106213865D01*
X136459120Y-106213871D01*
X136505465Y-106403268D01*
X136521864Y-106470285D01*
X136622682Y-106719192D01*
X136758375Y-106950938D01*
X136813510Y-107019881D01*
X136916232Y-107148328D01*
X136926101Y-107160669D01*
X137122346Y-107343991D01*
X137132317Y-107350908D01*
X137339246Y-107494461D01*
X137339251Y-107494464D01*
X137342999Y-107497064D01*
X137347084Y-107499096D01*
X137347087Y-107499098D01*
X137438852Y-107544750D01*
X137583438Y-107616680D01*
X137587772Y-107618101D01*
X137587775Y-107618102D01*
X137834293Y-107698915D01*
X137834298Y-107698916D01*
X137838626Y-107700335D01*
X137843117Y-107701115D01*
X137843118Y-107701115D01*
X138099436Y-107745620D01*
X138099444Y-107745621D01*
X138103217Y-107746276D01*
X138107054Y-107746467D01*
X138186496Y-107750422D01*
X138186504Y-107750422D01*
X138188067Y-107750500D01*
X138355723Y-107750500D01*
X138357991Y-107750335D01*
X138358003Y-107750335D01*
X138488323Y-107740879D01*
X138555346Y-107736016D01*
X138559801Y-107735032D01*
X138559804Y-107735032D01*
X138813120Y-107679105D01*
X138813124Y-107679104D01*
X138817580Y-107678120D01*
X138979748Y-107616680D01*
X139064441Y-107584593D01*
X139064444Y-107584592D01*
X139068711Y-107582975D01*
X139303476Y-107452574D01*
X139428859Y-107356885D01*
X139513333Y-107292417D01*
X139513337Y-107292413D01*
X139516958Y-107289650D01*
X139704685Y-107097614D01*
X139862725Y-106880491D01*
X139947588Y-106719192D01*
X139985640Y-106646868D01*
X139985643Y-106646862D01*
X139987765Y-106642828D01*
X139991804Y-106631392D01*
X140075665Y-106393916D01*
X140075665Y-106393915D01*
X140077188Y-106389603D01*
X140104287Y-106252112D01*
X140128239Y-106130594D01*
X140128240Y-106130588D01*
X140129120Y-106126122D01*
X140129347Y-106121566D01*
X140142245Y-105862474D01*
X140142245Y-105862468D01*
X140142472Y-105857905D01*
X140116966Y-105590569D01*
X140114736Y-105581452D01*
X140054221Y-105334149D01*
X140053136Y-105329715D01*
X140004318Y-105209188D01*
X139954031Y-105085037D01*
X139954031Y-105085036D01*
X139952318Y-105080808D01*
X139816625Y-104849062D01*
X139705711Y-104710371D01*
X139651751Y-104642897D01*
X139651750Y-104642895D01*
X139648899Y-104639331D01*
X139452654Y-104456009D01*
X139342250Y-104379419D01*
X139235754Y-104305539D01*
X139235749Y-104305536D01*
X139232001Y-104302936D01*
X139227916Y-104300904D01*
X139227913Y-104300902D01*
X139044801Y-104209806D01*
X138991562Y-104183320D01*
X138987228Y-104181899D01*
X138987225Y-104181898D01*
X138740707Y-104101085D01*
X138740702Y-104101084D01*
X138736374Y-104099665D01*
X138727211Y-104098074D01*
X138475564Y-104054380D01*
X138475556Y-104054379D01*
X138471783Y-104053724D01*
X138463122Y-104053293D01*
X138388504Y-104049578D01*
X138388496Y-104049578D01*
X138386933Y-104049500D01*
X138219277Y-104049500D01*
X138217009Y-104049665D01*
X138216997Y-104049665D01*
X138086677Y-104059121D01*
X138019654Y-104063984D01*
X138015199Y-104064968D01*
X138015196Y-104064968D01*
X137761880Y-104120895D01*
X137761876Y-104120896D01*
X137757420Y-104121880D01*
X137635517Y-104168065D01*
X137510559Y-104215407D01*
X137510556Y-104215408D01*
X137506289Y-104217025D01*
X137396685Y-104277905D01*
X137284143Y-104340417D01*
X137271524Y-104347426D01*
X137255036Y-104360009D01*
X137061667Y-104507583D01*
X137061663Y-104507587D01*
X137058042Y-104510350D01*
X136870315Y-104702386D01*
X136867630Y-104706075D01*
X136738718Y-104883181D01*
X136712275Y-104919509D01*
X136710151Y-104923547D01*
X136589360Y-105153132D01*
X136589357Y-105153138D01*
X136587235Y-105157172D01*
X136585715Y-105161477D01*
X136585713Y-105161481D01*
X136526304Y-105329715D01*
X136497812Y-105410397D01*
X136472722Y-105537694D01*
X136465443Y-105574626D01*
X136445880Y-105673878D01*
X136445653Y-105678431D01*
X136445653Y-105678434D01*
X136436492Y-105862474D01*
X136432528Y-105942095D01*
X123977539Y-105942095D01*
X124044670Y-105806267D01*
X124048469Y-105796672D01*
X124110377Y-105592910D01*
X124112555Y-105582837D01*
X124113986Y-105571962D01*
X124111775Y-105557778D01*
X124098617Y-105554000D01*
X123052115Y-105554000D01*
X123036876Y-105558475D01*
X123035671Y-105559865D01*
X123034000Y-105567548D01*
X123034000Y-106618517D01*
X122526000Y-106618517D01*
X122526000Y-105027885D01*
X123034000Y-105027885D01*
X123038475Y-105043124D01*
X123039865Y-105044329D01*
X123047548Y-105046000D01*
X124098344Y-105046000D01*
X124111875Y-105042027D01*
X124113180Y-105032947D01*
X124071214Y-104865875D01*
X124067894Y-104856124D01*
X123982972Y-104660814D01*
X123978105Y-104651739D01*
X123862426Y-104472926D01*
X123856136Y-104464757D01*
X123712806Y-104307240D01*
X123705273Y-104300215D01*
X123538139Y-104168222D01*
X123529552Y-104162517D01*
X123343117Y-104059599D01*
X123333705Y-104055369D01*
X123132959Y-103984280D01*
X123122988Y-103981646D01*
X123051837Y-103968972D01*
X123038540Y-103970432D01*
X123034000Y-103984989D01*
X123034000Y-105027885D01*
X122526000Y-105027885D01*
X122526000Y-103983102D01*
X122522082Y-103969758D01*
X122507806Y-103967771D01*
X122469324Y-103973660D01*
X122459288Y-103976051D01*
X122256868Y-104042212D01*
X122247359Y-104046209D01*
X122058463Y-104144542D01*
X122049738Y-104150036D01*
X121879433Y-104277905D01*
X121871726Y-104284748D01*
X121724590Y-104438717D01*
X121718104Y-104446727D01*
X121598098Y-104622649D01*
X121593000Y-104631623D01*
X121537066Y-104752122D01*
X121490242Y-104805489D01*
X121421998Y-104825070D01*
X121354003Y-104804646D01*
X121309773Y-104754801D01*
X121270535Y-104675234D01*
X121270535Y-104675233D01*
X121270532Y-104675229D01*
X121267980Y-104670053D01*
X121135967Y-104493267D01*
X121004128Y-104371396D01*
X120978189Y-104347418D01*
X120978186Y-104347416D01*
X120973949Y-104343499D01*
X120787350Y-104225764D01*
X120582421Y-104144006D01*
X120576761Y-104142880D01*
X120576757Y-104142879D01*
X120371691Y-104102089D01*
X120371688Y-104102089D01*
X120366024Y-104100962D01*
X120360249Y-104100886D01*
X120360245Y-104100886D01*
X120249504Y-104099437D01*
X120145406Y-104098074D01*
X120139709Y-104099053D01*
X120139708Y-104099053D01*
X119933654Y-104134459D01*
X119933653Y-104134459D01*
X119927957Y-104135438D01*
X119720957Y-104211804D01*
X119715996Y-104214756D01*
X119715995Y-104214756D01*
X119598350Y-104284748D01*
X119531341Y-104324614D01*
X119365457Y-104470090D01*
X119228863Y-104643360D01*
X119126131Y-104838620D01*
X119099761Y-104923547D01*
X119090432Y-104953591D01*
X119051129Y-105012716D01*
X118986100Y-105041207D01*
X118915990Y-105030017D01*
X118863060Y-104982700D01*
X118848830Y-104950428D01*
X118827134Y-104873500D01*
X118825565Y-104867936D01*
X118727980Y-104670053D01*
X118595967Y-104493267D01*
X118464128Y-104371396D01*
X118438189Y-104347418D01*
X118438186Y-104347416D01*
X118433949Y-104343499D01*
X118247350Y-104225764D01*
X118042421Y-104144006D01*
X118036761Y-104142880D01*
X118036757Y-104142879D01*
X117831691Y-104102089D01*
X117831688Y-104102089D01*
X117826024Y-104100962D01*
X117820249Y-104100886D01*
X117820245Y-104100886D01*
X117709504Y-104099437D01*
X117605406Y-104098074D01*
X117599709Y-104099053D01*
X117599708Y-104099053D01*
X117393654Y-104134459D01*
X117393653Y-104134459D01*
X117387957Y-104135438D01*
X117180957Y-104211804D01*
X117175996Y-104214756D01*
X117175995Y-104214756D01*
X117058350Y-104284748D01*
X116991341Y-104324614D01*
X116825457Y-104470090D01*
X116688863Y-104643360D01*
X116657808Y-104702386D01*
X116598008Y-104816046D01*
X116548589Y-104867018D01*
X116479456Y-104883181D01*
X116412560Y-104859402D01*
X116369140Y-104803231D01*
X116360500Y-104757378D01*
X116360500Y-104416782D01*
X116359747Y-104411663D01*
X116351784Y-104357574D01*
X116351784Y-104357573D01*
X116350358Y-104347888D01*
X116298932Y-104243145D01*
X116241040Y-104185354D01*
X116223721Y-104168065D01*
X116223720Y-104168065D01*
X116216350Y-104160707D01*
X116194520Y-104150036D01*
X116162652Y-104134459D01*
X116111518Y-104109464D01*
X116081027Y-104105016D01*
X116047744Y-104100160D01*
X116047740Y-104100160D01*
X116043218Y-104099500D01*
X114276782Y-104099500D01*
X114272232Y-104100170D01*
X114272229Y-104100170D01*
X114217574Y-104108216D01*
X114217573Y-104108216D01*
X114207888Y-104109642D01*
X114157992Y-104134140D01*
X114112493Y-104156478D01*
X114112491Y-104156479D01*
X114103145Y-104161068D01*
X114020707Y-104243650D01*
X113969464Y-104348482D01*
X113959500Y-104416782D01*
X113959500Y-106183218D01*
X94813919Y-106183218D01*
X92432662Y-103801961D01*
X92411279Y-103791066D01*
X92394433Y-103780742D01*
X92383046Y-103772469D01*
X92375023Y-103766640D01*
X92365592Y-103763576D01*
X92365589Y-103763574D01*
X92352205Y-103759225D01*
X92333944Y-103751661D01*
X92321406Y-103745273D01*
X92321405Y-103745273D01*
X92312568Y-103740770D01*
X92288871Y-103737017D01*
X92269652Y-103732403D01*
X92246835Y-103724989D01*
X90132118Y-103724989D01*
X90109301Y-103732403D01*
X90090082Y-103737017D01*
X90066385Y-103740770D01*
X90057548Y-103745273D01*
X90057547Y-103745273D01*
X90045009Y-103751661D01*
X90026748Y-103759225D01*
X90013362Y-103763575D01*
X90013361Y-103763576D01*
X90003930Y-103766640D01*
X89995910Y-103772467D01*
X89995908Y-103772468D01*
X89984523Y-103780740D01*
X89967670Y-103791068D01*
X89946291Y-103801961D01*
X89426472Y-104321780D01*
X89415577Y-104343163D01*
X89405253Y-104360009D01*
X89391151Y-104379419D01*
X89388087Y-104388850D01*
X89388085Y-104388853D01*
X89383736Y-104402237D01*
X89376172Y-104420498D01*
X89375719Y-104421388D01*
X89365281Y-104441874D01*
X89361657Y-104464757D01*
X89361528Y-104465570D01*
X89356914Y-104484790D01*
X89349500Y-104507607D01*
X89349500Y-106796562D01*
X89329498Y-106864683D01*
X89312595Y-106885657D01*
X88152461Y-108045791D01*
X88141566Y-108067174D01*
X88131242Y-108084020D01*
X88117140Y-108103430D01*
X88114076Y-108112861D01*
X88114074Y-108112864D01*
X88109725Y-108126248D01*
X88102161Y-108144509D01*
X88091270Y-108165885D01*
X88089719Y-108175679D01*
X88087517Y-108189581D01*
X88082903Y-108208801D01*
X88075489Y-108231618D01*
X88075489Y-110082456D01*
X88055487Y-110150577D01*
X88049451Y-110159161D01*
X88020128Y-110197375D01*
X87964659Y-110331291D01*
X87945739Y-110475000D01*
X87964659Y-110618709D01*
X88020128Y-110752625D01*
X88108368Y-110867621D01*
X88223364Y-110955861D01*
X88357280Y-111011330D01*
X88406406Y-111017798D01*
X88440436Y-111022278D01*
X88505363Y-111051001D01*
X88544454Y-111110266D01*
X88549989Y-111147200D01*
X88549989Y-112411765D01*
X88529987Y-112479886D01*
X88476331Y-112526379D01*
X88406057Y-112536483D01*
X88341477Y-112506989D01*
X88324027Y-112488469D01*
X88247647Y-112388929D01*
X88242621Y-112382379D01*
X88127625Y-112294139D01*
X87993709Y-112238670D01*
X87850000Y-112219750D01*
X87706291Y-112238670D01*
X87572375Y-112294139D01*
X87457379Y-112382379D01*
X87369139Y-112497375D01*
X87313670Y-112631291D01*
X87294750Y-112775000D01*
X87313670Y-112918709D01*
X87369139Y-113052625D01*
X87440881Y-113146120D01*
X87466481Y-113212341D01*
X87452216Y-113281889D01*
X87417624Y-113322784D01*
X87369173Y-113359963D01*
X87302955Y-113385563D01*
X87292470Y-113386000D01*
X85123675Y-113386000D01*
X85055554Y-113365998D01*
X85034580Y-113349095D01*
X82880910Y-111195426D01*
X82846885Y-111133114D01*
X82845083Y-111122777D01*
X82836330Y-111056291D01*
X82780861Y-110922375D01*
X82692621Y-110807379D01*
X82577625Y-110719139D01*
X82443709Y-110663670D01*
X82300000Y-110644750D01*
X82291812Y-110645828D01*
X82164475Y-110662592D01*
X82164471Y-110662593D01*
X82156291Y-110663670D01*
X82148664Y-110666829D01*
X82144422Y-110667966D01*
X82073446Y-110666277D01*
X82014650Y-110626484D01*
X81995401Y-110594478D01*
X81984021Y-110567005D01*
X81980861Y-110559375D01*
X81892621Y-110444379D01*
X81777625Y-110356139D01*
X81643709Y-110300670D01*
X81500000Y-110281750D01*
X81356291Y-110300670D01*
X81222375Y-110356139D01*
X81107379Y-110444379D01*
X81019139Y-110559375D01*
X80963670Y-110693291D01*
X80944750Y-110837000D01*
X80963670Y-110980709D01*
X81019139Y-111114625D01*
X81107379Y-111229621D01*
X81113929Y-111234647D01*
X81119770Y-111240488D01*
X81119287Y-111240971D01*
X81135983Y-111258111D01*
X81140087Y-111263760D01*
X81150415Y-111280615D01*
X81156388Y-111292338D01*
X81156392Y-111292344D01*
X81160892Y-111301175D01*
X81253623Y-111393906D01*
X81253625Y-111393907D01*
X84406093Y-114546375D01*
X84406094Y-114546377D01*
X84498825Y-114639108D01*
X84519381Y-114649582D01*
X84536230Y-114659907D01*
X84554907Y-114673476D01*
X84576856Y-114680608D01*
X84595115Y-114688171D01*
X84606835Y-114694143D01*
X84606839Y-114694144D01*
X84615674Y-114698646D01*
X84625470Y-114700197D01*
X84625472Y-114700198D01*
X84634356Y-114701605D01*
X84638459Y-114702254D01*
X84657688Y-114706871D01*
X84679632Y-114714001D01*
X84810773Y-114714001D01*
X84810775Y-114714000D01*
X87183969Y-114714000D01*
X87252090Y-114734002D01*
X87283935Y-114763301D01*
X87288306Y-114768998D01*
X87313904Y-114835220D01*
X87299635Y-114904768D01*
X87288303Y-114922400D01*
X87269139Y-114947375D01*
X87213670Y-115081291D01*
X87194750Y-115225000D01*
X87213670Y-115368709D01*
X87269139Y-115502625D01*
X87357379Y-115617621D01*
X87472375Y-115705861D01*
X87508198Y-115720699D01*
X87605013Y-115760801D01*
X87660294Y-115805349D01*
X87682715Y-115872712D01*
X87665157Y-115941504D01*
X87643483Y-115965912D01*
X87644750Y-115967179D01*
X87638909Y-115973020D01*
X87632359Y-115978046D01*
X87544119Y-116093042D01*
X87488650Y-116226958D01*
X87469730Y-116370667D01*
X87488650Y-116514376D01*
X87544119Y-116648292D01*
X87581721Y-116697295D01*
X87607322Y-116763514D01*
X87593058Y-116833063D01*
X87543457Y-116883860D01*
X87481759Y-116899999D01*
X86078937Y-116899999D01*
X86010816Y-116879997D01*
X85989842Y-116863094D01*
X78978444Y-109851696D01*
X78944418Y-109789384D01*
X78942617Y-109779047D01*
X78937408Y-109739479D01*
X78936330Y-109731291D01*
X78911336Y-109670948D01*
X78884021Y-109605004D01*
X78880861Y-109597375D01*
X78792621Y-109482379D01*
X78677625Y-109394139D01*
X78543709Y-109338670D01*
X78400000Y-109319750D01*
X78256291Y-109338670D01*
X78248660Y-109341831D01*
X78248103Y-109341980D01*
X78177126Y-109340290D01*
X78118331Y-109300496D01*
X78090383Y-109235231D01*
X78089492Y-109220273D01*
X78089492Y-107250000D01*
X84694750Y-107250000D01*
X84713670Y-107393709D01*
X84769139Y-107527625D01*
X84857379Y-107642621D01*
X84972375Y-107730861D01*
X85106291Y-107786330D01*
X85250000Y-107805250D01*
X85393709Y-107786330D01*
X85527625Y-107730861D01*
X85642621Y-107642621D01*
X85730861Y-107527625D01*
X85786330Y-107393709D01*
X85805250Y-107250000D01*
X85786330Y-107106291D01*
X85730861Y-106972375D01*
X85642621Y-106857379D01*
X85527625Y-106769139D01*
X85393709Y-106713670D01*
X85250000Y-106694750D01*
X85106291Y-106713670D01*
X84972375Y-106769139D01*
X84857379Y-106857379D01*
X84769139Y-106972375D01*
X84713670Y-107106291D01*
X84694750Y-107250000D01*
X78089492Y-107250000D01*
X78089492Y-103326500D01*
X78109494Y-103258379D01*
X78163150Y-103211886D01*
X78215492Y-103200500D01*
X232172052Y-103200501D01*
G37*
%TD.AperFunction*%
M02*
