%TF.GenerationSoftware,KiCad,Pcbnew,(6.0.4)*%
%TF.CreationDate,2022-06-07T20:54:31+01:00*%
%TF.ProjectId,soil-moisture-sensor,736f696c-2d6d-46f6-9973-747572652d73,%%version%%*%
%TF.SameCoordinates,Original*%
%TF.FileFunction,Soldermask,Top*%
%TF.FilePolarity,Negative*%
%FSLAX46Y46*%
G04 Gerber Fmt 4.6, Leading zero omitted, Abs format (unit mm)*
G04 Created by KiCad (PCBNEW (6.0.4)) date 2022-06-07 20:54:31*
%MOMM*%
%LPD*%
G01*
G04 APERTURE LIST*
G04 Aperture macros list*
%AMRoundRect*
0 Rectangle with rounded corners*
0 $1 Rounding radius*
0 $2 $3 $4 $5 $6 $7 $8 $9 X,Y pos of 4 corners*
0 Add a 4 corners polygon primitive as box body*
4,1,4,$2,$3,$4,$5,$6,$7,$8,$9,$2,$3,0*
0 Add four circle primitives for the rounded corners*
1,1,$1+$1,$2,$3*
1,1,$1+$1,$4,$5*
1,1,$1+$1,$6,$7*
1,1,$1+$1,$8,$9*
0 Add four rect primitives between the rounded corners*
20,1,$1+$1,$2,$3,$4,$5,0*
20,1,$1+$1,$4,$5,$6,$7,0*
20,1,$1+$1,$6,$7,$8,$9,0*
20,1,$1+$1,$8,$9,$2,$3,0*%
G04 Aperture macros list end*
%ADD10C,3.500000*%
%ADD11C,7.150000*%
%ADD12RoundRect,0.275000X-0.200000X-0.275000X0.200000X-0.275000X0.200000X0.275000X-0.200000X0.275000X0*%
%ADD13RoundRect,0.225000X-0.587500X-0.150000X0.587500X-0.150000X0.587500X0.150000X-0.587500X0.150000X0*%
%ADD14RoundRect,0.175000X-0.130000X-0.100000X0.130000X-0.100000X0.130000X0.100000X-0.130000X0.100000X0*%
%ADD15RoundRect,0.293750X-0.218750X-0.256250X0.218750X-0.256250X0.218750X0.256250X-0.218750X0.256250X0*%
%ADD16RoundRect,0.075000X0.850000X-0.450000X0.850000X0.450000X-0.850000X0.450000X-0.850000X-0.450000X0*%
%ADD17RoundRect,0.075000X0.180000X0.125000X-0.180000X0.125000X-0.180000X-0.125000X0.180000X-0.125000X0*%
%ADD18RoundRect,0.075000X-0.712500X-0.775000X0.712500X-0.775000X0.712500X0.775000X-0.712500X0.775000X0*%
%ADD19RoundRect,0.075000X-0.900000X-0.950000X0.900000X-0.950000X0.900000X0.950000X-0.900000X0.950000X0*%
%ADD20RoundRect,0.075000X-0.825000X-0.650000X0.825000X-0.650000X0.825000X0.650000X-0.825000X0.650000X0*%
%ADD21RoundRect,0.075000X-0.500000X-0.950000X0.500000X-0.950000X0.500000X0.950000X-0.500000X0.950000X0*%
%ADD22RoundRect,0.075000X-0.225000X-0.690000X0.225000X-0.690000X0.225000X0.690000X-0.225000X0.690000X0*%
%ADD23RoundRect,0.075000X-0.500000X-0.500000X0.500000X-0.500000X0.500000X0.500000X-0.500000X0.500000X0*%
%ADD24RoundRect,0.075000X1.300000X-1.300000X1.300000X1.300000X-1.300000X1.300000X-1.300000X-1.300000X0*%
%ADD25RoundRect,0.137500X0.350000X-0.062500X0.350000X0.062500X-0.350000X0.062500X-0.350000X-0.062500X0*%
%ADD26RoundRect,0.137500X0.062500X-0.350000X0.062500X0.350000X-0.062500X0.350000X-0.062500X-0.350000X0*%
%ADD27RoundRect,0.275000X0.200000X0.275000X-0.200000X0.275000X-0.200000X-0.275000X0.200000X-0.275000X0*%
%ADD28RoundRect,0.075000X-0.180000X-0.125000X0.180000X-0.125000X0.180000X0.125000X-0.180000X0.125000X0*%
%ADD29C,3.350000*%
%ADD30RoundRect,0.300000X-0.225000X-0.250000X0.225000X-0.250000X0.225000X0.250000X-0.225000X0.250000X0*%
%ADD31RoundRect,0.075000X2.500000X-2.500000X2.500000X2.500000X-2.500000X2.500000X-2.500000X-2.500000X0*%
%ADD32RoundRect,0.075000X0.450000X-1.000000X0.450000X1.000000X-0.450000X1.000000X-0.450000X-1.000000X0*%
%ADD33RoundRect,0.075000X1.000000X0.450000X-1.000000X0.450000X-1.000000X-0.450000X1.000000X-0.450000X0*%
%ADD34RoundRect,0.325000X-0.250000X-0.475000X0.250000X-0.475000X0.250000X0.475000X-0.250000X0.475000X0*%
%ADD35RoundRect,0.175000X0.100000X-0.130000X0.100000X0.130000X-0.100000X0.130000X-0.100000X-0.130000X0*%
G04 APERTURE END LIST*
D10*
X95200000Y-114300000D03*
X133200000Y-114300000D03*
X133200000Y-106100000D03*
D11*
X102100000Y-114300000D03*
X126300000Y-114300000D03*
D12*
X118220000Y-112070000D03*
X116570000Y-112070000D03*
D13*
X99637500Y-107500000D03*
X97762500Y-108450000D03*
X97762500Y-106550000D03*
D12*
X107575000Y-118400000D03*
X109225000Y-118400000D03*
D14*
X131020000Y-114000000D03*
X130380000Y-114000000D03*
D15*
X122707500Y-106680000D03*
X121132500Y-106680000D03*
D12*
X90125000Y-107300000D03*
X88475000Y-107300000D03*
D16*
X114300000Y-107520000D03*
X114300000Y-110920000D03*
D17*
X89420000Y-118500000D03*
X88580000Y-118500000D03*
X121220000Y-109200000D03*
X120380000Y-109200000D03*
D14*
X131220000Y-116600000D03*
X130580000Y-116600000D03*
D12*
X93425000Y-107300000D03*
X91775000Y-107300000D03*
D13*
X104237500Y-107500000D03*
X102362500Y-108450000D03*
X102362500Y-106550000D03*
D12*
X125125000Y-109900000D03*
X123475000Y-109900000D03*
D18*
X91412500Y-120825000D03*
D19*
X92750000Y-123400000D03*
D18*
X96387500Y-120825000D03*
D20*
X90525000Y-123400000D03*
D21*
X95450000Y-123400000D03*
D20*
X97275000Y-123400000D03*
D22*
X95200000Y-120740000D03*
X94550000Y-120740000D03*
X93900000Y-120740000D03*
X93250000Y-120740000D03*
X92600000Y-120740000D03*
D23*
X121850000Y-123100000D03*
X119350000Y-123100000D03*
D24*
X89700000Y-114500000D03*
D25*
X87762500Y-115750000D03*
X87762500Y-115250000D03*
X87762500Y-114750000D03*
X87762500Y-114250000D03*
X87762500Y-113750000D03*
X87762500Y-113250000D03*
D26*
X88450000Y-112562500D03*
X88950000Y-112562500D03*
X89450000Y-112562500D03*
X89950000Y-112562500D03*
X90450000Y-112562500D03*
X90950000Y-112562500D03*
D25*
X91637500Y-113250000D03*
X91637500Y-113750000D03*
X91637500Y-114250000D03*
X91637500Y-114750000D03*
X91637500Y-115250000D03*
X91637500Y-115750000D03*
D26*
X90950000Y-116437500D03*
X90450000Y-116437500D03*
X89950000Y-116437500D03*
X89450000Y-116437500D03*
X88950000Y-116437500D03*
X88450000Y-116437500D03*
D27*
X91800000Y-108800000D03*
X93450000Y-108800000D03*
D12*
X98725000Y-110400000D03*
X97075000Y-110400000D03*
D28*
X91420000Y-118500000D03*
X90580000Y-118500000D03*
D29*
X145600000Y-119600000D03*
D12*
X88475000Y-108800000D03*
X90125000Y-108800000D03*
X115700000Y-104900000D03*
X114050000Y-104900000D03*
D30*
X115075000Y-114300000D03*
X113525000Y-114300000D03*
D29*
X145600000Y-108800000D03*
D16*
X114300000Y-117680000D03*
X114300000Y-121080000D03*
D15*
X90087500Y-110300000D03*
X88512500Y-110300000D03*
D12*
X127000000Y-106680000D03*
X125350000Y-106680000D03*
D31*
X74445000Y-115200000D03*
D32*
X66945000Y-105700000D03*
X68215000Y-105700000D03*
X69485000Y-105700000D03*
X70755000Y-105700000D03*
X72025000Y-105700000D03*
X73295000Y-105700000D03*
X74565000Y-105700000D03*
X75835000Y-105700000D03*
X77105000Y-105700000D03*
X78375000Y-105700000D03*
X79645000Y-105700000D03*
X80915000Y-105700000D03*
X82185000Y-105700000D03*
X83455000Y-105700000D03*
D33*
X84455000Y-108485000D03*
X84455000Y-109755000D03*
X84455000Y-111025000D03*
X84455000Y-112295000D03*
X84455000Y-113565000D03*
X84455000Y-114835000D03*
X84455000Y-116105000D03*
X84455000Y-117375000D03*
X84455000Y-118645000D03*
X84455000Y-119915000D03*
D32*
X83455000Y-122700000D03*
X82185000Y-122700000D03*
X80915000Y-122700000D03*
X79645000Y-122700000D03*
X78375000Y-122700000D03*
X77105000Y-122700000D03*
X75835000Y-122700000D03*
X74565000Y-122700000D03*
X73295000Y-122700000D03*
X72025000Y-122700000D03*
X70755000Y-122700000D03*
X69485000Y-122700000D03*
X68215000Y-122700000D03*
X66945000Y-122700000D03*
D34*
X120330000Y-114300000D03*
X118430000Y-114300000D03*
D15*
X93400000Y-110300000D03*
X91825000Y-110300000D03*
D35*
X111900000Y-108780000D03*
X111900000Y-109420000D03*
M02*
