%TF.GenerationSoftware,KiCad,Pcbnew,(6.0.4)*%
%TF.CreationDate,2022-06-27T14:28:37+01:00*%
%TF.ProjectId,soil-moisture-sensor,736f696c-2d6d-46f6-9973-747572652d73,%%version%%*%
%TF.SameCoordinates,Original*%
%TF.FileFunction,Copper,L1,Top*%
%TF.FilePolarity,Positive*%
%FSLAX46Y46*%
G04 Gerber Fmt 4.6, Leading zero omitted, Abs format (unit mm)*
G04 Created by KiCad (PCBNEW (6.0.4)) date 2022-06-27 14:28:37*
%MOMM*%
%LPD*%
G01*
G04 APERTURE LIST*
G04 Aperture macros list*
%AMRoundRect*
0 Rectangle with rounded corners*
0 $1 Rounding radius*
0 $2 $3 $4 $5 $6 $7 $8 $9 X,Y pos of 4 corners*
0 Add a 4 corners polygon primitive as box body*
4,1,4,$2,$3,$4,$5,$6,$7,$8,$9,$2,$3,0*
0 Add four circle primitives for the rounded corners*
1,1,$1+$1,$2,$3*
1,1,$1+$1,$4,$5*
1,1,$1+$1,$6,$7*
1,1,$1+$1,$8,$9*
0 Add four rect primitives between the rounded corners*
20,1,$1+$1,$2,$3,$4,$5,0*
20,1,$1+$1,$4,$5,$6,$7,0*
20,1,$1+$1,$6,$7,$8,$9,0*
20,1,$1+$1,$8,$9,$2,$3,0*%
G04 Aperture macros list end*
%TA.AperFunction,SMDPad,CuDef*%
%ADD10RoundRect,0.200000X0.275000X-0.200000X0.275000X0.200000X-0.275000X0.200000X-0.275000X-0.200000X0*%
%TD*%
%TA.AperFunction,SMDPad,CuDef*%
%ADD11RoundRect,0.100000X0.100000X-0.130000X0.100000X0.130000X-0.100000X0.130000X-0.100000X-0.130000X0*%
%TD*%
%TA.AperFunction,SMDPad,CuDef*%
%ADD12RoundRect,0.100000X0.130000X0.100000X-0.130000X0.100000X-0.130000X-0.100000X0.130000X-0.100000X0*%
%TD*%
%TA.AperFunction,SMDPad,CuDef*%
%ADD13RoundRect,0.200000X-0.275000X0.200000X-0.275000X-0.200000X0.275000X-0.200000X0.275000X0.200000X0*%
%TD*%
%TA.AperFunction,SMDPad,CuDef*%
%ADD14RoundRect,0.150000X-0.587500X-0.150000X0.587500X-0.150000X0.587500X0.150000X-0.587500X0.150000X0*%
%TD*%
%TA.AperFunction,SMDPad,CuDef*%
%ADD15R,0.900000X1.700000*%
%TD*%
%TA.AperFunction,SMDPad,CuDef*%
%ADD16RoundRect,0.218750X-0.218750X-0.256250X0.218750X-0.256250X0.218750X0.256250X-0.218750X0.256250X0*%
%TD*%
%TA.AperFunction,SMDPad,CuDef*%
%ADD17R,0.900000X2.000000*%
%TD*%
%TA.AperFunction,SMDPad,CuDef*%
%ADD18R,2.000000X0.900000*%
%TD*%
%TA.AperFunction,SMDPad,CuDef*%
%ADD19R,5.000000X5.000000*%
%TD*%
%TA.AperFunction,SMDPad,CuDef*%
%ADD20RoundRect,0.250000X0.475000X-0.250000X0.475000X0.250000X-0.475000X0.250000X-0.475000X-0.250000X0*%
%TD*%
%TA.AperFunction,SMDPad,CuDef*%
%ADD21RoundRect,0.200000X-0.200000X-0.275000X0.200000X-0.275000X0.200000X0.275000X-0.200000X0.275000X0*%
%TD*%
%TA.AperFunction,SMDPad,CuDef*%
%ADD22RoundRect,0.225000X0.225000X0.250000X-0.225000X0.250000X-0.225000X-0.250000X0.225000X-0.250000X0*%
%TD*%
%TA.AperFunction,SMDPad,CuDef*%
%ADD23RoundRect,0.218750X0.218750X0.256250X-0.218750X0.256250X-0.218750X-0.256250X0.218750X-0.256250X0*%
%TD*%
%TA.AperFunction,SMDPad,CuDef*%
%ADD24R,1.000000X1.000000*%
%TD*%
%TA.AperFunction,SMDPad,CuDef*%
%ADD25R,0.450000X1.380000*%
%TD*%
%TA.AperFunction,SMDPad,CuDef*%
%ADD26R,1.650000X1.300000*%
%TD*%
%TA.AperFunction,SMDPad,CuDef*%
%ADD27R,1.000000X1.900000*%
%TD*%
%TA.AperFunction,SMDPad,CuDef*%
%ADD28R,1.425000X1.550000*%
%TD*%
%TA.AperFunction,SMDPad,CuDef*%
%ADD29R,1.800000X1.900000*%
%TD*%
%TA.AperFunction,SMDPad,CuDef*%
%ADD30RoundRect,0.200000X0.200000X0.275000X-0.200000X0.275000X-0.200000X-0.275000X0.200000X-0.275000X0*%
%TD*%
%TA.AperFunction,SMDPad,CuDef*%
%ADD31RoundRect,0.062500X0.062500X-0.350000X0.062500X0.350000X-0.062500X0.350000X-0.062500X-0.350000X0*%
%TD*%
%TA.AperFunction,SMDPad,CuDef*%
%ADD32RoundRect,0.062500X0.350000X-0.062500X0.350000X0.062500X-0.350000X0.062500X-0.350000X-0.062500X0*%
%TD*%
%TA.AperFunction,SMDPad,CuDef*%
%ADD33R,2.600000X2.600000*%
%TD*%
%TA.AperFunction,ComponentPad*%
%ADD34C,3.500000*%
%TD*%
%TA.AperFunction,ViaPad*%
%ADD35C,0.400000*%
%TD*%
%TA.AperFunction,Conductor*%
%ADD36C,0.150000*%
%TD*%
%TA.AperFunction,Conductor*%
%ADD37C,0.400000*%
%TD*%
%TA.AperFunction,Conductor*%
%ADD38C,0.200000*%
%TD*%
G04 APERTURE END LIST*
D10*
X86800000Y-115425000D03*
X86800000Y-113775000D03*
D11*
X86750000Y-119070000D03*
X86750000Y-118430000D03*
D12*
X103395000Y-111575000D03*
X102755000Y-111575000D03*
D10*
X98337500Y-110825000D03*
X98337500Y-109175000D03*
D13*
X86750000Y-109025000D03*
X86750000Y-110675000D03*
D14*
X94700000Y-109050000D03*
X94700000Y-110950000D03*
X96575000Y-110000000D03*
D15*
X104800000Y-105475000D03*
X101400000Y-105475000D03*
D16*
X87637500Y-105600000D03*
X89212500Y-105600000D03*
D17*
X66945000Y-122700000D03*
X68215000Y-122700000D03*
X69485000Y-122700000D03*
X70755000Y-122700000D03*
X72025000Y-122700000D03*
X73295000Y-122700000D03*
X74565000Y-122700000D03*
X75835000Y-122700000D03*
X77105000Y-122700000D03*
X78375000Y-122700000D03*
X79645000Y-122700000D03*
X80915000Y-122700000D03*
X82185000Y-122700000D03*
X83455000Y-122700000D03*
D18*
X84455000Y-119915000D03*
X84455000Y-118645000D03*
X84455000Y-117375000D03*
X84455000Y-116105000D03*
X84455000Y-114835000D03*
X84455000Y-113565000D03*
X84455000Y-112295000D03*
X84455000Y-111025000D03*
X84455000Y-109755000D03*
X84455000Y-108485000D03*
D17*
X83455000Y-105700000D03*
X82185000Y-105700000D03*
X80915000Y-105700000D03*
X79645000Y-105700000D03*
X78375000Y-105700000D03*
X77105000Y-105700000D03*
X75835000Y-105700000D03*
X74565000Y-105700000D03*
X73295000Y-105700000D03*
X72025000Y-105700000D03*
X70755000Y-105700000D03*
X69485000Y-105700000D03*
X68215000Y-105700000D03*
X66945000Y-105700000D03*
D19*
X74445000Y-115200000D03*
D10*
X94100000Y-115450000D03*
X94100000Y-113800000D03*
D20*
X87400000Y-122450000D03*
X87400000Y-120550000D03*
D21*
X93875000Y-107100000D03*
X95525000Y-107100000D03*
D10*
X95600000Y-115450000D03*
X95600000Y-113800000D03*
D22*
X88200000Y-124100000D03*
X86650000Y-124100000D03*
D23*
X92287500Y-105600000D03*
X90712500Y-105600000D03*
D21*
X86425000Y-117050000D03*
X88075000Y-117050000D03*
D13*
X99837500Y-109175000D03*
X99837500Y-110825000D03*
D10*
X97150000Y-115475000D03*
X97150000Y-113825000D03*
D12*
X87120000Y-112400000D03*
X86480000Y-112400000D03*
D24*
X101425000Y-120575000D03*
X101425000Y-123075000D03*
D25*
X92600000Y-120740000D03*
X93250000Y-120740000D03*
X93900000Y-120740000D03*
X94550000Y-120740000D03*
X95200000Y-120740000D03*
D26*
X97275000Y-123400000D03*
D27*
X95450000Y-123400000D03*
D26*
X90525000Y-123400000D03*
D28*
X96387500Y-120825000D03*
D29*
X92750000Y-123400000D03*
D28*
X91412500Y-120825000D03*
D12*
X103345000Y-107500000D03*
X102705000Y-107500000D03*
D16*
X93912500Y-105600000D03*
X95487500Y-105600000D03*
D30*
X89275000Y-107100000D03*
X87625000Y-107100000D03*
D14*
X90800000Y-109050000D03*
X90800000Y-110950000D03*
X92675000Y-110000000D03*
D15*
X104775000Y-109525000D03*
X101375000Y-109525000D03*
D10*
X99675000Y-123150000D03*
X99675000Y-121500000D03*
D31*
X89250000Y-116537500D03*
X89750000Y-116537500D03*
X90250000Y-116537500D03*
X90750000Y-116537500D03*
X91250000Y-116537500D03*
X91750000Y-116537500D03*
D32*
X92437500Y-115850000D03*
X92437500Y-115350000D03*
X92437500Y-114850000D03*
X92437500Y-114350000D03*
X92437500Y-113850000D03*
X92437500Y-113350000D03*
D31*
X91750000Y-112662500D03*
X91250000Y-112662500D03*
X90750000Y-112662500D03*
X90250000Y-112662500D03*
X89750000Y-112662500D03*
X89250000Y-112662500D03*
D32*
X88562500Y-113350000D03*
X88562500Y-113850000D03*
X88562500Y-114350000D03*
X88562500Y-114850000D03*
X88562500Y-115350000D03*
X88562500Y-115850000D03*
D33*
X90500000Y-114600000D03*
D21*
X90675000Y-107100000D03*
X92325000Y-107100000D03*
D34*
X100287500Y-114100000D03*
X138287500Y-114100000D03*
D35*
X81900000Y-124700000D03*
X88075000Y-118150000D03*
X86450000Y-116100000D03*
X86175000Y-112975000D03*
X88075000Y-118150000D03*
X85400000Y-122900000D03*
X89200000Y-118950000D03*
X74725000Y-111925000D03*
X97000000Y-109175000D03*
X101650000Y-110850000D03*
X85975000Y-118450000D03*
X89200000Y-118950000D03*
X91000000Y-118900000D03*
X103150000Y-123350000D03*
X93875000Y-108025000D03*
X86300000Y-107950000D03*
X88650000Y-122000000D03*
X68700000Y-120900000D03*
X78400000Y-109875000D03*
X99150000Y-119750000D03*
X89468437Y-108473450D03*
X93850000Y-112624000D03*
X96075000Y-111050000D03*
X96225000Y-112149500D03*
X87850000Y-112775000D03*
X87750000Y-115225000D03*
X86000000Y-120400000D03*
X89050000Y-118275000D03*
X92000000Y-118250000D03*
X85000000Y-121700000D03*
X92622224Y-112623216D03*
X93473301Y-109273301D03*
X89450000Y-109250000D03*
X92175000Y-112025000D03*
X93250000Y-110699500D03*
X90775000Y-111999500D03*
X90675000Y-104625000D03*
X92650000Y-116750000D03*
X93475000Y-116350000D03*
X87225000Y-116850000D03*
X101325000Y-108100000D03*
X76400000Y-120425000D03*
X88500989Y-110475000D03*
X98922691Y-110077309D03*
X96416953Y-109341953D03*
X78175000Y-118150000D03*
X93228604Y-114060935D03*
X88700000Y-116425000D03*
X87675000Y-113875000D03*
X82625000Y-112050000D03*
X87675000Y-114575000D03*
X82700000Y-113000000D03*
D36*
X74445000Y-115200000D02*
X74445000Y-112205000D01*
X89750000Y-116537500D02*
X89750000Y-115350000D01*
X85090705Y-119915000D02*
X86575705Y-118430000D01*
X74445000Y-112205000D02*
X74725000Y-111925000D01*
D37*
X73045000Y-115200000D02*
X74445000Y-115200000D01*
D36*
X86480000Y-112670000D02*
X86175000Y-112975000D01*
D37*
X66945000Y-122700000D02*
X66945000Y-121300000D01*
D36*
X91412500Y-120825000D02*
X91412500Y-120112500D01*
X86800000Y-115750000D02*
X86450000Y-116100000D01*
X86850000Y-118330000D02*
X86750000Y-118430000D01*
D37*
X66945000Y-107700000D02*
X72975000Y-114225000D01*
D36*
X79160000Y-119915000D02*
X74445000Y-115200000D01*
D37*
X73222500Y-113977500D02*
X74445000Y-115200000D01*
D36*
X84455000Y-119915000D02*
X85090705Y-119915000D01*
X89201618Y-117475000D02*
X89100000Y-117475000D01*
X89750000Y-116926618D02*
X89201618Y-117475000D01*
X86575705Y-118430000D02*
X86750000Y-118430000D01*
D37*
X66945000Y-121300000D02*
X73045000Y-115200000D01*
D36*
X86480000Y-112400000D02*
X86480000Y-112670000D01*
D37*
X72975000Y-114225000D02*
X73222500Y-113977500D01*
X66945000Y-105700000D02*
X66945000Y-107700000D01*
D36*
X103395000Y-111575000D02*
X103750000Y-111575000D01*
X89750000Y-115350000D02*
X90500000Y-114600000D01*
X103750000Y-111575000D02*
X103975000Y-111800000D01*
X86800000Y-115425000D02*
X86800000Y-115750000D01*
X89750000Y-116537500D02*
X89750000Y-116926618D01*
X84455000Y-119915000D02*
X79160000Y-119915000D01*
D37*
X101700000Y-123350000D02*
X101425000Y-123075000D01*
D36*
X99675000Y-123150000D02*
X99750000Y-123075000D01*
X99750000Y-123075000D02*
X101425000Y-123075000D01*
D37*
X103150000Y-123350000D02*
X101700000Y-123350000D01*
D36*
X88200000Y-122450000D02*
X88650000Y-122000000D01*
D37*
X68215000Y-122700000D02*
X68215000Y-121385000D01*
D36*
X93850000Y-108050000D02*
X93875000Y-108025000D01*
X87400000Y-122450000D02*
X88200000Y-122450000D01*
D37*
X68215000Y-121385000D02*
X68700000Y-120900000D01*
D36*
X86750000Y-108400000D02*
X86300000Y-107950000D01*
X87400000Y-122450000D02*
X88200000Y-123250000D01*
X93875000Y-107100000D02*
X93875000Y-108025000D01*
X86750000Y-109025000D02*
X86750000Y-108400000D01*
X88200000Y-123250000D02*
X88200000Y-124100000D01*
X78375000Y-105700000D02*
X78375000Y-108200000D01*
X99675000Y-120275000D02*
X99150000Y-119750000D01*
X78375000Y-110000000D02*
X78375000Y-108350000D01*
X78375000Y-108200000D02*
X78375000Y-108325000D01*
X99675000Y-121500000D02*
X99675000Y-120275000D01*
X94225000Y-116525000D02*
X94225000Y-115575000D01*
X93475000Y-117275000D02*
X94225000Y-116525000D01*
X92580000Y-120720000D02*
X92600000Y-120740000D01*
X91500000Y-118500000D02*
X91500000Y-117925000D01*
X92220000Y-119220000D02*
X91500000Y-118500000D01*
X92150000Y-117275000D02*
X93475000Y-117275000D01*
X92700000Y-119220000D02*
X92700000Y-120640000D01*
X94100000Y-115450000D02*
X93700000Y-115850000D01*
X91500000Y-117925000D02*
X92150000Y-117275000D01*
X92700000Y-120640000D02*
X92600000Y-120740000D01*
X94225000Y-115575000D02*
X94100000Y-115450000D01*
X93700000Y-115850000D02*
X92437500Y-115850000D01*
X92700000Y-119220000D02*
X92220000Y-119220000D01*
X95600000Y-113800000D02*
X94100000Y-113800000D01*
X94100000Y-113800000D02*
X94100000Y-114076618D01*
X92826618Y-115350000D02*
X92437500Y-115350000D01*
X94100000Y-114076618D02*
X92826618Y-115350000D01*
X95487500Y-105600000D02*
X95487500Y-107062500D01*
X95487500Y-107062500D02*
X95525000Y-107100000D01*
X93850000Y-112624000D02*
X95570072Y-112624000D01*
X90800000Y-109050000D02*
X90044987Y-109050000D01*
X96350000Y-113425000D02*
X96350000Y-114600000D01*
X96325000Y-113400000D02*
X96350000Y-113425000D01*
X96350000Y-114600000D02*
X97150000Y-115400000D01*
X97150000Y-115400000D02*
X97150000Y-115475000D01*
X96325000Y-113378928D02*
X96325000Y-113400000D01*
X95570072Y-112624000D02*
X96325000Y-113378928D01*
X90044987Y-109050000D02*
X89468437Y-108473450D01*
X96774500Y-112149500D02*
X97125000Y-112500000D01*
X88562500Y-112187500D02*
X89225000Y-111525000D01*
X92400000Y-111525000D02*
X92649500Y-111774500D01*
X92649500Y-112149500D02*
X96225000Y-112149500D01*
X92649500Y-111774500D02*
X92649500Y-112149500D01*
X88562500Y-113350000D02*
X88562500Y-112187500D01*
X97125000Y-113750000D02*
X97075000Y-113800000D01*
X96075000Y-111050000D02*
X94800000Y-111050000D01*
X94800000Y-111050000D02*
X94700000Y-110950000D01*
X97125000Y-112500000D02*
X97125000Y-113750000D01*
X96225000Y-112149500D02*
X96774500Y-112149500D01*
X89225000Y-111525000D02*
X92400000Y-111525000D01*
X95600000Y-108150000D02*
X99525000Y-108150000D01*
X99837500Y-108462500D02*
X99837500Y-109175000D01*
X99525000Y-108150000D02*
X99837500Y-108462500D01*
X94700000Y-109050000D02*
X95600000Y-108150000D01*
X87875000Y-115350000D02*
X87750000Y-115225000D01*
X88562500Y-115350000D02*
X87875000Y-115350000D01*
X87850000Y-111375000D02*
X88275000Y-110950000D01*
X92800000Y-110950000D02*
X93525000Y-111675000D01*
X93525000Y-111675000D02*
X98987500Y-111675000D01*
X87850000Y-112775000D02*
X87850000Y-111375000D01*
X90800000Y-110950000D02*
X92800000Y-110950000D01*
X88275000Y-110950000D02*
X90800000Y-110950000D01*
X98987500Y-111675000D02*
X99837500Y-110825000D01*
X88150481Y-119174519D02*
X87600481Y-119174519D01*
X87600481Y-118100481D02*
X87600481Y-119174519D01*
X85750480Y-117521552D02*
X86154408Y-117925480D01*
X85750480Y-114824520D02*
X85750480Y-117521552D01*
X77500000Y-121100000D02*
X77100000Y-121500000D01*
X86154408Y-117925480D02*
X87425480Y-117925480D01*
X77100000Y-121500000D02*
X77105000Y-121505000D01*
X86430000Y-119070000D02*
X86100000Y-119400000D01*
X77105000Y-121505000D02*
X77105000Y-122700000D01*
X86100000Y-119400000D02*
X86100000Y-120300000D01*
X89050000Y-118275000D02*
X88150481Y-119174519D01*
X85000000Y-121700000D02*
X84400000Y-121100000D01*
X86854519Y-119174519D02*
X86750000Y-119070000D01*
X92000000Y-118250000D02*
X92575000Y-117675000D01*
X86750000Y-119070000D02*
X86430000Y-119070000D01*
X98525000Y-117675000D02*
X101425000Y-120575000D01*
X87425480Y-117925480D02*
X87600481Y-118100481D01*
X84400000Y-121100000D02*
X77500000Y-121100000D01*
X86100000Y-120300000D02*
X86000000Y-120400000D01*
X86800000Y-113775000D02*
X85750480Y-114824520D01*
X92575000Y-117675000D02*
X98525000Y-117675000D01*
X87600481Y-119174519D02*
X86854519Y-119174519D01*
X89500000Y-108000000D02*
X89125000Y-107625000D01*
X89125000Y-107625000D02*
X89125000Y-107100000D01*
X93473301Y-109273301D02*
X92200000Y-108000000D01*
X92582940Y-112662500D02*
X92622224Y-112623216D01*
X92200000Y-108000000D02*
X89500000Y-108000000D01*
X91750000Y-112662500D02*
X92582940Y-112662500D01*
X87512500Y-105600000D02*
X87512500Y-107062500D01*
X87512500Y-107062500D02*
X87475000Y-107100000D01*
X88275000Y-108075000D02*
X88275000Y-106625000D01*
X91250000Y-112273382D02*
X91547902Y-111975480D01*
X89450000Y-109250000D02*
X88275000Y-108075000D01*
X89924520Y-106349520D02*
X90675000Y-107100000D01*
X91547902Y-111975480D02*
X92125480Y-111975480D01*
X88275000Y-106625000D02*
X88550480Y-106349520D01*
X88550480Y-106349520D02*
X89924520Y-106349520D01*
X92125480Y-111975480D02*
X92175000Y-112025000D01*
X91250000Y-112662500D02*
X91250000Y-112273382D01*
X92287500Y-107062500D02*
X92325000Y-107100000D01*
X92287500Y-105600000D02*
X92287500Y-107062500D01*
X90750000Y-112024500D02*
X90750000Y-112662500D01*
X93313361Y-110699500D02*
X93663341Y-110349520D01*
X98087500Y-110575000D02*
X98337500Y-110825000D01*
X93663341Y-110349520D02*
X95586659Y-110349520D01*
X93250000Y-110699500D02*
X93313361Y-110699500D01*
X95586659Y-110349520D02*
X95812139Y-110575000D01*
X95812139Y-110575000D02*
X98087500Y-110575000D01*
X90775000Y-111999500D02*
X90750000Y-112024500D01*
X91250000Y-116537500D02*
X91437500Y-116537500D01*
X91437500Y-116537500D02*
X91625000Y-116350000D01*
X90675000Y-105562500D02*
X90712500Y-105600000D01*
X92650000Y-116750000D02*
X91962500Y-116750000D01*
X91625000Y-116350000D02*
X93475000Y-116350000D01*
X89087500Y-105600000D02*
X90712500Y-105600000D01*
X86425000Y-117050000D02*
X87025000Y-117050000D01*
X90675000Y-104625000D02*
X90675000Y-105562500D01*
X91962500Y-116750000D02*
X91750000Y-116537500D01*
X87025000Y-117050000D02*
X87225000Y-116850000D01*
X91437500Y-116537500D02*
X91750000Y-116537500D01*
X87120000Y-110541072D02*
X85825489Y-109246561D01*
X88401469Y-110375480D02*
X88500989Y-110475000D01*
X87049520Y-110375480D02*
X88401469Y-110375480D01*
X87120000Y-112400000D02*
X87120000Y-110541072D01*
X85025000Y-107100000D02*
X83975000Y-107100000D01*
X85825489Y-109246561D02*
X85825489Y-107900489D01*
X69485000Y-122700000D02*
X69485000Y-121550000D01*
X83975000Y-107100000D02*
X82550000Y-108525000D01*
X98845382Y-110000000D02*
X98922691Y-110077309D01*
X96575000Y-110000000D02*
X98845382Y-110000000D01*
X96416953Y-109341953D02*
X96416953Y-109841953D01*
X78275000Y-118150000D02*
X78175000Y-118150000D01*
X101325000Y-108100000D02*
X101325000Y-109475000D01*
X83174511Y-109149511D02*
X83174511Y-113250489D01*
X69485000Y-121550000D02*
X70610000Y-120425000D01*
X102755000Y-110905000D02*
X101375000Y-109525000D01*
X82550000Y-108525000D02*
X83174511Y-109149511D01*
X96416953Y-109841953D02*
X96575000Y-110000000D01*
X102755000Y-111575000D02*
X102755000Y-110905000D01*
X85825489Y-107900489D02*
X85025000Y-107100000D01*
X86750000Y-110675000D02*
X87049520Y-110375480D01*
X83174511Y-113250489D02*
X78425000Y-118000000D01*
X101325000Y-109475000D02*
X101375000Y-109525000D01*
X78425000Y-118000000D02*
X78275000Y-118150000D01*
X70610000Y-120425000D02*
X76400000Y-120425000D01*
X86750000Y-110675000D02*
X87120000Y-111045000D01*
X87120000Y-111045000D02*
X87120000Y-112400000D01*
X92832322Y-114850000D02*
X92437500Y-114850000D01*
X88075000Y-117050000D02*
X88700000Y-116425000D01*
X93228604Y-114060935D02*
X93228604Y-114453718D01*
X93228604Y-114453718D02*
X92832322Y-114850000D01*
X95087861Y-110000000D02*
X96588341Y-108499520D01*
X84750000Y-105700000D02*
X89050000Y-110000000D01*
X83455000Y-105700000D02*
X84750000Y-105700000D01*
X100587020Y-109571552D02*
X100587020Y-107912980D01*
X99365948Y-109849520D02*
X100309052Y-109849520D01*
X99087980Y-109571552D02*
X99365948Y-109849520D01*
X101000000Y-107500000D02*
X102705000Y-107500000D01*
X89050000Y-110000000D02*
X92675000Y-110000000D01*
X99087980Y-108712500D02*
X99087980Y-109571552D01*
X100587020Y-107912980D02*
X101000000Y-107500000D01*
X102705000Y-107500000D02*
X102705000Y-106780000D01*
X100309052Y-109849520D02*
X100587020Y-109571552D01*
X96588341Y-108499520D02*
X98875000Y-108499520D01*
X98875000Y-108499520D02*
X99087980Y-108712500D01*
X102705000Y-106780000D02*
X101400000Y-105475000D01*
X92675000Y-110000000D02*
X95087861Y-110000000D01*
X87700000Y-113850000D02*
X87675000Y-113875000D01*
X80924511Y-110349511D02*
X74299511Y-110349511D01*
X82625000Y-112050000D02*
X80924511Y-110349511D01*
X72025000Y-108075000D02*
X72025000Y-105700000D01*
X88562500Y-113850000D02*
X87700000Y-113850000D01*
X74299511Y-110349511D02*
X72025000Y-108075000D01*
X70755000Y-108680000D02*
X70755000Y-105700000D01*
X88562500Y-114350000D02*
X87900000Y-114350000D01*
X87900000Y-114350000D02*
X87675000Y-114575000D01*
X73250000Y-111175000D02*
X70755000Y-108680000D01*
X80875000Y-111175000D02*
X73250000Y-111175000D01*
X82700000Y-113000000D02*
X80875000Y-111175000D01*
D38*
X93328969Y-122151031D02*
X90201031Y-122151031D01*
X90201031Y-122151031D02*
X89850000Y-121800000D01*
X90250000Y-117250000D02*
X90250000Y-116537500D01*
X89850000Y-117650000D02*
X90250000Y-117250000D01*
X93900000Y-120740000D02*
X93900000Y-121580000D01*
X93900000Y-121580000D02*
X93328969Y-122151031D01*
X89850000Y-121800000D02*
X89850000Y-117650000D01*
X92955489Y-121874511D02*
X90524511Y-121874511D01*
X90524511Y-121874511D02*
X90200000Y-121550000D01*
X93250000Y-120740000D02*
X93250000Y-121580000D01*
X90200000Y-121550000D02*
X90200000Y-118200000D01*
X90200000Y-118200000D02*
X90750000Y-117650000D01*
X90750000Y-117650000D02*
X90750000Y-116537500D01*
X93250000Y-121580000D02*
X92955489Y-121874511D01*
%TA.AperFunction,Conductor*%
G36*
X140942121Y-103220502D02*
G01*
X140988614Y-103274158D01*
X141000000Y-103326500D01*
X141000000Y-125073500D01*
X140979998Y-125141621D01*
X140926342Y-125188114D01*
X140874000Y-125199500D01*
X87338300Y-125199500D01*
X87270179Y-125179498D01*
X87223686Y-125125842D01*
X87213582Y-125055568D01*
X87243076Y-124990988D01*
X87271997Y-124966356D01*
X87327173Y-124932212D01*
X87338574Y-124923176D01*
X87448986Y-124812571D01*
X87457998Y-124801160D01*
X87514086Y-124710168D01*
X87566858Y-124662675D01*
X87636930Y-124651251D01*
X87702054Y-124679525D01*
X87710441Y-124687189D01*
X87721780Y-124698528D01*
X87841874Y-124759719D01*
X87851663Y-124761269D01*
X87851665Y-124761270D01*
X87881149Y-124765940D01*
X87941512Y-124775500D01*
X88458488Y-124775500D01*
X88518851Y-124765940D01*
X88548335Y-124761270D01*
X88548337Y-124761269D01*
X88558126Y-124759719D01*
X88678220Y-124698528D01*
X88773528Y-124603220D01*
X88834719Y-124483126D01*
X88837178Y-124467604D01*
X88847575Y-124401953D01*
X88850500Y-124383488D01*
X88850500Y-124094669D01*
X89192001Y-124094669D01*
X89192371Y-124101490D01*
X89197895Y-124152352D01*
X89201521Y-124167604D01*
X89246676Y-124288054D01*
X89255214Y-124303649D01*
X89331715Y-124405724D01*
X89344276Y-124418285D01*
X89446351Y-124494786D01*
X89461946Y-124503324D01*
X89582394Y-124548478D01*
X89597649Y-124552105D01*
X89648514Y-124557631D01*
X89655328Y-124558000D01*
X90252885Y-124558000D01*
X90268124Y-124553525D01*
X90269329Y-124552135D01*
X90271000Y-124544452D01*
X90271000Y-124539884D01*
X90779000Y-124539884D01*
X90783475Y-124555123D01*
X90784865Y-124556328D01*
X90792548Y-124557999D01*
X91307974Y-124557999D01*
X91376095Y-124578001D01*
X91408800Y-124608434D01*
X91481715Y-124705724D01*
X91494276Y-124718285D01*
X91596351Y-124794786D01*
X91611946Y-124803324D01*
X91732394Y-124848478D01*
X91747649Y-124852105D01*
X91798514Y-124857631D01*
X91805328Y-124858000D01*
X92477885Y-124858000D01*
X92493124Y-124853525D01*
X92494329Y-124852135D01*
X92496000Y-124844452D01*
X92496000Y-124839884D01*
X93004000Y-124839884D01*
X93008475Y-124855123D01*
X93009865Y-124856328D01*
X93017548Y-124857999D01*
X93694669Y-124857999D01*
X93701490Y-124857629D01*
X93752352Y-124852105D01*
X93767604Y-124848479D01*
X93888054Y-124803324D01*
X93903649Y-124794786D01*
X94005724Y-124718285D01*
X94018285Y-124705724D01*
X94094786Y-124603649D01*
X94103324Y-124588054D01*
X94148478Y-124467606D01*
X94152105Y-124452351D01*
X94157631Y-124401486D01*
X94158000Y-124394672D01*
X94158000Y-124394669D01*
X94442001Y-124394669D01*
X94442371Y-124401490D01*
X94447895Y-124452352D01*
X94451521Y-124467604D01*
X94496676Y-124588054D01*
X94505214Y-124603649D01*
X94581715Y-124705724D01*
X94594276Y-124718285D01*
X94696351Y-124794786D01*
X94711946Y-124803324D01*
X94832394Y-124848478D01*
X94847649Y-124852105D01*
X94898514Y-124857631D01*
X94905328Y-124858000D01*
X95177885Y-124858000D01*
X95193124Y-124853525D01*
X95194329Y-124852135D01*
X95196000Y-124844452D01*
X95196000Y-124839884D01*
X95704000Y-124839884D01*
X95708475Y-124855123D01*
X95709865Y-124856328D01*
X95717548Y-124857999D01*
X95994669Y-124857999D01*
X96001490Y-124857629D01*
X96052352Y-124852105D01*
X96067604Y-124848479D01*
X96188054Y-124803324D01*
X96203649Y-124794786D01*
X96305724Y-124718285D01*
X96318285Y-124705724D01*
X96391199Y-124608435D01*
X96448058Y-124565920D01*
X96492025Y-124558000D01*
X97002885Y-124558000D01*
X97018124Y-124553525D01*
X97019329Y-124552135D01*
X97021000Y-124544452D01*
X97021000Y-124539884D01*
X97529000Y-124539884D01*
X97533475Y-124555123D01*
X97534865Y-124556328D01*
X97542548Y-124557999D01*
X98144669Y-124557999D01*
X98151490Y-124557629D01*
X98202352Y-124552105D01*
X98217604Y-124548479D01*
X98338054Y-124503324D01*
X98353649Y-124494786D01*
X98455724Y-124418285D01*
X98468285Y-124405724D01*
X98544786Y-124303649D01*
X98553324Y-124288054D01*
X98598478Y-124167606D01*
X98602105Y-124152351D01*
X98607631Y-124101486D01*
X98608000Y-124094672D01*
X98608000Y-123672115D01*
X98603525Y-123656876D01*
X98602135Y-123655671D01*
X98594452Y-123654000D01*
X97547115Y-123654000D01*
X97531876Y-123658475D01*
X97530671Y-123659865D01*
X97529000Y-123667548D01*
X97529000Y-124539884D01*
X97021000Y-124539884D01*
X97021000Y-123672115D01*
X97016525Y-123656876D01*
X97015135Y-123655671D01*
X97007452Y-123654000D01*
X95722115Y-123654000D01*
X95706876Y-123658475D01*
X95705671Y-123659865D01*
X95704000Y-123667548D01*
X95704000Y-124839884D01*
X95196000Y-124839884D01*
X95196000Y-123672115D01*
X95191525Y-123656876D01*
X95190135Y-123655671D01*
X95182452Y-123654000D01*
X94460116Y-123654000D01*
X94444877Y-123658475D01*
X94443672Y-123659865D01*
X94442001Y-123667548D01*
X94442001Y-124394669D01*
X94158000Y-124394669D01*
X94158000Y-123672115D01*
X94153525Y-123656876D01*
X94152135Y-123655671D01*
X94144452Y-123654000D01*
X93022115Y-123654000D01*
X93006876Y-123658475D01*
X93005671Y-123659865D01*
X93004000Y-123667548D01*
X93004000Y-124839884D01*
X92496000Y-124839884D01*
X92496000Y-123672115D01*
X92491525Y-123656876D01*
X92490135Y-123655671D01*
X92482452Y-123654000D01*
X90797115Y-123654000D01*
X90781876Y-123658475D01*
X90780671Y-123659865D01*
X90779000Y-123667548D01*
X90779000Y-124539884D01*
X90271000Y-124539884D01*
X90271000Y-123672115D01*
X90266525Y-123656876D01*
X90265135Y-123655671D01*
X90257452Y-123654000D01*
X89210116Y-123654000D01*
X89194877Y-123658475D01*
X89193672Y-123659865D01*
X89192001Y-123667548D01*
X89192001Y-124094669D01*
X88850500Y-124094669D01*
X88850500Y-123816512D01*
X88837692Y-123735646D01*
X88836270Y-123726665D01*
X88836269Y-123726663D01*
X88834719Y-123716874D01*
X88773528Y-123596780D01*
X88678220Y-123501472D01*
X88590531Y-123456792D01*
X88566962Y-123444783D01*
X88566961Y-123444783D01*
X88558126Y-123440281D01*
X88558053Y-123440270D01*
X88503960Y-123403283D01*
X88476322Y-123337886D01*
X88475500Y-123323521D01*
X88475500Y-123289543D01*
X88477921Y-123264961D01*
X88478476Y-123262171D01*
X88480897Y-123250000D01*
X88475500Y-123222867D01*
X88459515Y-123142505D01*
X88421523Y-123085646D01*
X88413994Y-123074378D01*
X88413993Y-123074377D01*
X88398624Y-123051376D01*
X88385936Y-123042898D01*
X88366844Y-123027228D01*
X88327232Y-122987616D01*
X88293206Y-122925304D01*
X88297444Y-122856773D01*
X88319974Y-122792616D01*
X88322519Y-122785369D01*
X88325500Y-122753834D01*
X88326909Y-122753967D01*
X88348348Y-122692076D01*
X88380961Y-122660428D01*
X88388306Y-122655520D01*
X88388311Y-122655515D01*
X88398624Y-122648624D01*
X88407104Y-122635934D01*
X88422771Y-122616845D01*
X88602186Y-122437430D01*
X88671570Y-122402076D01*
X88765513Y-122387197D01*
X88765515Y-122387196D01*
X88775304Y-122385646D01*
X88888342Y-122328050D01*
X88978050Y-122238342D01*
X89035646Y-122125304D01*
X89037337Y-122114631D01*
X89053941Y-122009793D01*
X89055492Y-122000000D01*
X89052229Y-121979397D01*
X89037197Y-121884487D01*
X89037196Y-121884485D01*
X89035646Y-121874696D01*
X88978050Y-121761658D01*
X88888342Y-121671950D01*
X88775304Y-121614354D01*
X88765515Y-121612804D01*
X88765513Y-121612803D01*
X88659793Y-121596059D01*
X88650000Y-121594508D01*
X88640207Y-121596059D01*
X88534487Y-121612803D01*
X88534485Y-121612804D01*
X88524696Y-121614354D01*
X88411658Y-121671950D01*
X88321950Y-121761658D01*
X88312323Y-121780552D01*
X88263576Y-121832169D01*
X88194661Y-121849237D01*
X88125195Y-121824703D01*
X88095757Y-121802959D01*
X88095754Y-121802958D01*
X88088184Y-121797366D01*
X88042027Y-121781157D01*
X87984381Y-121739714D01*
X87958293Y-121673684D01*
X87972044Y-121604032D01*
X88021269Y-121552871D01*
X88043899Y-121542750D01*
X88191784Y-121493412D01*
X88204962Y-121487239D01*
X88342807Y-121401937D01*
X88354208Y-121392901D01*
X88468739Y-121278171D01*
X88477751Y-121266760D01*
X88562816Y-121128757D01*
X88568963Y-121115576D01*
X88620138Y-120961290D01*
X88623005Y-120947914D01*
X88632672Y-120853562D01*
X88633000Y-120847146D01*
X88633000Y-120822115D01*
X88628525Y-120806876D01*
X88627135Y-120805671D01*
X88619452Y-120804000D01*
X87272000Y-120804000D01*
X87203879Y-120783998D01*
X87157386Y-120730342D01*
X87146000Y-120678000D01*
X87146000Y-120422000D01*
X87166002Y-120353879D01*
X87219658Y-120307386D01*
X87272000Y-120296000D01*
X88614884Y-120296000D01*
X88630123Y-120291525D01*
X88631328Y-120290135D01*
X88632999Y-120282452D01*
X88632999Y-120252905D01*
X88632662Y-120246386D01*
X88622743Y-120150794D01*
X88619851Y-120137400D01*
X88568412Y-119983216D01*
X88562239Y-119970038D01*
X88476937Y-119832193D01*
X88467901Y-119820792D01*
X88353171Y-119706261D01*
X88341760Y-119697249D01*
X88259979Y-119646839D01*
X88212486Y-119594067D01*
X88201062Y-119523996D01*
X88229336Y-119458872D01*
X88259666Y-119436564D01*
X88257976Y-119434034D01*
X88319021Y-119393245D01*
X88319025Y-119393242D01*
X88326103Y-119388513D01*
X88327836Y-119391107D01*
X88327837Y-119391106D01*
X88326104Y-119388512D01*
X88338792Y-119380034D01*
X88349105Y-119373143D01*
X88357583Y-119360455D01*
X88373253Y-119341363D01*
X89002186Y-118712430D01*
X89071570Y-118677076D01*
X89165513Y-118662197D01*
X89165515Y-118662196D01*
X89175304Y-118660646D01*
X89288342Y-118603050D01*
X89334405Y-118556987D01*
X89396717Y-118522961D01*
X89467532Y-118528026D01*
X89524368Y-118570573D01*
X89549179Y-118637093D01*
X89549500Y-118646082D01*
X89549500Y-121747634D01*
X89549304Y-121750307D01*
X89547575Y-121755342D01*
X89548011Y-121766964D01*
X89548011Y-121766966D01*
X89549411Y-121804255D01*
X89549500Y-121808981D01*
X89549500Y-121827948D01*
X89550382Y-121832683D01*
X89550610Y-121836209D01*
X89551774Y-121867208D01*
X89556364Y-121877893D01*
X89557401Y-121882493D01*
X89560962Y-121894214D01*
X89562661Y-121898617D01*
X89564791Y-121910053D01*
X89570895Y-121919955D01*
X89577727Y-121931039D01*
X89586231Y-121947411D01*
X89592451Y-121961888D01*
X89592453Y-121961892D01*
X89595964Y-121970063D01*
X89599978Y-121974949D01*
X89602163Y-121977134D01*
X89604215Y-121979397D01*
X89604055Y-121979542D01*
X89611175Y-121988549D01*
X89617427Y-121995444D01*
X89623532Y-122005348D01*
X89645320Y-122021916D01*
X89658139Y-122033110D01*
X89660545Y-122035516D01*
X89694571Y-122097828D01*
X89689506Y-122168643D01*
X89646959Y-122225479D01*
X89600596Y-122247194D01*
X89582394Y-122251522D01*
X89461946Y-122296676D01*
X89446351Y-122305214D01*
X89344276Y-122381715D01*
X89331715Y-122394276D01*
X89255214Y-122496351D01*
X89246676Y-122511946D01*
X89201522Y-122632394D01*
X89197895Y-122647649D01*
X89192369Y-122698514D01*
X89192000Y-122705328D01*
X89192000Y-123127885D01*
X89196475Y-123143124D01*
X89197865Y-123144329D01*
X89205548Y-123146000D01*
X94139884Y-123146000D01*
X94155123Y-123141525D01*
X94156328Y-123140135D01*
X94157999Y-123132452D01*
X94157999Y-122405331D01*
X94157629Y-122398510D01*
X94152105Y-122347648D01*
X94148479Y-122332396D01*
X94103324Y-122211946D01*
X94094786Y-122196351D01*
X94018285Y-122094276D01*
X94003585Y-122079576D01*
X93969559Y-122017264D01*
X93974624Y-121946449D01*
X94003585Y-121901386D01*
X94075452Y-121829519D01*
X94077486Y-121827763D01*
X94082269Y-121825425D01*
X94115573Y-121789523D01*
X94118853Y-121786118D01*
X94132248Y-121772723D01*
X94134972Y-121768753D01*
X94137297Y-121766105D01*
X94147925Y-121754647D01*
X94158401Y-121743354D01*
X94162713Y-121732547D01*
X94165232Y-121728562D01*
X94171008Y-121717746D01*
X94172914Y-121713444D01*
X94179493Y-121703854D01*
X94180350Y-121700241D01*
X94222911Y-121649991D01*
X94290802Y-121629224D01*
X94301086Y-121629671D01*
X94305252Y-121630500D01*
X94427354Y-121630500D01*
X94495475Y-121650502D01*
X94528180Y-121680935D01*
X94606715Y-121785724D01*
X94619277Y-121798286D01*
X94661334Y-121829806D01*
X94703849Y-121886665D01*
X94708875Y-121957484D01*
X94674815Y-122019777D01*
X94661334Y-122031458D01*
X94594276Y-122081715D01*
X94581715Y-122094276D01*
X94505214Y-122196351D01*
X94496676Y-122211946D01*
X94451522Y-122332394D01*
X94447895Y-122347649D01*
X94442369Y-122398514D01*
X94442000Y-122405328D01*
X94442000Y-123127885D01*
X94446475Y-123143124D01*
X94447865Y-123144329D01*
X94455548Y-123146000D01*
X98589884Y-123146000D01*
X98605123Y-123141525D01*
X98606328Y-123140135D01*
X98607999Y-123132452D01*
X98607999Y-122918481D01*
X98999500Y-122918481D01*
X98999501Y-123381518D01*
X99000276Y-123386411D01*
X99000276Y-123386412D01*
X99010983Y-123454016D01*
X99014354Y-123475304D01*
X99018855Y-123484137D01*
X99018857Y-123484142D01*
X99027687Y-123501472D01*
X99071950Y-123588342D01*
X99161658Y-123678050D01*
X99274696Y-123735646D01*
X99284485Y-123737196D01*
X99284487Y-123737197D01*
X99311849Y-123741530D01*
X99368481Y-123750500D01*
X99674938Y-123750500D01*
X99981518Y-123750499D01*
X99986412Y-123749724D01*
X100065506Y-123737198D01*
X100065508Y-123737197D01*
X100075304Y-123735646D01*
X100094597Y-123725816D01*
X100127130Y-123709239D01*
X100188342Y-123678050D01*
X100278050Y-123588342D01*
X100335646Y-123475304D01*
X100338578Y-123456792D01*
X100368988Y-123392639D01*
X100429256Y-123355110D01*
X100463027Y-123350500D01*
X100598500Y-123350500D01*
X100666621Y-123370502D01*
X100713114Y-123424158D01*
X100724500Y-123476500D01*
X100724500Y-123594748D01*
X100736133Y-123653231D01*
X100780448Y-123719552D01*
X100846769Y-123763867D01*
X100858938Y-123766288D01*
X100858939Y-123766288D01*
X100899184Y-123774293D01*
X100905252Y-123775500D01*
X101944748Y-123775500D01*
X102003231Y-123763867D01*
X102010095Y-123759280D01*
X102054238Y-123750500D01*
X103108564Y-123750500D01*
X103128274Y-123752051D01*
X103150000Y-123755492D01*
X103159793Y-123753941D01*
X103265513Y-123737197D01*
X103265515Y-123737196D01*
X103275304Y-123735646D01*
X103388342Y-123678050D01*
X103478050Y-123588342D01*
X103535646Y-123475304D01*
X103537213Y-123465415D01*
X103553941Y-123359793D01*
X103555492Y-123350000D01*
X103542023Y-123264961D01*
X103537197Y-123234487D01*
X103537196Y-123234485D01*
X103535646Y-123224696D01*
X103478050Y-123111658D01*
X103388342Y-123021950D01*
X103275304Y-122964354D01*
X103265515Y-122962804D01*
X103265513Y-122962803D01*
X103181519Y-122949500D01*
X103159793Y-122946059D01*
X103150000Y-122944508D01*
X103140207Y-122946059D01*
X103128274Y-122947949D01*
X103108564Y-122949500D01*
X102251500Y-122949500D01*
X102183379Y-122929498D01*
X102136886Y-122875842D01*
X102125500Y-122823500D01*
X102125500Y-122555252D01*
X102113867Y-122496769D01*
X102069552Y-122430448D01*
X102003231Y-122386133D01*
X101991062Y-122383712D01*
X101991061Y-122383712D01*
X101950816Y-122375707D01*
X101944748Y-122374500D01*
X100905252Y-122374500D01*
X100899184Y-122375707D01*
X100858939Y-122383712D01*
X100858938Y-122383712D01*
X100846769Y-122386133D01*
X100780448Y-122430448D01*
X100736133Y-122496769D01*
X100724500Y-122555252D01*
X100724500Y-122673500D01*
X100704498Y-122741621D01*
X100650842Y-122788114D01*
X100598500Y-122799500D01*
X100400021Y-122799500D01*
X100331900Y-122779498D01*
X100287754Y-122730703D01*
X100287528Y-122730259D01*
X100278050Y-122711658D01*
X100188342Y-122621950D01*
X100075304Y-122564354D01*
X100065515Y-122562804D01*
X100065513Y-122562803D01*
X100038151Y-122558470D01*
X99981519Y-122549500D01*
X99675062Y-122549500D01*
X99368482Y-122549501D01*
X99363589Y-122550276D01*
X99363588Y-122550276D01*
X99284494Y-122562802D01*
X99284492Y-122562803D01*
X99274696Y-122564354D01*
X99161658Y-122621950D01*
X99071950Y-122711658D01*
X99014354Y-122824696D01*
X99012804Y-122834485D01*
X99012803Y-122834487D01*
X99008470Y-122861849D01*
X98999500Y-122918481D01*
X98607999Y-122918481D01*
X98607999Y-122705331D01*
X98607629Y-122698510D01*
X98602105Y-122647648D01*
X98598479Y-122632396D01*
X98553324Y-122511946D01*
X98544786Y-122496351D01*
X98468285Y-122394276D01*
X98455724Y-122381715D01*
X98353649Y-122305214D01*
X98338054Y-122296676D01*
X98217606Y-122251522D01*
X98202351Y-122247895D01*
X98151486Y-122242369D01*
X98144672Y-122242000D01*
X97468724Y-122242000D01*
X97400603Y-122221998D01*
X97354110Y-122168342D01*
X97344006Y-122098068D01*
X97373500Y-122033488D01*
X97393160Y-122015173D01*
X97455725Y-121968284D01*
X97468285Y-121955724D01*
X97544786Y-121853649D01*
X97553324Y-121838054D01*
X97598478Y-121717606D01*
X97602105Y-121702351D01*
X97607631Y-121651486D01*
X97608000Y-121644672D01*
X97608000Y-121097115D01*
X97603525Y-121081876D01*
X97602135Y-121080671D01*
X97594452Y-121079000D01*
X95443115Y-121079000D01*
X95427876Y-121083475D01*
X95426671Y-121084865D01*
X95425000Y-121092548D01*
X95425000Y-121852000D01*
X95404998Y-121920121D01*
X95351342Y-121966614D01*
X95299000Y-121978000D01*
X95101000Y-121978000D01*
X95032879Y-121957998D01*
X94986386Y-121904342D01*
X94975000Y-121852000D01*
X94975000Y-121454826D01*
X94975167Y-121451422D01*
X94975500Y-121449748D01*
X94975500Y-120496885D01*
X95425000Y-120496885D01*
X95429475Y-120512124D01*
X95430865Y-120513329D01*
X95438548Y-120515000D01*
X95869170Y-120515000D01*
X95937291Y-120535002D01*
X95951682Y-120545775D01*
X95978865Y-120569329D01*
X95986548Y-120571000D01*
X96115385Y-120571000D01*
X96130624Y-120566525D01*
X96131829Y-120565135D01*
X96133500Y-120557452D01*
X96133500Y-120552885D01*
X96641500Y-120552885D01*
X96645975Y-120568124D01*
X96647365Y-120569329D01*
X96655048Y-120571000D01*
X97589884Y-120571000D01*
X97605123Y-120566525D01*
X97606328Y-120565135D01*
X97607999Y-120557452D01*
X97607999Y-120005331D01*
X97607629Y-119998510D01*
X97602105Y-119947648D01*
X97598479Y-119932396D01*
X97553324Y-119811946D01*
X97544786Y-119796351D01*
X97510048Y-119750000D01*
X98744508Y-119750000D01*
X98746059Y-119759793D01*
X98762110Y-119861133D01*
X98764354Y-119875304D01*
X98821950Y-119988342D01*
X98911658Y-120078050D01*
X99024696Y-120135646D01*
X99034485Y-120137196D01*
X99034487Y-120137197D01*
X99128430Y-120152076D01*
X99197814Y-120187430D01*
X99362595Y-120352211D01*
X99396621Y-120414523D01*
X99399500Y-120441306D01*
X99399500Y-120786973D01*
X99379498Y-120855094D01*
X99325842Y-120901587D01*
X99293211Y-120911422D01*
X99274696Y-120914354D01*
X99161658Y-120971950D01*
X99071950Y-121061658D01*
X99014354Y-121174696D01*
X98999500Y-121268481D01*
X98999501Y-121731518D01*
X99000276Y-121736409D01*
X99000276Y-121736412D01*
X99008086Y-121785724D01*
X99014354Y-121825304D01*
X99018855Y-121834137D01*
X99018857Y-121834142D01*
X99027956Y-121852000D01*
X99071950Y-121938342D01*
X99161658Y-122028050D01*
X99274696Y-122085646D01*
X99284485Y-122087196D01*
X99284487Y-122087197D01*
X99311849Y-122091530D01*
X99368481Y-122100500D01*
X99674938Y-122100500D01*
X99981518Y-122100499D01*
X99986412Y-122099724D01*
X100065506Y-122087198D01*
X100065508Y-122087197D01*
X100075304Y-122085646D01*
X100188342Y-122028050D01*
X100278050Y-121938342D01*
X100335646Y-121825304D01*
X100350500Y-121731519D01*
X100350499Y-121268482D01*
X100349563Y-121262570D01*
X100337198Y-121184494D01*
X100337197Y-121184492D01*
X100335646Y-121174696D01*
X100278050Y-121061658D01*
X100188342Y-120971950D01*
X100075304Y-120914354D01*
X100056792Y-120911422D01*
X99992639Y-120881012D01*
X99955110Y-120820744D01*
X99950500Y-120786973D01*
X99950500Y-120314543D01*
X99952921Y-120289961D01*
X99953476Y-120287171D01*
X99955897Y-120275000D01*
X99934515Y-120167506D01*
X99934515Y-120167505D01*
X99873624Y-120076376D01*
X99860936Y-120067898D01*
X99841844Y-120052228D01*
X99587430Y-119797814D01*
X99552076Y-119728430D01*
X99537197Y-119634487D01*
X99537196Y-119634485D01*
X99535646Y-119624696D01*
X99478050Y-119511658D01*
X99388342Y-119421950D01*
X99275304Y-119364354D01*
X99265515Y-119362804D01*
X99265513Y-119362803D01*
X99159793Y-119346059D01*
X99150000Y-119344508D01*
X99140207Y-119346059D01*
X99034487Y-119362803D01*
X99034485Y-119362804D01*
X99024696Y-119364354D01*
X98911658Y-119421950D01*
X98821950Y-119511658D01*
X98764354Y-119624696D01*
X98762804Y-119634485D01*
X98762803Y-119634487D01*
X98748705Y-119723500D01*
X98744508Y-119750000D01*
X97510048Y-119750000D01*
X97468285Y-119694276D01*
X97455724Y-119681715D01*
X97353649Y-119605214D01*
X97338054Y-119596676D01*
X97217606Y-119551522D01*
X97202351Y-119547895D01*
X97151486Y-119542369D01*
X97144672Y-119542000D01*
X96659615Y-119542000D01*
X96644376Y-119546475D01*
X96643171Y-119547865D01*
X96641500Y-119555548D01*
X96641500Y-120552885D01*
X96133500Y-120552885D01*
X96133500Y-119560116D01*
X96129025Y-119544877D01*
X96127635Y-119543672D01*
X96119952Y-119542001D01*
X95630331Y-119542001D01*
X95623510Y-119542371D01*
X95564793Y-119548748D01*
X95564533Y-119546353D01*
X95535467Y-119546351D01*
X95535207Y-119548748D01*
X95476486Y-119542369D01*
X95469672Y-119542000D01*
X95443115Y-119542000D01*
X95427876Y-119546475D01*
X95426671Y-119547865D01*
X95425000Y-119555548D01*
X95425000Y-120496885D01*
X94975500Y-120496885D01*
X94975500Y-120030252D01*
X94975167Y-120028578D01*
X94975000Y-120025174D01*
X94975000Y-119560116D01*
X94970525Y-119544877D01*
X94969135Y-119543672D01*
X94961452Y-119542001D01*
X94930331Y-119542001D01*
X94923510Y-119542371D01*
X94872648Y-119547895D01*
X94857396Y-119551521D01*
X94736946Y-119596676D01*
X94721351Y-119605214D01*
X94619276Y-119681715D01*
X94606715Y-119694276D01*
X94528180Y-119799065D01*
X94471321Y-119841580D01*
X94427354Y-119849500D01*
X94305252Y-119849500D01*
X94249579Y-119860574D01*
X94200421Y-119860574D01*
X94144748Y-119849500D01*
X93655252Y-119849500D01*
X93599579Y-119860574D01*
X93550421Y-119860574D01*
X93494748Y-119849500D01*
X93101500Y-119849500D01*
X93033379Y-119829498D01*
X92986886Y-119775842D01*
X92975500Y-119723500D01*
X92975500Y-119259543D01*
X92977921Y-119234963D01*
X92978476Y-119232173D01*
X92978476Y-119232171D01*
X92980897Y-119220000D01*
X92959515Y-119112505D01*
X92898624Y-119021376D01*
X92807495Y-118960485D01*
X92727133Y-118944500D01*
X92700000Y-118939103D01*
X92687829Y-118941524D01*
X92687827Y-118941524D01*
X92685037Y-118942079D01*
X92660457Y-118944500D01*
X92386306Y-118944500D01*
X92318185Y-118924498D01*
X92297211Y-118907595D01*
X92181659Y-118792043D01*
X92147633Y-118729731D01*
X92152698Y-118658916D01*
X92195245Y-118602080D01*
X92213554Y-118590680D01*
X92229508Y-118582551D01*
X92238342Y-118578050D01*
X92328050Y-118488342D01*
X92385646Y-118375304D01*
X92387197Y-118365513D01*
X92402076Y-118271570D01*
X92437430Y-118202186D01*
X92652211Y-117987405D01*
X92714523Y-117953379D01*
X92741306Y-117950500D01*
X98358694Y-117950500D01*
X98426815Y-117970502D01*
X98447789Y-117987405D01*
X100687595Y-120227211D01*
X100721621Y-120289523D01*
X100724500Y-120316306D01*
X100724500Y-121094748D01*
X100725707Y-121100816D01*
X100731505Y-121129962D01*
X100736133Y-121153231D01*
X100780448Y-121219552D01*
X100846769Y-121263867D01*
X100858938Y-121266288D01*
X100858939Y-121266288D01*
X100899184Y-121274293D01*
X100905252Y-121275500D01*
X101944748Y-121275500D01*
X101950816Y-121274293D01*
X101991061Y-121266288D01*
X101991062Y-121266288D01*
X102003231Y-121263867D01*
X102069552Y-121219552D01*
X102113867Y-121153231D01*
X102118496Y-121129962D01*
X102124293Y-121100816D01*
X102125500Y-121094748D01*
X102125500Y-120055252D01*
X102122452Y-120039930D01*
X102116288Y-120008939D01*
X102116288Y-120008938D01*
X102113867Y-119996769D01*
X102069552Y-119930448D01*
X102003231Y-119886133D01*
X101991062Y-119883712D01*
X101991061Y-119883712D01*
X101950816Y-119875707D01*
X101944748Y-119874500D01*
X101166306Y-119874500D01*
X101098185Y-119854498D01*
X101077211Y-119837595D01*
X98747772Y-117508156D01*
X98732102Y-117489064D01*
X98730515Y-117486689D01*
X98723624Y-117476376D01*
X98700623Y-117461007D01*
X98700622Y-117461006D01*
X98673261Y-117442724D01*
X98632495Y-117415485D01*
X98552133Y-117399500D01*
X98537172Y-117396524D01*
X98537171Y-117396524D01*
X98525000Y-117394103D01*
X98512829Y-117396524D01*
X98510039Y-117397079D01*
X98485457Y-117399500D01*
X94044306Y-117399500D01*
X93976185Y-117379498D01*
X93929692Y-117325842D01*
X93919588Y-117255568D01*
X93949082Y-117190988D01*
X93955211Y-117184405D01*
X94391844Y-116747772D01*
X94410936Y-116732102D01*
X94413307Y-116730518D01*
X94413308Y-116730517D01*
X94423624Y-116723624D01*
X94484515Y-116632495D01*
X94500500Y-116552133D01*
X94500500Y-116552132D01*
X94505897Y-116525000D01*
X94502921Y-116510039D01*
X94500500Y-116485457D01*
X94500500Y-116112759D01*
X94520502Y-116044638D01*
X94569293Y-116000494D01*
X94572115Y-115999056D01*
X94641892Y-115985950D01*
X94707677Y-116012648D01*
X94737098Y-116046050D01*
X94759821Y-116083571D01*
X94769131Y-116095443D01*
X94879557Y-116205869D01*
X94891426Y-116215176D01*
X95025012Y-116296079D01*
X95038757Y-116302285D01*
X95188644Y-116349256D01*
X95201694Y-116351869D01*
X95265521Y-116357734D01*
X95271309Y-116358000D01*
X95327885Y-116358000D01*
X95343124Y-116353525D01*
X95344329Y-116352135D01*
X95346000Y-116344452D01*
X95346000Y-115322000D01*
X95366002Y-115253879D01*
X95419658Y-115207386D01*
X95472000Y-115196000D01*
X95728000Y-115196000D01*
X95796121Y-115216002D01*
X95842614Y-115269658D01*
X95854000Y-115322000D01*
X95854000Y-116339884D01*
X95858475Y-116355123D01*
X95859865Y-116356328D01*
X95867548Y-116357999D01*
X95928705Y-116357999D01*
X95934454Y-116357736D01*
X95998315Y-116351868D01*
X96011351Y-116349257D01*
X96161243Y-116302285D01*
X96174988Y-116296079D01*
X96308574Y-116215176D01*
X96320443Y-116205869D01*
X96430869Y-116095443D01*
X96440178Y-116083571D01*
X96463905Y-116044395D01*
X96516303Y-115996489D01*
X96586283Y-115984517D01*
X96636175Y-116003998D01*
X96636658Y-116003050D01*
X96749696Y-116060646D01*
X96759485Y-116062196D01*
X96759487Y-116062197D01*
X96786849Y-116066530D01*
X96843481Y-116075500D01*
X97149938Y-116075500D01*
X97456518Y-116075499D01*
X97462826Y-116074500D01*
X97540506Y-116062198D01*
X97540508Y-116062197D01*
X97550304Y-116060646D01*
X97663342Y-116003050D01*
X97753050Y-115913342D01*
X97810646Y-115800304D01*
X97825500Y-115706519D01*
X97825499Y-115243482D01*
X97824133Y-115234855D01*
X97812198Y-115159494D01*
X97812197Y-115159492D01*
X97810646Y-115149696D01*
X97753050Y-115036658D01*
X97663342Y-114946950D01*
X97550304Y-114889354D01*
X97540515Y-114887804D01*
X97540513Y-114887803D01*
X97513151Y-114883470D01*
X97456519Y-114874500D01*
X97418173Y-114874500D01*
X97066307Y-114874501D01*
X96998187Y-114854499D01*
X96977212Y-114837596D01*
X96780211Y-114640595D01*
X96746185Y-114578283D01*
X96751250Y-114507468D01*
X96793797Y-114450632D01*
X96860317Y-114425821D01*
X96869306Y-114425500D01*
X97357831Y-114425499D01*
X97456518Y-114425499D01*
X97461412Y-114424724D01*
X97540506Y-114412198D01*
X97540508Y-114412197D01*
X97550304Y-114410646D01*
X97572376Y-114399400D01*
X97582379Y-114394303D01*
X97663342Y-114353050D01*
X97753050Y-114263342D01*
X97810646Y-114150304D01*
X97825500Y-114056519D01*
X97825500Y-114038577D01*
X98332983Y-114038577D01*
X98333158Y-114043029D01*
X98343270Y-114300397D01*
X98343827Y-114314583D01*
X98393453Y-114586309D01*
X98394862Y-114590532D01*
X98477289Y-114837596D01*
X98480870Y-114848331D01*
X98525993Y-114938636D01*
X98571469Y-115029647D01*
X98604334Y-115095421D01*
X98689386Y-115218481D01*
X98749009Y-115304748D01*
X98761382Y-115322651D01*
X98764404Y-115325920D01*
X98891436Y-115463342D01*
X98948880Y-115525485D01*
X98952334Y-115528297D01*
X99159631Y-115697063D01*
X99159635Y-115697066D01*
X99163088Y-115699877D01*
X99166910Y-115702178D01*
X99330261Y-115800523D01*
X99399730Y-115842347D01*
X99446166Y-115862010D01*
X99649982Y-115948316D01*
X99649987Y-115948318D01*
X99654085Y-115950053D01*
X99658382Y-115951192D01*
X99658387Y-115951194D01*
X99701338Y-115962582D01*
X99921079Y-116020845D01*
X100195384Y-116053311D01*
X100471527Y-116046804D01*
X100557087Y-116032563D01*
X100739608Y-116002183D01*
X100739612Y-116002182D01*
X100743998Y-116001452D01*
X100748239Y-116000111D01*
X100748242Y-116000110D01*
X101003115Y-115919504D01*
X101003117Y-115919503D01*
X101007361Y-115918161D01*
X101011372Y-115916235D01*
X101011377Y-115916233D01*
X101110039Y-115868856D01*
X136884101Y-115868856D01*
X136890559Y-115878216D01*
X136906861Y-115892512D01*
X136913401Y-115897530D01*
X137152644Y-116057387D01*
X137159781Y-116061508D01*
X137417849Y-116188772D01*
X137425453Y-116191922D01*
X137697920Y-116284412D01*
X137705883Y-116286546D01*
X137988100Y-116342683D01*
X137996251Y-116343756D01*
X138283381Y-116362575D01*
X138291619Y-116362575D01*
X138578749Y-116343756D01*
X138586900Y-116342683D01*
X138869117Y-116286546D01*
X138877080Y-116284412D01*
X139149547Y-116191922D01*
X139157151Y-116188772D01*
X139415219Y-116061508D01*
X139422356Y-116057387D01*
X139661599Y-115897530D01*
X139668139Y-115892512D01*
X139682574Y-115879853D01*
X139690972Y-115866614D01*
X139685138Y-115856849D01*
X138300310Y-114472020D01*
X138286369Y-114464408D01*
X138284534Y-114464539D01*
X138277920Y-114468790D01*
X136891616Y-115855095D01*
X136884101Y-115868856D01*
X101110039Y-115868856D01*
X101252342Y-115800523D01*
X101252343Y-115800522D01*
X101256361Y-115798593D01*
X101311727Y-115761599D01*
X101482321Y-115647612D01*
X101482325Y-115647609D01*
X101486029Y-115645134D01*
X101691783Y-115460845D01*
X101869518Y-115249403D01*
X102015688Y-115015028D01*
X102028231Y-114986658D01*
X102125577Y-114766463D01*
X102127375Y-114762396D01*
X102202353Y-114496547D01*
X102214867Y-114403378D01*
X102238696Y-114225968D01*
X102238697Y-114225961D01*
X102239123Y-114222786D01*
X102240334Y-114184260D01*
X102242853Y-114104119D01*
X136024925Y-114104119D01*
X136043744Y-114391249D01*
X136044817Y-114399400D01*
X136100954Y-114681617D01*
X136103088Y-114689580D01*
X136195578Y-114962047D01*
X136198728Y-114969651D01*
X136325992Y-115227718D01*
X136330113Y-115234855D01*
X136489970Y-115474099D01*
X136494988Y-115480639D01*
X136507647Y-115495074D01*
X136520886Y-115503472D01*
X136530651Y-115497638D01*
X137915480Y-114112810D01*
X137921857Y-114101131D01*
X138651908Y-114101131D01*
X138652039Y-114102966D01*
X138656290Y-114109580D01*
X140042595Y-115495884D01*
X140056356Y-115503399D01*
X140065716Y-115496941D01*
X140080012Y-115480639D01*
X140085030Y-115474099D01*
X140244887Y-115234855D01*
X140249008Y-115227718D01*
X140376272Y-114969651D01*
X140379422Y-114962047D01*
X140471912Y-114689580D01*
X140474046Y-114681617D01*
X140530183Y-114399400D01*
X140531256Y-114391249D01*
X140550075Y-114104119D01*
X140550075Y-114095881D01*
X140531256Y-113808751D01*
X140530183Y-113800600D01*
X140474046Y-113518383D01*
X140471912Y-113510420D01*
X140379422Y-113237953D01*
X140376272Y-113230349D01*
X140249008Y-112972282D01*
X140244887Y-112965145D01*
X140085030Y-112725901D01*
X140080012Y-112719361D01*
X140067353Y-112704926D01*
X140054114Y-112696528D01*
X140044349Y-112702362D01*
X138659520Y-114087190D01*
X138651908Y-114101131D01*
X137921857Y-114101131D01*
X137923092Y-114098869D01*
X137922961Y-114097034D01*
X137918710Y-114090420D01*
X136532405Y-112704116D01*
X136518644Y-112696601D01*
X136509284Y-112703059D01*
X136494988Y-112719361D01*
X136489970Y-112725901D01*
X136330113Y-112965145D01*
X136325992Y-112972282D01*
X136198728Y-113230349D01*
X136195578Y-113237953D01*
X136103088Y-113510420D01*
X136100954Y-113518383D01*
X136044817Y-113800600D01*
X136043744Y-113808751D01*
X136024925Y-114095881D01*
X136024925Y-114104119D01*
X102242853Y-114104119D01*
X102242881Y-114103222D01*
X102242881Y-114103217D01*
X102242982Y-114100000D01*
X102223473Y-113824470D01*
X102210411Y-113763796D01*
X102166273Y-113558785D01*
X102166273Y-113558783D01*
X102165337Y-113554438D01*
X102069733Y-113295291D01*
X102050821Y-113260240D01*
X101940681Y-113056116D01*
X101938568Y-113052200D01*
X101774460Y-112830016D01*
X101752717Y-112807928D01*
X101650522Y-112704116D01*
X101580683Y-112633171D01*
X101361104Y-112465594D01*
X101326092Y-112445986D01*
X101125031Y-112333386D01*
X136884028Y-112333386D01*
X136889862Y-112343151D01*
X138274690Y-113727980D01*
X138288631Y-113735592D01*
X138290466Y-113735461D01*
X138297080Y-113731210D01*
X139683384Y-112344905D01*
X139690899Y-112331144D01*
X139684441Y-112321784D01*
X139668139Y-112307488D01*
X139661599Y-112302470D01*
X139422356Y-112142613D01*
X139415219Y-112138492D01*
X139157151Y-112011228D01*
X139149547Y-112008078D01*
X138877080Y-111915588D01*
X138869117Y-111913454D01*
X138586900Y-111857317D01*
X138578749Y-111856244D01*
X138291619Y-111837425D01*
X138283381Y-111837425D01*
X137996251Y-111856244D01*
X137988100Y-111857317D01*
X137705883Y-111913454D01*
X137697920Y-111915588D01*
X137425453Y-112008078D01*
X137417849Y-112011228D01*
X137159782Y-112138492D01*
X137152645Y-112142613D01*
X136913401Y-112302470D01*
X136906861Y-112307488D01*
X136892426Y-112320147D01*
X136884028Y-112333386D01*
X101125031Y-112333386D01*
X101123990Y-112332803D01*
X101123987Y-112332802D01*
X101120104Y-112330627D01*
X101115959Y-112329023D01*
X101115956Y-112329022D01*
X100866634Y-112232567D01*
X100862491Y-112230964D01*
X100858166Y-112229961D01*
X100858161Y-112229960D01*
X100674975Y-112187500D01*
X100593405Y-112168593D01*
X100318215Y-112144759D01*
X100313780Y-112145003D01*
X100313776Y-112145003D01*
X100046856Y-112159693D01*
X100046849Y-112159694D01*
X100042413Y-112159938D01*
X99903848Y-112187500D01*
X99775864Y-112212957D01*
X99775862Y-112212958D01*
X99771501Y-112213825D01*
X99510884Y-112305347D01*
X99265763Y-112432678D01*
X99262148Y-112435261D01*
X99262142Y-112435265D01*
X99044650Y-112590687D01*
X99044646Y-112590690D01*
X99041029Y-112593275D01*
X99019182Y-112614116D01*
X98877469Y-112749304D01*
X98841165Y-112783936D01*
X98838409Y-112787431D01*
X98838408Y-112787433D01*
X98697647Y-112965988D01*
X98670159Y-113000856D01*
X98625480Y-113077776D01*
X98533661Y-113235853D01*
X98533658Y-113235859D01*
X98531423Y-113239707D01*
X98494994Y-113329647D01*
X98429697Y-113490858D01*
X98427726Y-113495723D01*
X98426655Y-113500036D01*
X98426653Y-113500041D01*
X98365494Y-113746250D01*
X98361136Y-113763796D01*
X98360682Y-113768224D01*
X98360682Y-113768226D01*
X98354463Y-113828922D01*
X98332983Y-114038577D01*
X97825500Y-114038577D01*
X97825499Y-113593482D01*
X97816016Y-113533605D01*
X97812198Y-113509494D01*
X97812197Y-113509492D01*
X97810646Y-113499696D01*
X97805377Y-113489354D01*
X97790158Y-113459487D01*
X97753050Y-113386658D01*
X97663342Y-113296950D01*
X97550304Y-113239354D01*
X97540513Y-113237803D01*
X97540512Y-113237803D01*
X97506790Y-113232462D01*
X97442636Y-113202050D01*
X97405109Y-113141782D01*
X97400500Y-113108013D01*
X97400500Y-112539543D01*
X97402921Y-112514961D01*
X97403476Y-112512171D01*
X97405897Y-112500000D01*
X97399053Y-112465594D01*
X97384515Y-112392505D01*
X97351505Y-112343103D01*
X97338996Y-112324382D01*
X97341196Y-112322912D01*
X97341194Y-112322906D01*
X97338993Y-112324377D01*
X97330515Y-112311689D01*
X97323624Y-112301376D01*
X97310936Y-112292898D01*
X97291844Y-112277228D01*
X97180211Y-112165595D01*
X97146185Y-112103283D01*
X97151250Y-112032468D01*
X97193797Y-111975632D01*
X97260317Y-111950821D01*
X97269306Y-111950500D01*
X98947957Y-111950500D01*
X98972539Y-111952921D01*
X98987500Y-111955897D01*
X99014632Y-111950500D01*
X99014633Y-111950500D01*
X99094995Y-111934515D01*
X99158614Y-111892006D01*
X99163122Y-111888994D01*
X99164592Y-111891194D01*
X99164594Y-111891194D01*
X99163123Y-111888993D01*
X99175811Y-111880515D01*
X99186124Y-111873624D01*
X99194602Y-111860936D01*
X99210272Y-111841844D01*
X99589711Y-111462405D01*
X99652023Y-111428379D01*
X99678806Y-111425500D01*
X100099154Y-111425499D01*
X100144018Y-111425499D01*
X100148912Y-111424724D01*
X100228006Y-111412198D01*
X100228008Y-111412197D01*
X100237804Y-111410646D01*
X100250546Y-111404154D01*
X100298935Y-111379498D01*
X100350842Y-111353050D01*
X100440550Y-111263342D01*
X100498146Y-111150304D01*
X100513000Y-111056519D01*
X100512999Y-110593482D01*
X100503804Y-110535423D01*
X100508031Y-110502718D01*
X100490133Y-110483969D01*
X100445051Y-110395491D01*
X100445050Y-110395489D01*
X100440550Y-110386658D01*
X100368698Y-110314806D01*
X100334672Y-110252494D01*
X100339737Y-110181679D01*
X100382284Y-110124843D01*
X100406553Y-110111023D01*
X100416547Y-110109035D01*
X100426864Y-110102141D01*
X100426867Y-110102140D01*
X100464027Y-110077310D01*
X100484673Y-110063515D01*
X100484675Y-110063513D01*
X100497363Y-110055035D01*
X100507676Y-110048144D01*
X100512102Y-110041520D01*
X100571717Y-110008967D01*
X100642532Y-110014032D01*
X100699368Y-110056579D01*
X100724179Y-110123099D01*
X100724500Y-110132088D01*
X100724500Y-110394748D01*
X100725707Y-110400814D01*
X100725707Y-110400818D01*
X100725980Y-110402190D01*
X100725914Y-110402922D01*
X100726314Y-110406979D01*
X100725544Y-110407055D01*
X100722476Y-110441330D01*
X100733857Y-110454752D01*
X100736133Y-110453231D01*
X100780448Y-110519552D01*
X100846769Y-110563867D01*
X100858938Y-110566288D01*
X100858939Y-110566288D01*
X100889883Y-110572443D01*
X100905252Y-110575500D01*
X101844748Y-110575500D01*
X101860117Y-110572443D01*
X101891061Y-110566288D01*
X101891062Y-110566288D01*
X101903231Y-110563867D01*
X101911154Y-110558573D01*
X101979761Y-110551197D01*
X102046484Y-110586100D01*
X102442595Y-110982211D01*
X102476621Y-111044523D01*
X102479500Y-111071306D01*
X102479500Y-111143233D01*
X102459498Y-111211354D01*
X102442673Y-111232251D01*
X102372759Y-111302287D01*
X102368056Y-111312924D01*
X102368055Y-111312926D01*
X102348621Y-111356885D01*
X102327494Y-111404673D01*
X102324500Y-111430354D01*
X102324500Y-111719646D01*
X102327618Y-111745846D01*
X102331456Y-111754486D01*
X102331456Y-111754487D01*
X102340568Y-111775000D01*
X102373061Y-111848153D01*
X102452287Y-111927241D01*
X102462924Y-111931944D01*
X102462926Y-111931945D01*
X102512203Y-111953730D01*
X102554673Y-111972506D01*
X102580354Y-111975500D01*
X102667079Y-111975500D01*
X102735200Y-111995502D01*
X102767041Y-112024795D01*
X102826347Y-112102083D01*
X102837920Y-112113656D01*
X102951824Y-112201059D01*
X102966007Y-112209247D01*
X103098650Y-112264190D01*
X103114468Y-112268428D01*
X103177040Y-112276666D01*
X103191221Y-112274454D01*
X103195000Y-112261296D01*
X103195000Y-112260914D01*
X103595000Y-112260914D01*
X103599044Y-112274685D01*
X103612583Y-112276714D01*
X103675533Y-112268428D01*
X103691348Y-112264190D01*
X103823993Y-112209247D01*
X103838176Y-112201059D01*
X103952080Y-112113656D01*
X103963656Y-112102080D01*
X104051059Y-111988176D01*
X104059247Y-111973993D01*
X104114189Y-111841351D01*
X104118428Y-111825531D01*
X104122716Y-111792960D01*
X104120505Y-111778778D01*
X104107348Y-111775000D01*
X103613115Y-111775000D01*
X103597876Y-111779475D01*
X103596671Y-111780865D01*
X103595000Y-111788548D01*
X103595000Y-112260914D01*
X103195000Y-112260914D01*
X103195000Y-111356885D01*
X103595000Y-111356885D01*
X103599475Y-111372124D01*
X103600865Y-111373329D01*
X103608548Y-111375000D01*
X104106965Y-111375000D01*
X104120736Y-111370956D01*
X104122765Y-111357417D01*
X104118428Y-111324467D01*
X104114190Y-111308652D01*
X104059247Y-111176007D01*
X104051059Y-111161824D01*
X103963656Y-111047920D01*
X103949647Y-111033911D01*
X103915621Y-110971599D01*
X103918156Y-110936150D01*
X103881087Y-110949976D01*
X103823880Y-110940706D01*
X103691350Y-110885810D01*
X103675532Y-110881572D01*
X103612960Y-110873334D01*
X103598779Y-110875546D01*
X103595000Y-110888704D01*
X103595000Y-111356885D01*
X103195000Y-111356885D01*
X103195000Y-110889086D01*
X103190956Y-110875315D01*
X103177416Y-110873285D01*
X103146074Y-110877411D01*
X103075925Y-110866470D01*
X103022827Y-110819341D01*
X103016365Y-110806806D01*
X103014515Y-110797505D01*
X102983692Y-110751376D01*
X102983693Y-110751376D01*
X102983690Y-110751373D01*
X102968994Y-110729378D01*
X102972835Y-110726811D01*
X102972834Y-110726810D01*
X102968993Y-110729377D01*
X102960515Y-110716689D01*
X102953624Y-110706376D01*
X102940936Y-110697898D01*
X102921844Y-110682228D01*
X102659285Y-110419669D01*
X103817001Y-110419669D01*
X103817371Y-110426490D01*
X103822895Y-110477352D01*
X103826521Y-110492604D01*
X103871676Y-110613054D01*
X103880214Y-110628649D01*
X103956715Y-110730724D01*
X103961193Y-110735202D01*
X103995219Y-110797514D01*
X103992684Y-110832963D01*
X104029753Y-110819137D01*
X104082972Y-110826834D01*
X104207394Y-110873478D01*
X104222649Y-110877105D01*
X104273514Y-110882631D01*
X104280328Y-110883000D01*
X104502885Y-110883000D01*
X104518124Y-110878525D01*
X104519329Y-110877135D01*
X104521000Y-110869452D01*
X104521000Y-110864884D01*
X105029000Y-110864884D01*
X105033475Y-110880123D01*
X105034865Y-110881328D01*
X105042548Y-110882999D01*
X105269669Y-110882999D01*
X105276490Y-110882629D01*
X105327352Y-110877105D01*
X105342604Y-110873479D01*
X105463054Y-110828324D01*
X105478649Y-110819786D01*
X105580724Y-110743285D01*
X105593285Y-110730724D01*
X105669786Y-110628649D01*
X105678324Y-110613054D01*
X105723478Y-110492606D01*
X105727105Y-110477351D01*
X105732631Y-110426486D01*
X105733000Y-110419672D01*
X105733000Y-109797115D01*
X105728525Y-109781876D01*
X105727135Y-109780671D01*
X105719452Y-109779000D01*
X105047115Y-109779000D01*
X105031876Y-109783475D01*
X105030671Y-109784865D01*
X105029000Y-109792548D01*
X105029000Y-110864884D01*
X104521000Y-110864884D01*
X104521000Y-109797115D01*
X104516525Y-109781876D01*
X104515135Y-109780671D01*
X104507452Y-109779000D01*
X103835116Y-109779000D01*
X103819877Y-109783475D01*
X103818672Y-109784865D01*
X103817001Y-109792548D01*
X103817001Y-110419669D01*
X102659285Y-110419669D01*
X102062405Y-109822789D01*
X102028379Y-109760477D01*
X102025500Y-109733694D01*
X102025500Y-109252885D01*
X103817000Y-109252885D01*
X103821475Y-109268124D01*
X103822865Y-109269329D01*
X103830548Y-109271000D01*
X104502885Y-109271000D01*
X104518124Y-109266525D01*
X104519329Y-109265135D01*
X104521000Y-109257452D01*
X104521000Y-109252885D01*
X105029000Y-109252885D01*
X105033475Y-109268124D01*
X105034865Y-109269329D01*
X105042548Y-109271000D01*
X105714884Y-109271000D01*
X105730123Y-109266525D01*
X105731328Y-109265135D01*
X105732999Y-109257452D01*
X105732999Y-108630331D01*
X105732629Y-108623510D01*
X105727105Y-108572648D01*
X105723479Y-108557396D01*
X105678324Y-108436946D01*
X105669786Y-108421351D01*
X105593285Y-108319276D01*
X105580724Y-108306715D01*
X105478649Y-108230214D01*
X105463054Y-108221676D01*
X105342606Y-108176522D01*
X105327351Y-108172895D01*
X105276486Y-108167369D01*
X105269672Y-108167000D01*
X105047115Y-108167000D01*
X105031876Y-108171475D01*
X105030671Y-108172865D01*
X105029000Y-108180548D01*
X105029000Y-109252885D01*
X104521000Y-109252885D01*
X104521000Y-108185116D01*
X104516525Y-108169877D01*
X104515135Y-108168672D01*
X104507452Y-108167001D01*
X104280331Y-108167001D01*
X104273510Y-108167371D01*
X104222648Y-108172895D01*
X104207396Y-108176521D01*
X104086946Y-108221676D01*
X104071351Y-108230214D01*
X103969276Y-108306715D01*
X103956715Y-108319276D01*
X103880214Y-108421351D01*
X103871676Y-108436946D01*
X103826522Y-108557394D01*
X103822895Y-108572649D01*
X103817369Y-108623514D01*
X103817000Y-108630328D01*
X103817000Y-109252885D01*
X102025500Y-109252885D01*
X102025500Y-108655252D01*
X102019186Y-108623510D01*
X102016288Y-108608939D01*
X102016288Y-108608938D01*
X102013867Y-108596769D01*
X101969552Y-108530448D01*
X101903231Y-108486133D01*
X101891062Y-108483712D01*
X101891061Y-108483712D01*
X101850816Y-108475707D01*
X101844748Y-108474500D01*
X101789288Y-108474500D01*
X101721167Y-108454498D01*
X101674674Y-108400842D01*
X101664570Y-108330568D01*
X101677021Y-108291297D01*
X101700361Y-108245489D01*
X101710646Y-108225304D01*
X101718373Y-108176521D01*
X101728941Y-108109793D01*
X101730492Y-108100000D01*
X101728460Y-108087171D01*
X101712197Y-107984487D01*
X101712196Y-107984485D01*
X101710646Y-107974696D01*
X101706146Y-107965865D01*
X101706145Y-107965861D01*
X101702498Y-107958704D01*
X101689393Y-107888927D01*
X101716093Y-107823142D01*
X101774120Y-107782235D01*
X101814764Y-107775500D01*
X102273285Y-107775500D01*
X102341406Y-107795502D01*
X102362302Y-107812327D01*
X102394051Y-107844021D01*
X102394056Y-107844025D01*
X102402287Y-107852241D01*
X102412924Y-107856944D01*
X102412926Y-107856945D01*
X102447159Y-107872079D01*
X102504673Y-107897506D01*
X102530354Y-107900500D01*
X102617079Y-107900500D01*
X102685200Y-107920502D01*
X102717041Y-107949795D01*
X102776347Y-108027083D01*
X102787920Y-108038656D01*
X102901824Y-108126059D01*
X102916007Y-108134247D01*
X103048650Y-108189190D01*
X103064468Y-108193428D01*
X103127040Y-108201666D01*
X103141221Y-108199454D01*
X103145000Y-108186296D01*
X103145000Y-108185914D01*
X103545000Y-108185914D01*
X103549044Y-108199685D01*
X103562583Y-108201714D01*
X103625533Y-108193428D01*
X103641348Y-108189190D01*
X103773993Y-108134247D01*
X103788176Y-108126059D01*
X103902080Y-108038656D01*
X103913656Y-108027080D01*
X104001059Y-107913176D01*
X104009247Y-107898993D01*
X104064189Y-107766351D01*
X104068428Y-107750531D01*
X104072716Y-107717960D01*
X104070505Y-107703778D01*
X104057348Y-107700000D01*
X103563115Y-107700000D01*
X103547876Y-107704475D01*
X103546671Y-107705865D01*
X103545000Y-107713548D01*
X103545000Y-108185914D01*
X103145000Y-108185914D01*
X103145000Y-107281885D01*
X103545000Y-107281885D01*
X103549475Y-107297124D01*
X103550865Y-107298329D01*
X103558548Y-107300000D01*
X104056965Y-107300000D01*
X104070736Y-107295956D01*
X104072765Y-107282417D01*
X104068428Y-107249467D01*
X104064190Y-107233652D01*
X104009247Y-107101007D01*
X104001059Y-107086824D01*
X103913656Y-106972920D01*
X103902080Y-106961344D01*
X103788176Y-106873941D01*
X103773993Y-106865753D01*
X103641350Y-106810810D01*
X103625532Y-106806572D01*
X103562960Y-106798334D01*
X103548779Y-106800546D01*
X103545000Y-106813704D01*
X103545000Y-107281885D01*
X103145000Y-107281885D01*
X103145000Y-106814086D01*
X103140956Y-106800315D01*
X103127416Y-106798286D01*
X103110053Y-106800571D01*
X103039904Y-106789631D01*
X102986807Y-106742501D01*
X102970030Y-106700231D01*
X102966936Y-106684677D01*
X102964515Y-106672505D01*
X102932773Y-106625000D01*
X102930336Y-106621352D01*
X102918994Y-106604377D01*
X102918993Y-106604377D01*
X102903624Y-106581376D01*
X102890936Y-106572898D01*
X102871844Y-106557228D01*
X102684285Y-106369669D01*
X103842001Y-106369669D01*
X103842371Y-106376490D01*
X103847895Y-106427352D01*
X103851521Y-106442604D01*
X103896676Y-106563054D01*
X103905214Y-106578649D01*
X103981715Y-106680724D01*
X103994276Y-106693285D01*
X104096351Y-106769786D01*
X104111946Y-106778324D01*
X104232394Y-106823478D01*
X104247649Y-106827105D01*
X104298514Y-106832631D01*
X104305328Y-106833000D01*
X104527885Y-106833000D01*
X104543124Y-106828525D01*
X104544329Y-106827135D01*
X104546000Y-106819452D01*
X104546000Y-106814884D01*
X105054000Y-106814884D01*
X105058475Y-106830123D01*
X105059865Y-106831328D01*
X105067548Y-106832999D01*
X105294669Y-106832999D01*
X105301490Y-106832629D01*
X105352352Y-106827105D01*
X105367604Y-106823479D01*
X105488054Y-106778324D01*
X105503649Y-106769786D01*
X105605724Y-106693285D01*
X105618285Y-106680724D01*
X105694786Y-106578649D01*
X105703324Y-106563054D01*
X105748478Y-106442606D01*
X105752105Y-106427351D01*
X105757631Y-106376486D01*
X105758000Y-106369672D01*
X105758000Y-106007165D01*
X136535366Y-106007165D01*
X136570452Y-106264970D01*
X136571760Y-106269456D01*
X136571760Y-106269458D01*
X136573521Y-106275500D01*
X136643258Y-106514757D01*
X136752186Y-106751039D01*
X136754746Y-106754944D01*
X136754749Y-106754949D01*
X136892275Y-106964712D01*
X136892279Y-106964717D01*
X136894841Y-106968625D01*
X136962501Y-107044432D01*
X137012997Y-107101007D01*
X137068091Y-107162735D01*
X137268129Y-107329105D01*
X137490561Y-107464080D01*
X137494875Y-107465889D01*
X137494877Y-107465890D01*
X137726186Y-107562886D01*
X137726191Y-107562888D01*
X137730501Y-107564695D01*
X137735033Y-107565846D01*
X137735036Y-107565847D01*
X137855199Y-107596364D01*
X137982677Y-107628739D01*
X138198786Y-107650500D01*
X138353544Y-107650500D01*
X138355869Y-107650327D01*
X138355875Y-107650327D01*
X138542314Y-107636472D01*
X138542318Y-107636471D01*
X138546966Y-107636126D01*
X138800732Y-107578705D01*
X138805086Y-107577012D01*
X139038870Y-107486098D01*
X139038872Y-107486097D01*
X139043223Y-107484405D01*
X139078785Y-107464080D01*
X139179497Y-107406518D01*
X139269112Y-107355299D01*
X139473436Y-107194223D01*
X139651708Y-107004714D01*
X139762817Y-106844552D01*
X139797346Y-106794779D01*
X139797348Y-106794776D01*
X139800011Y-106790937D01*
X139806277Y-106778231D01*
X139913021Y-106561775D01*
X139913022Y-106561772D01*
X139915086Y-106557587D01*
X139936005Y-106492238D01*
X139957688Y-106424500D01*
X139994406Y-106309792D01*
X140036228Y-106052994D01*
X140039634Y-105792835D01*
X140004548Y-105535030D01*
X139931742Y-105285243D01*
X139822814Y-105048961D01*
X139816736Y-105039690D01*
X139682725Y-104835288D01*
X139682721Y-104835283D01*
X139680159Y-104831375D01*
X139549021Y-104684447D01*
X139510026Y-104640757D01*
X139510024Y-104640755D01*
X139506909Y-104637265D01*
X139306871Y-104470895D01*
X139084439Y-104335920D01*
X139080123Y-104334110D01*
X138848814Y-104237114D01*
X138848809Y-104237112D01*
X138844499Y-104235305D01*
X138839967Y-104234154D01*
X138839964Y-104234153D01*
X138714685Y-104202337D01*
X138592323Y-104171261D01*
X138376214Y-104149500D01*
X138221456Y-104149500D01*
X138219131Y-104149673D01*
X138219125Y-104149673D01*
X138032686Y-104163528D01*
X138032682Y-104163529D01*
X138028034Y-104163874D01*
X137774268Y-104221295D01*
X137769916Y-104222987D01*
X137769914Y-104222988D01*
X137536130Y-104313902D01*
X137536128Y-104313903D01*
X137531777Y-104315595D01*
X137527723Y-104317912D01*
X137527721Y-104317913D01*
X137491967Y-104338348D01*
X137305888Y-104444701D01*
X137101564Y-104605777D01*
X136923292Y-104795286D01*
X136774989Y-105009063D01*
X136772923Y-105013253D01*
X136772921Y-105013256D01*
X136665145Y-105231806D01*
X136659914Y-105242413D01*
X136658492Y-105246856D01*
X136658491Y-105246858D01*
X136620254Y-105366311D01*
X136580594Y-105490208D01*
X136538772Y-105747006D01*
X136538336Y-105780342D01*
X136535519Y-105995502D01*
X136535366Y-106007165D01*
X105758000Y-106007165D01*
X105758000Y-105747115D01*
X105753525Y-105731876D01*
X105752135Y-105730671D01*
X105744452Y-105729000D01*
X105072115Y-105729000D01*
X105056876Y-105733475D01*
X105055671Y-105734865D01*
X105054000Y-105742548D01*
X105054000Y-106814884D01*
X104546000Y-106814884D01*
X104546000Y-105747115D01*
X104541525Y-105731876D01*
X104540135Y-105730671D01*
X104532452Y-105729000D01*
X103860116Y-105729000D01*
X103844877Y-105733475D01*
X103843672Y-105734865D01*
X103842001Y-105742548D01*
X103842001Y-106369669D01*
X102684285Y-106369669D01*
X102087405Y-105772789D01*
X102053379Y-105710477D01*
X102050500Y-105683694D01*
X102050500Y-105202885D01*
X103842000Y-105202885D01*
X103846475Y-105218124D01*
X103847865Y-105219329D01*
X103855548Y-105221000D01*
X104527885Y-105221000D01*
X104543124Y-105216525D01*
X104544329Y-105215135D01*
X104546000Y-105207452D01*
X104546000Y-105202885D01*
X105054000Y-105202885D01*
X105058475Y-105218124D01*
X105059865Y-105219329D01*
X105067548Y-105221000D01*
X105739884Y-105221000D01*
X105755123Y-105216525D01*
X105756328Y-105215135D01*
X105757999Y-105207452D01*
X105757999Y-104580331D01*
X105757629Y-104573510D01*
X105752105Y-104522648D01*
X105748479Y-104507396D01*
X105703324Y-104386946D01*
X105694786Y-104371351D01*
X105618285Y-104269276D01*
X105605724Y-104256715D01*
X105503649Y-104180214D01*
X105488054Y-104171676D01*
X105367606Y-104126522D01*
X105352351Y-104122895D01*
X105301486Y-104117369D01*
X105294672Y-104117000D01*
X105072115Y-104117000D01*
X105056876Y-104121475D01*
X105055671Y-104122865D01*
X105054000Y-104130548D01*
X105054000Y-105202885D01*
X104546000Y-105202885D01*
X104546000Y-104135116D01*
X104541525Y-104119877D01*
X104540135Y-104118672D01*
X104532452Y-104117001D01*
X104305331Y-104117001D01*
X104298510Y-104117371D01*
X104247648Y-104122895D01*
X104232396Y-104126521D01*
X104111946Y-104171676D01*
X104096351Y-104180214D01*
X103994276Y-104256715D01*
X103981715Y-104269276D01*
X103905214Y-104371351D01*
X103896676Y-104386946D01*
X103851522Y-104507394D01*
X103847895Y-104522649D01*
X103842369Y-104573514D01*
X103842000Y-104580328D01*
X103842000Y-105202885D01*
X102050500Y-105202885D01*
X102050500Y-104605252D01*
X102038867Y-104546769D01*
X101994552Y-104480448D01*
X101928231Y-104436133D01*
X101916062Y-104433712D01*
X101916061Y-104433712D01*
X101875816Y-104425707D01*
X101869748Y-104424500D01*
X100930252Y-104424500D01*
X100924184Y-104425707D01*
X100883939Y-104433712D01*
X100883938Y-104433712D01*
X100871769Y-104436133D01*
X100805448Y-104480448D01*
X100761133Y-104546769D01*
X100749500Y-104605252D01*
X100749500Y-106344748D01*
X100750707Y-106350816D01*
X100754697Y-106370873D01*
X100761133Y-106403231D01*
X100805448Y-106469552D01*
X100871769Y-106513867D01*
X100883938Y-106516288D01*
X100883939Y-106516288D01*
X100924184Y-106524293D01*
X100930252Y-106525500D01*
X101869748Y-106525500D01*
X101875816Y-106524293D01*
X101916061Y-106516288D01*
X101916062Y-106516288D01*
X101928231Y-106513867D01*
X101936154Y-106508573D01*
X102004761Y-106501197D01*
X102071484Y-106536100D01*
X102392595Y-106857211D01*
X102426621Y-106919523D01*
X102429500Y-106946306D01*
X102429500Y-107068233D01*
X102409498Y-107136354D01*
X102392673Y-107157250D01*
X102362459Y-107187517D01*
X102300177Y-107221597D01*
X102273286Y-107224500D01*
X101039543Y-107224500D01*
X101014961Y-107222079D01*
X101012171Y-107221524D01*
X101000000Y-107219103D01*
X100987829Y-107221524D01*
X100972868Y-107224500D01*
X100972867Y-107224500D01*
X100892505Y-107240485D01*
X100861617Y-107261124D01*
X100824378Y-107286006D01*
X100824377Y-107286007D01*
X100801376Y-107301376D01*
X100794485Y-107311689D01*
X100792898Y-107314064D01*
X100777228Y-107333156D01*
X100420176Y-107690208D01*
X100401084Y-107705878D01*
X100388396Y-107714356D01*
X100373027Y-107737357D01*
X100371009Y-107736008D01*
X100371006Y-107736014D01*
X100373024Y-107737362D01*
X100364225Y-107750531D01*
X100363660Y-107751376D01*
X100338421Y-107789149D01*
X100327505Y-107805485D01*
X100325085Y-107817654D01*
X100325084Y-107817655D01*
X100314851Y-107869102D01*
X100314851Y-107869103D01*
X100308606Y-107900500D01*
X100306123Y-107912980D01*
X100308544Y-107925151D01*
X100309099Y-107927941D01*
X100311520Y-107952523D01*
X100311520Y-108260668D01*
X100291518Y-108328789D01*
X100237862Y-108375282D01*
X100167588Y-108385386D01*
X100103008Y-108355892D01*
X100080756Y-108330671D01*
X100055255Y-108292507D01*
X100055247Y-108292495D01*
X100051494Y-108286877D01*
X100051493Y-108286877D01*
X100036124Y-108263876D01*
X100023436Y-108255398D01*
X100004344Y-108239728D01*
X99747772Y-107983156D01*
X99732102Y-107964064D01*
X99730515Y-107961689D01*
X99723624Y-107951376D01*
X99700623Y-107936007D01*
X99702212Y-107933630D01*
X99702210Y-107933628D01*
X99700621Y-107936006D01*
X99647483Y-107900500D01*
X99644644Y-107898603D01*
X99642813Y-107897379D01*
X99642811Y-107897378D01*
X99632495Y-107890485D01*
X99552133Y-107874500D01*
X99537172Y-107871524D01*
X99537171Y-107871524D01*
X99525000Y-107869103D01*
X99512829Y-107871524D01*
X99510039Y-107872079D01*
X99485457Y-107874500D01*
X96096082Y-107874500D01*
X96027961Y-107854498D01*
X95981468Y-107800842D01*
X95971364Y-107730568D01*
X96000858Y-107665988D01*
X96006987Y-107659405D01*
X96053050Y-107613342D01*
X96110646Y-107500304D01*
X96125500Y-107406519D01*
X96125499Y-106793482D01*
X96123364Y-106780000D01*
X96112198Y-106709494D01*
X96112197Y-106709492D01*
X96110646Y-106699696D01*
X96102994Y-106684677D01*
X96085263Y-106649879D01*
X96053050Y-106586658D01*
X95963342Y-106496950D01*
X95888149Y-106458637D01*
X95836534Y-106409888D01*
X95819468Y-106340973D01*
X95842369Y-106273772D01*
X95888149Y-106234103D01*
X95946919Y-106204158D01*
X95955751Y-106199658D01*
X96049658Y-106105751D01*
X96099890Y-106007165D01*
X96105450Y-105996254D01*
X96105450Y-105996253D01*
X96109951Y-105987420D01*
X96125500Y-105889246D01*
X96125500Y-105310754D01*
X96109951Y-105212580D01*
X96049658Y-105094249D01*
X95955751Y-105000342D01*
X95837420Y-104940049D01*
X95739246Y-104924500D01*
X95235754Y-104924500D01*
X95137580Y-104940049D01*
X95019249Y-105000342D01*
X94979901Y-105039690D01*
X94917589Y-105073716D01*
X94846774Y-105068651D01*
X94789938Y-105026104D01*
X94783662Y-105016898D01*
X94708530Y-104895486D01*
X94699494Y-104884085D01*
X94589920Y-104774702D01*
X94578509Y-104765690D01*
X94446709Y-104684447D01*
X94433532Y-104678303D01*
X94286157Y-104629421D01*
X94272790Y-104626555D01*
X94183300Y-104617386D01*
X94169376Y-104621475D01*
X94168171Y-104622865D01*
X94166500Y-104630548D01*
X94166500Y-105728000D01*
X94146498Y-105796121D01*
X94092842Y-105842614D01*
X94040500Y-105854000D01*
X93784500Y-105854000D01*
X93716379Y-105833998D01*
X93669886Y-105780342D01*
X93658500Y-105728000D01*
X93658500Y-104635115D01*
X93654025Y-104619876D01*
X93652635Y-104618671D01*
X93645679Y-104617158D01*
X93642218Y-104617337D01*
X93550979Y-104626804D01*
X93537583Y-104629697D01*
X93390313Y-104678830D01*
X93377134Y-104685004D01*
X93245486Y-104766470D01*
X93234085Y-104775506D01*
X93124702Y-104885080D01*
X93115690Y-104896491D01*
X93034450Y-105028286D01*
X93030757Y-105036207D01*
X92983841Y-105089494D01*
X92915564Y-105108957D01*
X92847604Y-105088417D01*
X92827465Y-105072056D01*
X92755751Y-105000342D01*
X92637420Y-104940049D01*
X92539246Y-104924500D01*
X92035754Y-104924500D01*
X91937580Y-104940049D01*
X91819249Y-105000342D01*
X91725342Y-105094249D01*
X91665049Y-105212580D01*
X91649500Y-105310754D01*
X91649500Y-105889246D01*
X91665049Y-105987420D01*
X91669550Y-105996253D01*
X91669550Y-105996254D01*
X91675110Y-106007165D01*
X91725342Y-106105751D01*
X91819249Y-106199658D01*
X91924352Y-106253211D01*
X91975966Y-106301958D01*
X91993032Y-106370873D01*
X91970131Y-106438075D01*
X91924352Y-106477743D01*
X91895493Y-106492448D01*
X91895492Y-106492449D01*
X91886658Y-106496950D01*
X91796950Y-106586658D01*
X91739354Y-106699696D01*
X91724500Y-106793481D01*
X91724501Y-107406518D01*
X91725276Y-107411409D01*
X91725276Y-107411412D01*
X91737092Y-107486019D01*
X91739354Y-107500304D01*
X91743855Y-107509137D01*
X91743857Y-107509142D01*
X91760241Y-107541297D01*
X91773345Y-107611074D01*
X91746645Y-107676859D01*
X91688617Y-107717765D01*
X91647974Y-107724500D01*
X91352026Y-107724500D01*
X91283905Y-107704498D01*
X91237412Y-107650842D01*
X91227308Y-107580568D01*
X91239759Y-107541297D01*
X91242609Y-107535703D01*
X91260646Y-107500304D01*
X91275500Y-107406519D01*
X91275499Y-106793482D01*
X91273364Y-106780000D01*
X91262198Y-106709494D01*
X91262197Y-106709492D01*
X91260646Y-106699696D01*
X91252994Y-106684677D01*
X91235263Y-106649879D01*
X91203050Y-106586658D01*
X91113342Y-106496950D01*
X91104508Y-106492449D01*
X91104507Y-106492448D01*
X91075648Y-106477743D01*
X91024033Y-106428995D01*
X91006968Y-106360080D01*
X91029869Y-106292878D01*
X91075648Y-106253211D01*
X91180751Y-106199658D01*
X91274658Y-106105751D01*
X91324890Y-106007165D01*
X91330450Y-105996254D01*
X91330450Y-105996253D01*
X91334951Y-105987420D01*
X91350500Y-105889246D01*
X91350500Y-105310754D01*
X91334951Y-105212580D01*
X91274658Y-105094249D01*
X91180751Y-105000342D01*
X91171917Y-104995841D01*
X91171916Y-104995840D01*
X91096524Y-104957425D01*
X91044909Y-104908677D01*
X91027844Y-104839762D01*
X91041462Y-104787955D01*
X91056145Y-104759139D01*
X91056146Y-104759135D01*
X91060646Y-104750304D01*
X91070989Y-104685004D01*
X91078941Y-104634793D01*
X91080492Y-104625000D01*
X91066348Y-104535699D01*
X91062197Y-104509487D01*
X91062196Y-104509485D01*
X91060646Y-104499696D01*
X91003050Y-104386658D01*
X90913342Y-104296950D01*
X90800304Y-104239354D01*
X90790515Y-104237804D01*
X90790513Y-104237803D01*
X90684793Y-104221059D01*
X90675000Y-104219508D01*
X90665207Y-104221059D01*
X90559487Y-104237803D01*
X90559485Y-104237804D01*
X90549696Y-104239354D01*
X90436658Y-104296950D01*
X90346950Y-104386658D01*
X90289354Y-104499696D01*
X90287804Y-104509485D01*
X90287803Y-104509487D01*
X90283652Y-104535699D01*
X90269508Y-104625000D01*
X90271059Y-104634793D01*
X90279012Y-104685004D01*
X90289354Y-104750304D01*
X90302195Y-104775506D01*
X90323997Y-104818295D01*
X90337101Y-104888072D01*
X90310401Y-104953857D01*
X90268932Y-104987765D01*
X90253084Y-104995840D01*
X90253083Y-104995841D01*
X90244249Y-105000342D01*
X90150342Y-105094249D01*
X90090049Y-105212580D01*
X90088498Y-105222373D01*
X90085433Y-105231806D01*
X90083076Y-105231040D01*
X90058740Y-105282369D01*
X89998470Y-105319892D01*
X89964708Y-105324500D01*
X89960292Y-105324500D01*
X89892171Y-105304498D01*
X89845678Y-105250842D01*
X89839907Y-105231696D01*
X89839567Y-105231806D01*
X89836502Y-105222373D01*
X89834951Y-105212580D01*
X89774658Y-105094249D01*
X89680751Y-105000342D01*
X89562420Y-104940049D01*
X89464246Y-104924500D01*
X88960754Y-104924500D01*
X88862580Y-104940049D01*
X88744249Y-105000342D01*
X88650342Y-105094249D01*
X88590049Y-105212580D01*
X88574500Y-105310754D01*
X88574500Y-105889246D01*
X88582358Y-105938859D01*
X88573259Y-106009268D01*
X88527537Y-106063582D01*
X88482489Y-106082147D01*
X88442986Y-106090004D01*
X88435107Y-106095269D01*
X88366541Y-106102640D01*
X88303054Y-106070861D01*
X88266826Y-106009803D01*
X88264463Y-105958932D01*
X88265057Y-105955182D01*
X88275500Y-105889246D01*
X88275500Y-105310754D01*
X88259951Y-105212580D01*
X88199658Y-105094249D01*
X88105751Y-105000342D01*
X87987420Y-104940049D01*
X87889246Y-104924500D01*
X87385754Y-104924500D01*
X87287580Y-104940049D01*
X87169249Y-105000342D01*
X87075342Y-105094249D01*
X87015049Y-105212580D01*
X86999500Y-105310754D01*
X86999500Y-105889246D01*
X87015049Y-105987420D01*
X87019550Y-105996253D01*
X87019550Y-105996254D01*
X87025110Y-106007165D01*
X87075342Y-106105751D01*
X87169249Y-106199658D01*
X87178081Y-106204158D01*
X87185063Y-106209231D01*
X87228416Y-106265454D01*
X87237000Y-106311165D01*
X87237000Y-106398092D01*
X87216998Y-106466213D01*
X87189185Y-106495662D01*
X87186658Y-106496950D01*
X87096950Y-106586658D01*
X87039354Y-106699696D01*
X87024500Y-106793481D01*
X87024501Y-107086824D01*
X87024501Y-107280695D01*
X87004499Y-107348816D01*
X86950844Y-107395309D01*
X86880570Y-107405413D01*
X86815989Y-107375920D01*
X86809406Y-107369790D01*
X84972772Y-105533156D01*
X84957102Y-105514064D01*
X84955515Y-105511689D01*
X84948624Y-105501376D01*
X84925623Y-105486007D01*
X84925622Y-105486006D01*
X84879227Y-105455006D01*
X84857495Y-105440485D01*
X84777133Y-105424500D01*
X84762172Y-105421524D01*
X84762171Y-105421524D01*
X84750000Y-105419103D01*
X84737829Y-105421524D01*
X84735039Y-105422079D01*
X84710457Y-105424500D01*
X84231500Y-105424500D01*
X84163379Y-105404498D01*
X84116886Y-105350842D01*
X84105500Y-105298500D01*
X84105500Y-104680252D01*
X84097644Y-104640757D01*
X84096288Y-104633939D01*
X84096288Y-104633938D01*
X84093867Y-104621769D01*
X84085455Y-104609179D01*
X84066177Y-104580328D01*
X84049552Y-104555448D01*
X83983231Y-104511133D01*
X83971062Y-104508712D01*
X83971061Y-104508712D01*
X83930816Y-104500707D01*
X83924748Y-104499500D01*
X82985252Y-104499500D01*
X82979184Y-104500707D01*
X82938939Y-104508712D01*
X82938938Y-104508712D01*
X82926769Y-104511133D01*
X82916452Y-104518027D01*
X82916449Y-104518028D01*
X82890003Y-104535699D01*
X82822251Y-104556915D01*
X82749997Y-104535699D01*
X82723551Y-104518028D01*
X82723548Y-104518027D01*
X82713231Y-104511133D01*
X82701062Y-104508712D01*
X82701061Y-104508712D01*
X82660816Y-104500707D01*
X82654748Y-104499500D01*
X81715252Y-104499500D01*
X81709184Y-104500707D01*
X81668939Y-104508712D01*
X81668938Y-104508712D01*
X81656769Y-104511133D01*
X81646452Y-104518027D01*
X81646449Y-104518028D01*
X81620003Y-104535699D01*
X81552251Y-104556915D01*
X81479997Y-104535699D01*
X81453551Y-104518028D01*
X81453548Y-104518027D01*
X81443231Y-104511133D01*
X81431062Y-104508712D01*
X81431061Y-104508712D01*
X81390816Y-104500707D01*
X81384748Y-104499500D01*
X80445252Y-104499500D01*
X80439184Y-104500707D01*
X80398939Y-104508712D01*
X80398938Y-104508712D01*
X80386769Y-104511133D01*
X80376452Y-104518027D01*
X80376449Y-104518028D01*
X80350003Y-104535699D01*
X80282251Y-104556915D01*
X80209997Y-104535699D01*
X80183551Y-104518028D01*
X80183548Y-104518027D01*
X80173231Y-104511133D01*
X80161062Y-104508712D01*
X80161061Y-104508712D01*
X80120816Y-104500707D01*
X80114748Y-104499500D01*
X79175252Y-104499500D01*
X79169184Y-104500707D01*
X79128939Y-104508712D01*
X79128938Y-104508712D01*
X79116769Y-104511133D01*
X79106452Y-104518027D01*
X79106449Y-104518028D01*
X79080003Y-104535699D01*
X79012251Y-104556915D01*
X78939997Y-104535699D01*
X78913551Y-104518028D01*
X78913548Y-104518027D01*
X78903231Y-104511133D01*
X78891062Y-104508712D01*
X78891061Y-104508712D01*
X78850816Y-104500707D01*
X78844748Y-104499500D01*
X78215492Y-104499500D01*
X78147371Y-104479498D01*
X78100878Y-104425842D01*
X78089492Y-104373500D01*
X78089492Y-103326500D01*
X78109494Y-103258379D01*
X78163150Y-103211886D01*
X78215492Y-103200500D01*
X140874002Y-103200500D01*
X140942121Y-103220502D01*
G37*
%TD.AperFunction*%
%TA.AperFunction,Conductor*%
G36*
X85856160Y-120778909D02*
G01*
X85856429Y-120778080D01*
X85863639Y-120780423D01*
X85864975Y-120780693D01*
X85874696Y-120785646D01*
X85884485Y-120787196D01*
X85884487Y-120787197D01*
X85990207Y-120803941D01*
X86000000Y-120805492D01*
X86028405Y-120800993D01*
X86098814Y-120810092D01*
X86153129Y-120855814D01*
X86173442Y-120912439D01*
X86177257Y-120949206D01*
X86180149Y-120962600D01*
X86231588Y-121116784D01*
X86237761Y-121129962D01*
X86323063Y-121267807D01*
X86332099Y-121279208D01*
X86446829Y-121393739D01*
X86458240Y-121402751D01*
X86596243Y-121487816D01*
X86609424Y-121493963D01*
X86756092Y-121542611D01*
X86814451Y-121583042D01*
X86841688Y-121648606D01*
X86829154Y-121718488D01*
X86780830Y-121770500D01*
X86758171Y-121781087D01*
X86711816Y-121797366D01*
X86704246Y-121802958D01*
X86704243Y-121802959D01*
X86637848Y-121852000D01*
X86602850Y-121877850D01*
X86597258Y-121885421D01*
X86527959Y-121979243D01*
X86527958Y-121979246D01*
X86522366Y-121986816D01*
X86477481Y-122114631D01*
X86474500Y-122146166D01*
X86474500Y-122753834D01*
X86477481Y-122785369D01*
X86522366Y-122913184D01*
X86527960Y-122920758D01*
X86532369Y-122929085D01*
X86529785Y-122930453D01*
X86548933Y-122982828D01*
X86533391Y-123052103D01*
X86482863Y-123101978D01*
X86423198Y-123117000D01*
X86379562Y-123117000D01*
X86373047Y-123117337D01*
X86280943Y-123126894D01*
X86267544Y-123129788D01*
X86118893Y-123179381D01*
X86105714Y-123185555D01*
X85972827Y-123267788D01*
X85961426Y-123276824D01*
X85851014Y-123387429D01*
X85842002Y-123398840D01*
X85759996Y-123531880D01*
X85753849Y-123545061D01*
X85704509Y-123693814D01*
X85701642Y-123707190D01*
X85692328Y-123798097D01*
X85692000Y-123804514D01*
X85692000Y-123827885D01*
X85696475Y-123843124D01*
X85697865Y-123844329D01*
X85705548Y-123846000D01*
X86778000Y-123846000D01*
X86846121Y-123866002D01*
X86892614Y-123919658D01*
X86904000Y-123972000D01*
X86904000Y-124228000D01*
X86883998Y-124296121D01*
X86830342Y-124342614D01*
X86778000Y-124354000D01*
X85710115Y-124354000D01*
X85694876Y-124358475D01*
X85693671Y-124359865D01*
X85692000Y-124367548D01*
X85692000Y-124395438D01*
X85692337Y-124401953D01*
X85701894Y-124494057D01*
X85704788Y-124507456D01*
X85754381Y-124656107D01*
X85760555Y-124669286D01*
X85842788Y-124802173D01*
X85851824Y-124813574D01*
X85962429Y-124923986D01*
X85973840Y-124932998D01*
X86027769Y-124966240D01*
X86075262Y-125019012D01*
X86086686Y-125089084D01*
X86058412Y-125154207D01*
X85999418Y-125193707D01*
X85961653Y-125199500D01*
X78215492Y-125199500D01*
X78147371Y-125179498D01*
X78100878Y-125125842D01*
X78089492Y-125073500D01*
X78089492Y-124026500D01*
X78109494Y-123958379D01*
X78163150Y-123911886D01*
X78215492Y-123900500D01*
X78844748Y-123900500D01*
X78850816Y-123899293D01*
X78891061Y-123891288D01*
X78891062Y-123891288D01*
X78903231Y-123888867D01*
X78913548Y-123881973D01*
X78913551Y-123881972D01*
X78939997Y-123864301D01*
X79007749Y-123843085D01*
X79080003Y-123864301D01*
X79106449Y-123881972D01*
X79106452Y-123881973D01*
X79116769Y-123888867D01*
X79128938Y-123891288D01*
X79128939Y-123891288D01*
X79169184Y-123899293D01*
X79175252Y-123900500D01*
X80114748Y-123900500D01*
X80120816Y-123899293D01*
X80161061Y-123891288D01*
X80161062Y-123891288D01*
X80173231Y-123888867D01*
X80183548Y-123881973D01*
X80183551Y-123881972D01*
X80209997Y-123864301D01*
X80277749Y-123843085D01*
X80350003Y-123864301D01*
X80376449Y-123881972D01*
X80376452Y-123881973D01*
X80386769Y-123888867D01*
X80398938Y-123891288D01*
X80398939Y-123891288D01*
X80439184Y-123899293D01*
X80445252Y-123900500D01*
X81384748Y-123900500D01*
X81390816Y-123899293D01*
X81431061Y-123891288D01*
X81431062Y-123891288D01*
X81443231Y-123888867D01*
X81453548Y-123881973D01*
X81453551Y-123881972D01*
X81479997Y-123864301D01*
X81547749Y-123843085D01*
X81620003Y-123864301D01*
X81646449Y-123881972D01*
X81646452Y-123881973D01*
X81656769Y-123888867D01*
X81668938Y-123891288D01*
X81668939Y-123891288D01*
X81709184Y-123899293D01*
X81715252Y-123900500D01*
X82654748Y-123900500D01*
X82660816Y-123899293D01*
X82701061Y-123891288D01*
X82701062Y-123891288D01*
X82713231Y-123888867D01*
X82723548Y-123881973D01*
X82723551Y-123881972D01*
X82749997Y-123864301D01*
X82817749Y-123843085D01*
X82890003Y-123864301D01*
X82916449Y-123881972D01*
X82916452Y-123881973D01*
X82926769Y-123888867D01*
X82938938Y-123891288D01*
X82938939Y-123891288D01*
X82979184Y-123899293D01*
X82985252Y-123900500D01*
X83924748Y-123900500D01*
X83930816Y-123899293D01*
X83971061Y-123891288D01*
X83971062Y-123891288D01*
X83983231Y-123888867D01*
X84049552Y-123844552D01*
X84093867Y-123778231D01*
X84099538Y-123749724D01*
X84104293Y-123725816D01*
X84105500Y-123719748D01*
X84105500Y-121680252D01*
X84093867Y-121621769D01*
X84086975Y-121611454D01*
X84086973Y-121611450D01*
X84060280Y-121571502D01*
X84039065Y-121503750D01*
X84057848Y-121435283D01*
X84110665Y-121387839D01*
X84165045Y-121375500D01*
X84233694Y-121375500D01*
X84301815Y-121395502D01*
X84322789Y-121412405D01*
X84562570Y-121652186D01*
X84597924Y-121721570D01*
X84612802Y-121815506D01*
X84614354Y-121825304D01*
X84671950Y-121938342D01*
X84761658Y-122028050D01*
X84874696Y-122085646D01*
X84884485Y-122087196D01*
X84884487Y-122087197D01*
X84990207Y-122103941D01*
X85000000Y-122105492D01*
X85009793Y-122103941D01*
X85115513Y-122087197D01*
X85115515Y-122087196D01*
X85125304Y-122085646D01*
X85238342Y-122028050D01*
X85328050Y-121938342D01*
X85385646Y-121825304D01*
X85388232Y-121808981D01*
X85403941Y-121709793D01*
X85405492Y-121700000D01*
X85397652Y-121650502D01*
X85387197Y-121584487D01*
X85387196Y-121584485D01*
X85385646Y-121574696D01*
X85328050Y-121461658D01*
X85238342Y-121371950D01*
X85125304Y-121314354D01*
X85115515Y-121312804D01*
X85115513Y-121312803D01*
X85021570Y-121297924D01*
X84952186Y-121262570D01*
X84777710Y-121088094D01*
X84743684Y-121025782D01*
X84748749Y-120954967D01*
X84791296Y-120898131D01*
X84857816Y-120873320D01*
X84866805Y-120872999D01*
X85499669Y-120872999D01*
X85506490Y-120872629D01*
X85557352Y-120867105D01*
X85572604Y-120863479D01*
X85693054Y-120818324D01*
X85708648Y-120809786D01*
X85732204Y-120792132D01*
X85798710Y-120767284D01*
X85856160Y-120778909D01*
G37*
%TD.AperFunction*%
%TA.AperFunction,Conductor*%
G36*
X91570001Y-117125296D02*
G01*
X91584883Y-117135240D01*
X91597050Y-117137660D01*
X91597052Y-117137661D01*
X91616640Y-117141557D01*
X91679549Y-117174465D01*
X91714681Y-117236160D01*
X91710881Y-117307055D01*
X91681153Y-117354231D01*
X91333156Y-117702228D01*
X91314064Y-117717898D01*
X91301376Y-117726376D01*
X91294485Y-117736689D01*
X91286007Y-117749377D01*
X91283216Y-117753554D01*
X91280675Y-117755678D01*
X91279632Y-117758086D01*
X91279628Y-117758091D01*
X91278688Y-117757339D01*
X91228741Y-117799085D01*
X91166630Y-117806890D01*
X91193489Y-117825467D01*
X91220777Y-117891010D01*
X91221524Y-117904706D01*
X91221524Y-117912829D01*
X91219103Y-117925000D01*
X91221524Y-117937171D01*
X91222079Y-117939961D01*
X91224500Y-117964543D01*
X91224500Y-118460457D01*
X91222079Y-118485039D01*
X91219103Y-118500000D01*
X91224500Y-118527132D01*
X91224500Y-118527133D01*
X91240485Y-118607495D01*
X91301376Y-118698624D01*
X91311692Y-118705517D01*
X91311693Y-118705518D01*
X91314064Y-118707102D01*
X91333156Y-118722772D01*
X91937289Y-119326905D01*
X91971315Y-119389217D01*
X91966250Y-119460032D01*
X91923703Y-119516868D01*
X91857183Y-119541679D01*
X91848194Y-119542000D01*
X91684615Y-119542000D01*
X91669376Y-119546475D01*
X91668171Y-119547865D01*
X91666500Y-119555548D01*
X91666500Y-120953000D01*
X91646498Y-121021121D01*
X91592842Y-121067614D01*
X91540500Y-121079000D01*
X91284500Y-121079000D01*
X91216379Y-121058998D01*
X91169886Y-121005342D01*
X91158500Y-120953000D01*
X91158500Y-119560116D01*
X91154025Y-119544877D01*
X91152635Y-119543672D01*
X91144952Y-119542001D01*
X90655331Y-119542001D01*
X90648518Y-119542370D01*
X90640101Y-119543284D01*
X90570219Y-119530752D01*
X90518206Y-119482428D01*
X90500500Y-119418020D01*
X90500500Y-118376661D01*
X90520502Y-118308540D01*
X90537405Y-118287566D01*
X90925452Y-117899519D01*
X90927486Y-117897763D01*
X90932269Y-117895425D01*
X90940560Y-117886488D01*
X90965573Y-117859523D01*
X90968853Y-117856118D01*
X90982247Y-117842724D01*
X90984969Y-117838755D01*
X90987290Y-117836112D01*
X91003150Y-117819015D01*
X91064142Y-117782677D01*
X91108649Y-117784186D01*
X91094253Y-117777299D01*
X91056938Y-117716899D01*
X91052597Y-117677402D01*
X91052653Y-117676256D01*
X91055340Y-117664934D01*
X91052389Y-117643246D01*
X91051651Y-117637827D01*
X91050500Y-117620836D01*
X91050500Y-117276500D01*
X91070502Y-117208379D01*
X91124158Y-117161886D01*
X91176499Y-117150500D01*
X91286520Y-117150499D01*
X91338400Y-117150499D01*
X91344467Y-117149292D01*
X91344470Y-117149292D01*
X91402946Y-117137661D01*
X91402947Y-117137661D01*
X91415117Y-117135240D01*
X91429999Y-117125296D01*
X91497752Y-117104082D01*
X91570001Y-117125296D01*
G37*
%TD.AperFunction*%
%TA.AperFunction,Conductor*%
G36*
X83172532Y-113746250D02*
G01*
X83229368Y-113788797D01*
X83254179Y-113855317D01*
X83254500Y-113864306D01*
X83254500Y-114034748D01*
X83255707Y-114040816D01*
X83258831Y-114056519D01*
X83266133Y-114093231D01*
X83273027Y-114103548D01*
X83273028Y-114103551D01*
X83290699Y-114129997D01*
X83311915Y-114197749D01*
X83290699Y-114270003D01*
X83273028Y-114296449D01*
X83273027Y-114296451D01*
X83266133Y-114306769D01*
X83263712Y-114318938D01*
X83263712Y-114318939D01*
X83258418Y-114345555D01*
X83254500Y-114365252D01*
X83254500Y-115304748D01*
X83255707Y-115310816D01*
X83263562Y-115350304D01*
X83266133Y-115363231D01*
X83273027Y-115373548D01*
X83273028Y-115373551D01*
X83290699Y-115399997D01*
X83311915Y-115467749D01*
X83290699Y-115540003D01*
X83273028Y-115566449D01*
X83273027Y-115566452D01*
X83266133Y-115576769D01*
X83254500Y-115635252D01*
X83254500Y-116574748D01*
X83266133Y-116633231D01*
X83273027Y-116643548D01*
X83273028Y-116643551D01*
X83290699Y-116669997D01*
X83311915Y-116737749D01*
X83290699Y-116810003D01*
X83273028Y-116836449D01*
X83273027Y-116836452D01*
X83266133Y-116846769D01*
X83263712Y-116858938D01*
X83263712Y-116858939D01*
X83260743Y-116873867D01*
X83254500Y-116905252D01*
X83254500Y-117844748D01*
X83255707Y-117850816D01*
X83263373Y-117889354D01*
X83266133Y-117903231D01*
X83273027Y-117913548D01*
X83273028Y-117913551D01*
X83290699Y-117939997D01*
X83311915Y-118007749D01*
X83290699Y-118080003D01*
X83273028Y-118106449D01*
X83273027Y-118106452D01*
X83266133Y-118116769D01*
X83254500Y-118175252D01*
X83254500Y-118917354D01*
X83234498Y-118985475D01*
X83204065Y-119018180D01*
X83099276Y-119096715D01*
X83086715Y-119109276D01*
X83010214Y-119211351D01*
X83001676Y-119226946D01*
X82956522Y-119347394D01*
X82952895Y-119362649D01*
X82947369Y-119413514D01*
X82947000Y-119420328D01*
X82947000Y-119642885D01*
X82951475Y-119658124D01*
X82952865Y-119659329D01*
X82960548Y-119661000D01*
X84583000Y-119661000D01*
X84651121Y-119681002D01*
X84697614Y-119734658D01*
X84709000Y-119787000D01*
X84709000Y-120043000D01*
X84688998Y-120111121D01*
X84635342Y-120157614D01*
X84583000Y-120169000D01*
X82965116Y-120169000D01*
X82949877Y-120173475D01*
X82948672Y-120174865D01*
X82947001Y-120182548D01*
X82947001Y-120409669D01*
X82947371Y-120416490D01*
X82952895Y-120467352D01*
X82956521Y-120482604D01*
X83001676Y-120603054D01*
X83010216Y-120618651D01*
X83013428Y-120622938D01*
X83038274Y-120689445D01*
X83023219Y-120758827D01*
X82973044Y-120809056D01*
X82912600Y-120824500D01*
X78215492Y-120824500D01*
X78147371Y-120804498D01*
X78100878Y-120750842D01*
X78089492Y-120698500D01*
X78089492Y-118676650D01*
X78109494Y-118608529D01*
X78163150Y-118562036D01*
X78195781Y-118552201D01*
X78290513Y-118537197D01*
X78290515Y-118537196D01*
X78300304Y-118535646D01*
X78413342Y-118478050D01*
X78503050Y-118388342D01*
X78560646Y-118275304D01*
X78561256Y-118271452D01*
X78589889Y-118224727D01*
X83039405Y-113775211D01*
X83101717Y-113741185D01*
X83172532Y-113746250D01*
G37*
%TD.AperFunction*%
%TA.AperFunction,Conductor*%
G36*
X85833306Y-118000342D02*
G01*
X85860051Y-118020739D01*
X85931637Y-118092325D01*
X85947304Y-118111414D01*
X85955784Y-118124104D01*
X85966097Y-118130995D01*
X85978785Y-118139473D01*
X85977196Y-118141850D01*
X85977198Y-118141851D01*
X85978786Y-118139474D01*
X85997817Y-118152190D01*
X86043345Y-118206666D01*
X86048821Y-118225525D01*
X86049062Y-118225796D01*
X86063703Y-118230000D01*
X86824000Y-118230000D01*
X86892121Y-118250002D01*
X86938614Y-118303658D01*
X86950000Y-118356000D01*
X86950000Y-118504000D01*
X86929998Y-118572121D01*
X86876342Y-118618614D01*
X86824000Y-118630000D01*
X86064086Y-118630000D01*
X86050315Y-118634044D01*
X86048286Y-118647583D01*
X86056572Y-118710533D01*
X86060810Y-118726348D01*
X86115754Y-118858997D01*
X86117059Y-118861257D01*
X86117580Y-118863405D01*
X86118913Y-118866623D01*
X86118411Y-118866831D01*
X86133796Y-118930252D01*
X86110575Y-118997344D01*
X86097040Y-119013344D01*
X86001289Y-119109095D01*
X85938981Y-119143118D01*
X85868165Y-119138054D01*
X85823102Y-119109093D01*
X85810724Y-119096715D01*
X85705935Y-119018180D01*
X85663420Y-118961321D01*
X85655500Y-118917354D01*
X85655500Y-118175252D01*
X85647377Y-118134415D01*
X85653705Y-118063701D01*
X85697259Y-118007634D01*
X85764212Y-117984015D01*
X85833306Y-118000342D01*
G37*
%TD.AperFunction*%
%TA.AperFunction,Conductor*%
G36*
X88852273Y-116826542D02*
G01*
X88906642Y-116872199D01*
X88925291Y-116917373D01*
X88939760Y-116990117D01*
X88997888Y-117077112D01*
X89008204Y-117084005D01*
X89074566Y-117128347D01*
X89074568Y-117128348D01*
X89084883Y-117135240D01*
X89116640Y-117141557D01*
X89125246Y-117143269D01*
X89188155Y-117176178D01*
X89200625Y-117190144D01*
X89275583Y-117287831D01*
X89287167Y-117299414D01*
X89393235Y-117380802D01*
X89407421Y-117388992D01*
X89484019Y-117420720D01*
X89539300Y-117465268D01*
X89561721Y-117532632D01*
X89554622Y-117573502D01*
X89555515Y-117573719D01*
X89553411Y-117582366D01*
X89550117Y-117590622D01*
X89549500Y-117596915D01*
X89549500Y-117599994D01*
X89549350Y-117603067D01*
X89549134Y-117603056D01*
X89547802Y-117614431D01*
X89547346Y-117623746D01*
X89544660Y-117635066D01*
X89546229Y-117646595D01*
X89546229Y-117646596D01*
X89548349Y-117662173D01*
X89549500Y-117679164D01*
X89549500Y-117903918D01*
X89529498Y-117972039D01*
X89475842Y-118018532D01*
X89405568Y-118028636D01*
X89340988Y-117999142D01*
X89334405Y-117993013D01*
X89288342Y-117946950D01*
X89175304Y-117889354D01*
X89165515Y-117887804D01*
X89165513Y-117887803D01*
X89059793Y-117871059D01*
X89050000Y-117869508D01*
X89040207Y-117871059D01*
X88934487Y-117887803D01*
X88934485Y-117887804D01*
X88924696Y-117889354D01*
X88811658Y-117946950D01*
X88721950Y-118036658D01*
X88664354Y-118149696D01*
X88662804Y-118159485D01*
X88662803Y-118159487D01*
X88647924Y-118253430D01*
X88612570Y-118322814D01*
X88091076Y-118844308D01*
X88028764Y-118878334D01*
X87957949Y-118873269D01*
X87901113Y-118830722D01*
X87876302Y-118764202D01*
X87875981Y-118755213D01*
X87875981Y-118140024D01*
X87878402Y-118115444D01*
X87878957Y-118112654D01*
X87878957Y-118112652D01*
X87881378Y-118100481D01*
X87868683Y-118036658D01*
X87859996Y-117992986D01*
X87830088Y-117948226D01*
X87814475Y-117924859D01*
X87814474Y-117924858D01*
X87814403Y-117924750D01*
X87814401Y-117924747D01*
X87812236Y-117921507D01*
X87791017Y-117853756D01*
X87809796Y-117785288D01*
X87862611Y-117737842D01*
X87916997Y-117725500D01*
X88277280Y-117725499D01*
X88306518Y-117725499D01*
X88311412Y-117724724D01*
X88390506Y-117712198D01*
X88390508Y-117712197D01*
X88400304Y-117710646D01*
X88415144Y-117703085D01*
X88449991Y-117685329D01*
X88513342Y-117653050D01*
X88603050Y-117563342D01*
X88660646Y-117450304D01*
X88675500Y-117356519D01*
X88675499Y-116941986D01*
X88695501Y-116873867D01*
X88749156Y-116827373D01*
X88781638Y-116817562D01*
X88781683Y-116817555D01*
X88781852Y-116817528D01*
X88852273Y-116826542D01*
G37*
%TD.AperFunction*%
%TA.AperFunction,Conductor*%
G36*
X85822555Y-112814878D02*
G01*
X85838317Y-112831910D01*
X85911344Y-112927080D01*
X85922920Y-112938656D01*
X86036824Y-113026059D01*
X86051007Y-113034247D01*
X86191280Y-113092350D01*
X86190206Y-113094943D01*
X86239128Y-113124759D01*
X86270153Y-113188617D01*
X86261729Y-113259112D01*
X86234994Y-113298614D01*
X86196950Y-113336658D01*
X86139354Y-113449696D01*
X86137804Y-113459485D01*
X86137803Y-113459487D01*
X86133743Y-113485123D01*
X86124500Y-113543481D01*
X86124500Y-113548434D01*
X86124501Y-113788797D01*
X86124501Y-114006518D01*
X86122614Y-114006518D01*
X86109686Y-114068110D01*
X86087755Y-114097629D01*
X85844111Y-114341273D01*
X85781799Y-114375299D01*
X85710984Y-114370234D01*
X85654148Y-114327687D01*
X85644742Y-114311170D01*
X85643867Y-114306769D01*
X85636973Y-114296451D01*
X85619301Y-114270003D01*
X85598085Y-114202251D01*
X85619301Y-114129997D01*
X85636972Y-114103551D01*
X85636973Y-114103548D01*
X85643867Y-114093231D01*
X85651170Y-114056519D01*
X85654293Y-114040816D01*
X85655500Y-114034748D01*
X85655500Y-113095252D01*
X85652024Y-113077776D01*
X85646288Y-113048939D01*
X85646288Y-113048938D01*
X85643867Y-113036769D01*
X85636973Y-113026452D01*
X85636972Y-113026449D01*
X85619301Y-113000003D01*
X85598085Y-112932251D01*
X85619301Y-112859997D01*
X85633591Y-112838611D01*
X85688068Y-112793084D01*
X85758511Y-112784237D01*
X85822555Y-112814878D01*
G37*
%TD.AperFunction*%
%TA.AperFunction,Conductor*%
G36*
X85864012Y-109675154D02*
G01*
X85870595Y-109681283D01*
X86197365Y-110008053D01*
X86231391Y-110070365D01*
X86226326Y-110141180D01*
X86197365Y-110186243D01*
X86146950Y-110236658D01*
X86089354Y-110349696D01*
X86074500Y-110443481D01*
X86074501Y-110906518D01*
X86075276Y-110911409D01*
X86075276Y-110911412D01*
X86086489Y-110982211D01*
X86089354Y-111000304D01*
X86146950Y-111113342D01*
X86236658Y-111203050D01*
X86349696Y-111260646D01*
X86359485Y-111262196D01*
X86359487Y-111262197D01*
X86380248Y-111265485D01*
X86443481Y-111275500D01*
X86458649Y-111275500D01*
X86718501Y-111275499D01*
X86786620Y-111295501D01*
X86833113Y-111349156D01*
X86844500Y-111401499D01*
X86844500Y-111573951D01*
X86824498Y-111642072D01*
X86770842Y-111688565D01*
X86702056Y-111698873D01*
X86697962Y-111698334D01*
X86683779Y-111700546D01*
X86680000Y-111713704D01*
X86680000Y-112474000D01*
X86659998Y-112542121D01*
X86606342Y-112588614D01*
X86554000Y-112600000D01*
X86406000Y-112600000D01*
X86337879Y-112579998D01*
X86291386Y-112526342D01*
X86280000Y-112474000D01*
X86280000Y-111714086D01*
X86275956Y-111700315D01*
X86262417Y-111698286D01*
X86199467Y-111706572D01*
X86183652Y-111710810D01*
X86051007Y-111765753D01*
X86036824Y-111773941D01*
X85922920Y-111861344D01*
X85911347Y-111872917D01*
X85881462Y-111911863D01*
X85824123Y-111953730D01*
X85753252Y-111957951D01*
X85691350Y-111923186D01*
X85658069Y-111860473D01*
X85655500Y-111835158D01*
X85655500Y-111825252D01*
X85646671Y-111780865D01*
X85646288Y-111778939D01*
X85646288Y-111778938D01*
X85643867Y-111766769D01*
X85636973Y-111756452D01*
X85636972Y-111756449D01*
X85619301Y-111730003D01*
X85598085Y-111662251D01*
X85619301Y-111589997D01*
X85636972Y-111563551D01*
X85636973Y-111563548D01*
X85643867Y-111553231D01*
X85655500Y-111494748D01*
X85655500Y-110555252D01*
X85646711Y-110511068D01*
X85646288Y-110508939D01*
X85646288Y-110508938D01*
X85643867Y-110496769D01*
X85636973Y-110486452D01*
X85636972Y-110486449D01*
X85619301Y-110460003D01*
X85598085Y-110392251D01*
X85619301Y-110319997D01*
X85636972Y-110293551D01*
X85636973Y-110293548D01*
X85643867Y-110283231D01*
X85648585Y-110259515D01*
X85654293Y-110230816D01*
X85655500Y-110224748D01*
X85655500Y-109770378D01*
X85675502Y-109702257D01*
X85729158Y-109655764D01*
X85799432Y-109645660D01*
X85864012Y-109675154D01*
G37*
%TD.AperFunction*%
%TA.AperFunction,Conductor*%
G36*
X97297689Y-108795022D02*
G01*
X97344182Y-108848678D01*
X97351876Y-108893948D01*
X97358975Y-108918124D01*
X97360365Y-108919329D01*
X97368048Y-108921000D01*
X98465500Y-108921000D01*
X98533621Y-108941002D01*
X98580114Y-108994658D01*
X98591500Y-109047000D01*
X98591500Y-109303000D01*
X98571498Y-109371121D01*
X98517842Y-109417614D01*
X98465500Y-109429000D01*
X97372616Y-109429000D01*
X97357377Y-109433475D01*
X97335112Y-109459170D01*
X97333809Y-109458041D01*
X97328552Y-109467664D01*
X97266232Y-109501676D01*
X97221286Y-109503230D01*
X97200244Y-109500160D01*
X97200240Y-109500160D01*
X97195718Y-109499500D01*
X96945019Y-109499500D01*
X96876898Y-109479498D01*
X96830405Y-109425842D01*
X96821646Y-109361664D01*
X96820894Y-109361664D01*
X96820894Y-109356153D01*
X96820571Y-109353786D01*
X96820894Y-109351747D01*
X96820894Y-109351746D01*
X96822445Y-109341953D01*
X96810499Y-109266525D01*
X96804150Y-109226440D01*
X96804149Y-109226438D01*
X96802599Y-109216649D01*
X96745003Y-109103611D01*
X96655295Y-109013903D01*
X96656246Y-109012952D01*
X96619138Y-108964827D01*
X96613063Y-108894091D01*
X96647458Y-108830019D01*
X96665552Y-108811925D01*
X96727864Y-108777899D01*
X96754647Y-108775020D01*
X97229568Y-108775020D01*
X97297689Y-108795022D01*
G37*
%TD.AperFunction*%
M02*
