M48
; DRILL file {KiCad (6.0.4)} date Tue Jan  3 21:15:23 2023
; FORMAT={-:-/ absolute / metric / decimal}
; #@! TF.CreationDate,2023-01-03T21:15:23+00:00
; #@! TF.GenerationSoftware,Kicad,Pcbnew,(6.0.4)
; #@! TF.FileFunction,Plated,1,4,PTH
FMAT,2
METRIC
; #@! TA.AperFunction,Plated,PTH,ViaDrill
T1C0.200
; #@! TA.AperFunction,Plated,PTH,ComponentDrill
T2C1.000
; #@! TA.AperFunction,Plated,PTH,ComponentDrill
T3C1.600
%
G90
G05
T1
X68.7Y-120.9
X74.725Y-111.925
X76.4Y-120.425
X78.175Y-118.15
X78.4Y-109.875
X81.5Y-110.837
X81.9Y-124.7
X82.3Y-111.2
X84.8Y-122.1
X85.25Y-107.25
X85.4Y-122.9
X85.975Y-118.45
X86.0Y-112.6
X87.699Y-114.4
X87.7Y-113.8
X87.75Y-115.225
X87.85Y-112.775
X88.025Y-116.371
X88.501Y-110.475
X88.725Y-116.75
X88.728Y-118.73
X89.1Y-120.3
X89.15Y-121.05
X89.4Y-122.45
X89.45Y-109.25
X89.468Y-108.473
X89.751Y-117.8
X90.675Y-104.625
X90.775Y-111.999
X91.055Y-118.951
X92.025Y-118.325
X92.175Y-112.025
X92.622Y-112.623
X92.9Y-104.2
X93.229Y-114.061
X93.25Y-110.7
X93.473Y-109.273
X93.475Y-116.35
X93.6Y-118.9
X93.85Y-112.624
X95.3Y-119.45
X96.05Y-116.8
X96.075Y-111.05
X96.225Y-112.149
X96.417Y-109.342
X97.35Y-109.175
X98.923Y-110.077
X99.15Y-119.75
X101.325Y-108.1
X103.15Y-123.35
X103.5Y-122.2
X106.65Y-107.85
T2
X115.16Y-105.3
X117.7Y-105.3
X120.24Y-105.3
X122.78Y-105.3
T3
X100.287Y-114.1
X138.287Y-114.1
T0
M30
