%TF.GenerationSoftware,KiCad,Pcbnew,(6.0.4)*%
%TF.CreationDate,2022-06-27T14:28:37+01:00*%
%TF.ProjectId,soil-moisture-sensor,736f696c-2d6d-46f6-9973-747572652d73,%%version%%*%
%TF.SameCoordinates,Original*%
%TF.FileFunction,Copper,L2,Inr*%
%TF.FilePolarity,Positive*%
%FSLAX46Y46*%
G04 Gerber Fmt 4.6, Leading zero omitted, Abs format (unit mm)*
G04 Created by KiCad (PCBNEW (6.0.4)) date 2022-06-27 14:28:37*
%MOMM*%
%LPD*%
G01*
G04 APERTURE LIST*
%TA.AperFunction,ComponentPad*%
%ADD10C,3.500000*%
%TD*%
%TA.AperFunction,ViaPad*%
%ADD11C,0.400000*%
%TD*%
G04 APERTURE END LIST*
D10*
X100287500Y-114100000D03*
X138287500Y-114100000D03*
D11*
X81900000Y-124700000D03*
X88075000Y-118150000D03*
X86450000Y-116100000D03*
X86175000Y-112975000D03*
X88075000Y-118150000D03*
X85400000Y-122900000D03*
X89200000Y-118950000D03*
X74725000Y-111925000D03*
X97000000Y-109175000D03*
X101650000Y-110850000D03*
X85975000Y-118450000D03*
X89200000Y-118950000D03*
X91000000Y-118900000D03*
X103150000Y-123350000D03*
X93875000Y-108025000D03*
X86300000Y-107950000D03*
X88650000Y-122000000D03*
X68700000Y-120900000D03*
X78400000Y-109875000D03*
X99150000Y-119750000D03*
X89468437Y-108473450D03*
X93850000Y-112624000D03*
X96075000Y-111050000D03*
X96225000Y-112149500D03*
X87850000Y-112775000D03*
X87750000Y-115225000D03*
X86000000Y-120400000D03*
X89050000Y-118275000D03*
X92000000Y-118250000D03*
X85000000Y-121700000D03*
X92622224Y-112623216D03*
X93473301Y-109273301D03*
X89450000Y-109250000D03*
X92175000Y-112025000D03*
X93250000Y-110699500D03*
X90775000Y-111999500D03*
X90675000Y-104625000D03*
X92650000Y-116750000D03*
X93475000Y-116350000D03*
X87225000Y-116850000D03*
X101325000Y-108100000D03*
X76400000Y-120425000D03*
X88500989Y-110475000D03*
X98922691Y-110077309D03*
X96416953Y-109341953D03*
X78175000Y-118150000D03*
X93228604Y-114060935D03*
X88700000Y-116425000D03*
X87675000Y-113875000D03*
X82625000Y-112050000D03*
X87675000Y-114575000D03*
X82700000Y-113000000D03*
%TA.AperFunction,Conductor*%
G36*
X140942121Y-103220502D02*
G01*
X140988614Y-103274158D01*
X141000000Y-103326500D01*
X141000000Y-125073500D01*
X140979998Y-125141621D01*
X140926342Y-125188114D01*
X140874000Y-125199500D01*
X81126000Y-125199500D01*
X81057879Y-125179498D01*
X81011386Y-125125842D01*
X81000000Y-125073500D01*
X81000000Y-123350000D01*
X102594750Y-123350000D01*
X102613670Y-123493709D01*
X102669139Y-123627625D01*
X102757379Y-123742621D01*
X102872375Y-123830861D01*
X103006291Y-123886330D01*
X103150000Y-123905250D01*
X103293709Y-123886330D01*
X103427625Y-123830861D01*
X103542621Y-123742621D01*
X103630861Y-123627625D01*
X103686330Y-123493709D01*
X103705250Y-123350000D01*
X103686330Y-123206291D01*
X103630861Y-123072375D01*
X103542621Y-122957379D01*
X103427625Y-122869139D01*
X103293709Y-122813670D01*
X103150000Y-122794750D01*
X103006291Y-122813670D01*
X102872375Y-122869139D01*
X102757379Y-122957379D01*
X102669139Y-123072375D01*
X102613670Y-123206291D01*
X102594750Y-123350000D01*
X81000000Y-123350000D01*
X81000000Y-121700000D01*
X84444750Y-121700000D01*
X84463670Y-121843709D01*
X84519139Y-121977625D01*
X84607379Y-122092621D01*
X84722375Y-122180861D01*
X84856291Y-122236330D01*
X85000000Y-122255250D01*
X85143709Y-122236330D01*
X85277625Y-122180861D01*
X85392621Y-122092621D01*
X85463692Y-122000000D01*
X88094750Y-122000000D01*
X88113670Y-122143709D01*
X88169139Y-122277625D01*
X88257379Y-122392621D01*
X88372375Y-122480861D01*
X88506291Y-122536330D01*
X88650000Y-122555250D01*
X88793709Y-122536330D01*
X88927625Y-122480861D01*
X89042621Y-122392621D01*
X89130861Y-122277625D01*
X89186330Y-122143709D01*
X89205250Y-122000000D01*
X89186330Y-121856291D01*
X89130861Y-121722375D01*
X89042621Y-121607379D01*
X88927625Y-121519139D01*
X88793709Y-121463670D01*
X88650000Y-121444750D01*
X88506291Y-121463670D01*
X88372375Y-121519139D01*
X88257379Y-121607379D01*
X88169139Y-121722375D01*
X88113670Y-121856291D01*
X88094750Y-122000000D01*
X85463692Y-122000000D01*
X85480861Y-121977625D01*
X85536330Y-121843709D01*
X85555250Y-121700000D01*
X85536330Y-121556291D01*
X85480861Y-121422375D01*
X85392621Y-121307379D01*
X85277625Y-121219139D01*
X85143709Y-121163670D01*
X85000000Y-121144750D01*
X84856291Y-121163670D01*
X84722375Y-121219139D01*
X84607379Y-121307379D01*
X84519139Y-121422375D01*
X84463670Y-121556291D01*
X84444750Y-121700000D01*
X81000000Y-121700000D01*
X81000000Y-120400000D01*
X85444750Y-120400000D01*
X85463670Y-120543709D01*
X85519139Y-120677625D01*
X85607379Y-120792621D01*
X85722375Y-120880861D01*
X85856291Y-120936330D01*
X86000000Y-120955250D01*
X86143709Y-120936330D01*
X86277625Y-120880861D01*
X86392621Y-120792621D01*
X86480861Y-120677625D01*
X86536330Y-120543709D01*
X86555250Y-120400000D01*
X86536330Y-120256291D01*
X86480861Y-120122375D01*
X86392621Y-120007379D01*
X86277625Y-119919139D01*
X86143709Y-119863670D01*
X86000000Y-119844750D01*
X85856291Y-119863670D01*
X85722375Y-119919139D01*
X85607379Y-120007379D01*
X85519139Y-120122375D01*
X85463670Y-120256291D01*
X85444750Y-120400000D01*
X81000000Y-120400000D01*
X81000000Y-119750000D01*
X98594750Y-119750000D01*
X98613670Y-119893709D01*
X98669139Y-120027625D01*
X98757379Y-120142621D01*
X98872375Y-120230861D01*
X99006291Y-120286330D01*
X99150000Y-120305250D01*
X99293709Y-120286330D01*
X99427625Y-120230861D01*
X99542621Y-120142621D01*
X99630861Y-120027625D01*
X99686330Y-119893709D01*
X99705250Y-119750000D01*
X99686330Y-119606291D01*
X99630861Y-119472375D01*
X99542621Y-119357379D01*
X99427625Y-119269139D01*
X99293709Y-119213670D01*
X99150000Y-119194750D01*
X99006291Y-119213670D01*
X98872375Y-119269139D01*
X98757379Y-119357379D01*
X98669139Y-119472375D01*
X98613670Y-119606291D01*
X98594750Y-119750000D01*
X81000000Y-119750000D01*
X81000000Y-118275000D01*
X88494750Y-118275000D01*
X88513670Y-118418709D01*
X88569139Y-118552625D01*
X88657379Y-118667621D01*
X88772375Y-118755861D01*
X88906291Y-118811330D01*
X89050000Y-118830250D01*
X89193709Y-118811330D01*
X89327625Y-118755861D01*
X89442621Y-118667621D01*
X89530861Y-118552625D01*
X89586330Y-118418709D01*
X89605250Y-118275000D01*
X89601959Y-118250000D01*
X91444750Y-118250000D01*
X91463670Y-118393709D01*
X91519139Y-118527625D01*
X91607379Y-118642621D01*
X91722375Y-118730861D01*
X91856291Y-118786330D01*
X92000000Y-118805250D01*
X92143709Y-118786330D01*
X92277625Y-118730861D01*
X92392621Y-118642621D01*
X92480861Y-118527625D01*
X92536330Y-118393709D01*
X92555250Y-118250000D01*
X92536330Y-118106291D01*
X92480861Y-117972375D01*
X92392621Y-117857379D01*
X92277625Y-117769139D01*
X92143709Y-117713670D01*
X92000000Y-117694750D01*
X91856291Y-117713670D01*
X91722375Y-117769139D01*
X91607379Y-117857379D01*
X91519139Y-117972375D01*
X91463670Y-118106291D01*
X91444750Y-118250000D01*
X89601959Y-118250000D01*
X89586330Y-118131291D01*
X89530861Y-117997375D01*
X89442621Y-117882379D01*
X89327625Y-117794139D01*
X89193709Y-117738670D01*
X89050000Y-117719750D01*
X88906291Y-117738670D01*
X88772375Y-117794139D01*
X88657379Y-117882379D01*
X88569139Y-117997375D01*
X88513670Y-118131291D01*
X88494750Y-118275000D01*
X81000000Y-118275000D01*
X81000000Y-116850000D01*
X86669750Y-116850000D01*
X86688670Y-116993709D01*
X86744139Y-117127625D01*
X86832379Y-117242621D01*
X86947375Y-117330861D01*
X87081291Y-117386330D01*
X87225000Y-117405250D01*
X87368709Y-117386330D01*
X87502625Y-117330861D01*
X87617621Y-117242621D01*
X87705861Y-117127625D01*
X87761330Y-116993709D01*
X87780250Y-116850000D01*
X87761330Y-116706291D01*
X87705861Y-116572375D01*
X87617621Y-116457379D01*
X87575424Y-116425000D01*
X88144750Y-116425000D01*
X88163670Y-116568709D01*
X88219139Y-116702625D01*
X88307379Y-116817621D01*
X88422375Y-116905861D01*
X88556291Y-116961330D01*
X88700000Y-116980250D01*
X88843709Y-116961330D01*
X88977625Y-116905861D01*
X89092621Y-116817621D01*
X89144509Y-116750000D01*
X92094750Y-116750000D01*
X92113670Y-116893709D01*
X92169139Y-117027625D01*
X92257379Y-117142621D01*
X92372375Y-117230861D01*
X92506291Y-117286330D01*
X92650000Y-117305250D01*
X92793709Y-117286330D01*
X92927625Y-117230861D01*
X93042621Y-117142621D01*
X93130861Y-117027625D01*
X93134021Y-117019996D01*
X93134023Y-117019993D01*
X93161950Y-116952569D01*
X93206498Y-116897287D01*
X93273861Y-116874866D01*
X93315331Y-116882350D01*
X93315684Y-116881032D01*
X93323660Y-116883169D01*
X93331291Y-116886330D01*
X93475000Y-116905250D01*
X93618709Y-116886330D01*
X93752625Y-116830861D01*
X93867621Y-116742621D01*
X93955861Y-116627625D01*
X94011330Y-116493709D01*
X94030250Y-116350000D01*
X94011330Y-116206291D01*
X93955861Y-116072375D01*
X93867621Y-115957379D01*
X93752625Y-115869139D01*
X93618709Y-115813670D01*
X93475000Y-115794750D01*
X93331291Y-115813670D01*
X93197375Y-115869139D01*
X93082379Y-115957379D01*
X92994139Y-116072375D01*
X92990980Y-116080002D01*
X92990977Y-116080007D01*
X92963050Y-116147431D01*
X92918502Y-116202713D01*
X92851139Y-116225134D01*
X92809669Y-116217650D01*
X92809316Y-116218968D01*
X92801340Y-116216831D01*
X92793709Y-116213670D01*
X92650000Y-116194750D01*
X92506291Y-116213670D01*
X92372375Y-116269139D01*
X92257379Y-116357379D01*
X92169139Y-116472375D01*
X92113670Y-116606291D01*
X92094750Y-116750000D01*
X89144509Y-116750000D01*
X89180861Y-116702625D01*
X89236330Y-116568709D01*
X89255250Y-116425000D01*
X89236330Y-116281291D01*
X89180861Y-116147375D01*
X89092621Y-116032379D01*
X88977625Y-115944139D01*
X88843709Y-115888670D01*
X88700000Y-115869750D01*
X88556291Y-115888670D01*
X88422375Y-115944139D01*
X88307379Y-116032379D01*
X88219139Y-116147375D01*
X88163670Y-116281291D01*
X88144750Y-116425000D01*
X87575424Y-116425000D01*
X87502625Y-116369139D01*
X87368709Y-116313670D01*
X87225000Y-116294750D01*
X87081291Y-116313670D01*
X86947375Y-116369139D01*
X86832379Y-116457379D01*
X86744139Y-116572375D01*
X86688670Y-116706291D01*
X86669750Y-116850000D01*
X81000000Y-116850000D01*
X81000000Y-114575000D01*
X87119750Y-114575000D01*
X87138670Y-114718709D01*
X87194139Y-114852625D01*
X87199166Y-114859176D01*
X87224050Y-114891606D01*
X87249650Y-114957827D01*
X87240496Y-115016525D01*
X87213670Y-115081291D01*
X87194750Y-115225000D01*
X87213670Y-115368709D01*
X87269139Y-115502625D01*
X87357379Y-115617621D01*
X87472375Y-115705861D01*
X87606291Y-115761330D01*
X87750000Y-115780250D01*
X87893709Y-115761330D01*
X88027625Y-115705861D01*
X88142621Y-115617621D01*
X88230861Y-115502625D01*
X88286330Y-115368709D01*
X88305250Y-115225000D01*
X88286330Y-115081291D01*
X88230861Y-114947375D01*
X88200950Y-114908394D01*
X88175350Y-114842173D01*
X88184504Y-114783475D01*
X88211330Y-114718709D01*
X88230250Y-114575000D01*
X88211330Y-114431291D01*
X88155861Y-114297375D01*
X88150835Y-114290825D01*
X88149204Y-114288000D01*
X88132466Y-114219004D01*
X88149204Y-114162000D01*
X88150835Y-114159175D01*
X88155861Y-114152625D01*
X88193840Y-114060935D01*
X92673354Y-114060935D01*
X92692274Y-114204644D01*
X92747743Y-114338560D01*
X92835983Y-114453556D01*
X92950979Y-114541796D01*
X93084895Y-114597265D01*
X93228604Y-114616185D01*
X93372313Y-114597265D01*
X93506229Y-114541796D01*
X93621225Y-114453556D01*
X93709465Y-114338560D01*
X93764934Y-114204644D01*
X93781613Y-114077953D01*
X98182207Y-114077953D01*
X98198694Y-114363878D01*
X98199519Y-114368083D01*
X98199520Y-114368091D01*
X98231353Y-114530342D01*
X98253832Y-114644920D01*
X98255219Y-114648970D01*
X98255220Y-114648975D01*
X98345213Y-114911822D01*
X98346602Y-114915878D01*
X98475287Y-115171740D01*
X98477713Y-115175269D01*
X98477716Y-115175275D01*
X98605032Y-115360520D01*
X98637506Y-115407770D01*
X98640393Y-115410943D01*
X98640394Y-115410944D01*
X98716875Y-115494996D01*
X98830256Y-115619600D01*
X99049972Y-115803311D01*
X99292588Y-115955503D01*
X99296490Y-115957265D01*
X99296494Y-115957267D01*
X99549702Y-116071595D01*
X99549706Y-116071597D01*
X99553614Y-116073361D01*
X99622605Y-116093797D01*
X99824106Y-116153485D01*
X99824111Y-116153486D01*
X99828219Y-116154703D01*
X99832453Y-116155351D01*
X99832458Y-116155352D01*
X100071447Y-116191922D01*
X100111324Y-116198024D01*
X100257089Y-116200314D01*
X100393398Y-116202456D01*
X100393404Y-116202456D01*
X100397689Y-116202523D01*
X100401941Y-116202008D01*
X100401949Y-116202008D01*
X100621721Y-116175411D01*
X100682014Y-116168115D01*
X100686162Y-116167027D01*
X100686166Y-116167026D01*
X100954888Y-116096528D01*
X100959039Y-116095439D01*
X100963000Y-116093799D01*
X100963004Y-116093797D01*
X101123414Y-116027353D01*
X101223638Y-115985839D01*
X101261133Y-115963929D01*
X101423831Y-115868856D01*
X136884101Y-115868856D01*
X136890559Y-115878216D01*
X136906861Y-115892512D01*
X136913401Y-115897530D01*
X137152644Y-116057387D01*
X137159781Y-116061508D01*
X137417849Y-116188772D01*
X137425453Y-116191922D01*
X137697920Y-116284412D01*
X137705883Y-116286546D01*
X137988100Y-116342683D01*
X137996251Y-116343756D01*
X138283381Y-116362575D01*
X138291619Y-116362575D01*
X138578749Y-116343756D01*
X138586900Y-116342683D01*
X138869117Y-116286546D01*
X138877080Y-116284412D01*
X139149547Y-116191922D01*
X139157151Y-116188772D01*
X139415219Y-116061508D01*
X139422356Y-116057387D01*
X139661599Y-115897530D01*
X139668139Y-115892512D01*
X139682574Y-115879853D01*
X139690972Y-115866614D01*
X139685138Y-115856849D01*
X138300310Y-114472020D01*
X138286369Y-114464408D01*
X138284534Y-114464539D01*
X138277920Y-114468790D01*
X136891616Y-115855095D01*
X136884101Y-115868856D01*
X101423831Y-115868856D01*
X101467217Y-115843503D01*
X101467218Y-115843503D01*
X101470915Y-115841342D01*
X101548829Y-115780250D01*
X101692921Y-115667267D01*
X101696293Y-115664623D01*
X101742991Y-115616435D01*
X101874586Y-115480639D01*
X101895602Y-115458952D01*
X101898135Y-115455504D01*
X101898139Y-115455499D01*
X102062617Y-115231589D01*
X102065155Y-115228134D01*
X102093855Y-115175275D01*
X102199763Y-114980217D01*
X102199764Y-114980215D01*
X102201813Y-114976441D01*
X102303048Y-114708530D01*
X102331755Y-114583188D01*
X102366030Y-114433538D01*
X102366031Y-114433533D01*
X102366987Y-114429358D01*
X102390848Y-114162000D01*
X102392226Y-114146558D01*
X102392226Y-114146556D01*
X102392446Y-114144092D01*
X102392865Y-114104119D01*
X136024925Y-114104119D01*
X136043744Y-114391249D01*
X136044817Y-114399400D01*
X136100954Y-114681617D01*
X136103088Y-114689580D01*
X136195578Y-114962047D01*
X136198728Y-114969651D01*
X136325992Y-115227718D01*
X136330113Y-115234855D01*
X136489970Y-115474099D01*
X136494988Y-115480639D01*
X136507647Y-115495074D01*
X136520886Y-115503472D01*
X136530651Y-115497638D01*
X137915480Y-114112810D01*
X137921857Y-114101131D01*
X138651908Y-114101131D01*
X138652039Y-114102966D01*
X138656290Y-114109580D01*
X140042595Y-115495884D01*
X140056356Y-115503399D01*
X140065716Y-115496941D01*
X140080012Y-115480639D01*
X140085030Y-115474099D01*
X140244887Y-115234855D01*
X140249008Y-115227718D01*
X140376272Y-114969651D01*
X140379422Y-114962047D01*
X140471912Y-114689580D01*
X140474046Y-114681617D01*
X140530183Y-114399400D01*
X140531256Y-114391249D01*
X140550075Y-114104119D01*
X140550075Y-114095881D01*
X140531256Y-113808751D01*
X140530183Y-113800600D01*
X140474046Y-113518383D01*
X140471912Y-113510420D01*
X140379422Y-113237953D01*
X140376272Y-113230349D01*
X140249008Y-112972282D01*
X140244887Y-112965145D01*
X140085030Y-112725901D01*
X140080012Y-112719361D01*
X140067353Y-112704926D01*
X140054114Y-112696528D01*
X140044349Y-112702362D01*
X138659520Y-114087190D01*
X138651908Y-114101131D01*
X137921857Y-114101131D01*
X137923092Y-114098869D01*
X137922961Y-114097034D01*
X137918710Y-114090420D01*
X136532405Y-112704116D01*
X136518644Y-112696601D01*
X136509284Y-112703059D01*
X136494988Y-112719361D01*
X136489970Y-112725901D01*
X136330113Y-112965145D01*
X136325992Y-112972282D01*
X136198728Y-113230349D01*
X136195578Y-113237953D01*
X136103088Y-113510420D01*
X136100954Y-113518383D01*
X136044817Y-113800600D01*
X136043744Y-113808751D01*
X136024925Y-114095881D01*
X136024925Y-114104119D01*
X102392865Y-114104119D01*
X102392908Y-114100000D01*
X102381006Y-113925415D01*
X102373720Y-113818540D01*
X102373719Y-113818534D01*
X102373428Y-113814263D01*
X102315350Y-113533814D01*
X102219748Y-113263842D01*
X102164285Y-113156385D01*
X102090356Y-113013149D01*
X102090356Y-113013148D01*
X102088391Y-113009342D01*
X102085928Y-113005837D01*
X101926173Y-112778529D01*
X101926168Y-112778523D01*
X101923709Y-112775024D01*
X101797754Y-112639480D01*
X101731672Y-112568367D01*
X101731669Y-112568364D01*
X101728751Y-112565224D01*
X101725435Y-112562510D01*
X101725432Y-112562507D01*
X101568034Y-112433678D01*
X101507123Y-112383823D01*
X101424817Y-112333386D01*
X136884028Y-112333386D01*
X136889862Y-112343151D01*
X138274690Y-113727980D01*
X138288631Y-113735592D01*
X138290466Y-113735461D01*
X138297080Y-113731210D01*
X139683384Y-112344905D01*
X139690899Y-112331144D01*
X139684441Y-112321784D01*
X139668139Y-112307488D01*
X139661599Y-112302470D01*
X139422356Y-112142613D01*
X139415219Y-112138492D01*
X139157151Y-112011228D01*
X139149547Y-112008078D01*
X138877080Y-111915588D01*
X138869117Y-111913454D01*
X138586900Y-111857317D01*
X138578749Y-111856244D01*
X138291619Y-111837425D01*
X138283381Y-111837425D01*
X137996251Y-111856244D01*
X137988100Y-111857317D01*
X137705883Y-111913454D01*
X137697920Y-111915588D01*
X137425453Y-112008078D01*
X137417849Y-112011228D01*
X137159782Y-112138492D01*
X137152645Y-112142613D01*
X136913401Y-112302470D01*
X136906861Y-112307488D01*
X136892426Y-112320147D01*
X136884028Y-112333386D01*
X101424817Y-112333386D01*
X101268495Y-112237592D01*
X101266589Y-112236424D01*
X101266588Y-112236424D01*
X101262927Y-112234180D01*
X101258991Y-112232452D01*
X101004610Y-112120786D01*
X101004606Y-112120785D01*
X101000682Y-112119062D01*
X100725239Y-112040600D01*
X100496727Y-112008078D01*
X100445948Y-112000851D01*
X100445946Y-112000851D01*
X100441696Y-112000246D01*
X100289833Y-111999451D01*
X100159586Y-111998769D01*
X100159580Y-111998769D01*
X100155300Y-111998747D01*
X100151056Y-111999306D01*
X100151052Y-111999306D01*
X100039592Y-112013980D01*
X99871351Y-112036129D01*
X99867211Y-112037262D01*
X99867209Y-112037262D01*
X99850709Y-112041776D01*
X99595102Y-112111702D01*
X99591154Y-112113386D01*
X99335617Y-112222382D01*
X99335613Y-112222384D01*
X99331665Y-112224068D01*
X99085915Y-112371146D01*
X99082564Y-112373830D01*
X99082562Y-112373832D01*
X98996699Y-112442621D01*
X98862400Y-112550215D01*
X98665255Y-112757962D01*
X98498129Y-112990543D01*
X98364114Y-113243653D01*
X98265690Y-113512610D01*
X98204678Y-113792436D01*
X98182207Y-114077953D01*
X93781613Y-114077953D01*
X93783854Y-114060935D01*
X93764934Y-113917226D01*
X93709465Y-113783310D01*
X93621225Y-113668314D01*
X93506229Y-113580074D01*
X93372313Y-113524605D01*
X93228604Y-113505685D01*
X93084895Y-113524605D01*
X92950979Y-113580074D01*
X92835983Y-113668314D01*
X92747743Y-113783310D01*
X92692274Y-113917226D01*
X92673354Y-114060935D01*
X88193840Y-114060935D01*
X88211330Y-114018709D01*
X88230250Y-113875000D01*
X88211330Y-113731291D01*
X88155861Y-113597375D01*
X88067621Y-113482379D01*
X88061071Y-113477353D01*
X88057286Y-113473568D01*
X88023260Y-113411256D01*
X88028325Y-113340441D01*
X88070872Y-113283605D01*
X88098161Y-113268065D01*
X88127625Y-113255861D01*
X88242621Y-113167621D01*
X88330861Y-113052625D01*
X88386330Y-112918709D01*
X88405250Y-112775000D01*
X88386330Y-112631291D01*
X88330861Y-112497375D01*
X88242621Y-112382379D01*
X88127625Y-112294139D01*
X87993709Y-112238670D01*
X87850000Y-112219750D01*
X87706291Y-112238670D01*
X87572375Y-112294139D01*
X87457379Y-112382379D01*
X87369139Y-112497375D01*
X87313670Y-112631291D01*
X87294750Y-112775000D01*
X87313670Y-112918709D01*
X87369139Y-113052625D01*
X87457379Y-113167621D01*
X87463929Y-113172647D01*
X87467714Y-113176432D01*
X87501740Y-113238744D01*
X87496675Y-113309559D01*
X87454128Y-113366395D01*
X87426839Y-113381935D01*
X87397375Y-113394139D01*
X87282379Y-113482379D01*
X87194139Y-113597375D01*
X87138670Y-113731291D01*
X87119750Y-113875000D01*
X87138670Y-114018709D01*
X87194139Y-114152625D01*
X87199165Y-114159175D01*
X87200796Y-114162000D01*
X87217534Y-114230996D01*
X87200796Y-114288000D01*
X87199165Y-114290825D01*
X87194139Y-114297375D01*
X87138670Y-114431291D01*
X87119750Y-114575000D01*
X81000000Y-114575000D01*
X81000000Y-112050000D01*
X82069750Y-112050000D01*
X82088670Y-112193709D01*
X82144139Y-112327625D01*
X82232379Y-112442621D01*
X82259195Y-112463198D01*
X82301062Y-112520533D01*
X82305285Y-112591404D01*
X82282453Y-112639863D01*
X82219139Y-112722375D01*
X82163670Y-112856291D01*
X82144750Y-113000000D01*
X82163670Y-113143709D01*
X82219139Y-113277625D01*
X82307379Y-113392621D01*
X82422375Y-113480861D01*
X82556291Y-113536330D01*
X82700000Y-113555250D01*
X82843709Y-113536330D01*
X82977625Y-113480861D01*
X83092621Y-113392621D01*
X83180861Y-113277625D01*
X83236330Y-113143709D01*
X83255250Y-113000000D01*
X83236330Y-112856291D01*
X83180861Y-112722375D01*
X83092621Y-112607379D01*
X83065805Y-112586802D01*
X83023938Y-112529467D01*
X83019715Y-112458596D01*
X83042547Y-112410137D01*
X83056371Y-112392121D01*
X83105861Y-112327625D01*
X83161330Y-112193709D01*
X83180250Y-112050000D01*
X83173601Y-111999500D01*
X90219750Y-111999500D01*
X90238670Y-112143209D01*
X90294139Y-112277125D01*
X90382379Y-112392121D01*
X90497375Y-112480361D01*
X90631291Y-112535830D01*
X90775000Y-112554750D01*
X90918709Y-112535830D01*
X91052625Y-112480361D01*
X91167621Y-112392121D01*
X91255861Y-112277125D01*
X91311330Y-112143209D01*
X91326893Y-112025000D01*
X91619750Y-112025000D01*
X91638670Y-112168709D01*
X91694139Y-112302625D01*
X91782379Y-112417621D01*
X91897375Y-112505861D01*
X91932797Y-112520533D01*
X91993206Y-112545555D01*
X92048487Y-112590103D01*
X92069910Y-112645517D01*
X92085894Y-112766925D01*
X92141363Y-112900841D01*
X92229603Y-113015837D01*
X92344599Y-113104077D01*
X92478515Y-113159546D01*
X92622224Y-113178466D01*
X92765933Y-113159546D01*
X92899849Y-113104077D01*
X93014845Y-113015837D01*
X93103085Y-112900841D01*
X93118146Y-112864480D01*
X93119541Y-112861113D01*
X93164090Y-112805832D01*
X93231453Y-112783411D01*
X93300244Y-112800969D01*
X93348623Y-112852932D01*
X93352359Y-112861113D01*
X93369139Y-112901625D01*
X93457379Y-113016621D01*
X93572375Y-113104861D01*
X93706291Y-113160330D01*
X93850000Y-113179250D01*
X93993709Y-113160330D01*
X94127625Y-113104861D01*
X94242621Y-113016621D01*
X94330861Y-112901625D01*
X94386330Y-112767709D01*
X94405250Y-112624000D01*
X94386330Y-112480291D01*
X94330861Y-112346375D01*
X94242621Y-112231379D01*
X94127625Y-112143139D01*
X93993709Y-112087670D01*
X93850000Y-112068750D01*
X93706291Y-112087670D01*
X93572375Y-112143139D01*
X93457379Y-112231379D01*
X93369139Y-112346375D01*
X93365979Y-112354005D01*
X93352683Y-112386103D01*
X93308134Y-112441384D01*
X93240771Y-112463805D01*
X93171980Y-112446247D01*
X93123601Y-112394284D01*
X93119865Y-112386102D01*
X93106246Y-112353223D01*
X93103085Y-112345591D01*
X93014845Y-112230595D01*
X92899849Y-112142355D01*
X92804018Y-112102661D01*
X92748737Y-112058113D01*
X92727314Y-112002699D01*
X92712408Y-111889480D01*
X92711330Y-111881291D01*
X92655861Y-111747375D01*
X92567621Y-111632379D01*
X92452625Y-111544139D01*
X92318709Y-111488670D01*
X92175000Y-111469750D01*
X92031291Y-111488670D01*
X91897375Y-111544139D01*
X91782379Y-111632379D01*
X91694139Y-111747375D01*
X91638670Y-111881291D01*
X91619750Y-112025000D01*
X91326893Y-112025000D01*
X91330250Y-111999500D01*
X91311330Y-111855791D01*
X91255861Y-111721875D01*
X91167621Y-111606879D01*
X91052625Y-111518639D01*
X90918709Y-111463170D01*
X90775000Y-111444250D01*
X90631291Y-111463170D01*
X90497375Y-111518639D01*
X90382379Y-111606879D01*
X90294139Y-111721875D01*
X90238670Y-111855791D01*
X90219750Y-111999500D01*
X83173601Y-111999500D01*
X83161330Y-111906291D01*
X83105861Y-111772375D01*
X83017621Y-111657379D01*
X82902625Y-111569139D01*
X82768709Y-111513670D01*
X82625000Y-111494750D01*
X82481291Y-111513670D01*
X82347375Y-111569139D01*
X82232379Y-111657379D01*
X82144139Y-111772375D01*
X82088670Y-111906291D01*
X82069750Y-112050000D01*
X81000000Y-112050000D01*
X81000000Y-110475000D01*
X87945739Y-110475000D01*
X87964659Y-110618709D01*
X88020128Y-110752625D01*
X88108368Y-110867621D01*
X88223364Y-110955861D01*
X88357280Y-111011330D01*
X88500989Y-111030250D01*
X88644698Y-111011330D01*
X88778614Y-110955861D01*
X88893610Y-110867621D01*
X88981850Y-110752625D01*
X89003855Y-110699500D01*
X92694750Y-110699500D01*
X92713670Y-110843209D01*
X92769139Y-110977125D01*
X92857379Y-111092121D01*
X92972375Y-111180361D01*
X93106291Y-111235830D01*
X93250000Y-111254750D01*
X93393709Y-111235830D01*
X93527625Y-111180361D01*
X93642621Y-111092121D01*
X93674942Y-111050000D01*
X95519750Y-111050000D01*
X95538670Y-111193709D01*
X95594139Y-111327625D01*
X95682379Y-111442621D01*
X95797375Y-111530861D01*
X95809770Y-111535995D01*
X95865052Y-111580541D01*
X95887475Y-111647904D01*
X95869919Y-111716696D01*
X95844309Y-111745551D01*
X95844770Y-111746012D01*
X95838929Y-111751853D01*
X95832379Y-111756879D01*
X95744139Y-111871875D01*
X95688670Y-112005791D01*
X95669750Y-112149500D01*
X95688670Y-112293209D01*
X95744139Y-112427125D01*
X95832379Y-112542121D01*
X95947375Y-112630361D01*
X96081291Y-112685830D01*
X96225000Y-112704750D01*
X96368709Y-112685830D01*
X96502625Y-112630361D01*
X96617621Y-112542121D01*
X96705861Y-112427125D01*
X96761330Y-112293209D01*
X96780250Y-112149500D01*
X96761330Y-112005791D01*
X96705861Y-111871875D01*
X96617621Y-111756879D01*
X96502625Y-111668639D01*
X96490230Y-111663505D01*
X96434948Y-111618959D01*
X96412525Y-111551596D01*
X96430081Y-111482804D01*
X96455691Y-111453949D01*
X96455230Y-111453488D01*
X96461071Y-111447647D01*
X96467621Y-111442621D01*
X96555861Y-111327625D01*
X96611330Y-111193709D01*
X96630250Y-111050000D01*
X96611330Y-110906291D01*
X96555861Y-110772375D01*
X96467621Y-110657379D01*
X96352625Y-110569139D01*
X96218709Y-110513670D01*
X96075000Y-110494750D01*
X95931291Y-110513670D01*
X95797375Y-110569139D01*
X95682379Y-110657379D01*
X95594139Y-110772375D01*
X95538670Y-110906291D01*
X95519750Y-111050000D01*
X93674942Y-111050000D01*
X93730861Y-110977125D01*
X93786330Y-110843209D01*
X93805250Y-110699500D01*
X93786330Y-110555791D01*
X93730861Y-110421875D01*
X93642621Y-110306879D01*
X93527625Y-110218639D01*
X93393709Y-110163170D01*
X93250000Y-110144250D01*
X93106291Y-110163170D01*
X92972375Y-110218639D01*
X92857379Y-110306879D01*
X92769139Y-110421875D01*
X92713670Y-110555791D01*
X92694750Y-110699500D01*
X89003855Y-110699500D01*
X89037319Y-110618709D01*
X89056239Y-110475000D01*
X89037319Y-110331291D01*
X88981850Y-110197375D01*
X88893610Y-110082379D01*
X88887003Y-110077309D01*
X98367441Y-110077309D01*
X98386361Y-110221018D01*
X98441830Y-110354934D01*
X98530070Y-110469930D01*
X98645066Y-110558170D01*
X98778982Y-110613639D01*
X98922691Y-110632559D01*
X99066400Y-110613639D01*
X99200316Y-110558170D01*
X99315312Y-110469930D01*
X99403552Y-110354934D01*
X99459021Y-110221018D01*
X99477941Y-110077309D01*
X99459021Y-109933600D01*
X99403552Y-109799684D01*
X99315312Y-109684688D01*
X99200316Y-109596448D01*
X99066400Y-109540979D01*
X98922691Y-109522059D01*
X98778982Y-109540979D01*
X98645066Y-109596448D01*
X98530070Y-109684688D01*
X98441830Y-109799684D01*
X98386361Y-109933600D01*
X98367441Y-110077309D01*
X88887003Y-110077309D01*
X88778614Y-109994139D01*
X88644698Y-109938670D01*
X88500989Y-109919750D01*
X88357280Y-109938670D01*
X88223364Y-109994139D01*
X88108368Y-110082379D01*
X88020128Y-110197375D01*
X87964659Y-110331291D01*
X87945739Y-110475000D01*
X81000000Y-110475000D01*
X81000000Y-109250000D01*
X88894750Y-109250000D01*
X88913670Y-109393709D01*
X88969139Y-109527625D01*
X89057379Y-109642621D01*
X89172375Y-109730861D01*
X89306291Y-109786330D01*
X89450000Y-109805250D01*
X89593709Y-109786330D01*
X89727625Y-109730861D01*
X89842621Y-109642621D01*
X89930861Y-109527625D01*
X89986330Y-109393709D01*
X90002182Y-109273301D01*
X92918051Y-109273301D01*
X92936971Y-109417010D01*
X92992440Y-109550926D01*
X93080680Y-109665922D01*
X93195676Y-109754162D01*
X93329592Y-109809631D01*
X93473301Y-109828551D01*
X93617010Y-109809631D01*
X93750926Y-109754162D01*
X93865922Y-109665922D01*
X93954162Y-109550926D01*
X94009631Y-109417010D01*
X94019513Y-109341953D01*
X95861703Y-109341953D01*
X95880623Y-109485662D01*
X95936092Y-109619578D01*
X96024332Y-109734574D01*
X96139328Y-109822814D01*
X96273244Y-109878283D01*
X96416953Y-109897203D01*
X96560662Y-109878283D01*
X96694578Y-109822814D01*
X96809574Y-109734574D01*
X96897814Y-109619578D01*
X96953283Y-109485662D01*
X96972203Y-109341953D01*
X96953283Y-109198244D01*
X96897814Y-109064328D01*
X96809574Y-108949332D01*
X96694578Y-108861092D01*
X96560662Y-108805623D01*
X96416953Y-108786703D01*
X96273244Y-108805623D01*
X96139328Y-108861092D01*
X96024332Y-108949332D01*
X95936092Y-109064328D01*
X95880623Y-109198244D01*
X95861703Y-109341953D01*
X94019513Y-109341953D01*
X94028551Y-109273301D01*
X94009631Y-109129592D01*
X93954162Y-108995676D01*
X93865922Y-108880680D01*
X93764491Y-108802849D01*
X93722624Y-108745511D01*
X93718402Y-108674640D01*
X93753166Y-108612738D01*
X93815879Y-108579456D01*
X93857640Y-108577965D01*
X93866809Y-108579172D01*
X93866812Y-108579172D01*
X93875000Y-108580250D01*
X94018709Y-108561330D01*
X94152625Y-108505861D01*
X94267621Y-108417621D01*
X94355861Y-108302625D01*
X94411330Y-108168709D01*
X94420376Y-108100000D01*
X100769750Y-108100000D01*
X100788670Y-108243709D01*
X100844139Y-108377625D01*
X100932379Y-108492621D01*
X101047375Y-108580861D01*
X101181291Y-108636330D01*
X101325000Y-108655250D01*
X101468709Y-108636330D01*
X101602625Y-108580861D01*
X101717621Y-108492621D01*
X101805861Y-108377625D01*
X101861330Y-108243709D01*
X101880250Y-108100000D01*
X101861330Y-107956291D01*
X101805861Y-107822375D01*
X101717621Y-107707379D01*
X101602625Y-107619139D01*
X101468709Y-107563670D01*
X101325000Y-107544750D01*
X101181291Y-107563670D01*
X101047375Y-107619139D01*
X100932379Y-107707379D01*
X100844139Y-107822375D01*
X100788670Y-107956291D01*
X100769750Y-108100000D01*
X94420376Y-108100000D01*
X94430250Y-108025000D01*
X94411330Y-107881291D01*
X94355861Y-107747375D01*
X94267621Y-107632379D01*
X94152625Y-107544139D01*
X94018709Y-107488670D01*
X93875000Y-107469750D01*
X93731291Y-107488670D01*
X93597375Y-107544139D01*
X93482379Y-107632379D01*
X93394139Y-107747375D01*
X93338670Y-107881291D01*
X93319750Y-108025000D01*
X93338670Y-108168709D01*
X93394139Y-108302625D01*
X93482379Y-108417621D01*
X93580121Y-108492621D01*
X93583810Y-108495452D01*
X93625677Y-108552790D01*
X93629899Y-108623661D01*
X93595135Y-108685563D01*
X93532422Y-108718845D01*
X93490661Y-108720336D01*
X93481492Y-108719129D01*
X93481489Y-108719129D01*
X93473301Y-108718051D01*
X93329592Y-108736971D01*
X93195676Y-108792440D01*
X93080680Y-108880680D01*
X92992440Y-108995676D01*
X92936971Y-109129592D01*
X92918051Y-109273301D01*
X90002182Y-109273301D01*
X90005250Y-109250000D01*
X89986330Y-109106291D01*
X89930861Y-108972375D01*
X89925836Y-108965826D01*
X89925834Y-108965823D01*
X89914032Y-108950443D01*
X89888431Y-108884222D01*
X89902695Y-108814674D01*
X89914027Y-108797041D01*
X89949298Y-108751075D01*
X90004767Y-108617159D01*
X90023687Y-108473450D01*
X90004767Y-108329741D01*
X89949298Y-108195825D01*
X89861058Y-108080829D01*
X89746062Y-107992589D01*
X89612146Y-107937120D01*
X89468437Y-107918200D01*
X89324728Y-107937120D01*
X89190812Y-107992589D01*
X89075816Y-108080829D01*
X88987576Y-108195825D01*
X88932107Y-108329741D01*
X88913187Y-108473450D01*
X88932107Y-108617159D01*
X88987576Y-108751075D01*
X88992601Y-108757624D01*
X88992603Y-108757627D01*
X89004405Y-108773007D01*
X89030006Y-108839228D01*
X89015742Y-108908776D01*
X89004410Y-108926409D01*
X88969139Y-108972375D01*
X88913670Y-109106291D01*
X88894750Y-109250000D01*
X81000000Y-109250000D01*
X81000000Y-107950000D01*
X85744750Y-107950000D01*
X85763670Y-108093709D01*
X85819139Y-108227625D01*
X85907379Y-108342621D01*
X86022375Y-108430861D01*
X86156291Y-108486330D01*
X86300000Y-108505250D01*
X86443709Y-108486330D01*
X86577625Y-108430861D01*
X86692621Y-108342621D01*
X86780861Y-108227625D01*
X86836330Y-108093709D01*
X86855250Y-107950000D01*
X86836330Y-107806291D01*
X86780861Y-107672375D01*
X86692621Y-107557379D01*
X86577625Y-107469139D01*
X86443709Y-107413670D01*
X86300000Y-107394750D01*
X86156291Y-107413670D01*
X86022375Y-107469139D01*
X85907379Y-107557379D01*
X85819139Y-107672375D01*
X85763670Y-107806291D01*
X85744750Y-107950000D01*
X81000000Y-107950000D01*
X81000000Y-105942095D01*
X136432528Y-105942095D01*
X136458034Y-106209431D01*
X136521864Y-106470285D01*
X136622682Y-106719192D01*
X136758375Y-106950938D01*
X136761228Y-106954505D01*
X136872725Y-107093925D01*
X136926101Y-107160669D01*
X137122346Y-107343991D01*
X137214539Y-107407948D01*
X137339246Y-107494461D01*
X137339251Y-107494464D01*
X137342999Y-107497064D01*
X137347084Y-107499096D01*
X137347087Y-107499098D01*
X137431272Y-107540979D01*
X137583438Y-107616680D01*
X137587772Y-107618101D01*
X137587775Y-107618102D01*
X137834293Y-107698915D01*
X137834298Y-107698916D01*
X137838626Y-107700335D01*
X137843117Y-107701115D01*
X137843118Y-107701115D01*
X138099436Y-107745620D01*
X138099444Y-107745621D01*
X138103217Y-107746276D01*
X138107054Y-107746467D01*
X138186496Y-107750422D01*
X138186504Y-107750422D01*
X138188067Y-107750500D01*
X138355723Y-107750500D01*
X138357991Y-107750335D01*
X138358003Y-107750335D01*
X138489108Y-107740822D01*
X138555346Y-107736016D01*
X138559801Y-107735032D01*
X138559804Y-107735032D01*
X138813120Y-107679105D01*
X138813124Y-107679104D01*
X138817580Y-107678120D01*
X138979748Y-107616680D01*
X139064441Y-107584593D01*
X139064444Y-107584592D01*
X139068711Y-107582975D01*
X139303476Y-107452574D01*
X139445754Y-107343991D01*
X139513333Y-107292417D01*
X139513337Y-107292413D01*
X139516958Y-107289650D01*
X139704685Y-107097614D01*
X139862725Y-106880491D01*
X139949813Y-106714963D01*
X139985640Y-106646868D01*
X139985643Y-106646862D01*
X139987765Y-106642828D01*
X140047203Y-106474515D01*
X140075665Y-106393916D01*
X140075665Y-106393915D01*
X140077188Y-106389603D01*
X140129120Y-106126122D01*
X140129347Y-106121566D01*
X140142245Y-105862474D01*
X140142245Y-105862468D01*
X140142472Y-105857905D01*
X140116966Y-105590569D01*
X140053136Y-105329715D01*
X139985370Y-105162408D01*
X139954031Y-105085037D01*
X139954031Y-105085036D01*
X139952318Y-105080808D01*
X139816625Y-104849062D01*
X139705711Y-104710371D01*
X139651751Y-104642897D01*
X139651750Y-104642895D01*
X139648899Y-104639331D01*
X139452654Y-104456009D01*
X139360461Y-104392052D01*
X139235754Y-104305539D01*
X139235749Y-104305536D01*
X139232001Y-104302936D01*
X139227916Y-104300904D01*
X139227913Y-104300902D01*
X139056060Y-104215407D01*
X138991562Y-104183320D01*
X138987228Y-104181899D01*
X138987225Y-104181898D01*
X138740707Y-104101085D01*
X138740702Y-104101084D01*
X138736374Y-104099665D01*
X138731882Y-104098885D01*
X138475564Y-104054380D01*
X138475556Y-104054379D01*
X138471783Y-104053724D01*
X138463122Y-104053293D01*
X138388504Y-104049578D01*
X138388496Y-104049578D01*
X138386933Y-104049500D01*
X138219277Y-104049500D01*
X138217009Y-104049665D01*
X138216997Y-104049665D01*
X138086677Y-104059121D01*
X138019654Y-104063984D01*
X138015199Y-104064968D01*
X138015196Y-104064968D01*
X137761880Y-104120895D01*
X137761876Y-104120896D01*
X137757420Y-104121880D01*
X137685395Y-104149168D01*
X137510559Y-104215407D01*
X137510556Y-104215408D01*
X137506289Y-104217025D01*
X137271524Y-104347426D01*
X137219634Y-104387027D01*
X137061667Y-104507583D01*
X137061663Y-104507587D01*
X137058042Y-104510350D01*
X136870315Y-104702386D01*
X136867630Y-104706075D01*
X136719795Y-104909178D01*
X136712275Y-104919509D01*
X136710151Y-104923547D01*
X136589360Y-105153132D01*
X136589357Y-105153138D01*
X136587235Y-105157172D01*
X136585715Y-105161477D01*
X136585713Y-105161481D01*
X136526304Y-105329715D01*
X136497812Y-105410397D01*
X136445880Y-105673878D01*
X136445653Y-105678431D01*
X136445653Y-105678434D01*
X136436492Y-105862474D01*
X136432528Y-105942095D01*
X81000000Y-105942095D01*
X81000000Y-104625000D01*
X90119750Y-104625000D01*
X90138670Y-104768709D01*
X90194139Y-104902625D01*
X90282379Y-105017621D01*
X90397375Y-105105861D01*
X90531291Y-105161330D01*
X90675000Y-105180250D01*
X90818709Y-105161330D01*
X90952625Y-105105861D01*
X91067621Y-105017621D01*
X91155861Y-104902625D01*
X91211330Y-104768709D01*
X91230250Y-104625000D01*
X91211330Y-104481291D01*
X91155861Y-104347375D01*
X91067621Y-104232379D01*
X90952625Y-104144139D01*
X90818709Y-104088670D01*
X90675000Y-104069750D01*
X90531291Y-104088670D01*
X90397375Y-104144139D01*
X90282379Y-104232379D01*
X90194139Y-104347375D01*
X90138670Y-104481291D01*
X90119750Y-104625000D01*
X81000000Y-104625000D01*
X81000000Y-103326500D01*
X81020002Y-103258379D01*
X81073658Y-103211886D01*
X81126000Y-103200500D01*
X140874002Y-103200500D01*
X140942121Y-103220502D01*
G37*
%TD.AperFunction*%
M02*
